<svg width="50" height="50" viewBox="0 0 50 50" fill="none" xmlns="http://www.w3.org/2000/svg">
<rect width="50" height="50" fill="white"/>
<path d="M43.75 6.25H6.25V43.75H43.75V6.25Z" fill="#00008F"/>
<path d="M29.7869 25.5357L43.7499 6.25H41.6876L27.6785 25.5357H29.7869Z" fill="#FF1721"/>
<path d="M34.7951 33.5782C35.4463 35.4045 36.788 40.1571 37.3214 40.5357H33.7989C33.7883 40.1156 33.7329 39.6978 33.6336 39.2894C33.4817 38.7462 32.2076 34.6368 32.2076 34.6368H26.6123L25.7326 35.8871C25.7326 35.8871 26.7892 39.2029 26.8549 39.3655C26.9688 39.6584 27.4733 40.5357 27.4733 40.5357H24.0975C24.0975 40.5357 24.01 40.0293 23.9772 39.8184C23.9508 39.6481 23.6574 38.7153 23.6574 38.7153C23.6574 38.7153 22.8923 39.5558 22.6838 39.9455C22.4733 40.3345 22.38 40.5357 22.38 40.5357H19.7391C19.7391 40.5357 19.6509 40.0293 19.6181 39.8184C19.5924 39.6481 19.2693 38.6404 19.2693 38.6404C19.2693 38.6404 18.53 39.5404 18.3195 39.9293C18.1103 40.319 18.0203 40.5357 18.0203 40.5357H15.4083C15.4083 40.5357 16.1464 39.8313 16.4045 39.5287C16.8394 39.0159 18.4604 36.8922 18.4604 36.8922L17.8105 34.6368H12.2577C12.2577 34.6368 9.0917 38.8075 8.9669 38.9365C8.84078 39.0636 7.91799 40.3913 7.89736 40.5357H6.25V39.4855C6.27043 39.4632 6.29213 39.4421 6.31497 39.4223C6.36584 39.3849 8.71525 36.4612 10.8736 33.5782C12.8131 31.0642 14.6329 28.6192 14.7925 28.3864C15.1792 27.8232 15.7365 26.6072 15.7365 26.6072H18.6071C18.6071 26.6072 18.696 27.7258 18.7796 27.9973C18.8542 28.2373 20.6033 33.9904 20.6445 34.0524L21.6117 32.8125L19.9585 27.7109C19.9585 27.7109 19.5711 26.751 19.445 26.6072H22.7983C22.7864 26.9157 22.8234 27.2242 22.9077 27.5212C23.0441 27.9419 23.7629 30.5423 23.7629 30.5423C23.7629 30.5423 26.0499 27.6684 26.1837 27.4619C26.3462 27.2045 26.4432 26.911 26.4662 26.6072H29.2603C29.2603 26.6072 28.7488 26.9819 27.8523 28.1186C27.5512 28.5012 24.6007 32.2603 24.6007 32.2603C24.6007 32.2603 24.8581 33.1402 24.9836 33.5782C25.0177 33.704 25.0415 33.7892 25.0415 33.7982C25.0415 33.8021 25.1065 33.7221 25.2185 33.5782C25.9797 32.6112 29.4424 28.0593 29.6522 27.6696C29.8215 27.3548 30.0705 26.9968 30.2166 26.6072H32.9424C32.9424 26.6072 33.0055 27.4232 33.0885 27.649L34.7951 33.5782ZM30.647 29.2695C30.2468 30.1327 27.8909 33.0079 27.8909 33.0079H31.622C31.622 33.0079 30.8987 30.7752 30.7726 30.272C30.7081 29.9503 30.6835 29.6218 30.6992 29.294C30.6992 29.2482 30.6908 29.1741 30.647 29.2695ZM16.3118 29.2695C15.9115 30.1327 13.5557 33.0079 13.5557 33.0079H17.2867C17.2867 33.0079 16.5641 30.7752 16.4379 30.272C16.3735 29.9503 16.3488 29.6218 16.3645 29.294C16.3645 29.2482 16.3556 29.1741 16.3118 29.2695H16.3118ZM21.9289 37.9876L22.956 36.5735C22.8613 36.4716 22.2829 34.713 22.2829 34.713L21.2899 36.0045L21.9289 37.9876Z" fill="white"/>
</svg>
