<svg width="50" height="50" viewBox="0 0 50 50" fill="none" xmlns="http://www.w3.org/2000/svg">
<rect width="50" height="50" fill="white"/>
<path fill-rule="evenodd" clip-rule="evenodd" d="M15.3512 11.1165C15.3512 11.4809 16.4319 13.8686 19.8491 21.0545C21.8442 25.2503 21.9974 26.299 20.9572 28.6478C20.5709 29.5206 19.8862 31.1535 19.4357 32.2761C18.9855 33.3988 18.1549 35.3193 17.5901 36.5439C15.621 40.8151 15.8121 43.185 17.8072 39.2345C18.3483 38.1631 19.2464 36.6182 19.8031 35.8017C20.3597 34.9853 22.9805 30.7268 25.6269 26.3384C28.2737 21.95 31.3862 16.8305 32.5441 14.9619C33.7019 13.0934 34.649 11.3818 34.649 11.158C34.649 10.4299 34.0066 10.729 33.3308 11.7722C32.9671 12.3333 32.3971 13.0433 32.0642 13.3494C31.7317 13.6556 31.0578 14.4906 30.5672 15.205C30.0762 15.9194 29.5752 16.5874 29.4534 16.6895C29.3317 16.7915 28.8281 17.4595 28.3342 18.1739C27.2973 19.6739 24.7162 22.2561 24.2542 22.2561C23.702 22.2561 23.0336 21.3829 19.4731 16.0111C16.2942 11.2144 15.3512 10.0948 15.3512 11.1165Z" fill="#252443"/>
<path fill-rule="evenodd" clip-rule="evenodd" d="M25.2434 11.4306C24.457 12.2997 24.4117 15.3046 25.1754 15.9389C26.5608 17.0886 30.2571 12.7239 29.0896 11.317C28.4249 10.5162 26.0064 10.5874 25.2434 11.4306Z" fill="#A18C67"/>
</svg>
