<svg width="50" height="50" viewBox="0 0 50 50" fill="none" xmlns="http://www.w3.org/2000/svg">
<rect width="50" height="50" fill="white"/>
<path fill-rule="evenodd" clip-rule="evenodd" d="M19.0289 8.0654C19.0289 8.10138 19.1007 8.2016 19.1885 8.28818C19.2763 8.37469 19.4262 8.55346 19.5216 8.68542C19.617 8.81737 20.5017 9.71193 21.4876 10.6733C22.4735 11.6347 23.3586 12.5293 23.4545 12.6612C23.5505 12.7932 24.4356 13.6877 25.4215 14.6491C26.4073 15.6105 27.2925 16.5051 27.3884 16.637C27.4844 16.769 28.3695 17.6636 29.3554 18.625C30.3412 19.5863 31.2261 20.4809 31.3219 20.6129C31.5387 20.9119 34.1844 23.4919 34.2741 23.4919C34.3102 23.4919 35.1553 22.6969 36.1521 21.7252C37.1489 20.7535 38.0743 19.8824 38.2084 19.7893C38.522 19.5718 41.9298 16.2455 41.9298 16.1569C41.9298 16.1201 41.5423 15.7118 41.0688 15.2496C40.5953 14.7874 40.1292 14.3013 40.0331 14.1693C39.937 14.0373 38.6725 12.7726 37.2231 11.3588C35.7738 9.945 34.5106 8.68028 34.4161 8.54832C34.3216 8.41636 34.1637 8.23903 34.0653 8.15423L33.8864 8.00007L26.4576 8C21.7878 7.99993 19.0289 8.0242 19.0289 8.0654ZM14.9722 9.76677C14.2068 10.5122 13.4709 11.1983 13.3368 11.2913C13.2027 11.3843 11.9471 12.5796 10.5465 13.9475L8 16.4346V23.562C8 28.2503 8.02395 30.6895 8.06997 30.6895C8.10846 30.6895 9.19119 29.6637 10.476 28.41C11.7609 27.1562 12.9227 26.0536 13.0579 25.9598C13.1931 25.8659 14.4259 24.6937 15.7975 23.3548C17.1691 22.0159 18.402 20.8438 18.5372 20.7502C18.8476 20.5351 23.7355 15.7655 23.7355 15.6776C23.7355 15.6418 23.0472 14.9399 22.206 14.1178C21.3647 13.2957 20.5985 12.516 20.5032 12.3851C20.285 12.0851 16.519 8.41122 16.4297 8.41122C16.3934 8.41122 15.7375 9.02124 14.9722 9.76677ZM32.4993 27.7593C31.6008 28.6361 30.7551 29.4302 30.6198 29.524C30.3045 29.7427 26.1942 33.7539 26.1942 33.8429C26.1942 33.8797 26.5501 34.2572 26.985 34.6817C27.4199 35.1063 27.8544 35.5616 27.9505 35.6935C28.0466 35.8255 28.568 36.3676 29.1091 36.8983C29.6502 37.4289 30.2668 38.0586 30.4793 38.2976C30.6918 38.5365 31.1976 39.0613 31.6033 39.4637C32.009 39.8662 32.5148 40.3906 32.7273 40.6292C33.3234 41.2985 33.7043 41.6573 33.8189 41.6573C33.9359 41.6573 34.2464 41.3683 37.1709 38.538C38.3007 37.4445 39.3358 36.4733 39.4711 36.3799C39.7769 36.1685 42 33.9965 42 33.9091C42 33.8741 40.9957 32.8646 39.7682 31.6659C38.5406 30.4673 37.4582 29.3793 37.3628 29.2483C37.14 28.9424 34.2926 26.1653 34.2016 26.1653C34.1638 26.1653 33.3979 26.8827 32.4993 27.7593ZM15.6147 26.5602C15.5028 26.6643 15.3005 26.826 15.1653 26.9196C15.0301 27.0132 13.9237 28.0618 12.7066 29.25C11.4896 30.4381 10.3832 31.4866 10.2479 31.58C9.96989 31.7719 8.63223 33.0666 8.63223 33.1437C8.63223 33.2943 9.13106 33.8523 10.1719 34.8659C10.8134 35.4908 11.4169 36.11 11.5128 36.2419C11.6088 36.3739 12.2565 37.0393 12.9521 37.7208C13.6478 38.4022 14.3908 39.1547 14.6033 39.393C14.8158 39.6314 15.4835 40.3154 16.0871 40.9132L17.1845 42H24.2183C28.8322 42 31.2521 41.9766 31.2521 41.9319C31.2521 41.8944 30.6118 41.2389 29.8292 40.4752C29.0466 39.7115 28.3277 38.9787 28.2316 38.8468C28.1355 38.7148 27.2503 37.8203 26.2645 36.8589C25.2786 35.8975 24.3935 35.0029 24.2975 34.871C24.2016 34.739 23.3164 33.8444 22.3306 32.883C21.3447 31.9217 20.4596 31.0271 20.3636 30.8951C20.2677 30.7632 19.3509 29.8378 18.3264 28.8387C17.302 27.8396 16.3861 26.9142 16.2913 26.7822C16.1217 26.5464 15.9438 26.3774 15.8606 26.3731C15.8374 26.3719 15.7267 26.4561 15.6147 26.5602Z" fill="#D1005D"/>
</svg>
