<svg width="50" height="50" viewBox="0 0 50 50" fill="none" xmlns="http://www.w3.org/2000/svg">
<rect width="50" height="50" fill="white"/>
<path fill-rule="evenodd" clip-rule="evenodd" d="M6.25 43.75H43.75V6.25H6.25V43.75Z" fill="url(#paint0_radial)"/>
<path fill-rule="evenodd" clip-rule="evenodd" d="M29.3916 25.9347L11.3649 30.544C11.3337 30.5599 11.2945 30.616 11.3961 30.616L25.3572 30.1692C26.2077 30.1374 26.823 29.4438 27.1457 29.0129L29.4228 26.0152C29.4781 25.9665 29.4781 25.8955 29.3916 25.9347ZM41.516 22.3154L21.4092 22.6892C21.4967 23.5194 20.615 24.7223 18.7944 25.8553C17.8564 26.4377 15.7301 27.594 8.182 30.4879C8.07946 30.5197 8.13475 30.6393 8.19809 30.6234C21.2444 27.2742 29.9033 24.7784 41.516 22.5378C41.8779 22.4742 42.0991 22.3154 41.516 22.3154ZM14.6664 18.6305C16.5022 19.2849 19.5122 20.473 21.0946 21.9162L32.661 21.7966C32.9837 21.3815 33.1023 21.2142 33.4562 20.744C34.2916 19.611 34.3389 18.4558 32.5584 18.4399C31.6054 18.424 16.5565 18.4875 14.8001 18.5119C14.5317 18.495 14.3276 18.495 14.6664 18.6316" fill="white"/>
<defs>
<radialGradient id="paint0_radial" cx="0" cy="0" r="1" gradientUnits="userSpaceOnUse" gradientTransform="translate(10.1054 10.1237) scale(36.918)">
<stop stop-color="#006BB5"/>
<stop offset="1" stop-color="#1F3460"/>
</radialGradient>
</defs>
</svg>
