<svg width="50" height="50" viewBox="0 0 50 50" fill="none" xmlns="http://www.w3.org/2000/svg">
<rect width="50" height="50" fill="white"/>
<path fill-rule="evenodd" clip-rule="evenodd" d="M6.16235 43.8289H43.3979V6.98413H6.16235V43.8289Z" fill="#164193"/>
<path fill-rule="evenodd" clip-rule="evenodd" d="M31.7877 5.30737H44.6148V16.0948L34.6632 29.2239H21.6669V18.8316" fill="#009EE2"/>
<path fill-rule="evenodd" clip-rule="evenodd" d="M31.6351 5L21.3619 18.7281V29.5303H34.8172L44.9232 16.1963V5H31.6351ZM21.9733 18.934L31.9398 5.61671H44.3108V15.9884L34.5136 28.9166H21.9723V18.934H21.9733Z" fill="#009EE2"/>
<path fill-rule="evenodd" clip-rule="evenodd" d="M25.9411 15.5649L20.9021 22.3438L20.2549 21.8561L25.2969 15.0763L25.9411 15.5649ZM20.5078 24.1427L27.093 15.2901L27.7382 15.7777L21.153 24.6303L20.5078 24.1427ZM20.3385 29.8014L28.7916 18.4367L29.4358 18.9253L20.9827 30.289L20.3385 29.8014ZM22.073 30.2959L30.085 19.5282L30.7302 20.0129L22.7171 30.7836L22.073 30.2959ZM26.1054 30.1807L34.5316 18.8573L35.1768 19.345L26.7505 30.6693L26.1054 30.1807ZM27.9344 30.3186L37.5206 17.4357L38.1647 17.9214L28.5786 30.8072L27.9344 30.3186ZM29.7694 30.5186L38.4824 18.8051L39.1295 19.2928L30.4146 31.0043L29.7694 30.5186ZM31.7965 30.5097L40.1342 19.3006L40.7793 19.7883L32.4417 30.9974L31.7965 30.5097ZM24.0573 30.3284L32.5333 18.9302L33.1875 19.4228L24.7114 30.821L24.0573 30.3284ZM20.4918 26.8725L28.7438 15.7777L29.389 16.2654L21.137 27.3602L20.4918 26.8725Z" fill="#164193"/>
<path fill-rule="evenodd" clip-rule="evenodd" d="M31.7987 11.0005H34.8892L36.6624 13.3836L38.4277 11.0005H41.5252L38.2077 15.4583L41.5949 20.0885H38.5801L36.6624 17.537L34.7508 20.0885H31.6543L35.1172 15.4583" fill="#FEFEFE"/>
<path fill-rule="evenodd" clip-rule="evenodd" d="M28.4382 11.0005H30.7183V14.35H33.9542V16.5607H30.7183V20.1112H28.4382V16.5607H25.1864V14.35H28.4382" fill="#FEFEFE"/>
<path fill-rule="evenodd" clip-rule="evenodd" d="M8.28514 33.5104H9.05877C9.63625 33.5104 9.88118 33.8513 9.88118 34.1843C9.88118 34.4631 9.75075 34.6414 9.47595 34.7517V34.7586C9.87222 34.8335 10.1171 35.0916 10.1171 35.4482C10.1171 35.7733 9.86824 36.1536 9.20115 36.1536H8.28514V33.5114V33.5104ZM8.66947 34.6434H8.92137C9.3027 34.6434 9.48789 34.5054 9.48789 34.2217C9.48789 34.0217 9.37339 33.8513 9.01994 33.8513H8.66947V34.6434ZM8.66947 35.8137H9.14937C9.6014 35.8137 9.71988 35.5911 9.71988 35.396C9.71988 35.1547 9.53469 34.9862 9.12946 34.9862H8.66947V35.8137ZM16.2892 36.1536H15.8959L15.5415 35.3773H14.4064L14.0679 36.1536H13.6796L14.8266 33.4937H15.0954L16.2902 36.1536H16.2892ZM14.5568 35.0374H15.3852L14.9531 34.0789L14.5558 35.0374H14.5568ZM22.4852 36.1536H22.1586L20.3744 34.1202V36.1536H20.013V33.5114H20.3186L22.1278 35.5556V33.5114H22.4852V36.1536ZM28.2461 36.1585C28.716 36.3556 28.9809 36.4186 29.2437 36.3437L29.2557 36.3556L28.9151 36.6935C28.3944 36.6541 27.9742 36.4235 27.6009 36.1536C27.286 36.1012 27.0002 35.9396 26.7948 35.6977C26.5894 35.4558 26.4777 35.1494 26.4798 34.8335C26.4798 34.0335 27.0901 33.476 27.9533 33.476C28.7538 33.476 29.3572 34.067 29.3572 34.8433C29.3572 35.4807 28.8932 36.0314 28.2451 36.1536V36.1585H28.2461ZM26.876 34.8384C26.876 35.3684 27.2315 35.8423 27.9464 35.8423C28.5398 35.8423 28.9649 35.3842 28.9649 34.8453C28.9649 34.268 28.5288 33.8277 27.9384 33.8277C27.1359 33.8277 26.876 34.4375 26.876 34.8384ZM35.5462 35.1152C35.5462 35.7625 35.1529 36.1891 34.3584 36.1891C33.7919 36.1891 33.2472 35.8768 33.2472 35.1547V33.5114H33.6306V35.0729C33.6306 35.3684 33.6704 35.4965 33.7879 35.6147C33.9412 35.7645 34.1334 35.8413 34.3654 35.8413C34.6571 35.8413 34.8682 35.7457 34.9916 35.6265C35.129 35.4926 35.1619 35.2975 35.1619 35.0492V33.5114H35.5462V35.1152ZM40.9447 33.8513H39.8126V34.6532H40.9048V34.9931H39.8126V35.8137H40.9775V36.1536H39.4283V33.5114H40.9447V33.8513ZM9.52274 38.5672C10.1799 38.5672 10.4746 39.0214 10.4746 39.4115C10.4746 39.8125 10.1918 40.2715 9.52673 40.2715H8.95621V41.4163H8.24133V38.5672H9.52274ZM8.95621 39.7465H9.29075C9.62131 39.7465 9.7388 39.6341 9.7388 39.4184C9.7388 39.177 9.59742 39.0894 9.20812 39.0894H8.95621V39.7465ZM13.2266 41.4508C12.1692 41.4508 11.5758 40.7168 11.5758 39.9908C11.5758 39.3012 12.1403 38.5268 13.2266 38.5268C14.3118 38.5268 14.8694 39.3031 14.8694 39.9908C14.8694 40.7218 14.2611 41.4508 13.2266 41.4508ZM13.2266 39.1229C12.676 39.1229 12.3136 39.4696 12.3136 39.9898C12.3136 40.5129 12.676 40.8607 13.2266 40.8607C13.7692 40.8607 14.1306 40.5129 14.1306 39.9908C14.1306 39.4696 13.7692 39.1229 13.2266 39.1229ZM17.6811 38.5672C18.3423 38.5672 18.636 39.0214 18.636 39.4115C18.636 39.8125 18.3492 40.2715 17.6841 40.2715H17.1146V41.4163H16.3997V38.5672H17.6811ZM17.1136 39.7465H17.4482C17.7787 39.7465 17.8972 39.6341 17.8972 39.4184C17.8972 39.177 17.7558 39.0894 17.3695 39.0894H17.1146V39.7465H17.1136ZM22.98 38.5672V40.1829C22.98 41.1257 22.3279 41.4508 21.5413 41.4508C20.705 41.4508 20.0996 41.0666 20.0996 40.1868V38.5672H20.8185V40.2036C20.8185 40.6173 21.1172 40.8607 21.5294 40.8607C21.9117 40.8607 22.2612 40.6636 22.2612 40.1514V38.5672H22.98ZM26.9238 41.4163H24.7314V38.5672H25.4473V40.8932H26.9248L26.9238 41.4163ZM31.3157 41.4163H30.541L30.3031 40.8538H29.0187L28.8036 41.4153H28.0449L29.2039 38.5672H30.0333L31.3157 41.4163ZM29.63 39.249L29.2089 40.3533H30.093L29.63 39.2499V39.249ZM32.8111 41.4163H33.529V38.5672H32.8111V41.4163ZM36.6126 38.5672C37.205 38.5672 37.5554 38.9583 37.5554 39.3879C37.5554 39.6972 37.3902 39.9297 37.0576 40.0794C37.3543 40.2272 37.4459 40.5789 37.8502 41.4163H37.0586C36.7549 40.8055 36.6384 40.2578 36.2501 40.2578H36.0411V41.4163H35.3252V38.5672H36.6126ZM36.0411 39.7346H36.4234C36.6195 39.7346 36.8167 39.6529 36.8167 39.4115C36.8167 39.1977 36.6743 39.0894 36.4084 39.0894H36.0411V39.7346ZM41.3857 41.4163H39.262V38.5672H41.3529V39.0894H39.9789V39.6834H41.2911V40.2055H39.9779V40.8932H41.3857" fill="#FEFEFE"/>
</svg>
