<svg width="50" height="50" viewBox="0 0 50 50" fill="none" xmlns="http://www.w3.org/2000/svg">
<rect width="50" height="50" fill="white"/>
<rect x="6.25" y="6.25" width="37.5" height="37.5" fill="#45342D"/>
<path fill-rule="evenodd" clip-rule="evenodd" d="M28.7085 17.1687L28.7043 17.6708L28.4291 17.8539C28.2777 17.9545 28.1417 18.0471 28.1268 18.0596C28.112 18.072 27.9916 18.1537 27.8594 18.241C27.7272 18.3283 27.6155 18.4045 27.6112 18.4104C27.6069 18.4162 27.4936 18.4933 27.3595 18.5816C27.2254 18.67 27.1122 18.747 27.1079 18.7529C27.1036 18.7588 26.9691 18.8498 26.809 18.9553C26.649 19.0607 26.5145 19.1518 26.5102 19.1576C26.5059 19.1635 26.3926 19.2406 26.2586 19.3289C26.1245 19.4173 26.0112 19.4943 26.0069 19.5002C26.0026 19.506 25.8893 19.5832 25.7552 19.6716C25.4558 19.8689 25.4384 19.8868 25.4442 19.9906L25.4485 20.0685L27.0764 20.0762L28.7043 20.084V20.481V20.8781H25.0003H21.2963L21.2984 20.0762C21.3006 19.2421 21.3077 19.1302 21.3811 18.7607C21.4082 18.6244 21.4251 18.5617 21.4742 18.4162C21.5221 18.2743 21.6925 17.9197 21.7324 17.8791C21.744 17.8673 21.7708 17.8331 21.7921 17.8032C21.8597 17.7079 22.0506 17.5295 22.1709 17.4493C22.3235 17.3476 22.3627 17.3285 22.5352 17.2714C22.8275 17.1748 22.9287 17.1607 23.3331 17.1603C23.648 17.1599 23.7151 17.166 23.8954 17.2106C23.9321 17.2197 23.9888 17.2331 24.0212 17.2404C24.0801 17.2537 24.1093 17.2653 24.3151 17.3574C24.4154 17.4022 24.6042 17.5126 24.6228 17.5373C24.6271 17.5431 24.6554 17.5649 24.6857 17.5858C24.7565 17.6346 24.8875 17.7643 24.9368 17.8343C24.9579 17.8643 24.9795 17.8923 24.9848 17.8966C25.0285 17.9318 25.1784 18.1999 25.2282 18.3318C25.2412 18.3664 25.2635 18.4246 25.2776 18.461C25.3117 18.5489 25.3516 18.7208 25.3723 18.8696C25.3771 18.9039 25.3867 18.9379 25.3937 18.9453C25.4044 18.9566 25.542 18.8775 25.5665 18.846C25.5708 18.8404 25.6416 18.7915 25.7238 18.7373C25.806 18.6831 25.8767 18.6341 25.8811 18.6285C25.8854 18.6228 25.9349 18.5877 25.9912 18.5505C26.0474 18.5132 26.0969 18.4782 26.1013 18.4726C26.1056 18.4671 26.1551 18.432 26.2114 18.3948C26.2676 18.3575 26.3171 18.3224 26.3215 18.3168C26.3258 18.3112 26.3966 18.2622 26.4787 18.208C26.5609 18.1538 26.6317 18.1048 26.636 18.0991C26.6404 18.0935 26.6899 18.0584 26.7461 18.0211C26.8024 17.9839 26.8519 17.9488 26.8562 17.9431C26.8606 17.9375 26.9313 17.8885 27.0135 17.8343C27.0957 17.7801 27.1665 17.7311 27.1708 17.7255C27.1751 17.7198 27.2247 17.6847 27.2809 17.6475C27.3371 17.6102 27.3867 17.5751 27.391 17.5695C27.3953 17.5638 27.4661 17.5149 27.5483 17.4606C27.6305 17.4064 27.7012 17.3575 27.7056 17.3518C27.7099 17.3462 27.7594 17.3111 27.8157 17.2738C27.8719 17.2366 27.9214 17.2015 27.9258 17.196C27.9301 17.1904 27.9796 17.1554 28.0358 17.1181C28.0921 17.0809 28.1416 17.0458 28.1459 17.0401C28.1503 17.0345 28.221 16.9855 28.3032 16.9313C28.3854 16.8771 28.4562 16.828 28.4605 16.8223C28.4732 16.8054 28.6871 16.6666 28.7004 16.6666C28.7071 16.6666 28.7107 16.8926 28.7085 17.1687ZM20.3369 25.0272V33.3333L18.0169 33.3308C15.7795 33.3284 15.5906 33.325 15.178 33.2798C14.8565 33.2447 14.4753 33.1808 14.2421 33.1231C14.2032 33.1135 14.1395 33.0999 14.1006 33.093C14.0214 33.079 13.979 33.0665 13.5658 32.9348C13.4058 32.8838 13.2395 32.8275 13.1962 32.8096C13.1179 32.7773 12.9612 32.711 12.8266 32.653C12.7877 32.6363 12.7063 32.594 12.6457 32.5591C12.5852 32.5242 12.4861 32.4672 12.4255 32.4325C12.3098 32.3662 12.0851 32.2217 12.0716 32.205C12.0673 32.1997 12.039 32.1784 12.0087 32.1578C11.9784 32.1372 11.9431 32.1092 11.9301 32.0956C11.9171 32.0819 11.8817 32.0536 11.8514 32.0326C11.7799 31.9832 11.3673 31.5747 11.3173 31.5039C11.2962 31.474 11.2747 31.4459 11.2695 31.4417C11.2643 31.4374 11.2431 31.4093 11.2223 31.3794C11.2015 31.3494 11.1801 31.3214 11.1747 31.3171C11.1554 31.3018 11.026 31.1051 10.9597 30.9903C10.8844 30.8601 10.8396 30.7701 10.7698 30.6087C10.7439 30.5488 10.7104 30.4717 10.6955 30.4375C10.6626 30.3622 10.6103 30.2086 10.5921 30.1339C10.5756 30.0657 10.551 29.967 10.5293 29.8809C10.4965 29.751 10.4618 29.5583 10.4334 29.3476C10.4242 29.2791 10.4166 29.0024 10.4166 28.7326C10.4166 28.4629 10.4242 28.1862 10.4334 28.1177C10.4618 27.907 10.4965 27.7142 10.5293 27.5844C10.5385 27.548 10.5521 27.492 10.5596 27.4599C10.5723 27.4058 10.7147 26.9889 10.7725 26.8367C10.8095 26.7392 10.948 26.4694 11.03 26.335C11.1088 26.2059 11.2848 25.9424 11.3004 25.9302C11.3059 25.9259 11.3275 25.8979 11.3484 25.8679C11.3693 25.838 11.4117 25.7889 11.4425 25.759C11.4733 25.729 11.516 25.6799 11.5372 25.65C11.587 25.5798 11.7491 25.4193 11.82 25.3701C11.8503 25.349 11.8998 25.3068 11.9301 25.2763C11.9604 25.2458 12.0099 25.2039 12.0402 25.1831C12.0705 25.1624 12.0988 25.141 12.1031 25.1356C12.1153 25.1204 12.3806 24.9466 12.512 24.8678C12.6288 24.7978 12.6998 24.7633 12.9131 24.6726C13.1666 24.5649 13.2119 24.5488 13.4628 24.4777C13.5057 24.4656 13.5431 24.4486 13.546 24.4399C13.549 24.4312 13.5145 24.4007 13.4695 24.3721C13.4245 24.3435 13.3729 24.3056 13.3548 24.288C13.3368 24.2703 13.2973 24.2385 13.267 24.2174C13.1948 24.1669 12.8138 23.7894 12.7643 23.7194C12.7432 23.6894 12.7217 23.6614 12.7165 23.6571C12.7113 23.6528 12.6901 23.6248 12.6693 23.5949C12.6485 23.5649 12.6273 23.5369 12.6221 23.5326C12.5921 23.5077 12.5355 23.4153 12.3664 23.1151C12.3408 23.0696 12.3065 22.9978 12.2901 22.9555C12.2738 22.9133 12.2454 22.8419 12.2271 22.7969C12.1725 22.6627 12.1156 22.5011 12.101 22.4389C12.0935 22.4067 12.0798 22.3507 12.0706 22.3143C12.0547 22.2513 12.0482 22.2208 12.0082 22.0224C11.9676 21.8213 11.958 21.6595 11.9582 21.1817C11.9583 20.7087 11.9681 20.5323 12.0072 20.302C12.0364 20.1298 12.0503 20.0654 12.1045 19.8505C12.1132 19.8162 12.1261 19.7637 12.1332 19.7337C12.1451 19.6836 12.2219 19.4611 12.2825 19.3012C12.3423 19.1433 12.6016 18.6738 12.6697 18.5999C12.6829 18.5856 12.7109 18.5493 12.7319 18.5193C12.7529 18.4894 12.7742 18.4613 12.7794 18.4571C12.7846 18.4528 12.8061 18.4248 12.8273 18.3948C12.8484 18.3648 12.9649 18.2422 13.086 18.1222C13.2072 18.0023 13.3311 17.8871 13.3614 17.8661C13.3916 17.8452 13.4199 17.8238 13.4243 17.8187C13.4286 17.8136 13.4569 17.7926 13.4872 17.772C13.5175 17.7514 13.5458 17.7302 13.5501 17.7249C13.5626 17.7095 13.7358 17.5963 13.8647 17.5193C13.9975 17.44 14.2738 17.3007 14.3636 17.2677C14.3963 17.2557 14.4619 17.2303 14.5095 17.2113C14.633 17.1618 15.0883 17.0076 15.1583 16.9915C15.225 16.9762 15.3211 16.953 15.4139 16.9296C15.507 16.9062 15.7355 16.8611 15.8857 16.8366C16.1662 16.7909 16.4212 16.7606 16.6355 16.7477C16.7365 16.7417 16.8244 16.7314 16.8309 16.7249C16.8374 16.7185 17.6289 16.715 18.5898 16.7172L20.3369 16.7211V25.0272ZM33.3599 16.7425C33.7842 16.779 34.2933 16.8567 34.5906 16.9303C34.693 16.9557 34.7855 16.9781 34.8462 16.9923C34.9457 17.0157 35.4681 17.1929 35.5631 17.2356C35.8037 17.3436 36.0284 17.4549 36.1359 17.5193C36.302 17.6188 36.5326 17.7727 36.5606 17.8027C36.5736 17.8166 36.6089 17.8451 36.6392 17.8661C36.7107 17.9155 37.1234 18.324 37.1733 18.3948C37.1945 18.4248 37.2233 18.4598 37.2373 18.4726C37.3289 18.5567 37.6375 19.0885 37.7181 19.3013C37.781 19.4671 37.8556 19.6844 37.8681 19.7376C37.8756 19.7697 37.8888 19.824 37.8975 19.8583C37.9061 19.8925 37.9207 19.9503 37.9299 19.9867C38.0182 20.3362 38.0422 20.5914 38.0424 21.1817C38.0426 21.6595 38.0329 21.8213 37.9924 22.0224C37.9525 22.2204 37.9458 22.2514 37.9292 22.3182C37.9196 22.3567 37.9059 22.4128 37.8988 22.4427C37.8846 22.5028 37.826 22.6679 37.7718 22.8008C37.7526 22.8479 37.7269 22.9133 37.7146 22.946C37.6685 23.0693 37.4544 23.4486 37.3938 23.5143C37.3805 23.5286 37.3526 23.5649 37.3316 23.5949C37.3106 23.6248 37.2892 23.6528 37.2841 23.6571C37.2789 23.6614 37.2574 23.6894 37.2362 23.7194C37.1863 23.7901 36.8051 24.1675 36.7336 24.217C36.7033 24.2379 36.6679 24.2662 36.655 24.2799C36.642 24.2935 36.6066 24.3216 36.5763 24.3422C36.5194 24.3809 36.4662 24.433 36.4662 24.4501C36.4662 24.4555 36.4998 24.4688 36.5409 24.4795C36.6696 24.5133 36.8172 24.5602 36.8948 24.5919C36.9359 24.6087 37.0067 24.6371 37.0521 24.6551C37.1989 24.7131 37.3678 24.7955 37.4886 24.8679C37.6198 24.9465 37.8853 25.1203 37.8975 25.1356C37.9018 25.141 37.9301 25.1624 37.9604 25.1831C37.9907 25.2037 38.0331 25.2387 38.0548 25.2607C38.0764 25.2828 38.1189 25.3181 38.1491 25.339C38.22 25.3882 38.4133 25.5795 38.4633 25.65C38.4846 25.6799 38.5272 25.729 38.5581 25.759C38.5889 25.7889 38.6313 25.838 38.6522 25.8679C38.6731 25.8979 38.6947 25.9259 38.7002 25.9302C38.7158 25.9424 38.8918 26.2059 38.9706 26.335C39.0526 26.4694 39.1911 26.7392 39.2281 26.8367C39.2831 26.9815 39.428 27.4046 39.4402 27.456C39.4473 27.4859 39.461 27.542 39.4706 27.5805C39.5047 27.7177 39.5387 27.907 39.5671 28.1177C39.5887 28.2776 39.5887 29.1488 39.5671 29.332C39.5436 29.5314 39.5073 29.7395 39.472 29.877C39.4514 29.9573 39.4268 30.0563 39.4091 30.13C39.3907 30.2071 39.339 30.3598 39.3051 30.4375C39.2901 30.4717 39.2567 30.5488 39.2308 30.6087C39.1401 30.8183 39.1046 30.8898 39.0337 31.0057C38.9328 31.1706 38.7776 31.3984 38.7473 31.4261C38.7332 31.4389 38.7044 31.474 38.6832 31.5039C38.6332 31.5747 38.1892 32.0143 38.1177 32.0637C38.0874 32.0847 38.0591 32.106 38.0548 32.1111C38.0504 32.1162 38.0221 32.1372 37.9919 32.1578C37.9616 32.1784 37.9333 32.1997 37.9289 32.2051C37.9135 32.2244 37.6201 32.4144 37.5043 32.48C37.2707 32.6124 36.9115 32.7748 36.6314 32.8747C36.4377 32.9437 36.128 33.0418 36.0376 33.0627C36.0052 33.0703 35.9486 33.0838 35.9118 33.093C35.875 33.102 35.8096 33.1163 35.7663 33.1246C35.723 33.1329 35.6558 33.1462 35.6169 33.1542C35.2414 33.2315 34.96 33.271 34.4923 33.3118C34.3719 33.3223 33.469 33.3292 31.9994 33.3308L29.6952 33.3333L29.6912 25.0428C29.689 20.483 29.6905 16.7434 29.6946 16.7327C29.7006 16.717 30.0523 16.7144 31.4367 16.7197C32.4488 16.7235 33.2497 16.733 33.3599 16.7425ZM23.3331 17.9737C23.3201 17.9824 23.2534 17.9896 23.1848 17.9898C23.1162 17.9899 23.0383 17.9965 23.0118 18.0045C22.9852 18.0125 22.9316 18.0278 22.8927 18.0385C22.7503 18.0776 22.5426 18.1954 22.444 18.2931C22.3227 18.4131 22.2127 18.6174 22.167 18.8074C22.1588 18.8416 22.1447 18.8977 22.1356 18.9319C22.0983 19.0739 22.0868 19.2343 22.0848 19.6403L22.0827 20.0685H23.396H24.7093L24.7065 19.7804C24.6989 18.9836 24.5806 18.5787 24.2675 18.278C24.077 18.095 23.9 18.0184 23.6005 17.9893C23.5269 17.9822 23.442 17.9722 23.4117 17.9671C23.3815 17.962 23.3461 17.965 23.3331 17.9737ZM17.6174 18.4374C17.6108 18.4439 17.3884 18.4541 17.1231 18.46C16.4994 18.474 16.0499 18.5147 15.7835 18.5814C15.7446 18.5912 15.6809 18.6047 15.642 18.6116C15.5112 18.6345 15.19 18.7505 15.0102 18.8397C14.8532 18.9176 14.7059 19.0044 14.6825 19.0328C14.6782 19.0381 14.6499 19.0595 14.6196 19.0804C14.5487 19.1294 14.3866 19.2899 14.3371 19.3601C14.316 19.39 14.2941 19.4181 14.2884 19.4223C14.2561 19.4468 14.0862 19.7502 14.0473 19.8529C14.0349 19.8859 14.0125 19.9443 13.9976 19.9828C13.9827 20.0214 13.9645 20.0792 13.9569 20.1113C13.9494 20.1434 13.9358 20.1994 13.9266 20.2358C13.8588 20.504 13.8454 20.6632 13.8454 21.1972C13.8454 21.7312 13.8588 21.8904 13.9266 22.1586C13.9358 22.195 13.9494 22.2511 13.9569 22.2832C13.9645 22.3153 13.9822 22.3713 13.9963 22.4077C14.0104 22.4441 14.0326 22.5022 14.0457 22.5369C14.1155 22.7218 14.2866 22.9996 14.4057 23.1213C14.4412 23.1575 14.4853 23.2036 14.5038 23.2237C14.5719 23.2975 14.6681 23.3768 14.7804 23.4519C14.8988 23.5309 15.1957 23.6845 15.3152 23.7285C15.3522 23.7421 15.4108 23.7641 15.4454 23.7773C15.48 23.7905 15.5348 23.8074 15.5672 23.8149C15.5997 23.8223 15.6563 23.8358 15.6931 23.8449C15.7298 23.854 15.7953 23.8683 15.8386 23.8766C15.8818 23.8849 15.9526 23.8988 15.9958 23.9076C16.3696 23.9834 16.8849 24.0156 17.7967 24.0199L18.4495 24.023V21.2284V18.4337L18.0395 18.4296C17.814 18.4273 17.6241 18.4308 17.6174 18.4374ZM31.5822 18.4449C31.578 18.4559 31.5763 19.7154 31.5785 21.2439L31.5826 24.023L32.2196 24.0199C32.8507 24.0168 33.2911 24.0004 33.5643 23.9699C33.8176 23.9416 34.0809 23.9017 34.1777 23.877C34.2522 23.858 34.3515 23.8337 34.4333 23.8145C34.5337 23.791 34.6812 23.7393 34.7615 23.6996C34.8038 23.6787 34.856 23.6573 34.8777 23.6521C34.9158 23.6428 35.2079 23.4774 35.2237 23.4561C35.228 23.4502 35.2563 23.4286 35.2866 23.408C35.3169 23.3874 35.3523 23.3594 35.3652 23.3457C35.3782 23.3321 35.4136 23.304 35.4439 23.2832C35.5122 23.2365 35.5222 23.2266 35.5695 23.1589C35.5904 23.1289 35.619 23.0939 35.6331 23.0811C35.7064 23.014 35.8956 22.694 35.9549 22.5369C35.9679 22.5022 35.9902 22.4441 36.0043 22.4077C36.0184 22.3713 36.0361 22.3153 36.0436 22.2832C36.0511 22.2511 36.0648 22.195 36.074 22.1586C36.1417 21.8904 36.1552 21.7312 36.1552 21.1972C36.1552 20.6632 36.1417 20.504 36.074 20.2358C36.0648 20.1994 36.0511 20.1434 36.0436 20.1113C36.0361 20.0792 36.0184 20.0231 36.0043 19.9867C35.9902 19.9503 35.9678 19.8919 35.9546 19.8568C35.9148 19.7511 35.7453 19.4474 35.7122 19.4223C35.7065 19.4181 35.6846 19.39 35.6635 19.3601C35.614 19.2899 35.4519 19.1294 35.381 19.0804C35.3507 19.0595 35.3224 19.0381 35.318 19.0328C35.2814 18.9883 34.9022 18.7848 34.7561 18.7312C34.3961 18.5993 34.1396 18.5474 33.5486 18.4867C33.3871 18.4701 32.7333 18.4474 32.003 18.4331C31.6755 18.4266 31.5883 18.4291 31.5822 18.4449ZM25.5901 21.755C25.7388 21.7816 25.836 21.8011 25.9125 21.8197C25.9515 21.8292 26.0081 21.8428 26.0384 21.85C26.1338 21.8726 26.3729 21.955 26.4709 21.9992C26.7228 22.1126 26.8103 22.1559 26.9191 22.2211C27.0855 22.3208 27.3159 22.4745 27.3438 22.5045C27.3568 22.5185 27.3922 22.547 27.4224 22.5679C27.494 22.6174 27.938 23.057 27.988 23.1278C28.0092 23.1578 28.0307 23.1858 28.0358 23.1901C28.041 23.1943 28.0624 23.2224 28.0834 23.2523C28.1043 23.2823 28.1323 23.3185 28.1455 23.3329C28.2158 23.4091 28.5011 23.9296 28.5642 24.0966C28.6394 24.2957 28.7279 24.5768 28.7457 24.673C28.7532 24.7137 28.7668 24.7837 28.776 24.8287C28.8175 25.033 28.8261 25.1553 28.8261 25.541C28.8261 25.9266 28.8175 26.049 28.776 26.2533C28.7668 26.2982 28.7532 26.3683 28.7457 26.409C28.7279 26.5051 28.6394 26.7863 28.5642 26.9854C28.5011 27.1524 28.2158 27.6729 28.1455 27.7491C28.1323 27.7634 28.1043 27.7997 28.0834 27.8296C28.0624 27.8596 28.041 27.8876 28.0358 27.8919C28.0307 27.8962 28.0092 27.9242 27.988 27.9542C27.938 28.0249 27.494 28.4645 27.4224 28.514C27.3922 28.535 27.3568 28.5635 27.3438 28.5774C27.3159 28.6074 27.0855 28.7612 26.9191 28.8609C26.8103 28.926 26.7228 28.9694 26.4709 29.0828C26.3703 29.1281 26.1318 29.21 26.0344 29.2327C26.002 29.2402 25.9454 29.2539 25.9086 29.263C25.838 29.2804 25.7456 29.2991 25.5901 29.3272C25.4654 29.3497 24.5666 29.3497 24.4419 29.3272C24.2873 29.2992 24.1944 29.2805 24.1195 29.2623C24.0806 29.2528 24.024 29.2392 23.9937 29.2322C23.943 29.2204 23.7179 29.1443 23.557 29.0845C23.4163 29.0323 23.0692 28.8498 22.9096 28.7442C22.8181 28.6837 22.7397 28.6297 22.7354 28.6243C22.7311 28.6188 22.7028 28.5975 22.6725 28.5769C22.6422 28.5564 22.6068 28.5283 22.5939 28.5147C22.5809 28.501 22.5455 28.4727 22.5152 28.4518C22.4439 28.4024 22.1253 28.0871 22.0755 28.0165C22.0543 27.9865 22.0257 27.9515 22.0119 27.9386C21.9981 27.9258 21.9698 27.8907 21.949 27.8608C21.9282 27.8308 21.9068 27.8028 21.9014 27.7985C21.8858 27.7861 21.7714 27.6146 21.6937 27.4871C21.6109 27.3512 21.5041 27.1435 21.4678 27.0479C21.408 26.8902 21.2989 26.5717 21.2863 26.5179C21.2788 26.4858 21.2652 26.4298 21.256 26.3934C21.1887 26.1273 21.1745 25.9778 21.1745 25.541C21.1745 25.1028 21.1881 24.9601 21.2567 24.6847C21.2663 24.6462 21.2799 24.5901 21.2871 24.5601C21.2991 24.5093 21.4106 24.1848 21.4678 24.0341C21.5041 23.9384 21.6109 23.7308 21.6937 23.5949C21.7714 23.4674 21.8858 23.2958 21.9014 23.2835C21.9068 23.2792 21.9282 23.2512 21.949 23.2212C21.9698 23.1912 21.9981 23.1562 22.0119 23.1434C22.0257 23.1305 22.0543 23.0955 22.0755 23.0655C22.1253 22.9949 22.4439 22.6796 22.5152 22.6302C22.5455 22.6093 22.5809 22.5809 22.5939 22.5673C22.6068 22.5536 22.6422 22.5256 22.6725 22.505C22.7028 22.4844 22.7311 22.4632 22.7354 22.4577C22.7397 22.4523 22.8181 22.3983 22.9096 22.3378C23.0692 22.2322 23.4163 22.0497 23.557 21.9975C23.7297 21.9333 23.9446 21.8612 24.0015 21.8483C24.0361 21.8405 24.0928 21.827 24.1274 21.8183C24.2199 21.795 24.3356 21.7734 24.4372 21.7604C24.4865 21.7541 24.5321 21.7437 24.5386 21.7373C24.5561 21.72 25.481 21.7355 25.5901 21.755ZM24.7586 22.5471C24.7517 22.5539 24.6918 22.5643 24.6255 22.5702C24.5591 22.576 24.4677 22.5883 24.4223 22.5974C24.3769 22.6065 24.3061 22.62 24.265 22.6273C24.1994 22.6389 24.0218 22.6967 23.8084 22.776C23.6234 22.8447 23.176 23.1049 23.0972 23.1895C23.0842 23.2035 23.0488 23.232 23.0185 23.253C22.9472 23.3023 22.66 23.5866 22.6102 23.6571C22.5891 23.6871 22.5673 23.7151 22.5618 23.7194C22.5563 23.7237 22.5019 23.8012 22.4408 23.8916C22.3309 24.0544 22.2085 24.2793 22.1599 24.4078C22.089 24.5954 22.0536 24.6984 22.0406 24.7547C22.0327 24.789 22.0189 24.845 22.01 24.8793C21.9694 25.0353 21.9603 25.1559 21.9603 25.541C21.9603 25.9278 21.9691 26.0441 22.0107 26.2066C22.02 26.243 22.0338 26.299 22.0413 26.3311C22.0537 26.384 22.0904 26.4902 22.1599 26.6741C22.2085 26.8027 22.3309 27.0275 22.4408 27.1904C22.5019 27.2808 22.5563 27.3583 22.5618 27.3626C22.5673 27.3668 22.5891 27.3949 22.6102 27.4248C22.66 27.4954 22.9472 27.7797 23.0185 27.829C23.0488 27.85 23.0842 27.8785 23.0972 27.8924C23.176 27.9771 23.6234 28.2373 23.8084 28.306C24.0175 28.3836 24.1988 28.443 24.2611 28.4542C24.3 28.4612 24.3708 28.4747 24.4183 28.4841C24.81 28.5615 25.3329 28.5492 25.7199 28.4534C25.7566 28.4443 25.8133 28.4306 25.8457 28.423C25.9461 28.3994 26.0935 28.3478 26.1739 28.308C26.2161 28.2871 26.2684 28.2657 26.29 28.2605C26.3707 28.241 26.8736 27.9251 26.9506 27.8457C26.9722 27.8233 27.0147 27.7879 27.045 27.7669C27.1157 27.7179 27.2467 27.5883 27.2962 27.5183C27.3174 27.4883 27.3532 27.4462 27.3758 27.4248C27.4602 27.3448 27.7489 26.8911 27.8006 26.7572C27.8175 26.7134 27.8463 26.6408 27.8645 26.5958C27.9555 26.3711 27.9622 26.3467 28.023 26.0158C28.0324 25.9645 28.0402 25.7508 28.0402 25.541C28.0402 25.3312 28.0324 25.1175 28.023 25.0661C27.9622 24.7353 27.9555 24.7109 27.8645 24.4862C27.8463 24.4412 27.8175 24.3686 27.8006 24.3247C27.7489 24.1909 27.4602 23.7372 27.3758 23.6571C27.3532 23.6357 27.3174 23.5937 27.2962 23.5637C27.2467 23.4937 27.1157 23.364 27.045 23.315C27.0147 23.2941 26.9722 23.2586 26.9506 23.2363C26.8736 23.1568 26.3707 22.841 26.29 22.8215C26.2684 22.8162 26.2161 22.7949 26.1739 22.7739C26.0935 22.7342 25.9461 22.6825 25.8457 22.659C25.8133 22.6514 25.7566 22.6377 25.7199 22.6286C25.5956 22.5978 25.4963 22.5806 25.3542 22.5652C25.1568 22.5437 24.7737 22.5321 24.7586 22.5471ZM16.3276 25.6304C16.3211 25.6369 16.1978 25.6471 16.0536 25.6532C15.65 25.6702 15.2654 25.7124 14.9538 25.7738C14.9084 25.7828 14.8376 25.7967 14.7966 25.8047C14.7555 25.8127 14.6935 25.8264 14.6589 25.8351C14.6243 25.8438 14.5677 25.8574 14.5331 25.8653C14.352 25.9066 13.9685 26.0499 13.7524 26.157C13.5501 26.2573 13.2961 26.4072 13.267 26.4435C13.2627 26.4489 13.2343 26.4704 13.2041 26.4913C13.1329 26.5406 12.877 26.7939 12.8272 26.8644C12.8061 26.8943 12.7843 26.9223 12.7789 26.9266C12.7573 26.9436 12.6084 27.1727 12.5696 27.2485C12.5284 27.3291 12.5126 27.3679 12.4377 27.5727C12.3888 27.7062 12.3718 27.7764 12.3204 28.0554C12.2982 28.1756 12.2983 28.97 12.3205 29.1141C12.34 29.2412 12.362 29.3535 12.3845 29.441C12.3933 29.4753 12.4069 29.5313 12.4147 29.5656C12.4548 29.7419 12.7549 30.3069 12.8571 30.3985C12.8714 30.4114 12.9004 30.4464 12.9215 30.4764C12.9709 30.5464 13.1019 30.6761 13.1726 30.7249C13.2029 30.7458 13.2383 30.7745 13.2513 30.7887C13.3059 30.8484 13.762 31.1204 13.8683 31.1566C13.9025 31.1683 13.9582 31.1918 13.9922 31.209C14.0578 31.2421 14.399 31.3584 14.4977 31.3813C14.5567 31.3949 14.6235 31.4113 14.7494 31.4428C14.7861 31.4521 14.8569 31.4661 14.9067 31.474C14.9564 31.4819 15.0413 31.4956 15.0954 31.5045C15.6317 31.5924 16.0605 31.6128 17.4664 31.6175L18.4495 31.6207V28.6237V25.6266L17.3945 25.6226C16.8142 25.6204 16.3341 25.6239 16.3276 25.6304ZM31.5821 25.6381C31.5779 25.6489 31.5763 26.9994 31.5785 28.6392L31.5826 31.6207L32.5656 31.6175C33.5368 31.6143 34.1232 31.5986 34.4294 31.5675C34.8037 31.5295 35.0584 31.4909 35.2473 31.4433C35.368 31.4129 35.4365 31.3963 35.4989 31.382C35.5978 31.3594 35.9313 31.2463 36.0304 31.2018C36.0798 31.1796 36.1609 31.1431 36.2106 31.1208C36.354 31.0563 36.6958 30.8453 36.7493 30.7881C36.7623 30.7743 36.7977 30.7458 36.828 30.7249C36.8989 30.6759 37.061 30.5154 37.1105 30.4452C37.1316 30.4153 37.1531 30.3872 37.1583 30.383C37.1634 30.3787 37.1846 30.3507 37.2054 30.3207C37.2262 30.2907 37.2486 30.2625 37.2551 30.2579C37.2823 30.239 37.4381 29.9489 37.489 29.8225C37.508 29.7754 37.5344 29.7123 37.5476 29.6824C37.5609 29.6524 37.5778 29.6016 37.5852 29.5695C37.5926 29.5374 37.6062 29.4813 37.6154 29.4449C37.6389 29.3517 37.6606 29.2408 37.6801 29.1141C37.7023 28.97 37.7024 28.1756 37.6802 28.0554C37.6196 27.7264 37.6123 27.7002 37.4976 27.3964C37.4154 27.1789 37.22 26.894 37.0113 26.6875C36.9234 26.6005 36.8268 26.5123 36.7965 26.4913C36.7662 26.4704 36.7379 26.4489 36.7336 26.4436C36.7083 26.4123 36.4596 26.2599 36.2853 26.1688C36.1216 26.0832 35.8465 25.975 35.6169 25.906C35.5693 25.8917 35.5021 25.8734 35.4675 25.8654C35.4329 25.8575 35.3762 25.8438 35.3416 25.8351C35.307 25.8264 35.2451 25.8127 35.204 25.8047C35.1629 25.7967 35.0921 25.7828 35.0467 25.7738C34.8663 25.7382 34.742 25.7207 34.3822 25.6799C34.0856 25.6463 33.6401 25.6325 32.632 25.6256C31.8011 25.6198 31.5881 25.6224 31.5821 25.6381ZM22.0748 31.2704L22.0827 32.5237H23.1601H24.2375L24.2415 31.326C24.2452 30.2339 24.2478 30.1258 24.2717 30.0997C24.2959 30.0732 24.3253 30.0713 24.6609 30.0752L25.0239 30.0794L25.0317 31.3015L25.0396 32.5237L26.872 32.5315L28.7043 32.5393V32.9363V33.3333H25.0003H21.2963L21.2922 31.6908C21.29 30.7874 21.2916 30.0393 21.2958 30.0285C21.3017 30.0131 21.3882 30.0097 21.6852 30.0129L22.067 30.0171L22.0748 31.2704Z" fill="white"/>
</svg>
