<svg width="50" height="50" viewBox="0 0 50 50" fill="none" xmlns="http://www.w3.org/2000/svg">
<rect width="50" height="50" fill="white"/>
<path d="M39.8992 14.7457V15.0735C39.8992 16.4096 39.3446 17.6449 38.437 18.5525L36.2437 20.771L29.9412 27.0735V34.8635C29.9412 37.687 32.1849 40.0063 34.9328 40.0063C37.6807 40.0063 39.9244 37.687 39.9244 34.8635V15.2499C39.9244 15.0735 39.9244 14.9222 39.8992 14.7457Z" fill="#D20073"/>
<path d="M22.9579 20.0651L11.3612 31.6618C9.57129 33.6786 9.57129 36.729 11.4368 38.5946L29.9411 20.0651H22.9579Z" fill="#23BBEA"/>
<path d="M11.4622 38.5694C13.3277 40.435 16.3781 40.435 18.3697 38.645L18.5714 38.4434L29.9412 27.0736V20.0903L11.4622 38.5694Z" fill="#009DE0"/>
<path d="M36.2687 20.7709L38.462 18.5524C37.5292 19.4851 36.2183 20.065 34.7813 20.065H29.9662V27.0734L36.2687 20.7709Z" fill="#006FB7"/>
<path d="M34.3781 10.1321H34.8571H15.1428C12.3192 10.0816 9.99988 12.3253 9.99988 15.0733C9.99988 17.8212 12.3192 20.0649 15.1428 20.0649H22.9579L31.2016 11.7959C32.0084 10.8884 33.1176 10.2833 34.3781 10.1321Z" fill="#D20073"/>
<path d="M29.9664 15.0986V14.6196C29.9664 14.5691 29.9664 14.5439 29.9916 14.4935V14.4683C30.0169 14.317 30.0421 14.1658 30.0673 14.0397C30.2437 13.2078 30.6219 12.4263 31.1765 11.796L22.958 20.065H29.9664V15.0986Z" fill="#006FB7"/>
<path d="M39.8992 14.7457C39.874 14.5188 39.8488 14.2667 39.7983 14.0398C39.3446 11.7709 37.353 10.0818 34.958 10.0818H34.4034C33.1428 10.233 32.0336 10.8381 31.2521 11.7457C30.6975 12.3759 30.3193 13.1322 30.1428 13.9894C30.1176 14.1406 30.0924 14.2667 30.0672 14.4179V14.4431C30.0672 14.4936 30.0672 14.5188 30.042 14.5692V20.0146H34.8571C37.6807 20.0146 40 17.7709 40 15.023C39.9244 14.9726 39.9244 14.8717 39.8992 14.7457Z" fill="#003883"/>
</svg>
