<svg width="50" height="50" viewBox="0 0 50 50" fill="none" xmlns="http://www.w3.org/2000/svg">
<rect width="50" height="50" fill="white"/>
<path fill-rule="evenodd" clip-rule="evenodd" d="M6.25 43.75H43.75V6.25H6.25V43.75Z" fill="#00A76D"/>
<path fill-rule="evenodd" clip-rule="evenodd" d="M35.5213 16.115C33.1969 17.4747 32.4846 17.5842 29.9768 19.0908C31.4359 17.5031 31.9425 16.8313 32.8545 15.4989C30.5321 15.6205 27.1621 15.9012 24.7465 16.4311C26.849 15.3196 31.0083 14.0652 33.1969 13.7744C32.6903 13.0722 28.5745 10.8411 27.5491 10.4165C30.8077 10.6698 34.7908 11.8776 36.7169 13.0671C37.4941 12.8311 38.2712 12.8138 39.6786 12.6892C39.3209 13.3083 39.3139 13.667 37.9237 14.5819C38.3087 15.6104 37.3948 21.2622 36.6369 22.7689C36.6065 20.3979 36.3947 17.4089 35.5213 16.115ZM18.5668 36.3909C17.2293 35.8964 16.2708 35.3219 15.218 34.335C15.5331 33.4718 15.8928 32.7807 16.4845 31.9185C15.3973 32.0705 14.6101 32.191 13.6758 32.3744C12.9119 31.041 12.5745 29.7674 12.1833 27.9891C11.9736 29.8707 11.8996 31.2173 12.1702 32.721C11.314 32.954 10.7071 33.1658 10.0049 33.4809C10.9877 34.0878 11.7831 34.5549 12.8916 35.0636C13.4793 36.3301 14.0923 37.1944 15.0802 38.1661C14.8528 37.3994 14.7842 36.5943 14.8786 35.8002C16.1137 36.1619 17.1675 36.3463 18.5668 36.3909ZM22.032 17.5923C21.6105 18.1252 21.1272 19.1273 21.0046 19.5965C24.4273 20.0666 27.1833 21.8215 27.1864 21.8215C24.174 21.2936 22.6015 21.3575 21.4849 21.4568C20.3673 21.5652 20.1444 21.6999 20.1444 21.6999C19.3358 23.4579 18.8525 26.5088 18.8525 26.5088C18.3064 25.1976 17.5181 22.5612 17.5181 22.5612C16.0043 23.3728 12.5278 26.6435 12.5278 26.6435C14.4368 22.8135 16.3751 21.0586 16.3782 21.0586C15.7094 20.3918 13.9606 20.0585 12.6849 19.9987C13.3486 19.7251 15.0559 19.406 16.363 19.3482C17.67 19.3077 18.4644 19.3908 18.4654 19.3908C19.6367 18.4616 21.4089 17.6845 22.032 17.5923ZM25.6615 34.0179C25.0978 34.7863 24.4976 35.5271 23.863 36.2379C22.8239 36.5328 21.7483 36.6795 20.6682 36.6736C21.3224 37.0109 22.0216 37.2528 22.7443 37.392C22.117 37.973 21.4388 38.4966 20.7179 38.9564C21.8871 38.6768 23.4374 38.1742 24.5813 37.5024C25.1046 37.5256 25.6289 37.4943 26.1458 37.4092C26.0516 37.0566 25.9786 36.7972 25.8854 36.3433C26.9696 35.5053 27.7589 34.7505 28.6485 33.8416C27.7413 34.4869 26.779 35.0511 25.7729 35.5276C25.7198 35.0257 25.6826 34.5222 25.6615 34.0179Z" fill="white"/>
</svg>
