<svg width="50" height="50" viewBox="0 0 50 50" fill="none" xmlns="http://www.w3.org/2000/svg">
<rect width="50" height="50" fill="white"/>
<path d="M41.3561 7.9126H17.8963L8.19456 17.6143C8.01434 17.7951 7.91298 18.0398 7.9126 18.2951V23.8429H13.6396V18.2722C13.6396 18.1977 13.6693 18.1262 13.722 18.0735C13.7747 18.0208 13.8462 17.9912 13.9207 17.9912H17.0434C17.1179 17.9912 17.1894 18.0208 17.2421 18.0735C17.2948 18.1262 17.3245 18.1977 17.3245 18.2722V23.8429H22.8714C22.946 23.8429 23.0175 23.8726 23.0702 23.9253C23.1229 23.978 23.1525 24.0495 23.1525 24.124V27.2467C23.1525 27.3212 23.1229 27.3927 23.0702 27.4454C23.0175 27.4981 22.946 27.5278 22.8714 27.5278H17.3245V33.0985C17.3245 33.173 17.2948 33.2445 17.2421 33.2972C17.1894 33.3499 17.1179 33.3795 17.0434 33.3795H13.9207C13.8462 33.3795 13.7747 33.3499 13.722 33.2972C13.6693 33.2445 13.6396 33.173 13.6396 33.0985V27.5269H7.9126V41.0355C7.9126 41.2918 8.0144 41.5375 8.1956 41.7187C8.3768 41.8999 8.62256 42.0017 8.87882 42.0017H31.6175C31.8731 42.0016 32.1181 41.9002 32.2991 41.7198L42 32.0154V8.55645C42 8.38569 41.9321 8.22192 41.8114 8.10118C41.6906 7.98043 41.5269 7.9126 41.3561 7.9126V7.9126ZM37.1724 33.3778H33.4296C33.392 33.3777 33.355 33.3689 33.3214 33.352C33.2878 33.335 33.2587 33.3105 33.2364 33.2803L29.7369 28.5546L26.2436 33.2724C26.2193 33.3047 26.1879 33.3311 26.1518 33.3494C26.1157 33.3676 26.0758 33.3774 26.0354 33.3778H22.3374C22.29 33.3763 22.2439 33.362 22.2039 33.3365C22.1639 33.311 22.1316 33.2752 22.1102 33.2328C22.0889 33.1905 22.0794 33.1431 22.0828 33.0958C22.0861 33.0485 22.1022 33.003 22.1292 32.9641L27.4461 25.7842C27.4784 25.7393 27.4959 25.6853 27.4959 25.63C27.4959 25.5747 27.4784 25.5207 27.4461 25.4758L22.1169 18.2301C22.1006 18.2076 22.0908 18.1811 22.0886 18.1534C22.0864 18.1257 22.0918 18.098 22.1044 18.0732C22.1169 18.0484 22.136 18.0276 22.1596 18.0129C22.1832 17.9983 22.2104 17.9905 22.2381 17.9903H26.1575C26.1981 17.9905 26.2381 18.0002 26.2743 18.0185C26.3106 18.0368 26.3422 18.0632 26.3665 18.0957L29.736 22.6764L33.1107 18.0878C33.1331 18.0573 33.1623 18.0325 33.1961 18.0154C33.2298 17.9983 33.2671 17.9894 33.3049 17.9894H37.2339C37.2616 17.9896 37.2888 17.9974 37.3124 18.0121C37.336 18.0267 37.3551 18.0475 37.3676 18.0723C37.3802 18.0971 37.3856 18.1248 37.3834 18.1525C37.3812 18.1802 37.3714 18.2067 37.3551 18.2292L32.0172 25.4855C31.9867 25.5269 31.9703 25.5769 31.9703 25.6282C31.9703 25.6796 31.9867 25.7296 32.0172 25.771L37.3639 32.9913C37.391 33.027 37.4077 33.0695 37.412 33.1142C37.4162 33.1588 37.408 33.2038 37.3881 33.2439C37.3681 33.2841 37.3374 33.318 37.2993 33.3416C37.2612 33.3652 37.2172 33.3778 37.1724 33.3778Z" fill="url(#paint0_linear)"/>
<defs>
<linearGradient id="paint0_linear" x1="42.108" y1="7.80104" x2="8.34564" y2="41.5696" gradientUnits="userSpaceOnUse">
<stop offset="0.05" stop-color="#42B8EB"/>
<stop offset="0.1" stop-color="#3EAADE"/>
<stop offset="0.32" stop-color="#2E73AD"/>
<stop offset="0.51" stop-color="#234B89"/>
<stop offset="0.66" stop-color="#1C3373"/>
<stop offset="0.75" stop-color="#192A6B"/>
</linearGradient>
</defs>
</svg>
