<svg width="50" height="50" viewBox="0 0 50 50" fill="none" xmlns="http://www.w3.org/2000/svg">
<rect width="50" height="50" fill="white"/>
<path fill-rule="evenodd" clip-rule="evenodd" d="M6.25 43.75H43.75V6.25H6.25V43.75Z" fill="#E20025"/>
<path fill-rule="evenodd" clip-rule="evenodd" d="M27.7242 35.2025H37.0563L38.4549 32.8607H29.2928L27.7242 35.2025Z" fill="white"/>
<path fill-rule="evenodd" clip-rule="evenodd" d="M35.128 26.7017L32.8167 28.2467L34.0415 30.1643L38.265 27.3617L35.0865 22.4591L35.0075 22.5087L34.8347 22.6207L33.1733 23.689C33.1733 23.689 35.0302 26.553 35.128 26.7017ZM32.0265 16.737L18.6804 37.9348C18.147 37.4443 16.7277 35.93 16.2634 33.3722C16.1829 32.5251 16.1833 31.6723 16.2644 30.8253H20.3022L21.7819 28.4706H16.7217C16.9351 27.7611 17.2156 27.0832 17.5514 26.4321H23.0234L24.509 24.0785H19.0943C19.6614 23.3773 20.2752 22.7154 20.9314 22.0974H25.7851L27.2805 19.7457H23.7395C24.3491 19.2858 24.9682 18.8388 25.5965 18.4049C29.5424 15.521 37.6339 11.9445 37.9756 11.7938L38.0635 11.7542L40.3768 8.06763L40.0864 8.2034L39.4493 8.5007C39.1204 8.6553 31.3895 12.2834 24.4596 16.3258C22.7802 17.2956 21.2084 18.4421 19.7708 19.7457H14.769L13.2667 22.0974H17.5346C17.0187 22.7283 16.5418 23.3902 16.1064 24.0795H11.9915L10.5099 26.4321H14.853C14.562 27.0938 14.3172 27.775 14.1201 28.4706H9.27132L7.77393 30.8243H13.6736C13.64 31.183 13.6213 31.5349 13.6213 31.8708C13.6213 32.6002 13.6993 33.3157 13.8524 34.0005C15.1858 39.9694 19.0409 41.3657 19.2049 41.4232L19.4311 41.5005L33.4943 19.0808L32.0265 16.737ZM23.3286 39.5016L21.7611 41.8454H38.1702L39.5688 39.5016H39.4029H23.3286Z" fill="white"/>
<path fill-rule="evenodd" clip-rule="evenodd" d="M31.7905 24.1469C31.0102 24.1469 30.3761 24.7831 30.3761 25.566C30.3898 25.9332 30.5448 26.2808 30.8085 26.5357C31.0723 26.7906 31.4243 26.9331 31.7905 26.9331C32.1568 26.9331 32.5087 26.7906 32.7725 26.5357C33.0363 26.2808 33.1913 25.9332 33.2049 25.566C33.2049 24.7831 32.5708 24.1469 31.7905 24.1469Z" fill="white"/>
</svg>
