<svg width="50" height="50" viewBox="0 0 50 50" fill="none" xmlns="http://www.w3.org/2000/svg">
<rect width="50" height="50" fill="white"/>
<path d="M22.9506 30.7697L22.9529 15.3746H3.32751V35H27.0471V30.7697H22.9506Z" fill="#2A4290"/>
<path d="M22.9528 15.3746V19.606L27.047 19.6072V35H46.6724V15.3746H22.9528Z" fill="#00848A"/>
<path d="M18.1145 28.4249L17.6117 30.254C16.5799 30.7539 15.3544 30.9448 14.201 30.9448C10.5132 30.9448 7.7229 28.8196 7.7229 25.5192C7.7229 21.3169 10.8234 19.4005 14.5801 19.4005C15.7177 19.4005 17.0961 19.6737 18.0966 20.1894C17.9409 20.7369 17.7724 21.5588 17.6352 22.1214L17.4572 21.8466C16.8195 20.9782 15.7177 20.3651 14.5986 20.3651C11.7371 20.3651 10.5838 22.926 10.5838 25.2936C10.5838 28.0487 12.031 29.9802 14.6842 29.9802C15.7519 29.9802 16.992 29.4634 17.7674 28.7731L18.1145 28.4249Z" fill="white"/>
<path d="M41.8844 28.4423L41.3833 30.2697C40.3486 30.7696 39.1259 30.9616 37.9704 30.9616C34.282 30.9616 31.4939 28.8336 31.4939 25.5338C31.4939 21.3321 34.5944 19.4156 38.3494 19.4156C39.4876 19.4156 40.866 19.69 41.8659 20.2051C41.7108 20.7521 41.544 21.5728 41.4057 22.1366L41.2265 21.8639C40.5894 20.9944 39.4881 20.382 38.3667 20.382C35.5092 20.382 34.3537 22.9428 34.3537 25.3099C34.3537 28.0666 35.8004 29.9964 38.4546 29.9964C39.5201 29.9964 40.7613 29.4808 41.5378 28.79L41.8844 28.4423Z" fill="white"/>
<path d="M27.0471 19.6067H22.9534V30.7692H27.0471V19.6067Z" fill="#CA4E19"/>
</svg>
