<svg width="150" height="150" viewBox="0 0 150 150" fill="none" xmlns="http://www.w3.org/2000/svg">
<path fill-rule="evenodd" clip-rule="evenodd" d="M71.402 10.9988C70.3855 11.5353 68.9355 12.7848 68.18 13.7753C67.152 15.1238 66.7545 16.2958 66.5995 18.4413C66.4385 20.6683 66.6295 21.7713 67.456 23.3918C68.041 24.5388 69.359 26.0248 70.385 26.6943C71.4105 27.3633 73.058 28.0568 74.0455 28.2353C75.033 28.4138 76.7665 28.3103 77.8975 28.0058C79.029 27.7013 80.648 26.8688 81.495 26.1558C82.3425 25.4428 83.3975 24.1598 83.8395 23.3053C84.2815 22.4508 84.643 20.6163 84.643 19.2283C84.643 17.8403 84.2945 16.0353 83.869 15.2168C83.4435 14.3978 82.5675 13.2483 81.9225 12.6618C81.2775 12.0753 80.03 11.2313 79.15 10.7868C78.2695 10.3423 76.582 9.9883 75.4 10.0003C74.2175 10.0128 72.4185 10.4618 71.402 10.9988ZM62.25 38.4278C61.425 38.6383 60.0305 39.1858 59.151 39.6443C58.2715 40.1023 56.9435 41.2743 56.2005 42.2488C55.309 43.4178 54.77 44.8438 54.6165 46.4413C54.4885 47.7723 54.6475 49.6608 54.97 50.6368C55.292 51.6133 56.4305 53.2028 57.4995 54.1683C58.5685 55.1343 60.3735 56.1748 61.51 56.4808C62.8595 56.8443 68.2305 56.9838 76.9965 56.8828L87.818 56.7582C89.5103 56.7387 91.1566 56.2052 92.5385 55.2283V55.2283C93.706 54.4033 95.117 52.8453 95.6745 51.7663C96.2945 50.5663 96.6745 48.8973 96.653 47.4683C96.6335 46.1838 96.339 44.5918 95.998 43.9308C95.657 43.2693 94.7865 42.0893 94.064 41.3088C93.3415 40.5278 92.075 39.5153 91.25 39.0588C89.9735 38.3523 87.812 38.2148 76.75 38.1363C69.6 38.0858 63.075 38.2168 62.25 38.4278ZM46.3955 66.9643C45.651 67.1933 44.3765 67.8543 43.5635 68.4328C42.751 69.0118 41.6165 70.4548 41.043 71.6398C40.4695 72.8248 40 74.6083 40 75.6038C40 76.5988 40.2395 78.0468 40.532 78.8208C40.8245 79.5948 41.668 80.8753 42.407 81.6663C43.1455 82.4573 44.65 83.5213 45.75 84.0303C47.6195 84.8958 49.551 84.9573 75.3005 84.9673C94.9175 84.9753 103.34 84.8113 104.55 84.3983C105.485 84.0793 106.812 83.3873 107.5 82.8603C108.188 82.3333 109.255 81.0758 109.872 80.0653C110.622 78.8383 110.995 77.4328 110.997 75.8333C110.999 74.4128 110.589 72.6333 109.99 71.4588C109.434 70.3703 108.045 68.8603 106.902 68.1038V68.1038C105.546 67.2065 103.958 66.7256 102.332 66.7204L76.287 66.6383C60.5915 66.5888 47.1405 66.7358 46.3955 66.9643ZM62.179 93.9368C61.315 94.1528 59.7945 94.8328 58.7995 95.4478C57.805 96.0623 56.4305 97.5218 55.7455 98.6908C54.874 100.178 54.501 101.553 54.5025 103.272C54.5045 104.935 54.8675 106.321 55.6275 107.565C56.245 108.576 57.3165 109.845 58.0095 110.386C58.702 110.926 60.1645 111.635 61.2595 111.959C62.641 112.369 67.4065 112.501 76.833 112.389L87.7973 112.259C89.5034 112.239 91.1634 111.703 92.559 110.721V110.721C93.738 109.893 95.1385 108.467 95.6725 107.553C96.2945 106.487 96.643 104.961 96.643 103.298C96.643 101.872 96.2945 100.035 95.869 99.2168C95.4435 98.3978 94.5675 97.2483 93.9225 96.6618C93.2775 96.0753 91.9625 95.1753 91 94.6618C89.438 93.8288 87.8795 93.7183 76.5 93.6358C69.4875 93.5853 63.043 93.7208 62.179 93.9368ZM72 122.539C71.3125 122.812 70.111 123.641 69.3305 124.382C68.5495 125.122 67.5805 126.361 67.1765 127.134C66.7725 127.908 66.434 129.621 66.4235 130.942C66.4135 132.263 66.7525 134.016 67.177 134.837C67.6015 135.658 68.745 137.029 69.718 137.883C70.691 138.737 72.437 139.692 73.5985 140.005C75.197 140.435 76.1925 140.429 77.694 139.979C78.785 139.652 80.2095 139.036 80.8595 138.611C81.509 138.185 82.6365 136.82 83.365 135.578C84.31 133.964 84.6785 132.653 84.6535 130.988C84.634 129.706 84.274 127.998 83.854 127.193C83.4335 126.387 82.4505 125.124 81.6695 124.385C80.889 123.646 79.6165 122.803 78.8425 122.51C78.0685 122.218 76.4935 121.993 75.3425 122.01C74.1915 122.027 72.6875 122.265 72 122.539Z" fill="#FF5F00"/>
</svg>
