<svg width="50" height="50" viewBox="0 0 50 50" fill="none" xmlns="http://www.w3.org/2000/svg">
<rect width="50" height="50" fill="white"/>
<path d="M41.2219 23.6055C38.0684 22.2284 34.433 21.4848 30.3706 21.4435C28.2224 18.593 27.3548 13.1536 27.5889 8.74695H23.6367C23.4715 12.6854 24.0361 19.1163 26.8728 23.3163C24.1049 26.8416 18.4039 31.7853 8.7644 30.725V34.6909C9.6595 34.7735 10.5133 34.8148 11.3533 34.8148C21.5023 34.8148 27.5614 28.8935 30.2467 25.3957C34.5431 25.437 38.2061 26.3321 41.2357 28.0397V23.6055H41.2219Z" fill="#C5C5C7"/>
<path d="M41.2219 27.957C36.0028 22.3524 29.2276 21.1956 25.1653 21.0579C23.5954 18.469 22.2597 12.6578 22.3974 8.74695H18.459C18.335 13.1949 19.7121 19.7635 21.9154 23.2612C19.4367 26.5249 15.2229 30.2568 8.7644 30.725V34.6909C17.5363 34.1539 22.9207 28.6456 25.5233 25.0239C30.3293 25.258 37.1596 27.0757 41.2219 34.7735V27.957Z" fill="#E42529"/>
<path d="M11.9736 8.24695C9.921 8.24695 8.25122 9.91673 8.25122 11.9693V37.9959C8.25122 40.0484 9.921 41.7182 11.9736 41.7182H38.0277C40.0802 41.7182 41.75 40.0484 41.75 37.9959V11.9693C41.75 9.91673 40.0802 8.24695 38.0277 8.24695H11.9736Z" stroke="#C5C5C7"/>
</svg>
