<svg width="50" height="50" viewBox="0 0 50 50" fill="none" xmlns="http://www.w3.org/2000/svg">
<rect width="50" height="50" fill="white"/>
<path d="M41.552 22.9564C41.7536 23.9794 42.0001 25.8538 41.0277 27.7318C40.566 28.6544 39.8728 29.5357 39.025 30.2831C38.6061 30.665 38.1473 31.0119 37.6699 31.3411C37.4334 31.5106 37.1107 31.8654 37.1107 31.8654L37.1271 32.3029C37.1577 33.4684 37.1342 34.6503 36.9974 35.8159C36.8777 36.9658 36.5635 38.1798 35.8546 39.1024C35.6808 39.3375 35.4649 39.5669 35.1508 39.7179C34.8387 39.8882 34.377 39.817 34.1277 39.6004C33.671 39.1423 33.4722 38.7989 33.1509 38.4149C32.5724 37.6761 32.0474 37.0028 31.5992 36.4215C31.2487 35.9769 30.9203 35.558 30.6111 35.1647C30.4565 34.9674 30.3076 34.7764 30.163 34.5926L30.0418 34.4359C30.0625 34.4444 30.1309 34.438 30.1309 34.4373C30.5819 35.0187 31.0378 35.6948 31.5992 36.4215C32.1293 37.0976 32.7113 37.8342 33.344 38.6364L33.8299 39.2513C33.966 39.46 34.2695 39.7699 34.6734 39.7927C35.5198 39.7471 35.8532 39.0689 36.1745 38.5716C35.9629 38.9022 35.7421 39.2349 35.3994 39.4956C35.0888 39.792 34.4404 39.8291 34.1334 39.4892C33.6297 38.8801 33.2692 38.3372 32.8531 37.7894C32.358 37.1154 31.8885 36.4785 31.4603 35.8936L34.0878 39.1537C34.0878 39.1537 34.9726 40.5159 36.1318 38.0173C36.8585 36.4535 36.8207 33.2041 36.6925 31.4999C39.6954 29.6284 41.5128 27.1861 41.101 24.1027C41.1751 23.7586 41.225 23.2606 41.1417 22.5047C41.1167 22.1477 40.6935 21.1446 40.3594 20.569C40.3387 20.5255 40.3152 20.4842 40.2924 20.4436C40.2176 20.2455 40.1421 20.0646 40.0737 19.9149C40.001 19.6905 40.3216 20.1287 40.5104 20.2975C39.9049 19.1206 39.8842 19.018 40.2639 19.4454C40.1051 19.1662 39.9469 18.889 39.9398 18.8919C40.016 18.9382 40.2141 19.0978 40.2169 19.0978C39.372 17.5817 37.9143 16.1262 36.1396 15.3874C36.0726 15.3596 36.0057 15.334 35.9408 15.3069C36.0285 15.0996 36.1047 14.9215 36.1902 14.759C36.3612 14.4413 36.6212 13.8706 36.716 13.4189C36.8079 12.9964 36.9375 12.4479 36.7523 11.6392C36.6618 11.2417 36.2971 10.6112 35.6708 10.3967C35.0489 10.1851 34.677 10.344 34.3892 10.4167C34.107 10.5107 33.748 10.6774 33.4473 10.852C33.1203 11.0273 32.774 11.3215 32.6237 11.5074C32.1991 12.2569 32.4121 12.2299 32.3786 12.5647C32.1435 13.3163 32.3245 14.1648 32.6529 14.8858C31.6035 14.8124 30.8526 14.8773 30.9203 15.0062C29.0045 15.0397 28.6255 15.2242 26.6898 15.6154C25.4124 15.911 23.9889 16.3663 22.5755 17.0858C22.3988 17.1785 22.2235 17.2725 22.0426 17.3801L21.9713 17.4221L21.9521 17.4357L21.9492 17.4371C21.9143 18.3725 22.1665 17.9664 22.3418 18.3932L22.3446 18.3925L22.3532 18.3903L22.3867 18.3832L22.5242 18.3547L22.8042 18.2991C23.181 18.2272 23.5636 18.1609 23.949 18.0996C24.7213 17.9771 25.5064 17.8752 26.2894 17.7947C27.9978 17.6088 29.6571 17.5496 31.3143 17.6366C31.4518 17.6437 31.5743 17.6515 31.7068 17.6601C31.7111 17.8439 31.7168 18.0256 31.7246 18.2037C31.808 19.8102 31.974 21.3662 32.4428 22.868C32.5639 23.242 32.7099 23.6125 32.9023 23.9723C33.0954 24.2701 33.3419 24.9035 34.1925 24.8799C34.9149 24.7303 35.1251 24.2053 35.311 23.9452L35.8952 23.0376C36.612 21.887 37.3187 20.7905 37.9285 19.5666C38.0924 19.6891 38.2484 19.8216 38.3931 19.962C38.6047 20.2484 38.7991 20.549 38.9773 20.8653C39.0457 20.9052 39.119 20.9544 39.2223 21.0841C39.367 21.3797 39.5344 21.6647 39.6619 21.9732C40.462 24.2765 38.9644 26.6504 36.9404 28.2341C36.0983 28.9245 35.1664 29.5429 34.174 30.1078C34.4704 29.3932 34.558 28.4571 34.33 27.6848C34.1063 26.8847 33.6888 25.9336 32.6337 25.6138C31.5244 25.39 30.7578 26.1239 30.2178 26.7045C29.6293 27.3008 29.2468 28.3794 29.6685 29.2493C30.044 30.0914 30.7229 30.6365 31.4012 31.0853C31.5736 31.1971 31.7503 31.3012 31.9312 31.3981C31.9547 31.4087 31.9718 31.418 31.9896 31.4266C31.2466 31.703 30.6089 31.9652 29.8716 32.0998C28.3854 32.4054 26.8394 32.3278 25.3675 32.0115C23.8928 31.6937 22.4722 31.143 21.1834 30.4284C21.1834 30.4284 20.8243 30.1264 20.4916 30.6949L20.6291 30.853C20.7616 30.9991 20.8977 31.1373 21.0366 31.2712C21.3137 31.5398 21.6044 31.7913 21.9036 32.0271C22.5064 32.4966 23.1461 32.9099 23.8187 33.2504C25.1588 33.9379 26.62 34.3447 28.0741 34.4423C28.436 34.4694 28.7993 34.4779 29.1577 34.4658C29.3372 34.463 29.5168 34.4558 29.6949 34.4395L29.7925 34.4316L29.8039 34.4459C30.2285 34.9866 30.6503 35.5202 31.062 36.0482C31.8913 37.1019 32.6957 38.1292 33.4737 39.123L33.7601 39.4956C33.9047 39.6723 34.0814 39.8255 34.3264 39.9231C34.8522 40.1397 35.4115 39.8561 35.6651 39.6018C36.2158 39.0518 36.4766 38.5125 36.7438 37.8962C37.1741 36.673 37.2574 35.5202 37.3294 34.4259C37.3572 33.8788 37.3686 33.3473 37.3657 32.8293L37.3508 32.0635L37.3408 31.8455C37.3408 31.8455 40.1848 29.696 40.9614 28.3652C41.7586 27.0422 41.9538 25.747 41.9424 24.8935C41.9097 24.2188 41.7415 23.5755 41.552 22.9564Z" fill="#646567"/>
<path d="M9.64687 17.457C9.7459 17.6059 9.872 17.7755 10.0366 17.9607C9.90264 17.742 9.79577 17.5219 9.72596 17.3381C10.2161 18.0013 10.9991 18.5984 11.5683 18.8121C11.5683 18.8128 11.5697 18.8128 11.5712 18.8135C11.5491 18.8456 11.532 18.8798 11.527 18.9182C11.527 18.9631 11.7201 19.0515 11.7813 19.1562C11.7942 19.1861 11.7272 19.2146 11.6866 19.2581C11.802 19.3044 11.7856 19.3628 11.7201 19.3913C11.745 19.407 11.7714 19.4219 11.7714 19.4219C11.7571 19.4362 11.7158 19.4796 11.7158 19.4796C11.983 19.6578 12.2587 19.9306 12.6705 19.9734C12.6883 19.9762 12.7082 19.9784 12.7332 19.9791C12.4802 20.1864 12.4062 20.3346 12.0692 20.6167C11.5306 21.0784 10.8723 21.701 10.3023 22.39C9.99739 22.7718 9.71812 23.1516 9.46164 23.5548C9.36546 23.7044 9.28353 23.8583 9.2016 24.0015C8.77841 24.7895 8.48916 25.5952 8.37517 26.4117C8.31817 26.8199 8.30392 27.2281 8.35166 27.6414L8.37517 27.7988L8.39013 27.8807C8.3944 27.8971 8.39583 27.9071 8.40153 27.9292L8.40438 27.9363C8.8411 27.7269 8.7606 27.9698 9.047 27.9976L9.04842 27.9962L9.05127 27.9897L9.0584 27.9762L9.19305 27.7447L9.4823 27.2844C10.2268 26.1531 11.0753 25.0958 12.0998 23.9751L12.1347 24.0564L12.3919 24.6434C12.5551 25.0324 12.7424 25.4385 12.8778 25.8182C13.0281 26.2336 13.1991 26.639 13.4371 27.0215C13.6586 27.3564 14.0284 27.885 14.6461 27.7311C15.5865 27.226 15.7411 26.3226 16.0724 25.5924C16.3324 24.818 16.4941 24.0407 16.5775 23.2976C16.6594 22.5538 16.6737 21.8449 16.6445 21.1895C16.6445 21.1895 16.5775 20.7442 16.6195 20.6623C16.6195 20.6623 17.0441 20.4806 17.2807 20.3837C18.2182 19.9855 18.9464 19.7611 19.3361 19.6449C19.4764 19.5687 19.6175 19.4925 19.7635 19.4255C19.2306 19.4903 18.105 19.8273 16.9807 20.351L16.5618 20.5547L16.4742 20.6509C16.5077 20.9679 16.5255 21.28 16.534 21.5785C16.5504 22.1741 16.5198 22.712 16.4713 23.1152C16.5169 22.6422 16.5034 22.1321 16.4756 21.4709C16.4564 22.137 16.4158 22.7191 16.3196 23.2264C16.4129 22.0402 16.3082 21.0235 16.2234 20.4664C17.778 19.6065 19.5897 18.8919 21.6793 18.4943C21.6793 18.4943 20.9305 18.0883 19.6239 18.0149C19.6545 17.975 19.6659 17.9358 19.6431 17.8952C19.6054 17.8396 19.0069 17.814 18.7333 17.7591C18.6678 17.7384 18.811 17.675 18.8723 17.6116C18.5132 17.6323 18.4854 17.5732 18.63 17.5069C18.5438 17.5062 18.4576 17.5126 18.4576 17.5112C18.4769 17.4898 18.5367 17.4235 18.5367 17.4235C17.6027 17.4178 16.5305 17.5511 15.7133 17.9579C15.5366 18.0391 15.2566 18.2051 15.0771 18.3248C14.9866 18.3804 14.7615 18.4537 14.6845 18.4894C14.5762 18.6062 14.6247 18.6532 14.5969 18.7344C14.4965 18.7729 14.3796 18.8235 14.2535 18.8826C14.2635 18.7807 14.2371 18.7038 14.2678 18.5627C14.2621 18.0954 14.1858 17.9016 14.1117 17.5318C14.059 17.3559 14.0184 17.1849 13.9643 17.0139L13.9001 16.8308C13.6665 16.2067 13.3808 15.6553 12.9063 15.2356C12.4389 14.8132 11.7514 14.6051 11.0832 14.7334C10.4363 14.8808 9.73593 15.0162 9.27142 15.6139C8.84965 16.3015 9.24506 17.0167 9.51792 17.4699C10.1413 18.4324 10.8773 18.9966 11.2014 19.1726L11.423 19.1925C11.0062 18.9047 9.93328 18.0277 9.64687 17.457Z" fill="#D11242"/>
</svg>
