<svg width="50" height="50" viewBox="0 0 50 50" fill="none" xmlns="http://www.w3.org/2000/svg">
<rect width="50" height="50" fill="white"/>
<path fill-rule="evenodd" clip-rule="evenodd" d="M37.7164 23.6792C37.8403 24.1901 37.9197 24.719 37.9197 25.2658C37.9197 28.557 35.5932 31.2775 32.4976 31.9345C30.7734 28.4058 27.7103 27.1361 25.0728 27.1413C25.054 27.0892 25.0412 27.0439 25.0215 26.9883C24.6336 25.9289 24.0987 24.4037 24.9241 22.2822C26.0365 20.0001 28.358 18.4134 31.0673 18.4134C32.8351 18.4134 34.4354 19.1004 35.6513 20.2026L29.5815 10H20.2855L14.1397 20.2222C15.3572 19.1089 16.9652 18.4151 18.7467 18.4151C20.9904 18.4151 22.9555 19.5131 24.2013 21.1817C22.7966 24.0585 23.5417 26.1912 23.9757 27.3728C24.0423 27.5565 24.1004 27.7146 24.1423 27.8504L24.2021 28.0538C22.9854 30.7273 20.1898 32.1268 17.7316 32.0063C17.6957 32.0012 17.6573 31.9995 17.618 31.9918C17.4804 31.9824 17.3489 31.9525 17.2139 31.932C14.1687 31.2356 11.8926 28.5229 11.8926 25.2675C11.8926 24.6737 11.9917 24.109 12.1344 23.5587L6.25 33.3349L11.0475 41.2468H22.9931C20.1847 40.3924 18.1281 37.8104 18.1281 34.7216C18.1281 34.1535 18.2204 33.6109 18.3502 33.0854C21.1296 32.9556 24.0936 31.2818 25.3359 28.2426C26.8226 28.3024 29.6148 28.8792 31.3296 32.0918C31.3228 32.0935 31.316 32.0952 31.3083 32.0952C31.6556 32.9272 31.8342 33.82 31.8338 34.7216C31.8338 37.8095 29.7789 40.3907 26.9704 41.2477H38.6605L43.4589 33.3358L37.7155 23.6792H37.7164Z" fill="#DE060E"/>
</svg>
