<svg width="50" height="50" viewBox="0 0 50 50" fill="none" xmlns="http://www.w3.org/2000/svg">
<rect width="50" height="50" fill="white"/>
<path fill-rule="evenodd" clip-rule="evenodd" d="M5.00146 37.7765H41.7103V34.7998H5.00146V37.7765Z" fill="#006A4E"/>
<path fill-rule="evenodd" clip-rule="evenodd" d="M45 13.7813C44.9926 13.7813 39.1983 17.0764 37.8414 17.5775C36.5935 18.0658 36.1052 17.4354 35.9887 17.1918C35.7408 16.9524 35.0089 14.7685 35.0132 14.7642C35.0089 14.7685 35.4053 14.8251 36.1084 14.6478C36.9909 14.4255 44.9926 9.9968 45 10V13.7823V13.7813Z" fill="#ED1B2F"/>
<path fill-rule="evenodd" clip-rule="evenodd" d="M28.8342 16.6886L31.3237 22.8578L35.7193 20.5681L31.9114 12.215H26.3725L18.592 26.5857C18.5985 26.5889 22.4203 26.4692 24.8692 24.6421C25.4889 24.2821 27.2348 19.7422 28.8342 16.6886Z" fill="#006A4E"/>
<path fill-rule="evenodd" clip-rule="evenodd" d="M35.7195 20.568L31.3239 22.8566C27.5618 24.7638 23.9889 26.4359 22.0647 26.9755C16.9895 28.4222 10.8064 29.2909 8.58506 27.3441C6.49623 25.5075 11.3203 17.821 20.4427 16.1104C21.9225 15.7845 22.7859 15.8679 22.7859 15.8775C22.7859 15.8679 22.1597 13.2491 21.6736 12.6967C20.993 11.874 20.3273 11.7031 19.3337 11.8291C17.356 11.9445 8.95581 14.1626 5.6404 21.0915C3.79198 25.0277 6.37336 29.1712 7.97818 30.2525C8.46753 30.6414 13.4113 34.9024 24.3832 30.6435C35.2536 26.4691 44.9915 19.8949 44.999 19.8949V15.4961C44.9947 15.4907 40.7017 17.9257 35.7184 20.568" fill="#009597"/>
<path fill-rule="evenodd" clip-rule="evenodd" d="M32.8667 26.8675C33.2727 27.8131 34.4416 30.5644 34.7408 31.3572C35.1307 32.2258 36.1052 32.2258 36.1052 32.2226H41.1761L37.3991 24.4731C35.905 25.3022 34.3939 26.1002 32.8667 26.8665" fill="#006A4E"/>
</svg>
