<svg width="50" height="50" viewBox="0 0 50 50" fill="none" xmlns="http://www.w3.org/2000/svg">
<rect width="50" height="50" fill="white"/>
<path fill-rule="evenodd" clip-rule="evenodd" d="M6.25924 6.28496C6.25071 6.30745 6.24751 14.7463 6.25209 25.0379L6.26045 43.75H25.0052H43.75V25.0052V6.26048L25.0124 6.25227C10.0394 6.24574 6.27166 6.25231 6.25924 6.28496ZM25.855 8.86134C25.855 8.9542 25.673 9.42009 25.5087 9.74759C25.3323 10.0994 24.9202 10.7514 24.8102 10.8527C24.7809 10.8797 24.721 10.9532 24.677 11.0161C24.5732 11.1646 23.7809 11.957 23.6325 12.0607C23.5695 12.1046 23.5107 12.1494 23.5017 12.1601C23.4927 12.1708 23.4339 12.2149 23.371 12.2581C23.3081 12.3014 23.2492 12.3455 23.2402 12.3562C23.2313 12.3669 23.1724 12.4113 23.1095 12.4547C23.0466 12.4983 22.9752 12.5532 22.9509 12.5768C22.9265 12.6005 22.8508 12.6483 22.7827 12.6831C22.7145 12.7178 22.6382 12.7668 22.6131 12.7919C22.4878 12.9172 21.0152 13.6974 20.6336 13.8407C20.2412 13.988 19.9763 14.0856 19.89 14.1146C19.8361 14.1328 19.7442 14.1638 19.6858 14.1835C19.6273 14.2032 19.5391 14.233 19.4897 14.2498C19.4402 14.2665 19.2968 14.3096 19.171 14.3454C19.0451 14.3812 18.8613 14.4356 18.7624 14.4662C18.6635 14.4969 18.5165 14.5338 18.4356 14.5483C18.3547 14.5628 18.2223 14.5912 18.1414 14.6115C17.9673 14.655 17.7386 14.7007 17.4795 14.7437C17.3762 14.7609 17.1997 14.7902 17.0873 14.809C16.469 14.9123 15.7727 14.9748 15.1671 14.9815L14.6278 14.9873V14.2192V13.4511L14.9873 13.4263C15.1851 13.4126 15.6557 13.3945 16.0332 13.386C16.4107 13.3775 16.749 13.3614 16.785 13.3501C16.866 13.3248 17.1643 13.2778 17.4877 13.2394C17.6225 13.2234 17.8137 13.194 17.9126 13.174C18.0115 13.154 18.1733 13.1248 18.2721 13.109C18.371 13.0932 18.5107 13.0651 18.5826 13.0466C18.706 13.0148 18.8593 12.9771 19.122 12.9141C19.1849 12.899 19.3172 12.8618 19.4161 12.8314C19.515 12.8011 19.6988 12.747 19.8247 12.7112C19.9505 12.6753 20.0976 12.6307 20.1515 12.612C20.2055 12.5933 20.3746 12.5349 20.5274 12.4822C20.8751 12.3624 21.1235 12.2537 21.7942 11.9279C22.0865 11.786 22.3382 11.6698 22.3537 11.6698C22.4137 11.6698 23.7045 10.8627 23.7632 10.7885C23.7722 10.7771 23.831 10.7325 23.8939 10.6892C23.9569 10.646 24.0304 10.5872 24.0574 10.5585C24.0843 10.5299 24.1579 10.4707 24.2208 10.4271C24.2837 10.3835 24.4014 10.2809 24.4823 10.199C24.5632 10.1171 24.6808 10.0139 24.7437 9.96969C24.8909 9.86621 25.163 9.59401 25.266 9.44725C25.3102 9.38433 25.3988 9.28138 25.4628 9.21846C25.5269 9.15554 25.6149 9.05258 25.6584 8.98966C25.7651 8.83539 25.855 8.77666 25.855 8.86134ZM16.6216 16.3066C16.997 16.3558 17.2549 16.399 17.4142 16.4393C17.4906 16.4587 17.6082 16.4873 17.6756 16.5029C17.7875 16.5288 18.2433 16.6839 18.5919 16.8146C18.9248 16.9395 19.7503 17.4052 19.841 17.5194C19.85 17.5306 19.9087 17.5758 19.9714 17.6196C20.2768 17.8333 20.8553 18.4265 21.0753 18.7518C21.3871 19.2127 21.5601 19.5318 21.7369 19.9718C21.7766 20.0706 21.8369 20.2145 21.8709 20.2913C21.905 20.3682 21.9328 20.4756 21.9328 20.5299C21.9328 20.5843 21.9579 20.6758 21.9884 20.7333C22.019 20.7909 22.0551 20.9188 22.0687 21.0177C22.0822 21.1166 22.1111 21.2784 22.1328 21.3772C22.1869 21.6234 22.1869 23.419 22.1328 23.6652C22.1111 23.764 22.0804 23.9258 22.0646 24.0247C22.0488 24.1236 22.0201 24.267 22.0007 24.3434C21.9814 24.4198 21.9526 24.5375 21.9368 24.6049C21.8839 24.8309 21.6418 25.5243 21.5581 25.6894C21.5125 25.7793 21.4749 25.8717 21.4745 25.8948C21.4741 25.9179 21.4451 25.9735 21.4099 26.0185C21.3747 26.0634 21.3453 26.1222 21.3445 26.1492C21.3437 26.1762 21.3143 26.235 21.2792 26.2799C21.244 26.3249 21.2149 26.3786 21.2145 26.3992C21.2134 26.4594 20.6016 27.4315 20.5286 27.4893C20.5172 27.4983 20.4724 27.5571 20.429 27.62C20.3856 27.6829 20.3123 27.7712 20.2659 27.8161C20.2196 27.8611 20.1456 27.9493 20.1015 28.0122C19.9979 28.1601 19.5313 28.6267 19.3834 28.7303C19.3205 28.7744 19.2323 28.8484 19.1873 28.8947C19.1424 28.9411 19.0541 29.0147 18.9912 29.0584C18.9283 29.102 18.857 29.1569 18.8329 29.1804C18.771 29.2405 18.5961 29.3277 18.5766 29.3082C18.542 29.2735 18.6074 29.1555 18.7331 29.0259C18.9303 28.8227 19.3728 28.1202 19.4665 27.8614C19.4868 27.8054 19.5352 27.7149 19.5742 27.6603C19.6131 27.6056 19.6449 27.545 19.6449 27.5256C19.6449 27.5062 19.7023 27.3687 19.7725 27.2201C19.9891 26.7615 20.2079 26.1511 20.3264 25.6753C20.3442 25.6034 20.3842 25.4636 20.4152 25.3648C20.4461 25.2659 20.4829 25.1041 20.497 25.0052C20.511 24.9064 20.5397 24.7593 20.5608 24.6784C20.5819 24.5975 20.6127 24.4136 20.6294 24.2698C20.646 24.126 20.6753 23.876 20.6945 23.7142C20.7763 23.0224 20.7172 21.9632 20.5626 21.3527C20.5432 21.2763 20.5153 21.1587 20.5004 21.0912C20.4856 21.0238 20.4569 20.9378 20.4366 20.9002C20.4163 20.8625 20.3648 20.7278 20.3221 20.6009C20.2278 20.3209 19.8764 19.7264 19.6853 19.5236C19.6086 19.4422 19.5221 19.3352 19.4929 19.2859C19.4638 19.2366 19.397 19.1708 19.3445 19.1398C19.2919 19.1088 19.2012 19.0356 19.1429 18.9773C19.0286 18.863 18.556 18.5336 18.5064 18.5336C18.4898 18.5336 18.3943 18.4844 18.2943 18.4241C18.1332 18.3271 17.5772 18.1295 17.2099 18.0386C17.138 18.0208 17.034 17.9925 16.9788 17.9758C16.9236 17.959 16.8233 17.9453 16.756 17.9453C16.6887 17.9453 16.6088 17.932 16.5785 17.9158C16.5088 17.8785 15.9962 17.8427 15.2823 17.8251C14.8321 17.8141 14.7166 17.8016 14.6695 17.7589C14.6175 17.7118 14.6114 17.6367 14.6114 17.0358C14.6114 16.4531 14.6186 16.3573 14.6665 16.3044C14.7181 16.2474 14.7732 16.2445 15.5408 16.258C15.9914 16.2658 16.4777 16.2877 16.6216 16.3066ZM31.8854 24.4756C31.9753 24.495 32.1076 24.5258 32.1796 24.5441C32.2515 24.5624 32.3691 24.5906 32.441 24.6068C32.5129 24.623 32.6233 24.6588 32.6862 24.6864C32.7491 24.7139 32.8815 24.769 32.9803 24.8087C33.3934 24.9747 34.0911 25.342 34.157 25.4282C34.166 25.44 34.2248 25.485 34.2877 25.5282C34.3506 25.5714 34.4095 25.6155 34.4185 25.6263C34.4275 25.637 34.4863 25.6817 34.5492 25.7256C34.8046 25.9039 35.333 26.4811 35.3335 26.5823C35.3338 26.6359 35.2428 26.6004 35.0558 26.474C34.8544 26.3378 34.0581 25.9239 33.8387 25.8414C33.347 25.6565 32.884 25.5225 32.5064 25.456C32.2478 25.4104 31.0803 25.4102 30.8722 25.4557C30.7823 25.4753 30.6499 25.5046 30.578 25.5206C30.5061 25.5367 30.4002 25.5744 30.3427 25.6044C30.2851 25.6344 30.2175 25.6589 30.1925 25.6589C30.1496 25.6589 29.7472 25.9032 29.7118 25.9506C29.7029 25.9627 29.644 26.0085 29.5811 26.0524C29.388 26.187 29.141 26.453 28.9597 26.7218C28.7641 27.0116 28.7018 27.1556 28.5351 27.7017C28.4742 27.9012 28.467 27.9892 28.4788 28.3881C28.4863 28.6398 28.5094 28.9082 28.5302 28.9846C28.5813 29.1731 28.6338 29.3908 28.6425 29.4504C28.6486 29.4928 28.5457 29.4994 27.8821 29.4994H27.1145L27.0838 29.3687C27.0419 29.19 27.0473 28.0091 27.0912 27.7671C27.1741 27.3097 27.2278 27.0663 27.2856 26.8846C27.3293 26.7477 27.705 26.0039 27.7582 25.9491C27.7822 25.9243 27.8381 25.8526 27.8823 25.7897C28.0226 25.5898 28.4194 25.2153 28.6697 25.0464C28.9496 24.8576 29.4222 24.613 29.5073 24.613C29.5394 24.613 29.6462 24.5836 29.7445 24.5477C29.8429 24.5117 29.9677 24.4821 30.0219 24.4818C30.0761 24.4815 30.1425 24.4667 30.1694 24.4489C30.234 24.4064 31.668 24.4286 31.8854 24.4756ZM23.5344 31.0708C23.5344 31.0991 23.497 31.1542 23.4512 31.1933C23.4054 31.2324 23.3136 31.3129 23.2471 31.3721C23.1469 31.4613 23.1042 31.4781 22.9978 31.4702C22.8497 31.459 22.8232 31.4186 22.9047 31.3283C22.9365 31.2931 23.0036 31.2092 23.054 31.1418C23.1418 31.0242 23.1533 31.0193 23.34 31.0193C23.4952 31.0193 23.5344 31.0296 23.5344 31.0708ZM13.2223 31.661C13.3706 31.6941 13.4032 31.7738 13.3355 31.9375C13.2896 32.0481 13.288 32.0484 13.0893 31.981C12.8139 31.8875 12.3293 31.9497 12.0947 32.1085C11.7711 32.3277 11.6471 32.5835 11.6143 33.0995C11.5954 33.3969 11.7081 33.7466 11.8872 33.9466C11.9866 34.0576 12.234 34.2115 12.3562 34.2384C12.5279 34.2763 12.9398 34.2705 13.121 34.2277C13.3087 34.1833 13.3694 34.214 13.3694 34.3531C13.3694 34.5381 13.161 34.6136 12.6503 34.6136C12.3992 34.6136 12.2274 34.5972 12.1325 34.5642C11.6794 34.4064 11.4204 34.1474 11.2626 33.6943C11.2004 33.5157 11.1931 32.7305 11.2521 32.5578C11.3811 32.1796 11.922 31.6743 12.1999 31.6725C12.2409 31.6722 12.2965 31.6572 12.3235 31.6392C12.3802 31.6013 13.0252 31.6169 13.2223 31.661ZM33.6396 31.6617C33.6958 31.7125 33.6994 31.8019 33.6994 33.1438C33.6994 34.5096 33.6967 34.5743 33.6367 34.6285C33.5877 34.6728 33.5598 34.6775 33.5084 34.65C33.4722 34.6306 33.4194 34.6238 33.3909 34.6347C33.3624 34.6456 33.3172 34.6364 33.2904 34.6142C33.2487 34.5796 33.2418 34.3697 33.2418 33.1438C33.2418 31.6219 33.2435 31.6058 33.3955 31.6532C33.4278 31.6632 33.4763 31.6573 33.5033 31.64C33.568 31.5985 33.5702 31.5989 33.6396 31.6617ZM23.7308 31.6703C23.74 31.6717 23.766 31.7026 23.7886 31.7388C23.8223 31.7928 23.8207 31.8221 23.7797 31.9015L23.7296 31.9983L23.1663 32.0072L22.6029 32.0161V32.4247V32.8333L23.1242 32.8423C23.5512 32.8497 23.6562 32.861 23.7044 32.9045C23.7776 32.9709 23.7792 33.0393 23.7091 33.1167C23.6614 33.1694 23.5987 33.1765 23.1806 33.1765C22.5604 33.1765 22.5865 33.1537 22.5865 33.6937C22.5865 34.2525 22.549 34.2224 23.246 34.2224H23.7973L23.8345 34.3041C23.8624 34.3653 23.8623 34.4064 23.8343 34.4681L23.7968 34.5504L23.0037 34.5416L22.2107 34.5329L22.2021 33.1312C22.1971 32.306 22.2061 31.7145 22.2239 31.6931C22.2447 31.6679 22.4807 31.6583 22.9842 31.6621C23.3857 31.6651 23.7217 31.6688 23.7308 31.6703ZM29.0324 31.7908C29.2816 31.9164 29.5132 32.1309 29.6198 32.3352C29.7406 32.5668 29.7889 33.0967 29.7216 33.4543C29.6312 33.9354 29.218 34.3937 28.7885 34.4893C28.7211 34.5042 28.6034 34.5335 28.527 34.5543C28.4506 34.5751 28.1814 34.5979 27.9289 34.6049C27.5106 34.6166 27.4646 34.6123 27.4137 34.556C27.3625 34.4994 27.3585 34.3765 27.3663 33.0918L27.3749 31.6893L27.5546 31.6729C27.6535 31.664 27.9769 31.6619 28.2734 31.6683C28.8108 31.6799 28.8129 31.6803 29.0324 31.7908ZM18.2705 31.7419C18.3325 31.7798 18.4465 31.8777 18.5238 31.9595L18.6644 32.1082L18.6642 32.389C18.6641 32.6916 18.6216 32.8036 18.4403 32.9786C18.2544 33.1581 18.2547 33.1544 18.4004 33.3689C18.4741 33.4774 18.5336 33.6041 18.5336 33.6525C18.5336 33.7005 18.562 33.8301 18.5967 33.9403C18.7801 34.5229 18.7792 34.5329 18.5384 34.5329H18.3643L18.2864 34.3041C18.2435 34.1782 18.2081 34.0383 18.2076 33.9931C18.2066 33.8956 18.097 33.5843 18.0391 33.5145C18.0167 33.4876 17.9281 33.4299 17.8422 33.3864C17.6681 33.2981 17.3485 33.2755 17.3019 33.348C17.274 33.3914 17.2695 33.4409 17.2331 34.108L17.2099 34.5329H17.0628H16.9157L16.9072 33.1438C16.9025 32.3798 16.9057 31.7363 16.9143 31.7138C16.9261 31.6831 17.0828 31.673 17.5439 31.6731C18.1102 31.6732 18.1665 31.6785 18.2705 31.7419ZM39.1194 31.7821C39.1399 31.9615 39.0603 31.9998 38.6675 31.9998C38.3715 31.9998 38.3099 32.0089 38.2644 32.0591C38.217 32.1115 38.2097 32.2596 38.2022 33.3257L38.1936 34.5329H38.0138H37.834L37.8177 33.2745L37.8014 32.0161L37.3948 31.9998L36.9882 31.9835L36.96 31.8744C36.9069 31.6686 36.8927 31.6711 38.059 31.6807L39.1087 31.6893L39.1194 31.7821ZM17.3084 32.0243C17.2184 32.1139 17.2182 32.1154 17.2339 32.4755C17.2558 32.9754 17.2594 32.9803 17.607 32.9803C18.0148 32.9803 18.1338 32.9062 18.2422 32.5845C18.2743 32.4893 18.2733 32.4367 18.2367 32.3129C18.2118 32.2285 18.1673 32.1376 18.1379 32.111C18.0468 32.0286 17.742 31.9344 17.5661 31.9344C17.427 31.9344 17.3833 31.9497 17.3084 32.0243ZM27.8048 31.9942C27.7568 32.0472 27.7508 32.1737 27.7508 33.1168C27.7508 34.3488 27.7346 34.2877 28.0615 34.2877C28.1667 34.2877 28.2979 34.2736 28.3531 34.2564C28.4083 34.2391 28.5252 34.206 28.6128 34.1828C28.7602 34.1438 28.9922 33.9609 29.1499 33.7592C29.3737 33.4731 29.3737 32.6841 29.15 32.3976C28.9098 32.0901 28.5692 31.9367 28.1235 31.9353C27.908 31.9346 27.8489 31.9455 27.8048 31.9942ZM22.5702 36.4997C22.7815 36.5317 22.831 36.553 23.1168 36.7346C23.3977 36.9131 23.5438 37.2165 23.5438 37.6216C23.5438 38.0255 23.3939 38.3414 23.1095 38.5367C22.9146 38.6706 22.9109 38.6883 23.047 38.834C23.1593 38.9542 23.371 39.3525 23.371 39.4434C23.371 39.4756 23.4004 39.5824 23.4364 39.6807C23.4723 39.7791 23.5017 39.9008 23.5017 39.9512C23.5017 40.0016 23.5319 40.1019 23.5687 40.1741C23.6182 40.2711 23.6331 40.3539 23.6259 40.4915L23.6161 40.6776L23.1841 40.6867L22.752 40.6959L22.6693 40.5326C22.6238 40.4428 22.5865 40.3429 22.5865 40.3105C22.5865 40.2783 22.5571 40.1713 22.5212 40.073C22.4852 39.9746 22.4556 39.8571 22.4553 39.8119C22.4548 39.7148 22.3822 39.4972 22.2902 39.3169C22.1956 39.1316 22.0604 39.06 21.8047 39.0599C21.4673 39.0597 21.4753 39.04 21.4753 39.8712C21.4753 40.4797 21.468 40.5825 21.4212 40.6342C21.3746 40.6857 21.3135 40.694 20.9808 40.694H20.5944L20.5435 40.5954C20.4989 40.5091 20.4929 40.2551 20.496 38.5608C20.4999 36.3733 20.4827 36.5107 20.7531 36.5098C20.8357 36.5095 20.9253 36.4947 20.9523 36.4769C21.0112 36.438 22.2814 36.4559 22.5702 36.4997ZM12.6599 36.6002C12.712 36.7068 12.8028 37.0033 13.0429 37.8504C13.076 37.9672 13.1282 38.1437 13.1588 38.2426C13.1895 38.3415 13.2273 38.4923 13.243 38.5776C13.2586 38.663 13.284 38.8028 13.2994 38.8881C13.3311 39.0639 13.3658 39.1578 13.3991 39.1578C13.4513 39.1578 13.5002 39.0728 13.5002 38.982C13.5002 38.9284 13.5139 38.8394 13.5306 38.7842C13.5474 38.729 13.5779 38.6177 13.5986 38.5368C13.6595 38.2977 13.7601 37.9526 13.8622 37.6326C13.9148 37.4679 13.9577 37.3092 13.9577 37.28C13.9577 37.2507 13.9872 37.1691 14.0231 37.0986C14.0591 37.0282 14.0885 36.94 14.0885 36.9028C14.0885 36.8655 14.1256 36.7616 14.1711 36.6719L14.2537 36.5089L14.882 36.5178L15.5103 36.5266L15.535 36.9516C15.5486 37.1852 15.5747 37.6118 15.593 37.8994C15.6113 38.187 15.64 38.7827 15.6568 39.2231C15.6736 39.6636 15.6964 40.1465 15.7076 40.2963C15.7362 40.6803 15.721 40.694 15.2651 40.694C14.8746 40.694 14.8361 40.6754 14.7909 40.4652C14.7669 40.3537 14.7266 39.4563 14.6914 38.2508C14.6818 37.9227 14.6629 37.6543 14.6493 37.6543C14.5955 37.6543 14.5461 37.7375 14.5461 37.8281C14.5461 37.8806 14.5178 38.0137 14.4831 38.1239C14.4485 38.2341 14.3591 38.5229 14.2844 38.7656C14.2097 39.0082 14.0763 39.4303 13.9878 39.7034C13.8994 39.9765 13.827 40.2233 13.827 40.2519C13.827 40.2805 13.79 40.377 13.7447 40.4663L13.6625 40.6286H13.3412C12.9604 40.6286 12.9577 40.6266 12.85 40.2691C12.8094 40.1342 12.7479 39.9338 12.7133 39.8235C12.6787 39.7133 12.6503 39.584 12.6503 39.5362C12.6503 39.4885 12.6209 39.3917 12.585 39.3212C12.549 39.2507 12.5194 39.152 12.5191 39.1019C12.5189 39.0517 12.4949 38.9445 12.4658 38.8636C12.4367 38.7827 12.3995 38.6577 12.383 38.5858C12.3666 38.5139 12.3381 38.3962 12.3196 38.3243C12.3011 38.2524 12.2761 38.1274 12.2639 38.0465C12.249 37.9474 12.2258 37.8994 12.1928 37.8994C12.1156 37.8994 12.0782 38.201 12.0906 38.7247C12.0913 38.7562 12.0771 38.951 12.059 39.1578C12.0409 39.3645 12.0187 39.7686 12.0097 40.0558C11.989 40.7193 12.0076 40.694 11.5391 40.694C11.0724 40.694 11.0713 40.6927 11.0946 40.2151C11.1042 40.0201 11.1278 39.6914 11.1471 39.4846C11.1664 39.2779 11.196 38.8219 11.2128 38.4714C11.2633 37.417 11.3205 36.6724 11.3602 36.5512C11.3703 36.5204 11.5267 36.5103 11.9948 36.5103H12.616L12.6599 36.6002ZM18.6954 36.5973C18.733 36.6452 18.7713 36.7224 18.7804 36.7689C18.7895 36.8155 18.8112 36.8939 18.8287 36.9434C18.8962 37.1345 18.9248 37.2242 19.0239 37.5562C19.0802 37.745 19.1401 37.9398 19.1568 37.9893C19.1736 38.0387 19.201 38.1196 19.2178 38.1691C19.2346 38.2185 19.2797 38.3693 19.3181 38.5041C19.3564 38.6389 19.4015 38.7896 19.4183 38.8391C19.4351 38.8886 19.4625 38.9694 19.4793 39.0189C19.4961 39.0683 19.5707 39.3073 19.6452 39.55C19.7197 39.7927 19.8228 40.1234 19.8744 40.2849C20.0038 40.6901 19.9997 40.694 19.4488 40.694C19.0947 40.694 19.0267 40.6856 18.9837 40.6368C18.9116 40.5548 18.7953 40.3146 18.7943 40.2459C18.7926 40.1319 18.6375 39.7317 18.5663 39.6578C18.4973 39.5861 18.4722 39.5827 18.0096 39.5827C17.5304 39.5827 17.5244 39.5836 17.4602 39.6653C17.3908 39.7535 17.283 40.0882 17.2122 40.4354C17.2027 40.4819 17.1638 40.5595 17.1258 40.6079L17.0566 40.6958L16.6266 40.6867L16.1967 40.6776L16.1856 40.58C16.1795 40.5263 16.2064 40.3792 16.2455 40.2531C16.2845 40.127 16.3604 39.8768 16.414 39.6971C16.4676 39.5173 16.5253 39.3298 16.542 39.2803C16.5588 39.2309 16.5863 39.15 16.6031 39.1006C16.6198 39.0511 16.6649 38.9004 16.7033 38.7656C16.7416 38.6307 16.7867 38.48 16.8035 38.4305C16.8203 38.3811 16.8477 38.3002 16.8645 38.2508C16.8813 38.2013 16.9412 38.0065 16.9977 37.8177C17.0542 37.6289 17.1287 37.3843 17.1633 37.2741C17.1979 37.1639 17.2262 37.0493 17.2262 37.0195C17.2262 36.9897 17.2556 36.9076 17.2916 36.8372C17.3276 36.7667 17.357 36.6741 17.357 36.6315C17.357 36.5888 17.3668 36.5441 17.3788 36.5321C17.3907 36.5201 17.6765 36.5103 18.0137 36.5103H18.6269L18.6954 36.5973ZM25.185 38.6021V40.6776H24.6784H24.1718L24.1633 38.6348C24.1586 37.5113 24.162 36.5733 24.1707 36.5503C24.1829 36.5184 24.3045 36.5107 24.6859 36.5176L25.185 36.5266V38.6021ZM28.9203 36.8556C28.9329 37.3049 28.9533 37.2905 28.2884 37.3021L27.7671 37.3111L27.7586 38.9431C27.751 40.4151 27.7448 40.581 27.6955 40.6355C27.6471 40.6889 27.5955 40.6949 27.2464 40.6867L26.8519 40.6776L26.8312 39.2722C26.8198 38.4992 26.8084 37.8447 26.8059 37.8177C26.8034 37.7907 26.8063 37.7025 26.8124 37.6216C26.8185 37.5407 26.8038 37.4341 26.7797 37.3846L26.7359 37.2947H26.2572C25.6462 37.2947 25.6589 37.3038 25.6589 36.8702C25.6589 36.6963 25.6689 36.5439 25.681 36.5318C25.6932 36.5197 26.4249 36.5135 27.3071 36.5182L28.9111 36.5266L28.9203 36.8556ZM30.423 38.5503C30.4307 40.3984 30.4267 40.5791 30.3771 40.6339C30.3294 40.6865 30.2682 40.694 29.881 40.694C29.5157 40.694 29.4288 40.6846 29.3794 40.6399C29.3227 40.5886 29.3196 40.4814 29.3196 38.5698C29.3196 37.4611 29.3298 36.5437 29.3422 36.5313C29.3546 36.5189 29.601 36.5128 29.8897 36.5177L30.4146 36.5266L30.423 38.5503ZM32.6591 36.5644C32.692 36.5941 32.7189 36.6474 32.7189 36.6827C32.7189 36.718 32.7472 36.8371 32.7818 36.9473C32.8423 37.1399 32.9116 37.3767 33.0508 37.8667C33.0866 37.9926 33.1294 38.1407 33.1461 38.1959C33.1628 38.2511 33.1764 38.3322 33.1764 38.3761C33.1764 38.42 33.2059 38.5365 33.2418 38.6348C33.2778 38.7332 33.3072 38.8746 33.3072 38.949C33.3072 39.1882 33.4398 39.2213 33.4888 38.9944C33.4986 38.9494 33.5217 38.8538 33.5403 38.7819C33.5589 38.71 33.5885 38.5923 33.6063 38.5204C33.624 38.4485 33.6522 38.3445 33.6689 38.2893C33.6857 38.2341 33.6994 38.1637 33.6994 38.1328C33.6994 38.1019 33.7288 38.0189 33.7648 37.9484C33.8007 37.878 33.8301 37.7897 33.8301 37.7523C33.8301 37.7149 33.8596 37.6267 33.8955 37.5562C33.9315 37.4858 33.9609 37.3828 33.9609 37.3274C33.9609 37.2721 33.9903 37.1691 34.0263 37.0986C34.0622 37.0282 34.0919 36.9442 34.0921 36.912C34.0924 36.8798 34.1112 36.8001 34.134 36.7347C34.2136 36.5064 34.201 36.5103 34.8423 36.5103C35.3525 36.5103 35.4277 36.5171 35.4733 36.5675C35.532 36.6324 35.5472 36.8304 35.5941 38.1446C35.6105 38.603 35.6403 39.1325 35.6603 39.3212C35.6803 39.51 35.704 39.8711 35.7129 40.1236C35.7339 40.7185 35.7506 40.6996 35.2155 40.6869L34.827 40.6776L34.799 40.5142C34.773 40.3626 34.7503 39.9241 34.6879 38.3733C34.6677 37.871 34.6554 37.7687 34.615 37.7687C34.5883 37.7687 34.5623 37.7981 34.5571 37.834C34.5473 37.9028 34.4378 38.288 34.3805 38.4551C34.3067 38.6707 34.2894 38.7258 34.2224 38.9617C34.184 39.0965 34.1389 39.2472 34.1221 39.2967C34.1053 39.3461 34.0778 39.427 34.0608 39.4765C34.0439 39.5259 33.9666 39.7696 33.8892 40.018C33.7051 40.6089 33.6863 40.6286 33.3051 40.6286C33.0329 40.6286 33.0142 40.624 32.9493 40.5416C32.9117 40.4937 32.8731 40.4165 32.8636 40.37C32.8541 40.3235 32.8324 40.2303 32.8153 40.1628C32.7982 40.0954 32.7684 39.9778 32.749 39.9014C32.7296 39.8249 32.6866 39.6668 32.6535 39.55C32.6204 39.4332 32.5763 39.2714 32.5554 39.1905C32.5346 39.1096 32.4905 38.9478 32.4574 38.8309C32.4243 38.7141 32.3803 38.5523 32.3597 38.4714C32.3391 38.3905 32.3085 38.2791 32.2917 38.2239C32.275 38.1687 32.2613 38.065 32.2613 37.9935C32.2613 37.8749 32.2177 37.785 32.1602 37.785C32.1028 37.785 32.0757 38.2028 32.0145 40.0395C32.0001 40.4699 31.986 40.5897 31.9441 40.636C31.9001 40.6846 31.8352 40.694 31.5422 40.694C31.0865 40.694 31.0713 40.6803 31.0994 40.2963C31.1103 40.1465 31.1332 39.7518 31.1503 39.4193C31.1673 39.0867 31.1965 38.6013 31.2151 38.3407C31.2337 38.08 31.262 37.6388 31.278 37.3601C31.3048 36.8942 31.33 36.6563 31.3636 36.5512C31.3735 36.5204 31.5278 36.5103 31.988 36.5103C32.511 36.5103 32.608 36.5181 32.6591 36.5644ZM39.0512 36.8208C39.0629 37.2635 39.1092 37.2397 38.2506 37.232C37.3674 37.224 37.419 37.194 37.4325 37.7072L37.4418 38.0628L38.1326 38.0717L38.8233 38.0805L38.9088 38.166C38.9863 38.2435 38.9944 38.2753 38.9944 38.5041C38.9944 38.7329 38.9863 38.7647 38.9088 38.8422L38.8233 38.9277L38.1326 38.9365L37.4418 38.9453L37.4326 39.3665C37.4198 39.9581 37.3506 39.915 38.3006 39.9071C38.7593 39.9033 39.0766 39.9134 39.0957 39.9324C39.1135 39.9503 39.1233 40.1203 39.1181 40.3209L39.1087 40.6776L37.837 40.6862C36.6884 40.6939 36.5595 40.6895 36.5051 40.6403C36.4479 40.5885 36.4449 40.4866 36.4449 38.5698C36.4449 37.4611 36.4549 36.5439 36.4671 36.5317C36.4793 36.5195 37.0639 36.5134 37.7663 36.5181L39.0434 36.5266L39.0512 36.8208ZM21.5294 37.2238C21.4846 37.2732 21.4753 37.3601 21.4753 37.7259C21.4753 38.1636 21.4762 38.1693 21.564 38.2571C21.6432 38.3363 21.6707 38.3441 21.8173 38.3295C22.2006 38.2912 22.3642 38.2137 22.5079 38.0023C22.6733 37.7588 22.5577 37.373 22.2787 37.2375C22.0754 37.1389 21.6139 37.1304 21.5294 37.2238ZM17.9678 37.3812C17.9554 37.3936 17.9453 37.4333 17.9453 37.4695C17.9453 37.5056 17.9316 37.5804 17.9148 37.6356C17.8981 37.6908 17.8698 37.7948 17.852 37.8667C17.8342 37.9386 17.7945 38.0784 17.7638 38.1772C17.7073 38.3589 17.654 38.6155 17.6416 38.7656L17.6348 38.8473H18.0102C18.4358 38.8473 18.4443 38.8412 18.3711 38.5885C18.2827 38.2839 18.21 38.0223 18.1794 37.8994C18.1614 37.8275 18.1312 37.7098 18.1122 37.6379C18.0932 37.566 18.0736 37.479 18.0687 37.4445C18.0591 37.3779 18.005 37.3439 17.9678 37.3812Z" fill="#0065A4"/>
</svg>
