<svg width="60" height="60" viewBox="0 0 60 60" fill="none" xmlns="http://www.w3.org/2000/svg">
<rect x="2" y="11" width="56" height="39" rx="3" fill="#D5DEEF"/>
<mask id="mask0" mask-type="alpha" maskUnits="userSpaceOnUse" x="2" y="10" width="56" height="39">
<rect x="2" y="10" width="56" height="39" rx="3" fill="#D5DEEF"/>
</mask>
<g mask="url(#mask0)">
<path fill-rule="evenodd" clip-rule="evenodd" d="M3.5 43.5C8.47056 43.5 12.5 39.4706 12.5 34.5C12.5 29.5294 8.47056 25.5 3.5 25.5C-1.47056 25.5 -5.5 29.5294 -5.5 34.5C-5.5 39.4706 -1.47056 43.5 3.5 43.5ZM3.5 44C8.74671 44 13 39.7467 13 34.5C13 29.2533 8.74671 25 3.5 25C-1.74671 25 -6 29.2533 -6 34.5C-6 39.7467 -1.74671 44 3.5 44Z" fill="#A2A5B0"/>
<path fill-rule="evenodd" clip-rule="evenodd" d="M3.50007 40.7856C6.97157 40.7856 9.78578 37.9714 9.78578 34.4999C9.78578 31.0284 6.97157 28.2142 3.50007 28.2142C0.0285659 28.2142 -2.78564 31.0284 -2.78564 34.4999C-2.78564 37.9714 0.0285659 40.7856 3.50007 40.7856ZM3.50007 41.2856C7.24772 41.2856 10.2858 38.2476 10.2858 34.4999C10.2858 30.7523 7.24772 27.7142 3.50007 27.7142C-0.247577 27.7142 -3.28564 30.7523 -3.28564 34.4999C-3.28564 38.2476 -0.247577 41.2856 3.50007 41.2856Z" fill="#A2A5B0"/>
<path fill-rule="evenodd" clip-rule="evenodd" d="M0.535645 31.5358H6.46422V35.8978L6.45139 35.9363C6.33603 36.2824 6.07682 36.9909 5.61755 37.6167C5.15817 38.2427 4.47055 38.8215 3.49993 38.8215C2.72229 38.8215 2.03792 38.3702 1.53237 37.8052C1.02518 37.2383 0.663254 36.52 0.540499 35.9063L0.535645 35.882V31.5358ZM1.03564 32.0358V35.8318C1.14387 36.3447 1.45776 36.9719 1.90499 37.4718C2.36075 37.9812 2.92043 38.3215 3.49993 38.3215C4.24597 38.3215 4.8024 37.8824 5.21445 37.3209C5.61137 36.78 5.84825 36.1585 5.96422 35.8163V32.0358H1.03564Z" fill="#A2A5B0"/>
<path fill-rule="evenodd" clip-rule="evenodd" d="M25.3094 41.5987C25.3224 40.8372 25.2829 39.971 25.1846 39L24.8274 39.0351L24.8521 39.2901C24.9381 40.2152 24.9705 41.0295 24.956 41.7368L24.9538 41.79L24.7815 41.803C23.9259 41.8677 23.1338 41.9514 22.285 42.0629C21.2678 42.1966 20.8439 42.8452 21.0513 43.6998C21.2279 44.4272 21.8443 45.1831 22.5474 45.5248L22.6448 45.5699C24.0968 46.2065 25.1181 45.0797 25.2871 42.1984L25.2913 42.1215L25.8962 42.0853C26.7754 42.0375 27.757 42.0035 28.9444 41.9759L32.7815 41.9069C33.5188 41.8931 34.094 41.8795 34.63 41.8623L35.7403 41.8197L35.7241 41.4666L35.0913 41.4926C34.726 41.5064 34.3594 41.5178 33.9494 41.5282L30.5008 41.5914C28.6935 41.6226 27.314 41.6595 26.1276 41.7193L25.3049 41.766L25.3094 41.5987ZM24.8126 42.1552L24.9409 42.1455L24.9337 42.2916C24.775 44.8878 23.8933 45.785 22.7062 45.208C22.0985 44.9125 21.552 44.2425 21.4004 43.6177C21.2412 42.9621 21.5312 42.5185 22.3325 42.4132C23.1749 42.3025 23.9618 42.2194 24.8126 42.1552Z" fill="#3D3D3D"/>
<path d="M27.6864 39.2008C28.0574 39.0838 28.2934 39.2383 28.3224 39.5826L28.3272 39.6722C28.3289 39.7764 28.3168 39.8864 28.2821 40.0797L28.144 40.7922C28.0507 41.3139 28.0543 41.6422 28.1761 41.8272C28.2421 41.9276 28.5538 42.0376 28.88 42.0621C29.0338 42.0737 29.1465 42.0645 29.2165 42.0551L29.2326 42.0523L29.2334 42.0175C29.2452 41.6812 29.3356 41.2807 29.4737 40.8818L29.5465 40.6827C29.6168 40.5007 29.6914 40.3353 29.7543 40.2194C29.7871 40.1592 29.816 40.1133 29.843 40.0813C29.8725 40.0464 29.9006 40.0223 29.9485 40.0074C30.0532 39.975 30.1399 40.0294 30.1755 40.1083L30.1889 40.1496L30.1855 40.2339L29.6598 42.0212L29.6623 42.0363C29.6658 42.098 29.6542 42.1515 29.6297 42.1975L29.598 42.2431C29.6722 42.8863 30.246 42.9123 31.6601 42.0278L31.8094 41.9331C32.0969 41.748 32.1728 41.4513 32.1142 40.9124L32.0915 40.7347L32.0355 40.3695L32.031 40.3785C31.9675 40.508 31.939 40.6238 31.9412 40.6637L31.9449 40.6771L31.6833 40.9191C31.5145 40.7423 31.5787 40.4458 31.7525 40.1403C31.8191 40.0232 31.8952 39.9228 31.9655 39.8643C32.1187 39.7368 32.3376 39.779 32.3546 40.0124L32.3676 40.1487L32.4541 40.7366C32.5558 41.4805 32.4677 41.9316 32.0058 42.2288C30.3808 43.2746 29.4603 43.2765 29.2693 42.4595L29.2577 42.4021L29.1982 42.4115C29.12 42.4203 29.0347 42.4228 28.9445 42.4196L28.8527 42.4145C28.424 42.3822 28.0197 42.2395 27.8748 42.0194C27.7017 41.7564 27.6837 41.4039 27.7656 40.8785L27.8153 40.5976L27.9236 40.0446C27.9606 39.841 27.9712 39.7392 27.9669 39.6464L27.9647 39.6118C27.9548 39.4944 27.9473 39.4895 27.7959 39.5373C27.2423 39.7119 27.0769 40.0776 26.9696 41.0987L26.9256 41.5402C26.8839 41.9262 26.8429 42.1487 26.7643 42.3714L26.7366 42.4459L26.4014 42.3195C26.4836 42.1081 26.5248 41.9034 26.5674 41.5136L26.5965 41.2242C26.7169 39.9443 26.9109 39.4454 27.6864 39.2008Z" fill="#3D3D3D"/>
<path fill-rule="evenodd" clip-rule="evenodd" d="M51.536 35.7445C51.3989 35.7003 50.5322 37.0445 52.2792 38.6081C52.6348 38.6833 52.3123 40.6806 50.1535 40.6957L50.0196 40.6936L50.0439 40.7005C50.5581 40.8623 51.8686 41.5455 53.0277 42.0893C54.4651 42.7636 55 46.889 55 46.963C55 47.0123 52.4565 47.0123 47.3694 46.963H46.6306C41.5435 47.0123 39 47.0123 39 46.963C39 46.889 39.5349 42.7636 40.9723 42.0893C42.1314 41.5455 43.4419 40.8623 43.9561 40.7005L43.9795 40.6936L43.8465 40.6957C41.7403 40.681 41.382 38.7796 41.696 38.617L41.7208 38.6081C43.4678 37.0445 42.6011 35.7003 42.464 35.7445C41.7206 30.531 43.3557 27.9497 47.3694 28.0007C50.8906 27.9497 52.2794 30.531 51.536 35.7445Z" fill="#BEC7DA"/>
<path fill-rule="evenodd" clip-rule="evenodd" d="M54 19H22V18H54V19Z" fill="#ABB8D2"/>
<path fill-rule="evenodd" clip-rule="evenodd" d="M54 24H22V23H54V24Z" fill="#ABB8D2"/>
<path fill-rule="evenodd" clip-rule="evenodd" d="M38 30H22V29H38V30Z" fill="#ABB8D2"/>
<path fill-rule="evenodd" clip-rule="evenodd" d="M38 36H22V35H38V36Z" fill="#ABB8D2"/>
<path d="M8.15769 14H6.89453V14.9474C6.94716 15.2105 7.21032 15.5789 7.52611 15.5789C7.92556 15.5789 8.10506 15.1053 8.15769 14.9474V14Z" fill="#725572"/>
<path d="M8.15769 18.4211H6.89453V19.3684C6.94716 19.6316 7.21032 20 7.52611 20C7.92556 20 8.10506 19.5263 8.15769 19.3684V18.4211Z" fill="#725572"/>
<path d="M8.15769 16.2105H6.89453V17.1579C6.94716 17.4211 7.21032 17.7895 7.52611 17.7895C7.92556 17.7895 8.10506 17.3158 8.15769 17.1579V16.2105Z" fill="#725572"/>
<path d="M6.26316 16.2105H5V17.1579C5.05263 17.4211 5.31579 17.7895 5.63158 17.7895C6.03102 17.7895 6.21053 17.3158 6.26316 17.1579V16.2105Z" fill="#725572"/>
<path d="M10.0527 16.2105H8.78955V17.1579C8.84218 17.4211 9.10534 17.7895 9.42113 17.7895C9.82058 17.7895 10.0001 17.3158 10.0527 17.1579V16.2105Z" fill="#725572"/>
<path d="M7 26C7 24.8954 7.89543 24 9 24H16C17.1046 24 18 24.8954 18 26V31C18 32.1046 17.1046 33 16 33H9C7.89543 33 7 32.1046 7 31V26Z" fill="url(#paint0_linear)"/>
<path fill-rule="evenodd" clip-rule="evenodd" d="M16 24.2H9C8.00589 24.2 7.2 25.0059 7.2 26V31C7.2 31.9941 8.00589 32.8 9 32.8H16C16.9941 32.8 17.8 31.9941 17.8 31V26C17.8 25.0059 16.9941 24.2 16 24.2ZM9 24C7.89543 24 7 24.8954 7 26V31C7 32.1046 7.89543 33 9 33H16C17.1046 33 18 32.1046 18 31V26C18 24.8954 17.1046 24 16 24H9Z" fill="#8A8639"/>
<line x1="10.1" y1="24" x2="10.1" y2="33" stroke="#8A8639" stroke-width="0.2"/>
<path fill-rule="evenodd" clip-rule="evenodd" d="M15.0002 33L15.0002 26L15.2002 26L15.2002 33L15.0002 33Z" fill="#8A8639"/>
<line x1="10" y1="26.1" x2="7" y2="26.1" stroke="#8A8639" stroke-width="0.2"/>
<path fill-rule="evenodd" clip-rule="evenodd" d="M15 26H18V26.2H15V26Z" fill="#8A8639"/>
<path fill-rule="evenodd" clip-rule="evenodd" d="M7 28H10V28.2H7V28Z" fill="#8A8639"/>
<path fill-rule="evenodd" clip-rule="evenodd" d="M15 28H18V28.2H15V28Z" fill="#8A8639"/>
<path fill-rule="evenodd" clip-rule="evenodd" d="M7 30H10V30.2H7V30Z" fill="#8A8639"/>
<path fill-rule="evenodd" clip-rule="evenodd" d="M15 30H18V30.2H15V30Z" fill="#8A8639"/>
</g>
<defs>
<linearGradient id="paint0_linear" x1="7" y1="24" x2="18" y2="33" gradientUnits="userSpaceOnUse">
<stop stop-color="#F9F697"/>
<stop offset="1" stop-color="#F9E397"/>
</linearGradient>
</defs>
</svg>
