<svg width="60" height="60" viewBox="0 0 60 60" fill="none" xmlns="http://www.w3.org/2000/svg">
<path d="M44.3582 53H13.4127C13.1864 53 13 52.8143 13 52.5887V6.41127C13 6.18574 13.1864 6 13.4127 6H44.3582C45.2634 6 46 6.72968 46 7.63624V51.3682C46 52.2659 45.2634 53 44.3582 53Z" fill="url(#paint0_linear)"/>
<path d="M21.4576 41.4886V42.1962C21.4576 42.2537 21.4798 42.2935 21.5286 42.3156C21.5774 42.3377 21.6573 42.3598 21.7771 42.3731C21.8126 42.3775 21.8304 42.404 21.8304 42.4483C21.8304 42.466 21.8259 42.4881 21.8215 42.5146C21.7505 42.5102 21.6617 42.5058 21.5508 42.5013C21.4443 42.4969 21.3245 42.4969 21.2003 42.4969C21.1115 42.4969 21.0272 42.4969 20.9429 42.5013C20.8586 42.5058 20.7832 42.5102 20.7122 42.5146C20.7077 42.5058 20.7033 42.4925 20.7033 42.4792C20.7033 42.466 20.7033 42.4571 20.7033 42.4483C20.7033 42.4085 20.7166 42.3819 20.7432 42.3775C20.7965 42.3687 20.8364 42.3598 20.8675 42.351C20.8985 42.3421 20.9252 42.3333 20.9429 42.32C20.9607 42.3068 20.974 42.2935 20.9784 42.2802C20.9828 42.2625 20.9873 42.2448 20.9873 42.2183V40.3698C20.9873 40.3212 20.9695 40.2858 20.934 40.2637C20.8985 40.2416 20.8275 40.2239 20.7299 40.2106C20.7166 40.2062 20.7077 40.1973 20.6989 40.1885C20.69 40.1796 20.6855 40.162 20.6855 40.1354C20.6855 40.1266 20.6855 40.1133 20.6855 40.1C20.6855 40.0868 20.69 40.0779 20.6944 40.0691C20.7654 40.0735 20.8453 40.0779 20.934 40.0824C21.0228 40.0868 21.1071 40.0868 21.1781 40.0868H21.7372C22.0034 40.0868 22.2075 40.1443 22.354 40.2637C22.5004 40.3831 22.5758 40.5467 22.5758 40.759C22.5758 40.8563 22.5581 40.9447 22.5181 41.0331C22.4826 41.1216 22.425 41.1968 22.354 41.2631C22.283 41.3294 22.1942 41.3825 22.0877 41.4179C21.9857 41.4577 21.8659 41.4754 21.7327 41.4754H21.4576V41.4886ZM21.5686 41.3073C21.7194 41.3073 21.8392 41.2675 21.9324 41.1923C22.0256 41.1172 22.07 40.9889 22.07 40.8032C22.07 40.6396 22.0345 40.5113 21.959 40.4184C21.888 40.3256 21.7549 40.2814 21.5641 40.2814H21.4532V41.3029H21.5686V41.3073Z" fill="url(#paint1_linear)"/>
<path d="M23.8272 41.6877H23.0506L22.8598 42.2007C22.851 42.214 22.8465 42.2272 22.8465 42.2405C22.8421 42.2538 22.8421 42.267 22.8421 42.2759C22.8421 42.3024 22.8554 42.3245 22.882 42.3422C22.9086 42.3599 22.9619 42.3732 23.0373 42.3864C23.0728 42.3908 23.0906 42.413 23.0906 42.4572C23.0906 42.4749 23.0861 42.497 23.0817 42.5191C23.0151 42.5147 22.9441 42.5102 22.8687 42.5058C22.7933 42.5014 22.7223 42.5014 22.6513 42.5014C22.6025 42.5014 22.5492 42.5014 22.496 42.5058C22.4427 42.5102 22.3806 42.5147 22.3141 42.5191C22.3096 42.5102 22.3052 42.497 22.3052 42.4837C22.3052 42.4704 22.3052 42.4616 22.3052 42.4528C22.3052 42.4041 22.3229 42.382 22.354 42.3776C22.4294 42.3643 22.4871 42.3466 22.5182 42.3289C22.5537 42.3112 22.5758 42.2803 22.598 42.2405L23.4899 40.1134C23.5077 40.0736 23.5387 40.0514 23.5787 40.0514C23.592 40.0514 23.6053 40.0514 23.6142 40.0514C23.6275 40.0514 23.6408 40.0559 23.6541 40.0559L24.546 42.2493C24.5593 42.2847 24.5904 42.3157 24.6303 42.3334C24.6702 42.351 24.7191 42.3643 24.7679 42.3732C24.8034 42.382 24.8255 42.4041 24.8255 42.4483C24.8255 42.466 24.8211 42.4881 24.8167 42.5147C24.7368 42.5102 24.6614 42.5058 24.5815 42.5014C24.5061 42.497 24.4351 42.497 24.3685 42.497C24.333 42.497 24.2931 42.497 24.2443 42.497C24.1955 42.497 24.1422 42.5014 24.0934 42.5014C24.0401 42.5058 23.9913 42.5058 23.9381 42.5058C23.8893 42.5058 23.8449 42.5102 23.8094 42.5102C23.805 42.5014 23.8005 42.4881 23.8005 42.4749C23.8005 42.4616 23.8005 42.4528 23.8005 42.4439C23.8005 42.4218 23.805 42.4041 23.8138 42.3953C23.8227 42.382 23.8316 42.3776 23.8405 42.3732C23.9026 42.3599 23.9514 42.3466 23.9825 42.3289C24.0135 42.3112 24.0268 42.2891 24.0268 42.2582C24.0268 42.2449 24.0224 42.2228 24.0135 42.2007L23.8272 41.6877ZM23.7562 41.502L23.4411 40.6706L23.1172 41.502H23.7562Z" fill="url(#paint2_linear)"/>
<path d="M26.4676 40.6972C26.4454 40.706 26.4232 40.7105 26.3966 40.7105C26.3611 40.7105 26.3389 40.7016 26.3212 40.6883C26.3079 40.6751 26.2946 40.6618 26.2901 40.6441C26.2324 40.5026 26.1614 40.4009 26.0683 40.3434C25.9795 40.2815 25.8597 40.2505 25.7088 40.2505C25.589 40.2505 25.4914 40.2815 25.4071 40.339C25.3228 40.3965 25.2829 40.4849 25.2829 40.6043C25.2829 40.6972 25.3139 40.7679 25.3761 40.8254C25.4382 40.8829 25.518 40.9316 25.6112 40.9714C25.7044 41.0112 25.8109 41.0554 25.9174 41.0952C26.0283 41.135 26.1304 41.1836 26.2236 41.2411C26.3168 41.2986 26.3966 41.3738 26.4587 41.4667C26.5209 41.5595 26.5519 41.6745 26.5519 41.816C26.5519 41.9089 26.5342 42.0018 26.5031 42.0902C26.4721 42.1787 26.4188 42.2583 26.3523 42.3246C26.2813 42.3909 26.1969 42.4484 26.0905 42.4882C25.984 42.528 25.8553 42.5501 25.7088 42.5501C25.5447 42.5501 25.3982 42.5324 25.2696 42.4971C25.1409 42.4617 25.0344 42.4219 24.9501 42.3821C24.9412 42.276 24.9323 42.1742 24.9146 42.0725C24.8968 41.9708 24.8791 41.8735 24.8613 41.7762C24.888 41.7674 24.9146 41.763 24.9456 41.763C24.9767 41.763 24.9989 41.7674 25.0122 41.7807C25.0255 41.7939 25.0388 41.8116 25.0477 41.8381C25.0788 41.931 25.1143 42.0106 25.1542 42.0814C25.1941 42.1477 25.2385 42.2052 25.2917 42.2494C25.345 42.2936 25.4027 42.3246 25.4692 42.3423C25.5358 42.36 25.6157 42.3732 25.7044 42.3732C25.7798 42.3732 25.8464 42.3644 25.8997 42.3423C25.9529 42.3202 25.9973 42.2936 26.0328 42.2583C26.0683 42.2229 26.0949 42.1831 26.1126 42.1344C26.1304 42.0858 26.1393 42.0416 26.1393 41.9885C26.1393 41.8824 26.1082 41.7983 26.0505 41.7409C25.9884 41.6789 25.913 41.6303 25.8242 41.5905C25.7355 41.5507 25.6379 41.5109 25.5314 41.4755C25.4249 41.4401 25.3272 41.3959 25.2385 41.3384C25.1498 41.2809 25.0743 41.2102 25.0122 41.1262C24.9501 41.0377 24.9235 40.9227 24.9235 40.7724C24.9235 40.6751 24.9412 40.5822 24.9767 40.4982C25.0122 40.4142 25.0654 40.339 25.132 40.2771C25.203 40.2152 25.2829 40.1665 25.3805 40.1267C25.4781 40.0913 25.589 40.0692 25.7177 40.0692C25.8198 40.0692 25.9263 40.0825 26.0328 40.1046C26.1393 40.1267 26.2591 40.1621 26.3922 40.2152C26.3966 40.2903 26.4055 40.3699 26.4144 40.4628C26.4366 40.538 26.4499 40.622 26.4676 40.6972Z" fill="url(#paint3_linear)"/>
<path d="M28.4461 40.6972C28.424 40.706 28.4018 40.7105 28.3751 40.7105C28.3396 40.7105 28.3175 40.7016 28.2997 40.6883C28.2864 40.6751 28.2731 40.6618 28.2686 40.6441C28.211 40.5026 28.14 40.4009 28.0468 40.3434C27.958 40.2815 27.8382 40.2505 27.6874 40.2505C27.5676 40.2505 27.4699 40.2815 27.3856 40.339C27.3013 40.3965 27.2614 40.4849 27.2614 40.6043C27.2614 40.6972 27.2924 40.7679 27.3546 40.8254C27.4167 40.8829 27.4966 40.9316 27.5897 40.9714C27.6829 41.0112 27.7894 41.0554 27.8959 41.0952C28.0068 41.135 28.1089 41.1836 28.2021 41.2411C28.2953 41.2986 28.3751 41.3738 28.4373 41.4667C28.4994 41.5595 28.5304 41.6745 28.5304 41.816C28.5304 41.9089 28.5127 42.0018 28.4816 42.0902C28.4506 42.1787 28.3973 42.2583 28.3308 42.3246C28.2598 42.3909 28.1755 42.4484 28.069 42.4882C27.9625 42.528 27.8338 42.5501 27.6874 42.5501C27.5232 42.5501 27.3768 42.5324 27.2481 42.4971C27.1194 42.4617 27.0129 42.4219 26.9286 42.3821C26.9197 42.276 26.9108 42.1742 26.8931 42.0725C26.8753 41.9708 26.8576 41.8735 26.8398 41.7762C26.8665 41.7674 26.8931 41.763 26.9242 41.763C26.9552 41.763 26.9774 41.7674 26.9907 41.7807C27.004 41.7939 27.0173 41.8116 27.0262 41.8381C27.0573 41.931 27.0928 42.0106 27.1327 42.0814C27.1726 42.1477 27.217 42.2052 27.2703 42.2494C27.3235 42.2936 27.3812 42.3246 27.4478 42.3423C27.5143 42.36 27.5942 42.3732 27.6829 42.3732C27.7584 42.3732 27.8249 42.3644 27.8782 42.3423C27.9314 42.3202 27.9758 42.2936 28.0113 42.2583C28.0468 42.2229 28.0734 42.1831 28.0912 42.1344C28.1089 42.0858 28.1178 42.0416 28.1178 41.9885C28.1178 41.8824 28.0867 41.7983 28.029 41.7409C27.9669 41.6789 27.8915 41.6303 27.8027 41.5905C27.714 41.5507 27.6164 41.5109 27.5099 41.4755C27.4034 41.4401 27.3058 41.3959 27.217 41.3384C27.1283 41.2809 27.0528 41.2102 26.9907 41.1262C26.9286 41.0377 26.902 40.9227 26.902 40.7724C26.902 40.6751 26.9197 40.5822 26.9552 40.4982C26.9907 40.4142 27.044 40.339 27.1105 40.2771C27.1815 40.2152 27.2614 40.1665 27.359 40.1267C27.4566 40.0913 27.5676 40.0692 27.6962 40.0692C27.7983 40.0692 27.9048 40.0825 28.0113 40.1046C28.1178 40.1267 28.2376 40.1621 28.3707 40.2152C28.3751 40.2903 28.384 40.3699 28.3929 40.4628C28.4195 40.538 28.4328 40.622 28.4461 40.6972Z" fill="url(#paint4_linear)"/>
<path d="M29.609 41.4888V42.1963C29.609 42.2538 29.6312 42.2936 29.68 42.3157C29.7288 42.3379 29.8087 42.36 29.9285 42.3732C29.964 42.3777 29.9817 42.4042 29.9817 42.4484C29.9817 42.4661 29.9773 42.4882 29.9729 42.5148C29.9019 42.5103 29.8131 42.5059 29.7022 42.5015C29.5957 42.4971 29.4759 42.4971 29.3516 42.4971C29.2629 42.4971 29.1786 42.4971 29.0943 42.5015C29.01 42.5059 28.9345 42.5103 28.8635 42.5148C28.8591 42.5059 28.8547 42.4926 28.8547 42.4794C28.8547 42.4661 28.8547 42.4573 28.8547 42.4484C28.8547 42.4086 28.868 42.3821 28.8946 42.3777C28.9478 42.3688 28.9878 42.36 29.0188 42.3511C29.0499 42.3423 29.0765 42.3334 29.0943 42.3202C29.112 42.3069 29.1253 42.2936 29.1298 42.2804C29.1342 42.2627 29.1387 42.245 29.1387 42.2185V40.3699C29.1387 40.3213 29.1209 40.2859 29.0854 40.2638C29.0499 40.2417 28.9789 40.224 28.8813 40.2107C28.868 40.2063 28.8591 40.1975 28.8502 40.1886C28.8414 40.1798 28.8369 40.1621 28.8369 40.1356C28.8369 40.1267 28.8369 40.1134 28.8369 40.1002C28.8369 40.0869 28.8414 40.0781 28.8458 40.0692C28.9168 40.0737 28.9967 40.0781 29.0854 40.0825C29.1741 40.0869 29.2585 40.0869 29.3295 40.0869H29.8886C30.1548 40.0869 30.3589 40.1444 30.5053 40.2638C30.6518 40.3832 30.7272 40.5468 30.7272 40.7591C30.7272 40.8564 30.7095 40.9448 30.6695 41.0333C30.634 41.1217 30.5763 41.1969 30.5053 41.2632C30.4343 41.3296 30.3456 41.3826 30.2391 41.418C30.137 41.4578 30.0172 41.4755 29.8841 41.4755H29.609V41.4888ZM29.7199 41.3075C29.8708 41.3075 29.9906 41.2677 30.0838 41.1925C30.177 41.1173 30.2213 40.9891 30.2213 40.8033C30.2213 40.6397 30.1859 40.5115 30.1104 40.4186C30.0394 40.3257 29.9063 40.2815 29.7155 40.2815H29.6046V41.303H29.7199V41.3075Z" fill="url(#paint5_linear)"/>
<path d="M30.9932 41.2985C30.9932 41.126 31.0242 40.9668 31.0908 40.8165C31.1573 40.6661 31.2461 40.5335 31.3615 40.4229C31.4768 40.3079 31.6099 40.2195 31.7608 40.1531C31.9117 40.0868 32.0759 40.0558 32.2489 40.0558C32.4264 40.0558 32.5906 40.0868 32.7459 40.1487C32.8968 40.2106 33.0299 40.2947 33.1452 40.4052C33.2562 40.5158 33.3449 40.6484 33.4115 40.7988C33.4736 40.9536 33.5091 41.1172 33.5091 41.2985C33.5091 41.471 33.478 41.6346 33.4115 41.785C33.3449 41.9353 33.2562 42.068 33.1408 42.1785C33.0254 42.2891 32.8923 42.3776 32.7415 42.4439C32.5861 42.5102 32.4264 42.5412 32.2534 42.5412C32.0759 42.5412 31.9117 42.5102 31.7564 42.4483C31.6011 42.3864 31.4724 42.3024 31.3615 42.1918C31.2505 42.0813 31.1618 41.9486 31.0997 41.7982C31.0242 41.6479 30.9932 41.4798 30.9932 41.2985ZM32.2977 42.351C32.3998 42.351 32.4974 42.3289 32.5773 42.2847C32.6616 42.2405 32.7326 42.1785 32.7947 42.0989C32.8568 42.0193 32.9012 41.9265 32.9367 41.8203C32.9722 41.7142 32.9855 41.5992 32.9855 41.4798C32.9855 41.3029 32.9678 41.1437 32.9367 40.9934C32.9012 40.843 32.8524 40.7148 32.7858 40.6042C32.7193 40.4937 32.6305 40.4096 32.5285 40.3477C32.4264 40.2858 32.3066 40.2549 32.169 40.2549C32.0847 40.2549 32.0004 40.2725 31.9161 40.3123C31.8362 40.3521 31.7608 40.4052 31.7031 40.4804C31.641 40.5511 31.5922 40.6396 31.5567 40.7457C31.5212 40.8474 31.499 40.9668 31.499 41.0951C31.499 41.2764 31.5168 41.4444 31.5523 41.5992C31.5878 41.754 31.641 41.8867 31.7076 42.0017C31.7741 42.1122 31.8584 42.2007 31.9561 42.2626C32.0625 42.3201 32.1735 42.351 32.2977 42.351Z" fill="url(#paint6_linear)"/>
<path d="M34.7116 41.4269H34.5519V42.1963C34.5519 42.2538 34.5741 42.2936 34.6229 42.3157C34.6717 42.3379 34.7515 42.36 34.8714 42.3732C34.9068 42.3777 34.9246 42.4042 34.9246 42.4484C34.9246 42.4661 34.9202 42.4882 34.9157 42.5147C34.8447 42.5103 34.756 42.5059 34.645 42.5015C34.5386 42.4971 34.4188 42.4971 34.2945 42.4971C34.2058 42.4971 34.1215 42.4971 34.0371 42.5015C33.9528 42.5059 33.8774 42.5103 33.8064 42.5147C33.802 42.5059 33.7975 42.4926 33.7975 42.4794C33.7975 42.4661 33.7975 42.4573 33.7975 42.4484C33.7975 42.4086 33.8108 42.3821 33.8375 42.3777C33.8907 42.3688 33.9307 42.36 33.9617 42.3511C33.9928 42.3423 34.0194 42.3334 34.0371 42.3202C34.0549 42.3069 34.0682 42.2936 34.0726 42.2804C34.0771 42.2627 34.0815 42.245 34.0815 42.2185V40.3699C34.0815 40.3213 34.0638 40.2859 34.0283 40.2638C33.9928 40.2417 33.9218 40.224 33.8242 40.2107C33.8108 40.2063 33.802 40.1975 33.7931 40.1886C33.7842 40.1798 33.7798 40.1621 33.7798 40.1356C33.7798 40.1267 33.7798 40.1134 33.7798 40.1002C33.7798 40.0869 33.7842 40.0781 33.7887 40.0692C33.8597 40.0737 33.9395 40.0781 34.0283 40.0825C34.117 40.0869 34.2013 40.0869 34.2723 40.0869H34.8314C34.9601 40.0869 35.0799 40.1046 35.182 40.1356C35.284 40.1665 35.3728 40.2152 35.4482 40.2727C35.5192 40.3301 35.5769 40.4009 35.6168 40.4849C35.6567 40.5645 35.6745 40.6574 35.6745 40.7547C35.6745 40.8874 35.6346 41.0023 35.5547 41.1129C35.4748 41.219 35.3639 41.2986 35.2219 41.3561L35.8032 42.2008C35.8475 42.2627 35.9008 42.3069 35.9585 42.3334C36.0162 42.36 36.0694 42.3777 36.1182 42.3909C36.1315 42.3953 36.1404 42.3998 36.1493 42.4086C36.1582 42.4175 36.1626 42.4307 36.1626 42.4528C36.1626 42.4617 36.1626 42.4749 36.1626 42.4882C36.1626 42.5015 36.1582 42.5147 36.1537 42.5236C36.1271 42.5192 36.0872 42.5192 36.0383 42.5192C35.9895 42.5192 35.9363 42.5147 35.883 42.5147C35.8298 42.5103 35.7765 42.5103 35.7233 42.5103C35.6701 42.5103 35.6257 42.5103 35.5902 42.5103C35.5369 42.5103 35.4881 42.4882 35.4349 42.444C35.3816 42.3998 35.3328 42.3423 35.284 42.2715L34.7116 41.4269ZM34.6628 41.2411C34.7382 41.2411 34.8092 41.2323 34.8714 41.219C34.9335 41.2058 34.9867 41.1792 35.0311 41.1438C35.0755 41.1085 35.111 41.0598 35.1331 41.0023C35.1553 40.9448 35.1686 40.8697 35.1686 40.7768C35.1686 40.6264 35.1331 40.5026 35.0577 40.4142C34.9823 40.3257 34.8536 40.2815 34.6672 40.2815H34.5563V41.2411H34.6628Z" fill="url(#paint7_linear)"/>
<path d="M37.4317 40.2815V42.2229C37.4317 42.2494 37.4317 42.2671 37.4362 42.2848C37.4406 42.3025 37.4495 42.3157 37.4628 42.329C37.4761 42.3423 37.4983 42.3511 37.5249 42.36C37.5515 42.3688 37.5915 42.3776 37.6403 42.3821C37.6758 42.3909 37.698 42.4086 37.698 42.444C37.698 42.4528 37.698 42.4617 37.698 42.4794C37.698 42.4926 37.6935 42.5059 37.6935 42.5147C37.6137 42.5103 37.5294 42.5059 37.4406 42.5015C37.3519 42.497 37.272 42.497 37.201 42.497C37.13 42.497 37.0501 42.497 36.9614 42.5015C36.8726 42.5059 36.7883 42.5103 36.7129 42.5147C36.7085 42.5059 36.704 42.4926 36.704 42.4794C36.704 42.4661 36.704 42.4528 36.704 42.444C36.704 42.4263 36.7085 42.413 36.7129 42.3998C36.7173 42.3865 36.7351 42.3821 36.7617 42.3776C36.8549 42.3644 36.9126 42.3467 36.9348 42.329C36.9569 42.3069 36.9703 42.2715 36.9703 42.2229V40.2815H36.6463C36.5753 40.2815 36.5177 40.2903 36.4688 40.3036C36.42 40.3169 36.3801 40.339 36.3446 40.3655C36.3091 40.392 36.278 40.4318 36.247 40.4761C36.2204 40.5203 36.1893 40.5778 36.1582 40.6397C36.1494 40.6618 36.1316 40.6751 36.1005 40.6751C36.0872 40.6751 36.0695 40.6706 36.0473 40.6662C36.0296 40.6618 36.0118 40.653 36.0029 40.6485C36.0207 40.591 36.034 40.538 36.0473 40.4938C36.0606 40.4495 36.0695 40.4053 36.0784 40.3611C36.0872 40.3036 36.0961 40.255 36.1005 40.2107C36.105 40.1665 36.1139 40.1356 36.1183 40.1134C36.1272 40.0913 36.1494 40.0781 36.176 40.0781C36.2026 40.0781 36.2559 40.0825 36.3357 40.0913C36.4156 40.1002 36.5132 40.1046 36.6286 40.1046H37.769C37.8799 40.1046 37.9775 40.1002 38.0574 40.0913C38.1373 40.0825 38.1905 40.0781 38.2216 40.0781C38.2482 40.0781 38.2704 40.0913 38.2793 40.1134C38.2881 40.1311 38.2926 40.1665 38.297 40.2107C38.3014 40.255 38.3103 40.3036 38.3192 40.3611C38.3281 40.4053 38.3369 40.4495 38.3458 40.4938C38.3591 40.538 38.3724 40.591 38.3902 40.6485C38.3769 40.653 38.3636 40.6574 38.3458 40.6662C38.3281 40.6706 38.3103 40.6751 38.297 40.6751C38.2704 40.6751 38.2482 40.6618 38.2393 40.6397C38.2083 40.5778 38.1816 40.5203 38.1506 40.4761C38.1239 40.4318 38.0884 40.392 38.0529 40.3655C38.0174 40.339 37.9731 40.3169 37.9287 40.3036C37.8799 40.2903 37.8222 40.2815 37.7557 40.2815H37.4317Z" fill="url(#paint8_linear)"/>
<path d="M31.8184 49.4358H31.7962H31.774H31.7518H31.7296H31.7074H31.6852H31.6631H31.6409H31.6187H31.5965H31.5921H31.5699H31.5477H31.5255H31.5033H31.4767H31.4501H31.4234H31.3968H31.3702H31.3436H31.3169H31.2814H31.2548H31.2282H31.2016H31.175H31.1483H31.1217H31.0951H31.0685H31.0418H31.0152H30.9708H30.9442H30.9176H30.891H30.8643H30.8377H30.8111H30.7845H30.7579H30.7312H30.7046H30.678H30.6514H30.6247H30.5715H30.5449H30.5182H30.4916H30.465H30.4384C30.3807 49.9001 29.9813 50.2627 29.4977 50.2627C29.014 50.2627 28.6146 49.9001 28.557 49.4358H28.517H28.4593H28.4017H28.344H28.2863H28.2286H28.1709H28.1132H28.0556H27.9979H27.9402H27.8825H27.8248H27.7671H27.7094H27.6518H27.5941H27.5364H27.4787H27.421H27.3633H27.3057H27.248H27.1903H27.1548V50.1566C27.1548 50.3379 27.3012 50.4838 27.4831 50.4838H31.5122C31.6941 50.4838 31.8405 50.3379 31.8405 50.1566V49.4358H31.8361H31.8184Z" fill="url(#paint9_linear)"/>
<path d="M27.2303 49.2013H27.288H27.3457H27.4033H27.461H27.5187H27.5764H27.6341H27.6918H27.7494H27.8071H27.8648H27.9225H27.9802H28.0379H28.0956H28.1532H28.2109H28.2686H28.3263H28.384H28.4417H28.4993H28.5393C28.597 48.7369 28.9963 48.3743 29.48 48.3743C29.9636 48.3743 30.363 48.7369 30.4207 49.2013H30.4429H30.4695H30.4961H30.5227H30.5494H30.576H30.6026H30.6292H30.6559H30.6825H30.7091H30.7357H30.7624H30.789H30.8156H30.8422H30.8688H30.8955H30.9221H30.9487H30.9753H31.002H31.0286H31.0552H31.0818H31.1085H31.1351H31.1617H31.1883H31.215H31.2416H31.2682H31.2948H31.3214H31.3481H31.3747H31.4013H31.4279H31.4501H31.4723H31.4945H31.5167H31.5389H31.5611H31.5832H31.6054H31.6276H31.6498H31.672H31.6942H31.7164H31.7386H31.7607H31.7829V48.4805C31.7829 48.2991 31.6365 48.1532 31.4546 48.1532H27.4255C27.2436 48.1532 27.0972 48.2991 27.0972 48.4805V49.2013H27.1105H27.2303Z" fill="url(#paint10_linear)"/>
<path d="M28.8767 49.2015H28.9344H28.9921H29.0497H29.1074H29.1651H29.2228H29.2805H29.3382H29.3958H29.4535H29.5112H29.5689H29.5955H29.6221H29.6488H29.6754H29.702H29.7286H29.7553H29.7819H29.8085H29.8351H29.8618H29.8884H29.915H29.9416H29.9683H29.9949H30.0215H30.0481H30.0747H30.1014H30.128H30.1546C30.0969 48.8654 29.8041 48.6089 29.4535 48.6089C29.0985 48.6089 28.8057 48.8654 28.7524 49.2015H28.7702H28.8767Z" fill="url(#paint11_linear)"/>
<path d="M30.1453 49.4358H30.1187H30.0921H30.0654H30.0388H30.0122H29.9856H29.959H29.9323H29.9057H29.8613H29.8347H29.8081H29.7815H29.7548H29.7282H29.7016H29.675H29.6483H29.6217H29.5951H29.5374H29.4797H29.422H29.3644H29.3067H29.249H29.1913H29.107H29.0493H28.9916H28.9295H28.8718H28.8141H28.7964C28.8541 49.7718 29.1469 50.0283 29.4975 50.0283C29.848 50.0283 30.1453 49.7718 30.1986 49.4358H30.1719H30.1453Z" fill="url(#paint12_linear)"/>
<path d="M29.5379 21.3808L29.7997 21.9071L30.3855 21.9911L29.9639 22.4068L30.0615 22.9861L29.5379 22.7119L29.0143 22.9861L29.112 22.4068L28.6904 21.9911L29.2761 21.9071L29.5379 21.3808Z" fill="url(#paint13_linear)"/>
<path d="M32.4842 22.1284L32.746 22.6546L33.3318 22.7386L32.9102 23.1543L33.0078 23.7337L32.4842 23.4595L31.9606 23.7337L32.0583 23.1543L31.6367 22.7386L32.2224 22.6546L32.4842 22.1284Z" fill="url(#paint14_linear)"/>
<path d="M34.6273 24.211L34.8891 24.7373L35.4748 24.8213L35.0533 25.237L35.1509 25.8163L34.6273 25.5421L34.1037 25.8163L34.2013 25.237L33.7798 24.8213L34.3655 24.7373L34.6273 24.211Z" fill="url(#paint15_linear)"/>
<path d="M35.3773 26.8246L35.6391 27.3553L36.2248 27.4393L35.8033 27.8506L35.9009 28.4343L35.3773 28.1601L34.8537 28.4343L34.9558 27.8506L34.5298 27.4393L35.1155 27.3553L35.3773 26.8246Z" fill="url(#paint16_linear)"/>
<path d="M34.5741 29.6549L34.8359 30.1855L35.4216 30.2695L35.0001 30.6808L35.0977 31.2646L34.5741 30.9904L34.0505 31.2646L34.1481 30.6808L33.7266 30.2695L34.3123 30.1855L34.5741 29.6549Z" fill="url(#paint17_linear)"/>
<path d="M32.5907 31.7378L32.8525 32.2685L33.4382 32.3525L33.0167 32.7638L33.1143 33.3475L32.5907 33.0733L32.0671 33.3475L32.1691 32.7638L31.7432 32.3525L32.3289 32.2685L32.5907 31.7378Z" fill="url(#paint18_linear)"/>
<path d="M29.6976 32.5383L29.9594 33.069L30.5451 33.153L30.1236 33.5642L30.2212 34.148L29.6976 33.8738L29.174 34.148L29.2761 33.5642L28.8501 33.153L29.4358 33.069L29.6976 32.5383Z" fill="url(#paint19_linear)"/>
<path d="M26.8046 31.6849L27.0663 32.2155L27.6521 32.2996L27.2305 32.7108L27.3281 33.2946L26.8046 33.016L26.281 33.2946L26.383 32.7108L25.957 32.2996L26.5428 32.2155L26.8046 31.6849Z" fill="url(#paint20_linear)"/>
<path d="M24.8744 29.7611L25.1406 30.2917L25.7263 30.3758L25.3004 30.787L25.4024 31.3708L24.8744 31.0966L24.3508 31.3708L24.4528 30.787L24.0269 30.3758L24.6126 30.2917L24.8744 29.7611Z" fill="url(#paint21_linear)"/>
<path d="M24.0179 26.8776L24.2797 27.4083L24.8654 27.4923L24.4439 27.9036L24.5415 28.4873L24.0179 28.2132L23.4943 28.4873L23.5964 27.9036L23.1704 27.4923L23.7561 27.4083L24.0179 26.8776Z" fill="url(#paint22_linear)"/>
<path d="M24.8168 24.1403L25.0786 24.671L25.6643 24.755L25.2427 25.1663L25.3404 25.7501L24.8168 25.4759L24.2932 25.7501L24.3908 25.1663L23.9692 24.755L24.555 24.671L24.8168 24.1403Z" fill="url(#paint23_linear)"/>
<path d="M26.9066 22.1636L27.1684 22.6942L27.7541 22.7782L27.3326 23.1895L27.4302 23.7733L26.9066 23.4991L26.383 23.7733L26.4806 23.1895L26.0591 22.7782L26.6448 22.6942L26.9066 22.1636Z" fill="url(#paint24_linear)"/>
<mask id="mask0" mask-type="alpha" maskUnits="userSpaceOnUse" x="13" y="6" width="4" height="47">
<path d="M16.0749 6H13.5679V52.9779H16.0749V6Z" fill="url(#paint25_linear)"/>
</mask>
<g mask="url(#mask0)">
<path opacity="0.1" d="M16.0749 6H13.5679V52.9779H16.0749V6Z" fill="url(#paint26_linear)"/>
</g>
<path d="M20.0684 13.1684H19.3052V13.8759H20.1571V14.0882H19.0522V12.1291H20.1128V12.3414H19.3052V12.9605H20.0684V13.1684Z" fill="#F9CD80"/>
<path d="M20.7383 12.1291V13.2878C20.7383 13.7256 20.9335 13.9113 21.1953 13.9113C21.4882 13.9113 21.6745 13.7211 21.6745 13.2878V12.1291H21.9319V13.2701C21.9319 13.8715 21.6124 14.1192 21.1909 14.1192C20.7871 14.1192 20.4854 13.8892 20.4854 13.2833V12.1291H20.7383Z" fill="#F9CD80"/>
<path d="M22.3711 12.1559C22.4998 12.1294 22.6817 12.1161 22.8592 12.1161C23.1299 12.1161 23.3029 12.1648 23.4272 12.2753C23.5248 12.3638 23.5825 12.4964 23.5825 12.6468C23.5825 12.9033 23.4183 13.0758 23.2142 13.1465V13.1554C23.365 13.2084 23.4582 13.3455 23.5026 13.5489C23.5647 13.8231 23.6135 14.0089 23.6535 14.084H23.3917C23.3606 14.031 23.3162 13.8585 23.2585 13.6153C23.2009 13.3455 23.0944 13.2438 22.8636 13.235H22.624V14.084H22.3711V12.1559ZM22.624 13.0492H22.8814C23.1521 13.0492 23.3251 12.9033 23.3251 12.6778C23.3251 12.4257 23.1432 12.3151 22.8725 12.3107C22.7483 12.3107 22.664 12.324 22.624 12.3328V13.0492Z" fill="#F9CD80"/>
<path d="M25.6238 13.0889C25.6238 13.7611 25.2111 14.1193 24.7097 14.1193C24.1905 14.1193 23.8267 13.7169 23.8267 13.1243C23.8267 12.5008 24.2127 12.0984 24.7407 12.0984C25.2776 12.0984 25.6238 12.5096 25.6238 13.0889ZM24.1018 13.1199C24.1018 13.54 24.3281 13.9115 24.7274 13.9115C25.1312 13.9115 25.3575 13.5444 25.3575 13.0978C25.3575 12.7086 25.1534 12.3018 24.7319 12.3018C24.3103 12.3062 24.1018 12.6909 24.1018 13.1199Z" fill="#F9CD80"/>
<path d="M25.9565 12.1559C26.0808 12.1338 26.2405 12.1161 26.4446 12.1161C26.6931 12.1161 26.8795 12.1736 26.9949 12.2798C27.1014 12.3726 27.1679 12.5141 27.1679 12.691C27.1679 12.8679 27.1147 13.0094 27.0171 13.1111C26.8839 13.2527 26.6665 13.3278 26.418 13.3278C26.3426 13.3278 26.2716 13.3234 26.2139 13.3101V14.0929H25.9565V12.1559ZM26.2095 13.0979C26.2627 13.1111 26.3337 13.12 26.418 13.12C26.7242 13.12 26.9106 12.9741 26.9106 12.6999C26.9106 12.4434 26.7286 12.3151 26.4491 12.3151C26.3381 12.3151 26.2538 12.324 26.2095 12.3372V13.0979Z" fill="#F9CD80"/>
<path d="M28.5215 13.1684H27.7583V13.8759H28.6103V14.0882H27.5054V12.1291H28.5659V12.3414H27.7583V12.9605H28.5215V13.1684Z" fill="#F9CD80"/>
<path d="M29.2579 13.4735L29.0538 14.0882H28.792L29.4576 12.1291H29.7638L30.4338 14.0882H30.1631L29.9546 13.4735H29.2579ZM29.9013 13.2745L29.7105 12.7129C29.6661 12.5846 29.6395 12.4696 29.6084 12.3547H29.604C29.573 12.4696 29.5419 12.589 29.5064 12.7084L29.3156 13.2745H29.9013Z" fill="#F9CD80"/>
<path d="M30.7222 14.0882V12.1291H30.9973L31.6274 13.1197C31.7738 13.3497 31.8847 13.5531 31.9779 13.7565L31.9823 13.7521C31.9602 13.4912 31.9513 13.2524 31.9513 12.9472V12.1291H32.1909V14.0882H31.9335L31.3079 13.0932C31.1703 12.8765 31.0416 12.651 30.9396 12.4387L30.9307 12.4431C30.944 12.6908 30.9529 12.9251 30.9529 13.2524V14.0882H30.7222Z" fill="#F9CD80"/>
<path d="M33.5088 12.1291V13.2878C33.5088 13.7256 33.704 13.9113 33.9658 13.9113C34.2587 13.9113 34.445 13.7211 34.445 13.2878V12.1291H34.7024V13.2701C34.7024 13.8715 34.3829 14.1192 33.9614 14.1192C33.5576 14.1192 33.2559 13.8892 33.2559 13.2833V12.1291H33.5088Z" fill="#F9CD80"/>
<path d="M35.1416 14.0882V12.1291H35.4167L36.0468 13.1197C36.1932 13.3497 36.3042 13.5531 36.3973 13.7565L36.4018 13.7521C36.3796 13.4912 36.3707 13.2524 36.3707 12.9472V12.1291H36.6103V14.0882H36.353L35.7273 13.0932C35.5898 12.8765 35.4611 12.651 35.359 12.4387L35.3502 12.4431C35.3635 12.6908 35.3723 12.9251 35.3723 13.2524V14.0882H35.1416Z" fill="#F9CD80"/>
<path d="M37.3115 12.1291V14.0882H37.0586V12.1291H37.3115Z" fill="#F9CD80"/>
<path d="M39.4324 13.0889C39.4324 13.7611 39.0197 14.1193 38.5183 14.1193C37.9991 14.1193 37.6353 13.7169 37.6353 13.1243C37.6353 12.5008 38.0213 12.0984 38.5493 12.0984C39.0862 12.0984 39.4324 12.5096 39.4324 13.0889ZM37.9104 13.1199C37.9104 13.54 38.1367 13.9115 38.536 13.9115C38.9398 13.9115 39.1661 13.5444 39.1661 13.0978C39.1661 12.7086 38.962 12.3018 38.5405 12.3018C38.1189 12.3062 37.9104 12.6909 37.9104 13.1199Z" fill="#F9CD80"/>
<path d="M39.7612 14.0882V12.1291H40.0363L40.6664 13.1197C40.8129 13.3497 40.9238 13.5531 41.017 13.7565L41.0214 13.7521C40.9992 13.4912 40.9904 13.2524 40.9904 12.9472V12.1291H41.23V14.0882H40.9726L40.3469 13.0932C40.2094 12.8765 40.0807 12.651 39.9787 12.4387L39.9698 12.4431C39.9831 12.6908 39.992 12.9251 39.992 13.2524V14.0882H39.7612Z" fill="#F9CD80"/>
<defs>
<linearGradient id="paint0_linear" x1="11.8005" y1="3.39" x2="46.57" y2="55.8742" gradientUnits="userSpaceOnUse">
<stop stop-color="#004890"/>
<stop offset="1" stop-color="#003F7D"/>
</linearGradient>
<linearGradient id="paint1_linear" x1="18.0261" y1="40.0602" x2="41.3546" y2="48.8805" gradientUnits="userSpaceOnUse">
<stop stop-color="#E6D8A9"/>
<stop offset="1" stop-color="#FFD37A"/>
</linearGradient>
<linearGradient id="paint2_linear" x1="18.2359" y1="39.5055" x2="41.5646" y2="48.3257" gradientUnits="userSpaceOnUse">
<stop stop-color="#E6D8A9"/>
<stop offset="1" stop-color="#FFD37A"/>
</linearGradient>
<linearGradient id="paint3_linear" x1="18.5712" y1="38.6195" x2="41.8997" y2="47.4398" gradientUnits="userSpaceOnUse">
<stop stop-color="#E6D8A9"/>
<stop offset="1" stop-color="#FFD37A"/>
</linearGradient>
<linearGradient id="paint4_linear" x1="18.817" y1="37.9679" x2="42.1456" y2="46.7881" gradientUnits="userSpaceOnUse">
<stop stop-color="#E6D8A9"/>
<stop offset="1" stop-color="#FFD37A"/>
</linearGradient>
<linearGradient id="paint5_linear" x1="19.0398" y1="37.3793" x2="42.3684" y2="46.1996" gradientUnits="userSpaceOnUse">
<stop stop-color="#E6D8A9"/>
<stop offset="1" stop-color="#FFD37A"/>
</linearGradient>
<linearGradient id="paint6_linear" x1="19.3837" y1="36.4689" x2="42.7124" y2="45.2892" gradientUnits="userSpaceOnUse">
<stop stop-color="#E6D8A9"/>
<stop offset="1" stop-color="#FFD37A"/>
</linearGradient>
<linearGradient id="paint7_linear" x1="19.6532" y1="35.7567" x2="42.9817" y2="44.5769" gradientUnits="userSpaceOnUse">
<stop stop-color="#E6D8A9"/>
<stop offset="1" stop-color="#FFD37A"/>
</linearGradient>
<linearGradient id="paint8_linear" x1="20.0348" y1="34.7474" x2="43.3633" y2="43.5677" gradientUnits="userSpaceOnUse">
<stop stop-color="#E6D8A9"/>
<stop offset="1" stop-color="#FFD37A"/>
</linearGradient>
<linearGradient id="paint9_linear" x1="37.6436" y1="50.0656" x2="22.0235" y2="49.8584" gradientUnits="userSpaceOnUse">
<stop stop-color="#E6D8A9"/>
<stop offset="1" stop-color="#FFD37A"/>
</linearGradient>
<linearGradient id="paint10_linear" x1="37.6607" y1="48.7856" x2="22.0406" y2="48.5784" gradientUnits="userSpaceOnUse">
<stop stop-color="#E6D8A9"/>
<stop offset="1" stop-color="#FFD37A"/>
</linearGradient>
<linearGradient id="paint11_linear" x1="37.6578" y1="49.0167" x2="22.0377" y2="48.8096" gradientUnits="userSpaceOnUse">
<stop stop-color="#E6D8A9"/>
<stop offset="1" stop-color="#FFD37A"/>
</linearGradient>
<linearGradient id="paint12_linear" x1="37.6465" y1="49.8346" x2="22.0265" y2="49.6275" gradientUnits="userSpaceOnUse">
<stop stop-color="#E6D8A9"/>
<stop offset="1" stop-color="#FFD37A"/>
</linearGradient>
<linearGradient id="paint13_linear" x1="28.5646" y1="21.9157" x2="30.2738" y2="22.5619" gradientUnits="userSpaceOnUse">
<stop stop-color="#E6D8A9"/>
<stop offset="1" stop-color="#FFD37A"/>
</linearGradient>
<linearGradient id="paint14_linear" x1="31.5114" y1="22.6634" x2="33.2206" y2="23.3096" gradientUnits="userSpaceOnUse">
<stop stop-color="#E6D8A9"/>
<stop offset="1" stop-color="#FFD37A"/>
</linearGradient>
<linearGradient id="paint15_linear" x1="33.6544" y1="24.7457" x2="35.3636" y2="25.3919" gradientUnits="userSpaceOnUse">
<stop stop-color="#E6D8A9"/>
<stop offset="1" stop-color="#FFD37A"/>
</linearGradient>
<linearGradient id="paint16_linear" x1="34.4046" y1="27.3622" x2="36.1138" y2="28.0084" gradientUnits="userSpaceOnUse">
<stop stop-color="#E6D8A9"/>
<stop offset="1" stop-color="#FFD37A"/>
</linearGradient>
<linearGradient id="paint17_linear" x1="33.6009" y1="30.1923" x2="35.3101" y2="30.8385" gradientUnits="userSpaceOnUse">
<stop stop-color="#E6D8A9"/>
<stop offset="1" stop-color="#FFD37A"/>
</linearGradient>
<linearGradient id="paint18_linear" x1="31.6185" y1="32.2749" x2="33.3277" y2="32.9211" gradientUnits="userSpaceOnUse">
<stop stop-color="#E6D8A9"/>
<stop offset="1" stop-color="#FFD37A"/>
</linearGradient>
<linearGradient id="paint19_linear" x1="28.7253" y1="33.0759" x2="30.4345" y2="33.7221" gradientUnits="userSpaceOnUse">
<stop stop-color="#E6D8A9"/>
<stop offset="1" stop-color="#FFD37A"/>
</linearGradient>
<linearGradient id="paint20_linear" x1="25.8321" y1="32.2216" x2="27.5412" y2="32.8678" gradientUnits="userSpaceOnUse">
<stop stop-color="#E6D8A9"/>
<stop offset="1" stop-color="#FFD37A"/>
</linearGradient>
<linearGradient id="paint21_linear" x1="23.9032" y1="30.2992" x2="25.6124" y2="30.9454" gradientUnits="userSpaceOnUse">
<stop stop-color="#E6D8A9"/>
<stop offset="1" stop-color="#FFD37A"/>
</linearGradient>
<linearGradient id="paint22_linear" x1="23.0459" y1="27.4156" x2="24.7551" y2="28.0618" gradientUnits="userSpaceOnUse">
<stop stop-color="#E6D8A9"/>
<stop offset="1" stop-color="#FFD37A"/>
</linearGradient>
<linearGradient id="paint23_linear" x1="23.8439" y1="24.6781" x2="25.5531" y2="25.3243" gradientUnits="userSpaceOnUse">
<stop stop-color="#E6D8A9"/>
<stop offset="1" stop-color="#FFD37A"/>
</linearGradient>
<linearGradient id="paint24_linear" x1="25.9334" y1="22.7023" x2="27.6426" y2="23.3485" gradientUnits="userSpaceOnUse">
<stop stop-color="#E6D8A9"/>
<stop offset="1" stop-color="#FFD37A"/>
</linearGradient>
<linearGradient id="paint25_linear" x1="13.5671" y1="29.4899" x2="16.075" y2="29.4899" gradientUnits="userSpaceOnUse">
<stop offset="0.00131479"/>
<stop offset="0.5" stop-color="white"/>
<stop offset="1"/>
</linearGradient>
<linearGradient id="paint26_linear" x1="13.5671" y1="29.4899" x2="16.075" y2="29.4899" gradientUnits="userSpaceOnUse">
<stop offset="0.00131479" stop-color="white"/>
<stop offset="0.5" stop-color="white"/>
<stop offset="1" stop-color="white"/>
</linearGradient>
</defs>
</svg>
