<svg width="50" height="50" viewBox="0 0 50 50" fill="none" xmlns="http://www.w3.org/2000/svg">
<rect width="50" height="50" fill="white"/>
<path d="M20.3254 25.2693C20.2066 25.1108 19.9293 25.1504 19.9293 25.3485L16.8788 41.3933C16.8392 41.631 17.1561 41.7895 17.2749 41.5518L24.3663 31.5684C24.4852 31.4099 24.4852 31.1722 24.3663 30.9741L20.3254 25.2693Z" fill="#88C648"/>
<path d="M39.7772 18.5741H30.8634C30.705 18.5741 30.6257 18.6929 30.6257 18.8514L31.2992 22.4169C31.3388 22.5754 31.4973 22.6546 31.6162 22.5754L39.8564 19.0099C40.0941 18.9306 40.0149 18.5741 39.7772 18.5741Z" fill="#88C648"/>
<path d="M29.5165 18.7722C29.4769 18.6533 29.3977 18.5741 29.2788 18.5741H10.7778C10.5401 18.5741 10.4609 18.9306 10.6986 19.0099L20.0481 23.0904C20.2858 23.2093 20.4839 23.3677 20.6424 23.5658L33.399 41.5518C33.5574 41.7499 33.8744 41.631 33.8348 41.3537L29.5165 18.7722Z" fill="#88C648"/>
<path d="M21.1575 15.9594L29.4374 13.305C29.992 13.107 29.992 12.9485 29.3978 12.8693L27.7339 12.7108L25.7927 9.69992C25.7134 9.58107 25.555 9.54146 25.3965 9.62069L21.8706 11.9185C21.7914 11.9977 21.7121 12.0769 21.7518 12.1958L22.2272 14.5332L20.999 15.5236C20.5236 15.9594 20.6029 16.1178 21.1575 15.9594Z" fill="#88C648"/>
</svg>
