<svg width="60" height="60" viewBox="0 0 60 60" fill="none" xmlns="http://www.w3.org/2000/svg">
<path d="M44.3582 53.5588H13.4127C13.1864 53.5588 13 53.3709 13 53.1427V6.41616C13 6.18794 13.1864 6 13.4127 6H44.3582C45.2634 6 46 6.73835 46 7.6557V51.9076C46 52.816 45.2634 53.5588 44.3582 53.5588Z" fill="url(#paint0_linear)"/>
<path d="M18.5197 14.4859V15.4614C18.5197 15.5375 18.5508 15.5957 18.6173 15.627C18.6839 15.6583 18.7948 15.6852 18.9501 15.7076C18.999 15.7165 19.0211 15.7478 19.0211 15.8105C19.0211 15.8373 19.0167 15.8686 19.0123 15.9C18.9146 15.891 18.7948 15.8865 18.6484 15.8821C18.502 15.8776 18.3422 15.8731 18.1736 15.8731C18.0538 15.8731 17.9384 15.8776 17.8231 15.8821C17.7121 15.8865 17.6056 15.891 17.508 15.9C17.4992 15.8865 17.4992 15.8731 17.4992 15.8552C17.4992 15.8373 17.4992 15.8239 17.4992 15.8149C17.4992 15.7568 17.5169 15.7255 17.5524 15.7165C17.6234 15.7031 17.6811 15.6897 17.7255 15.6762C17.7698 15.6628 17.8009 15.6494 17.8275 15.636C17.8497 15.6225 17.8674 15.6002 17.8763 15.5823C17.8852 15.5599 17.8896 15.533 17.8896 15.4972V12.9555C17.8896 12.8884 17.8674 12.8392 17.8186 12.8078C17.7698 12.7765 17.6766 12.7541 17.5391 12.7362C17.5213 12.7273 17.508 12.7183 17.4992 12.7049C17.4903 12.6915 17.4858 12.6691 17.4858 12.6333C17.4858 12.6199 17.4858 12.6065 17.4858 12.5886C17.4858 12.5707 17.4903 12.5573 17.4947 12.5483C17.5879 12.5573 17.6988 12.5617 17.8186 12.5662C17.9429 12.5707 18.0494 12.5752 18.147 12.5752H18.9013C19.2607 12.5752 19.5403 12.6557 19.74 12.8168C19.9397 12.9779 20.0417 13.2061 20.0417 13.497C20.0417 13.6267 20.0151 13.7565 19.9663 13.8729C19.9175 13.9937 19.842 14.0966 19.7444 14.1861C19.6468 14.2756 19.527 14.3472 19.385 14.4009C19.243 14.4546 19.0833 14.4814 18.9013 14.4814H18.5197V14.4859ZM18.6706 14.2308C18.8747 14.2308 19.0389 14.1772 19.1676 14.0742C19.2918 13.9713 19.3584 13.7923 19.3584 13.5417C19.3584 13.3135 19.3096 13.139 19.2119 13.0137C19.1143 12.8884 18.9324 12.8257 18.675 12.8257H18.5242V14.2308H18.6706Z" fill="url(#paint1_linear)"/>
<path d="M21.7368 14.7529H20.6807L20.4189 15.4599C20.41 15.4778 20.4011 15.4957 20.3967 15.5136C20.3923 15.536 20.3923 15.5494 20.3923 15.5583C20.3923 15.5941 20.41 15.6255 20.4455 15.6478C20.481 15.6702 20.552 15.6926 20.6585 15.7105C20.7073 15.7194 20.7295 15.7508 20.7295 15.8089C20.7295 15.8313 20.7251 15.8626 20.7206 15.894C20.6319 15.885 20.5343 15.8805 20.4322 15.8761C20.3301 15.8716 20.2325 15.8671 20.1349 15.8671C20.0683 15.8671 19.9973 15.8671 19.9219 15.8716C19.8465 15.8761 19.7666 15.8805 19.6734 15.894C19.6646 15.8805 19.6646 15.8671 19.6646 15.8492C19.6646 15.8313 19.6646 15.8179 19.6646 15.8089C19.6646 15.7463 19.6867 15.7105 19.7311 15.706C19.8332 15.6836 19.9086 15.6657 19.953 15.6389C19.9973 15.6165 20.0328 15.5762 20.0595 15.5181L21.2708 12.596C21.2975 12.5378 21.3374 12.511 21.3907 12.511C21.4084 12.511 21.4262 12.511 21.4395 12.5154C21.4572 12.5154 21.475 12.5199 21.4927 12.5244L22.7174 15.5315C22.7396 15.5807 22.7751 15.621 22.8328 15.6478C22.8905 15.6747 22.9526 15.6926 23.0191 15.7015C23.0679 15.7105 23.0946 15.7463 23.0946 15.8045C23.0946 15.8313 23.0901 15.8626 23.0857 15.894C22.9792 15.885 22.8727 15.8805 22.7706 15.8761C22.6686 15.8716 22.571 15.8671 22.4778 15.8671C22.429 15.8671 22.3757 15.8671 22.3047 15.8716C22.2382 15.8716 22.1672 15.8761 22.1006 15.8805C22.0296 15.885 21.9586 15.885 21.8921 15.8895C21.8211 15.8895 21.7634 15.894 21.719 15.8984C21.7101 15.885 21.7101 15.8716 21.7101 15.8537C21.7101 15.8358 21.7101 15.8224 21.7101 15.8134C21.7101 15.7821 21.7146 15.7597 21.7279 15.7463C21.7412 15.7329 21.7501 15.7239 21.7678 15.7194C21.8566 15.7015 21.9187 15.6836 21.9631 15.6613C22.003 15.6389 22.0252 15.6076 22.0252 15.5628C22.0252 15.5404 22.0207 15.5181 22.0119 15.4867L21.7368 14.7529ZM21.6436 14.4978L21.2176 13.3567L20.7783 14.4978H21.6436Z" fill="url(#paint2_linear)"/>
<path d="M25.3176 13.3925C25.2866 13.4014 25.2555 13.4059 25.22 13.4059C25.1712 13.4059 25.1402 13.397 25.118 13.3791C25.0958 13.3612 25.0825 13.3388 25.078 13.3209C25.0026 13.1285 24.9005 12.9897 24.7807 12.9047C24.6565 12.8197 24.4967 12.7794 24.2882 12.7794C24.1285 12.7794 23.9909 12.8197 23.88 12.9002C23.769 12.9808 23.7114 13.1016 23.7114 13.2627C23.7114 13.388 23.7557 13.4865 23.84 13.5625C23.9243 13.6386 24.0308 13.7057 24.164 13.7639C24.2926 13.8221 24.4302 13.8758 24.5811 13.9295C24.7319 13.9832 24.8695 14.0503 24.9982 14.1308C25.1268 14.2114 25.2333 14.3143 25.3221 14.4396C25.4064 14.5649 25.4508 14.726 25.4508 14.9229C25.4508 15.0527 25.4286 15.178 25.3842 15.2988C25.3398 15.4196 25.2733 15.527 25.1801 15.621C25.0869 15.7149 24.9671 15.7865 24.8251 15.8447C24.6787 15.8984 24.5101 15.9297 24.3059 15.9297C24.0841 15.9297 23.8888 15.9074 23.7114 15.8581C23.5383 15.8089 23.3919 15.7597 23.2809 15.7015C23.2721 15.5583 23.2543 15.4151 23.2321 15.2719C23.2099 15.1332 23.1878 14.9945 23.1611 14.8647C23.1966 14.8513 23.2321 14.8423 23.2765 14.8423C23.3164 14.8423 23.3475 14.8513 23.3652 14.8647C23.3874 14.8781 23.4007 14.905 23.4141 14.9453C23.4584 15.075 23.5072 15.1824 23.5605 15.2764C23.6137 15.3704 23.6759 15.4464 23.7469 15.5046C23.8178 15.5628 23.8977 15.6075 23.9909 15.6344C24.0841 15.6612 24.1906 15.6747 24.3104 15.6747C24.4124 15.6747 24.5012 15.6612 24.5766 15.6299C24.6521 15.6031 24.7097 15.5628 24.7585 15.5136C24.8074 15.4643 24.8429 15.4106 24.865 15.348C24.8872 15.2853 24.9005 15.2182 24.9005 15.1511C24.9005 15.0034 24.8606 14.8916 24.7763 14.8065C24.692 14.7215 24.5899 14.6544 24.4701 14.5962C24.3459 14.5425 24.2172 14.4888 24.0708 14.4396C23.9288 14.3904 23.7957 14.3277 23.6714 14.2517C23.5472 14.1756 23.4451 14.0771 23.3652 13.9563C23.2809 13.8355 23.241 13.6744 23.241 13.473C23.241 13.3388 23.2632 13.2135 23.312 13.0927C23.3608 12.9763 23.4318 12.8734 23.525 12.7884C23.6182 12.7034 23.7335 12.6318 23.8667 12.5825C23.9998 12.5333 24.1506 12.5065 24.3237 12.5065C24.4657 12.5065 24.6077 12.5199 24.7497 12.5512C24.8917 12.5825 25.0558 12.6318 25.2333 12.7034C25.2422 12.8063 25.2511 12.9181 25.2644 13.0479C25.2821 13.1777 25.2999 13.2896 25.3176 13.3925Z" fill="url(#paint3_linear)"/>
<path d="M28.011 13.3925C27.9799 13.4014 27.9489 13.4059 27.9134 13.4059C27.8646 13.4059 27.8335 13.397 27.8113 13.3791C27.7891 13.3612 27.7758 13.3388 27.7714 13.3209C27.696 13.1285 27.5939 12.9897 27.4741 12.9047C27.3499 12.8197 27.1901 12.7794 26.9816 12.7794C26.8218 12.7794 26.6843 12.8197 26.5733 12.9002C26.4624 12.9808 26.4047 13.1016 26.4047 13.2627C26.4047 13.388 26.4491 13.4865 26.5334 13.5625C26.6177 13.6386 26.7242 13.7057 26.8573 13.7639C26.986 13.8221 27.1236 13.8758 27.2744 13.9295C27.4253 13.9832 27.5628 14.0503 27.6915 14.1308C27.8202 14.2114 27.9267 14.3143 28.0154 14.4396C28.0998 14.5649 28.1441 14.726 28.1441 14.9229C28.1441 15.0527 28.1219 15.178 28.0776 15.2988C28.0332 15.4196 27.9666 15.527 27.8735 15.621C27.7803 15.7149 27.6605 15.7865 27.5185 15.8447C27.372 15.8984 27.2034 15.9297 26.9993 15.9297C26.7774 15.9297 26.5822 15.9074 26.4047 15.8581C26.2317 15.8089 26.0852 15.7597 25.9743 15.7015C25.9654 15.5583 25.9477 15.4151 25.9255 15.2719C25.9033 15.1332 25.8811 14.9945 25.8545 14.8647C25.89 14.8513 25.9255 14.8423 25.9699 14.8423C26.0098 14.8423 26.0409 14.8513 26.0586 14.8647C26.0808 14.8781 26.0941 14.905 26.1074 14.9453C26.1518 15.075 26.2006 15.1824 26.2538 15.2764C26.3071 15.3704 26.3692 15.4464 26.4402 15.5046C26.5112 15.5628 26.5911 15.6075 26.6843 15.6344C26.7774 15.6612 26.8839 15.6747 27.0037 15.6747C27.1058 15.6747 27.1945 15.6612 27.27 15.6299C27.3454 15.6031 27.4031 15.5628 27.4519 15.5136C27.5007 15.4643 27.5362 15.4106 27.5584 15.348C27.5806 15.2853 27.5939 15.2182 27.5939 15.1511C27.5939 15.0034 27.554 14.8916 27.4697 14.8065C27.3854 14.7215 27.2833 14.6544 27.1635 14.5962C27.0392 14.5425 26.9106 14.4888 26.7641 14.4396C26.6221 14.3904 26.489 14.3277 26.3648 14.2517C26.2405 14.1756 26.1385 14.0771 26.0586 13.9563C25.9743 13.8355 25.9344 13.6744 25.9344 13.473C25.9344 13.3388 25.9565 13.2135 26.0054 13.0927C26.0542 12.9763 26.1252 12.8734 26.2183 12.7884C26.3115 12.7034 26.4269 12.6318 26.56 12.5825C26.6931 12.5333 26.844 12.5065 27.0171 12.5065C27.159 12.5065 27.301 12.5199 27.443 12.5512C27.585 12.5825 27.7492 12.6318 27.9267 12.7034C27.9356 12.8063 27.9444 12.9181 27.9578 13.0479C27.9711 13.1777 27.9888 13.2896 28.011 13.3925Z" fill="url(#paint4_linear)"/>
<path d="M29.5905 14.4844V15.4599C29.5905 15.536 29.6216 15.5942 29.6881 15.6255C29.7547 15.6568 29.8656 15.6837 30.0209 15.706C30.0698 15.715 30.0919 15.7463 30.0919 15.809C30.0919 15.8358 30.0875 15.8671 30.0831 15.8985C29.9854 15.8895 29.8656 15.885 29.7192 15.8806C29.5728 15.8761 29.413 15.8716 29.2444 15.8716C29.1246 15.8716 29.0092 15.8761 28.8939 15.8806C28.7829 15.885 28.6764 15.8895 28.5788 15.8985C28.57 15.885 28.57 15.8716 28.57 15.8537C28.57 15.8358 28.57 15.8224 28.57 15.8134C28.57 15.7553 28.5877 15.7239 28.6232 15.715C28.6942 15.7016 28.7519 15.6882 28.7963 15.6747C28.8406 15.6613 28.8717 15.6479 28.8983 15.6345C28.9205 15.621 28.9382 15.5987 28.9471 15.5808C28.956 15.5584 28.9604 15.5315 28.9604 15.4957V12.954C28.9604 12.8869 28.9382 12.8377 28.8894 12.8063C28.8406 12.775 28.7474 12.7526 28.6099 12.7347C28.5921 12.7258 28.5788 12.7168 28.57 12.7034C28.5611 12.69 28.5566 12.6676 28.5566 12.6318C28.5566 12.6184 28.5566 12.605 28.5566 12.5871C28.5566 12.5692 28.5611 12.5557 28.5655 12.5468C28.6587 12.5557 28.7696 12.5602 28.8894 12.5647C29.0137 12.5692 29.1202 12.5736 29.2178 12.5736H29.9766C30.336 12.5736 30.6155 12.6542 30.8152 12.8153C31.0149 12.9764 31.117 13.2046 31.117 13.4955C31.117 13.6252 31.0903 13.755 31.0415 13.8714C30.9927 13.9922 30.9173 14.0951 30.8197 14.1846C30.722 14.2741 30.6022 14.3457 30.4602 14.3994C30.3182 14.4531 30.1585 14.4799 29.9766 14.4799H29.5905V14.4844ZM29.7414 14.2293C29.9455 14.2293 30.1097 14.1756 30.2384 14.0727C30.3626 13.9698 30.4292 13.7908 30.4292 13.5402C30.4292 13.312 30.3804 13.1375 30.2827 13.0122C30.1851 12.8869 30.0032 12.8242 29.7458 12.8242H29.595V14.2293H29.7414Z" fill="url(#paint5_linear)"/>
<path d="M31.4678 14.2204C31.4678 13.9832 31.5121 13.7639 31.6009 13.5536C31.6896 13.3478 31.8094 13.1643 31.9647 13.0121C32.1201 12.8555 32.2975 12.7347 32.5061 12.6452C32.7102 12.5557 32.9321 12.511 33.1672 12.511C33.4069 12.511 33.6332 12.5512 33.8417 12.6363C34.0503 12.7213 34.2278 12.8376 34.3831 12.9898C34.5339 13.1419 34.6537 13.3209 34.7425 13.5312C34.8312 13.7415 34.8712 13.9698 34.8712 14.2159C34.8712 14.453 34.8268 14.6768 34.738 14.8826C34.6493 15.0885 34.5295 15.2719 34.3742 15.4241C34.2189 15.5762 34.037 15.7015 33.8328 15.791C33.6243 15.8805 33.4024 15.9253 33.1672 15.9253C32.9276 15.9253 32.7013 15.885 32.4928 15.8C32.2842 15.715 32.1067 15.5986 31.9559 15.4465C31.805 15.2943 31.6852 15.1153 31.6009 14.905C31.5077 14.6992 31.4678 14.4709 31.4678 14.2204ZM33.2427 15.6657C33.3847 15.6657 33.5089 15.6344 33.6243 15.5718C33.7397 15.5091 33.8373 15.4241 33.9171 15.3167C34.0015 15.2093 34.0636 15.0795 34.1079 14.9363C34.1523 14.7931 34.1745 14.6365 34.1745 14.4709C34.1745 14.2293 34.1523 14.0056 34.1079 13.7997C34.0636 13.5939 33.9926 13.4149 33.9038 13.2627C33.8107 13.1106 33.6953 12.9942 33.5577 12.9092C33.4202 12.8242 33.256 12.7794 33.0741 12.7794C32.9587 12.7794 32.8433 12.8063 32.7324 12.86C32.6215 12.9137 32.5238 12.9898 32.4395 13.0882C32.3552 13.1867 32.2887 13.3075 32.2399 13.4507C32.191 13.5939 32.1644 13.755 32.1644 13.934C32.1644 14.1846 32.1866 14.4172 32.2354 14.6276C32.2842 14.8424 32.3552 15.0258 32.4484 15.178C32.5416 15.3301 32.6525 15.4509 32.7901 15.536C32.9188 15.621 33.0696 15.6657 33.2427 15.6657Z" fill="url(#paint6_linear)"/>
<path d="M36.5174 14.3948H36.3V15.4554C36.3 15.5314 36.3311 15.5896 36.3976 15.6209C36.4642 15.6523 36.5751 15.6791 36.7304 15.7015C36.7792 15.7104 36.8014 15.7418 36.8014 15.8044C36.8014 15.8313 36.797 15.8626 36.7925 15.8939C36.6949 15.885 36.5751 15.8805 36.4287 15.876C36.2822 15.8715 36.1225 15.8671 35.9539 15.8671C35.8341 15.8671 35.7187 15.8715 35.6033 15.876C35.4924 15.8805 35.3859 15.885 35.2883 15.8939C35.2794 15.8805 35.2794 15.8671 35.2794 15.8492C35.2794 15.8313 35.2794 15.8178 35.2794 15.8089C35.2794 15.7507 35.2972 15.7194 35.3327 15.7104C35.4037 15.697 35.4614 15.6836 35.5057 15.6702C35.5501 15.6567 35.5812 15.6433 35.6078 15.6299C35.63 15.6165 35.6477 15.5941 35.6566 15.5762C35.6655 15.5538 35.6699 15.527 35.6699 15.4912V12.9494C35.6699 12.8823 35.6477 12.8331 35.5989 12.8018C35.5501 12.7704 35.4569 12.7481 35.3194 12.7302C35.3016 12.7212 35.2883 12.7123 35.2794 12.6988C35.2706 12.6854 35.2661 12.6631 35.2661 12.6273C35.2661 12.6138 35.2661 12.6004 35.2661 12.5825C35.2661 12.5646 35.2706 12.5512 35.275 12.5422C35.3682 12.5512 35.4791 12.5557 35.5989 12.5601C35.7232 12.5646 35.8296 12.5691 35.9273 12.5691H36.686C36.8635 12.5691 37.0233 12.5915 37.1653 12.6362C37.3073 12.6809 37.4271 12.7436 37.5247 12.8241C37.6223 12.9047 37.6977 13.0031 37.751 13.115C37.8042 13.2269 37.8309 13.3522 37.8309 13.4864C37.8309 13.6654 37.7776 13.831 37.6667 13.9742C37.5557 14.1219 37.4093 14.2337 37.2185 14.3053L38.0083 15.4688C38.0705 15.5583 38.137 15.6165 38.2169 15.6523C38.2968 15.6881 38.3678 15.7104 38.4343 15.7283C38.4521 15.7328 38.4654 15.7373 38.4743 15.7507C38.4831 15.7641 38.4876 15.782 38.4876 15.8134C38.4876 15.8268 38.4876 15.8402 38.4876 15.8581C38.4876 15.876 38.4831 15.8939 38.4787 15.9073C38.4432 15.9029 38.39 15.9029 38.3234 15.8984C38.2568 15.8984 38.1858 15.8939 38.1148 15.8894C38.0438 15.885 37.9684 15.885 37.8974 15.8805C37.8264 15.8805 37.7643 15.876 37.7199 15.876C37.6489 15.876 37.5779 15.8447 37.5069 15.7865C37.4359 15.7283 37.3694 15.6478 37.3028 15.5493L36.5174 14.3948ZM36.4509 14.1442C36.5529 14.1442 36.6505 14.1353 36.7304 14.1129C36.8147 14.0905 36.8857 14.0592 36.9478 14.01C37.01 13.9608 37.0543 13.8936 37.0854 13.8131C37.1165 13.7325 37.1342 13.6296 37.1342 13.5043C37.1342 13.294 37.0854 13.1284 36.9833 13.0076C36.8813 12.8868 36.7038 12.8241 36.4509 12.8241H36.3V14.1442H36.4509Z" fill="url(#paint7_linear)"/>
<path d="M40.2136 12.8242V15.4913C40.2136 15.5271 40.2181 15.5539 40.2225 15.5763C40.2269 15.5987 40.2403 15.6166 40.2624 15.6345C40.2846 15.6524 40.3112 15.6658 40.3467 15.6792C40.3822 15.6926 40.4355 15.7016 40.5021 15.7105C40.5509 15.7195 40.5775 15.7508 40.5775 15.7955C40.5775 15.8045 40.5775 15.8224 40.573 15.8403C40.573 15.8627 40.5686 15.8761 40.5642 15.8895C40.4577 15.8806 40.3423 15.8761 40.2181 15.8716C40.0938 15.8671 39.9873 15.8627 39.8941 15.8627C39.7965 15.8627 39.69 15.8671 39.5702 15.8716C39.4504 15.8761 39.3395 15.8806 39.2286 15.8895C39.2197 15.8761 39.2197 15.8582 39.2152 15.8403C39.2152 15.8179 39.2108 15.8045 39.2108 15.7955C39.2108 15.7732 39.2152 15.7508 39.2241 15.7374C39.233 15.7239 39.2552 15.7105 39.2907 15.706C39.4149 15.6881 39.4948 15.6658 39.5259 15.6389C39.5569 15.6121 39.5747 15.5629 39.5747 15.4957V12.8287H39.1309C39.0378 12.8287 38.9579 12.8377 38.8913 12.8556C38.8248 12.8735 38.7671 12.9048 38.7183 12.9406C38.6695 12.9809 38.6251 13.0301 38.5896 13.0927C38.5497 13.1554 38.5097 13.2315 38.4698 13.3165C38.4565 13.3478 38.4298 13.3612 38.3943 13.3612C38.3722 13.3612 38.35 13.3567 38.3234 13.3478C38.2967 13.3388 38.2745 13.3299 38.2612 13.3254C38.2834 13.2449 38.3056 13.1733 38.3234 13.1106C38.3411 13.048 38.3544 12.9853 38.3633 12.9272C38.3766 12.8511 38.3855 12.7795 38.3943 12.7213C38.4032 12.6587 38.4077 12.6184 38.421 12.5915C38.4343 12.5602 38.4609 12.5468 38.5008 12.5468C38.5363 12.5468 38.6118 12.5513 38.7183 12.5602C38.8292 12.5692 38.9579 12.5736 39.1132 12.5736H40.6618C40.8127 12.5736 40.9413 12.5692 41.0523 12.5602C41.1632 12.5513 41.2342 12.5468 41.2741 12.5468C41.3096 12.5468 41.3363 12.5602 41.354 12.5915C41.3629 12.6184 41.3718 12.6631 41.3762 12.7213C41.3806 12.784 41.3939 12.8511 41.4073 12.9272C41.4161 12.9898 41.4294 13.048 41.4472 13.1106C41.4605 13.1733 41.4827 13.2449 41.5093 13.3254C41.4916 13.3344 41.4694 13.3388 41.4472 13.3478C41.4206 13.3567 41.3984 13.3612 41.3806 13.3612C41.3451 13.3612 41.3185 13.3478 41.3008 13.3165C41.2608 13.227 41.2209 13.1554 41.181 13.0927C41.141 13.0301 41.0966 12.9809 41.0523 12.9406C41.0035 12.9003 40.9458 12.8735 40.8792 12.8556C40.8127 12.8377 40.7372 12.8287 40.644 12.8287H40.2136V12.8242Z" fill="url(#paint8_linear)"/>
<path d="M31.8184 49.9519H31.7962H31.774H31.7518H31.7296H31.7074H31.6852H31.6631H31.6409H31.6187H31.5965H31.5921H31.5699H31.5477H31.5255H31.5033H31.4767H31.4501H31.4234H31.3968H31.3702H31.3436H31.3169H31.2814H31.2548H31.2282H31.2016H31.175H31.1483H31.1217H31.0951H31.0685H31.0418H31.0152H30.9708H30.9442H30.9176H30.891H30.8643H30.8377H30.8111H30.7845H30.7578H30.7312H30.7046H30.678H30.6514H30.6247H30.5715H30.5449H30.5182H30.4916H30.465H30.4384C30.3807 50.4218 29.9813 50.7887 29.4977 50.7887C29.014 50.7887 28.6146 50.4218 28.557 49.9519H28.517H28.4593H28.4017H28.344H28.2863H28.2286H28.1709H28.1132H28.0556H27.9979H27.9402H27.8825H27.8248H27.7671H27.7094H27.6518H27.5941H27.5364H27.4787H27.421H27.3633H27.3057H27.248H27.1903H27.1548V50.6813C27.1548 50.8648 27.3012 51.0125 27.4831 51.0125H31.5122C31.6941 51.0125 31.8405 50.8648 31.8405 50.6813V49.9519H31.8361H31.8184Z" fill="url(#paint9_linear)"/>
<path d="M27.2303 49.7148H27.288H27.3457H27.4033H27.461H27.5187H27.5764H27.6341H27.6918H27.7494H27.8071H27.8648H27.9225H27.9802H28.0379H28.0956H28.1532H28.2109H28.2686H28.3263H28.384H28.4417H28.4993H28.5393C28.597 49.245 28.9963 48.878 29.48 48.878C29.9636 48.878 30.363 49.245 30.4207 49.7148H30.4429H30.4695H30.4961H30.5227H30.5494H30.576H30.6026H30.6292H30.6559H30.6825H30.7091H30.7357H30.7624H30.789H30.8156H30.8422H30.8688H30.8955H30.9221H30.9487H30.9753H31.002H31.0286H31.0552H31.0818H31.1085H31.1351H31.1617H31.1883H31.215H31.2416H31.2682H31.2948H31.3214H31.3481H31.3747H31.4013H31.4279H31.4501H31.4723H31.4945H31.5167H31.5389H31.5611H31.5832H31.6054H31.6276H31.6498H31.672H31.6942H31.7164H31.7386H31.7607H31.7829V48.9854C31.7829 48.8019 31.6365 48.6543 31.4546 48.6543H27.4255C27.2436 48.6543 27.0972 48.8019 27.0972 48.9854V49.7148H27.1105H27.2303Z" fill="url(#paint10_linear)"/>
<path d="M28.8767 49.7148H28.9344H28.9921H29.0497H29.1074H29.1651H29.2228H29.2805H29.3382H29.3958H29.4535H29.5112H29.5689H29.5955H29.6222H29.6488H29.6754H29.702H29.7286H29.7553H29.7819H29.8085H29.8351H29.8618H29.8884H29.915H29.9416H29.9683H29.9949H30.0215H30.0481H30.0748H30.1014H30.128H30.1546C30.0969 49.3747 29.8041 49.1152 29.4535 49.1152C29.0986 49.1152 28.8057 49.3747 28.7524 49.7148H28.7702H28.8767Z" fill="url(#paint11_linear)"/>
<path d="M30.1453 49.9519H30.1187H30.0921H30.0654H30.0388H30.0122H29.9856H29.959H29.9323H29.9057H29.8613H29.8347H29.8081H29.7815H29.7548H29.7282H29.7016H29.675H29.6483H29.6217H29.5951H29.5374H29.4797H29.422H29.3644H29.3067H29.249H29.1913H29.107H29.0493H28.9916H28.9295H28.8718H28.8141H28.7964C28.8541 50.292 29.1469 50.5516 29.4975 50.5516C29.848 50.5516 30.1453 50.292 30.1986 49.9519H30.1719H30.1453Z" fill="url(#paint12_linear)"/>
<path d="M29.4979 41.669C24.4172 41.669 20.2861 37.5029 20.2861 32.3792C20.2861 27.2555 24.4172 23.0894 29.4979 23.0894C34.5786 23.0894 38.7097 27.2555 38.7097 32.3792C38.7097 37.5029 34.5786 41.669 29.4979 41.669ZM29.4979 23.4697C24.6258 23.4697 20.6677 27.4658 20.6677 32.3747C20.6677 37.2836 24.6302 41.2797 29.4979 41.2797C34.37 41.2797 38.3281 37.2836 38.3281 32.3747C38.3281 27.4658 34.37 23.4697 29.4979 23.4697Z" fill="url(#paint13_linear)"/>
<path d="M29.9991 41.492C30.039 41.492 30.0745 41.4964 30.11 41.5054C26.8886 39.7557 24.6965 36.319 24.6965 32.3767C24.6965 28.5328 26.7821 25.1677 29.8748 23.3777C29.6485 23.3822 29.4222 23.3643 29.1959 23.3464C26.2585 25.2706 24.3149 28.5999 24.3149 32.3811C24.3149 36.225 26.3295 39.6036 29.3468 41.5054C29.5642 41.5099 29.7817 41.4964 29.9991 41.492Z" fill="url(#paint14_linear)"/>
<path d="M29.8528 23.3802C29.5866 23.3847 29.3204 23.3578 29.0586 23.3399C32.1868 25.1165 34.3079 28.5039 34.3079 32.3747C34.3079 36.2902 32.1425 39.7045 28.9609 41.4676C28.9654 41.4676 28.9654 41.4676 28.9698 41.4676C28.9876 41.4676 29.0009 41.4676 29.0186 41.4721C29.2316 41.5034 29.449 41.5034 29.6665 41.4945C32.6838 39.5926 34.6939 36.2141 34.6939 32.3747C34.685 28.6158 32.7592 25.2999 29.8528 23.3802Z" fill="url(#paint15_linear)"/>
<path d="M36.0785 26.1591C34.3435 27.7656 32.0317 28.7456 29.498 28.7456C26.9111 28.7456 24.5593 27.7253 22.811 26.0606C22.7489 26.177 22.6824 26.2844 22.6069 26.3918C24.4129 28.0878 26.8357 29.1304 29.498 29.1304C32.1338 29.1304 34.5388 28.1057 36.3447 26.4321C36.2427 26.3605 36.1539 26.2665 36.0785 26.1591Z" fill="url(#paint16_linear)"/>
<path d="M22.7756 38.3038C22.8599 38.3485 22.9265 38.4425 22.9487 38.532C22.9531 38.5409 22.9531 38.5499 22.9531 38.5588C24.6837 36.9747 26.9822 36.0037 29.4981 36.0037C32.0362 36.0037 34.348 36.9882 36.083 38.5991C36.1008 38.5588 36.1229 38.5186 36.1584 38.4872C36.2206 38.4246 36.2871 38.3709 36.3626 38.3351C34.5566 36.6525 32.1472 35.6233 29.4981 35.6233C26.8845 35.6233 24.4973 36.6257 22.7002 38.2724C22.7313 38.2814 22.7534 38.2903 22.7756 38.3038Z" fill="url(#paint17_linear)"/>
<path d="M38.5234 32.1867H20.4771V32.5716H38.5234V32.1867Z" fill="url(#paint18_linear)"/>
<path d="M29.6931 23.2773H29.3115V41.4765H29.6931V23.2773Z" fill="url(#paint19_linear)"/>
<mask id="mask0" mask-type="alpha" maskUnits="userSpaceOnUse" x="13" y="6" width="4" height="48">
<path d="M16.0749 6H13.5679V53.5364H16.0749V6Z" fill="url(#paint20_linear)"/>
</mask>
<g mask="url(#mask0)">
<path opacity="0.1" d="M16.0749 6H13.5679V53.5364H16.0749V6Z" fill="url(#paint21_linear)"/>
</g>
<defs>
<linearGradient id="paint0_linear" x1="11.8005" y1="3.35897" x2="47.1439" y2="56.0825" gradientUnits="userSpaceOnUse">
<stop stop-color="#BB2645"/>
<stop offset="1" stop-color="#73001D"/>
</linearGradient>
<linearGradient id="paint1_linear" x1="13.8581" y1="12.5195" x2="45.6315" y2="24.3915" gradientUnits="userSpaceOnUse">
<stop stop-color="#E6D8A9"/>
<stop offset="1" stop-color="#FFD37A"/>
</linearGradient>
<linearGradient id="paint2_linear" x1="14.143" y1="11.7556" x2="45.9166" y2="23.6277" gradientUnits="userSpaceOnUse">
<stop stop-color="#E6D8A9"/>
<stop offset="1" stop-color="#FFD37A"/>
</linearGradient>
<linearGradient id="paint3_linear" x1="14.5979" y1="10.538" x2="46.3713" y2="22.4101" gradientUnits="userSpaceOnUse">
<stop stop-color="#E6D8A9"/>
<stop offset="1" stop-color="#FFD37A"/>
</linearGradient>
<linearGradient id="paint4_linear" x1="14.9325" y1="9.64253" x2="46.7059" y2="21.5146" gradientUnits="userSpaceOnUse">
<stop stop-color="#E6D8A9"/>
<stop offset="1" stop-color="#FFD37A"/>
</linearGradient>
<linearGradient id="paint5_linear" x1="15.2345" y1="8.83385" x2="47.0079" y2="20.7059" gradientUnits="userSpaceOnUse">
<stop stop-color="#E6D8A9"/>
<stop offset="1" stop-color="#FFD37A"/>
</linearGradient>
<linearGradient id="paint6_linear" x1="15.7022" y1="7.58291" x2="47.4757" y2="19.4549" gradientUnits="userSpaceOnUse">
<stop stop-color="#E6D8A9"/>
<stop offset="1" stop-color="#FFD37A"/>
</linearGradient>
<linearGradient id="paint7_linear" x1="16.0679" y1="6.60402" x2="47.8414" y2="18.4761" gradientUnits="userSpaceOnUse">
<stop stop-color="#E6D8A9"/>
<stop offset="1" stop-color="#FFD37A"/>
</linearGradient>
<linearGradient id="paint8_linear" x1="16.5861" y1="5.21724" x2="48.3595" y2="17.0892" gradientUnits="userSpaceOnUse">
<stop stop-color="#E6D8A9"/>
<stop offset="1" stop-color="#FFD37A"/>
</linearGradient>
<linearGradient id="paint9_linear" x1="37.6436" y1="50.5892" x2="22.0234" y2="50.3845" gradientUnits="userSpaceOnUse">
<stop stop-color="#E6D8A9"/>
<stop offset="1" stop-color="#FFD37A"/>
</linearGradient>
<linearGradient id="paint10_linear" x1="37.6607" y1="49.2941" x2="22.0405" y2="49.0894" gradientUnits="userSpaceOnUse">
<stop stop-color="#E6D8A9"/>
<stop offset="1" stop-color="#FFD37A"/>
</linearGradient>
<linearGradient id="paint11_linear" x1="37.6579" y1="49.5278" x2="22.0376" y2="49.3231" gradientUnits="userSpaceOnUse">
<stop stop-color="#E6D8A9"/>
<stop offset="1" stop-color="#FFD37A"/>
</linearGradient>
<linearGradient id="paint12_linear" x1="37.6465" y1="50.3555" x2="22.0264" y2="50.1508" gradientUnits="userSpaceOnUse">
<stop stop-color="#E6D8A9"/>
<stop offset="1" stop-color="#FFD37A"/>
</linearGradient>
<linearGradient id="paint13_linear" x1="20.2764" y1="22.7838" x2="37.9829" y2="40.8932" gradientUnits="userSpaceOnUse">
<stop stop-color="#E6D8A9"/>
<stop offset="1" stop-color="#FFD37A"/>
</linearGradient>
<linearGradient id="paint14_linear" x1="20.1885" y1="22.8714" x2="37.8951" y2="40.9808" gradientUnits="userSpaceOnUse">
<stop stop-color="#E6D8A9"/>
<stop offset="1" stop-color="#FFD37A"/>
</linearGradient>
<linearGradient id="paint15_linear" x1="20.2967" y1="22.7639" x2="38.0033" y2="40.8733" gradientUnits="userSpaceOnUse">
<stop stop-color="#E6D8A9"/>
<stop offset="1" stop-color="#FFD37A"/>
</linearGradient>
<linearGradient id="paint16_linear" x1="23.2195" y1="19.9061" x2="40.9262" y2="38.0155" gradientUnits="userSpaceOnUse">
<stop stop-color="#E6D8A9"/>
<stop offset="1" stop-color="#FFD37A"/>
</linearGradient>
<linearGradient id="paint17_linear" x1="17.3507" y1="25.6443" x2="35.0574" y2="43.7538" gradientUnits="userSpaceOnUse">
<stop stop-color="#E6D8A9"/>
<stop offset="1" stop-color="#FFD37A"/>
</linearGradient>
<linearGradient id="paint18_linear" x1="20.2765" y1="22.7836" x2="37.9833" y2="40.8931" gradientUnits="userSpaceOnUse">
<stop stop-color="#E6D8A9"/>
<stop offset="1" stop-color="#FFD37A"/>
</linearGradient>
<linearGradient id="paint19_linear" x1="20.2762" y1="22.7838" x2="37.9829" y2="40.8935" gradientUnits="userSpaceOnUse">
<stop stop-color="#E6D8A9"/>
<stop offset="1" stop-color="#FFD37A"/>
</linearGradient>
<linearGradient id="paint20_linear" x1="13.5671" y1="29.7692" x2="16.075" y2="29.7692" gradientUnits="userSpaceOnUse">
<stop offset="0.00131479"/>
<stop offset="0.5" stop-color="white"/>
<stop offset="1"/>
</linearGradient>
<linearGradient id="paint21_linear" x1="13.5671" y1="29.7692" x2="16.075" y2="29.7692" gradientUnits="userSpaceOnUse">
<stop offset="0.00131479" stop-color="white"/>
<stop offset="0.5" stop-color="white"/>
<stop offset="1" stop-color="white"/>
</linearGradient>
</defs>
</svg>
