<svg width="60" height="60" viewBox="0 0 60 60" fill="none" xmlns="http://www.w3.org/2000/svg">
<path d="M19.3013 17.6797C19.3013 18.7943 19.1138 19.7682 18.7388 20.6016C18.3638 21.4297 17.8325 22.0625 17.145 22.5C16.4575 22.9375 15.6554 23.1562 14.7388 23.1562C13.8429 23.1562 13.0487 22.9375 12.356 22.5C11.6632 22.0573 11.1242 21.4297 10.7388 20.6172C10.3586 19.7995 10.1632 18.8542 10.1528 17.7812V16.9609C10.1528 15.8672 10.3429 14.901 10.7231 14.0625C11.1034 13.224 11.6398 12.5833 12.3325 12.1406C13.0304 11.6927 13.8273 11.4688 14.7231 11.4688C15.6346 11.4688 16.4367 11.6901 17.1294 12.1328C17.8273 12.5703 18.3638 13.2083 18.7388 14.0469C19.1138 14.8802 19.3013 15.8516 19.3013 16.9609V17.6797ZM17.8091 16.9453C17.8091 15.5964 17.5382 14.5625 16.9966 13.8438C16.4549 13.1198 15.6971 12.7578 14.7231 12.7578C13.7752 12.7578 13.0278 13.1198 12.481 13.8438C11.9393 14.5625 11.6606 15.5625 11.645 16.8438V17.6797C11.645 18.987 11.9185 20.0156 12.4653 20.7656C13.0174 21.5104 13.7752 21.8828 14.7388 21.8828C15.7075 21.8828 16.4575 21.5312 16.9888 20.8281C17.52 20.1198 17.7935 19.1068 17.8091 17.7891V16.9453ZM18.5591 30.625V38.3594C18.5539 39.4323 18.2153 40.3099 17.5435 40.9922C16.8768 41.6745 15.9705 42.0573 14.8247 42.1406L14.4263 42.1562C13.1815 42.1562 12.1893 41.8203 11.4497 41.1484C10.7101 40.4766 10.3351 39.5521 10.3247 38.375V30.625H11.8091V38.3281C11.8091 39.151 12.0356 39.7917 12.4888 40.25C12.9419 40.7031 13.5877 40.9297 14.4263 40.9297C15.2752 40.9297 15.9237 40.7031 16.3716 40.25C16.8247 39.7969 17.0513 39.1589 17.0513 38.3359V30.625H18.5591Z" fill="white"/>
<rect y="8.46144" width="58.8462" height="41.5385" rx="2" fill="white"/>
<path d="M1.15381 11.6154C1.15381 10.5109 2.04924 9.61544 3.15381 9.61544H55.6923C56.7968 9.61544 57.6923 10.5109 57.6923 11.6154V15.3847H1.15381V11.6154Z" fill="#1736A7"/>
<path d="M1.15381 39.6154H57.6923V46.8462C57.6923 47.9508 56.7968 48.8462 55.6923 48.8462H3.15381C2.04924 48.8462 1.15381 47.9508 1.15381 46.8462V39.6154Z" fill="#F1EEEA"/>
<rect x="1.15381" y="15.3846" width="56.5385" height="24.2308" fill="url(#paint0_linear)"/>
<rect x="1.15381" y="17.6923" width="17.3077" height="21.9231" fill="#F0F1EC"/>
<path fill-rule="evenodd" clip-rule="evenodd" d="M13.8104 27.3117C14.9362 18.7632 9.6037 18.8469 9.6037 18.8469V18.847C9.59669 18.8469 3.52593 18.7682 4.6511 27.3118C4.78956 27.2635 5.66455 28.7329 3.90073 30.4421C3.53462 30.5259 3.88048 32.7948 6.17845 32.7224C5.83877 32.8326 5.11739 33.2136 4.31981 33.6348C3.93453 33.8383 3.53145 34.0512 3.14503 34.2474C1.69382 34.9846 1.15381 39.4941 1.15381 39.575C1.15381 39.6559 8.85775 39.575 8.85775 39.575H9.61267C9.90611 39.578 17.3076 39.6542 17.3076 39.5749C17.3076 39.494 16.7676 34.9845 15.3164 34.2474C14.93 34.0511 14.5269 33.8382 14.1416 33.6347C13.3441 33.2135 12.6227 32.8325 12.283 32.7223C14.581 32.7947 14.9268 30.5258 14.5607 30.442C12.7969 28.7328 13.6719 27.2635 13.8104 27.3117ZM12.0822 32.7104C12.0999 32.6791 12.1705 32.6859 12.283 32.7223C12.2177 32.7203 12.1507 32.7163 12.0822 32.7104ZM6.17845 32.7224C6.24379 32.7204 6.31071 32.7164 6.37924 32.7105C6.36155 32.6792 6.29093 32.6859 6.17845 32.7224Z" fill="#DCDCDC"/>
<path fill-rule="evenodd" clip-rule="evenodd" d="M6.70628 12.2181L6.98462 11.9231H6.75198L6.55153 12.2181H6.70628ZM3.66187 13.1943V13.7853H3.46143V12.3244H3.96202C4.13235 12.3244 4.26338 12.3619 4.35512 12.4368C4.44686 12.5117 4.49274 12.6207 4.49274 12.7639C4.49274 12.8548 4.46729 12.9341 4.4164 13.0017C4.36551 13.0692 4.29471 13.1197 4.20401 13.1532L4.5592 13.7732V13.7853H4.34526L4.01707 13.1943H3.66187ZM3.66187 13.0368H3.96825C4.06726 13.0368 4.14602 13.0121 4.20453 12.9626C4.26303 12.9131 4.29229 12.8469 4.29229 12.7639C4.29229 12.6736 4.26442 12.6044 4.20868 12.5562C4.15294 12.5081 4.07245 12.4836 3.96721 12.483H3.66187V13.0368ZM7.15072 13.6277V13.7853H6.19003V12.3244H7.14033V12.4829H6.38944V12.9525H7.04478V13.11H6.38944V13.6277H7.15072ZM9.01648 13.7853V13.2134H9.37271C9.54373 13.2134 9.67511 13.1751 9.76685 13.0985C9.8586 13.0219 9.90447 12.9127 9.90447 12.7709C9.90447 12.6364 9.85756 12.5284 9.76374 12.4468C9.66992 12.3652 9.54027 12.3244 9.37479 12.3244H8.81707V13.7853H9.01648ZM9.01651 13.0558H9.37482C9.48145 13.0558 9.56315 13.0316 9.61992 12.9831C9.6767 12.9346 9.70509 12.8645 9.70509 12.7729C9.70509 12.6859 9.6767 12.6164 9.61992 12.5642C9.56315 12.512 9.48526 12.4849 9.38624 12.4829H9.01651V13.0558ZM12.092 13.8053L12.145 13.8033C12.2973 13.7926 12.418 13.7435 12.507 13.6558C12.5959 13.5682 12.6408 13.4555 12.6414 13.3177V12.3244H12.441V13.3147C12.441 13.4204 12.4111 13.5023 12.3512 13.5605C12.2913 13.6187 12.2049 13.6478 12.092 13.6478C11.9806 13.6478 11.8947 13.6186 11.8345 13.56C11.7742 13.5015 11.7441 13.4194 11.7441 13.3137V12.3244H11.5468V13.3197C11.5482 13.4709 11.598 13.5896 11.6963 13.6759C11.7947 13.7622 11.9266 13.8053 12.092 13.8053ZM15.2714 13.6729C15.1835 13.7478 15.0592 13.7853 14.8985 13.7853H14.3741V12.3244H14.8684C15.0325 12.3244 15.1559 12.3572 15.2387 12.4227C15.3214 12.4883 15.3628 12.5853 15.3628 12.7137C15.3628 12.7819 15.3427 12.8423 15.3026 12.8948C15.2624 12.9473 15.2077 12.9879 15.1385 13.0167C15.2202 13.0388 15.2847 13.0808 15.3322 13.1426C15.3796 13.2045 15.4033 13.2782 15.4033 13.3639C15.4033 13.495 15.3593 13.598 15.2714 13.6729ZM14.8748 12.9475H14.5736V12.4829H14.8686C14.9676 12.4829 15.0413 12.5012 15.0898 12.5376C15.1383 12.5741 15.1625 12.6324 15.1625 12.7127C15.1625 12.7849 15.1364 12.8421 15.0841 12.8843C15.0318 12.9264 14.9621 12.9475 14.8748 12.9475ZM14.5736 13.6278H14.9028C14.9956 13.6278 15.0688 13.6046 15.1225 13.5581C15.1761 13.5116 15.203 13.4475 15.203 13.3659C15.203 13.19 15.104 13.102 14.9059 13.102H14.5736V13.6278ZM18.0334 13.7853V13.6277H17.3168V12.3244H17.1164V13.7853H18.0334ZM19.8927 12.3244V13.7853H19.6933V12.3244H19.8927ZM22.6994 14.0322L22.8355 13.9108L22.5654 13.7061C22.6492 13.6486 22.7143 13.5688 22.7607 13.4668C22.8071 13.3648 22.8303 13.2432 22.8303 13.1021V13.0088C22.8303 12.8663 22.8053 12.7417 22.7555 12.6351C22.7056 12.5284 22.6345 12.4466 22.5421 12.3897C22.4496 12.3329 22.3425 12.3045 22.2206 12.3045C22.1015 12.3045 21.9958 12.333 21.9033 12.3902C21.8109 12.4474 21.7394 12.5299 21.6889 12.6376C21.6383 12.7453 21.6131 12.8693 21.6131 13.0098V13.1152C21.6144 13.2529 21.6406 13.3742 21.6915 13.4789C21.7424 13.5835 21.8138 13.6642 21.9059 13.7207C21.998 13.7772 22.1036 13.8055 22.2227 13.8055C22.2781 13.8055 22.3307 13.7994 22.3806 13.7874L22.6994 14.0322ZM21.921 13.4973C21.9933 13.5937 22.0939 13.6418 22.2227 13.6418C22.3515 13.6418 22.4512 13.5965 22.5218 13.5059C22.5924 13.4152 22.6288 13.2853 22.6308 13.1161V13.0077C22.6308 12.8358 22.5954 12.7032 22.5244 12.6099C22.4534 12.5166 22.3522 12.4699 22.2206 12.4699C22.0953 12.4699 21.9964 12.5162 21.9241 12.6089C21.8517 12.7015 21.8145 12.8301 21.8124 12.9947V13.102C21.8124 13.2693 21.8486 13.401 21.921 13.4973ZM25.0707 13.8053L25.1237 13.8033C25.276 13.7926 25.3967 13.7435 25.4856 13.6558C25.5746 13.5682 25.6194 13.4555 25.6201 13.3177V12.3244H25.4197V13.3147C25.4197 13.4204 25.3897 13.5023 25.3299 13.5605C25.27 13.6187 25.1836 13.6478 25.0707 13.6478C24.9593 13.6478 24.8734 13.6186 24.8132 13.56C24.7529 13.5015 24.7228 13.4194 24.7228 13.3137V12.3244H24.5255V13.3197C24.5269 13.4709 24.5767 13.5896 24.675 13.6759C24.7734 13.7622 24.9053 13.8053 25.0707 13.8053ZM28.3136 13.6277V13.7853H27.3529V12.3244H28.3032V12.4829H27.5523V12.9525H28.2077V13.11H27.5523V13.6277H28.3136ZM32.1238 13.7853V13.1401H32.7583V12.9826H32.1238V12.4829H32.8612V12.3244H31.9244V13.7853H32.1238ZM34.7175 13.1943V13.7853H34.5171V12.3244H35.0177C35.188 12.3244 35.319 12.3619 35.4108 12.4368C35.5025 12.5117 35.5484 12.6207 35.5484 12.7639C35.5484 12.8548 35.523 12.9341 35.4721 13.0017C35.4212 13.0692 35.3504 13.1197 35.2597 13.1532L35.6149 13.7732V13.7853H35.4009L35.0727 13.1943H34.7175ZM35.0239 13.0368H34.7175V12.483H35.0229C35.1281 12.4836 35.2086 12.5081 35.2643 12.5562C35.3201 12.6044 35.348 12.6736 35.348 12.7639C35.348 12.8469 35.3187 12.9131 35.2602 12.9626C35.2017 13.0121 35.1229 13.0368 35.0239 13.0368ZM37.4473 13.404L37.305 13.7853H37.0993L37.6768 12.3244H37.8513L38.4298 13.7853H38.2252L38.0808 13.404H37.4473ZM38.0215 13.2455H37.5074L37.764 12.5622L38.0215 13.2455ZM40.2518 12.6595V13.7853H40.0513V12.3244H40.2518L41.0151 13.4552V12.3244H41.2135V13.7853H41.0131L40.2518 12.6595ZM43.4219 14.2309C43.5209 14.2309 43.5981 14.212 43.6535 14.1742C43.7088 14.1364 43.7365 14.0851 43.7365 14.0202C43.7365 13.9225 43.6836 13.8647 43.5776 13.8466L43.5882 13.8025L43.6196 13.8004C43.7106 13.7903 43.7899 13.7652 43.8574 13.7249L43.9209 13.6795C44.0203 13.5956 44.0793 13.4764 44.098 13.3218H43.8975C43.8781 13.4422 43.8388 13.5267 43.7796 13.5752C43.7204 13.6237 43.6355 13.6479 43.5247 13.6479C43.4014 13.6479 43.3055 13.6011 43.237 13.5075C43.1684 13.4138 43.1342 13.2877 43.1342 13.1292V12.9877C43.1342 12.8198 43.1703 12.6904 43.2427 12.5994C43.3151 12.5085 43.4149 12.463 43.5423 12.463C43.6462 12.463 43.727 12.4891 43.7848 12.5412C43.8427 12.5934 43.8802 12.6777 43.8975 12.7941H44.098C44.082 12.6409 44.0256 12.521 43.9287 12.4344C43.8317 12.3478 43.703 12.3045 43.5423 12.3045C43.4212 12.3045 43.3145 12.332 43.2224 12.3872C43.1304 12.4424 43.0592 12.5215 43.009 12.6245C42.9588 12.7275 42.9337 12.8469 42.9337 12.9827V13.1232C42.9337 13.3305 42.9875 13.4961 43.0952 13.6198C43.1874 13.7258 43.3056 13.7864 43.4498 13.8016L43.4187 13.9289C43.4696 13.9334 43.5077 13.9402 43.5329 13.9492L43.5538 13.959C43.5759 13.973 43.587 13.9948 43.587 14.0242C43.587 14.0556 43.5719 14.08 43.5418 14.0974C43.5117 14.1148 43.4693 14.1235 43.4146 14.1235L43.4219 14.2309ZM45.9895 13.404L45.8472 13.7853H45.6416L46.219 12.3244H46.3935L46.972 13.7853H46.7674L46.6231 13.404H45.9895ZM46.5638 13.2455H46.0497L46.3062 12.5622L46.5638 13.2455ZM48.8075 12.3244V13.7853H48.6081V12.3244H48.8075ZM51.0699 13.8055C51.2298 13.8055 51.3576 13.7698 51.4531 13.6986C51.5487 13.6274 51.5965 13.5325 51.5965 13.4142C51.5965 13.3399 51.5793 13.2754 51.545 13.2205C51.5108 13.1657 51.4582 13.1177 51.3872 13.0765C51.3162 13.0354 51.2179 12.9978 51.0922 12.9637C50.9666 12.9295 50.8776 12.8919 50.8253 12.8508C50.773 12.8096 50.7469 12.7593 50.7469 12.6998C50.7469 12.6255 50.7744 12.5675 50.8295 12.5257C50.8845 12.4839 50.9612 12.463 51.0595 12.463C51.1654 12.463 51.2475 12.4882 51.3057 12.5387C51.3638 12.5892 51.3929 12.6586 51.3929 12.7469H51.5933C51.5933 12.666 51.571 12.5914 51.5264 12.5232C51.4817 12.455 51.4187 12.4014 51.3373 12.3626C51.256 12.3239 51.1634 12.3045 51.0595 12.3045C50.9072 12.3045 50.7834 12.3421 50.6882 12.4173C50.593 12.4926 50.5454 12.5877 50.5454 12.7028C50.5454 12.8045 50.5844 12.8899 50.6623 12.9591C50.7402 13.0284 50.8646 13.0867 51.0356 13.1342C51.172 13.1723 51.2662 13.211 51.3181 13.2501C51.37 13.2892 51.396 13.3446 51.396 13.4162C51.396 13.4877 51.368 13.5443 51.3119 13.5857C51.2558 13.6272 51.1751 13.6479 51.0699 13.6479C50.957 13.6479 50.8669 13.6223 50.7994 13.5712C50.7318 13.52 50.6981 13.4503 50.6981 13.362H50.4976C50.4976 13.4469 50.522 13.5228 50.5709 13.5897C50.6197 13.6566 50.6891 13.7093 50.7791 13.7478C50.8691 13.7862 50.966 13.8055 51.0699 13.8055ZM54.2307 13.6277V13.7853H53.27V12.3244H54.2203V12.4829H53.4694V12.9525H54.1247V13.11H53.4694V13.6277H54.2307Z" fill="white"/>
<path fill-rule="evenodd" clip-rule="evenodd" d="M29.4368 33.9754C29.4499 33.2139 29.4103 32.3476 29.312 31.3767L28.9548 31.4117L28.9796 31.6668C29.0655 32.5918 29.0979 33.4062 29.0834 34.1135L29.0813 34.1667L28.909 34.1797C28.0534 34.2444 27.2613 34.328 26.4125 34.4396C25.3952 34.5733 24.9713 35.2219 25.1787 36.0765C25.3553 36.8039 25.9717 37.5597 26.6748 37.9015L26.7722 37.9465C28.2242 38.5831 29.2456 37.4563 29.4145 34.575L29.4187 34.4981L30.0237 34.462C30.9029 34.4141 31.8845 34.3802 33.0718 34.3525L36.9089 34.2835C37.6462 34.2698 38.2214 34.2561 38.7575 34.2389L39.8677 34.1963L39.8516 33.8433L39.2187 33.8693C38.8534 33.883 38.4868 33.8945 38.0769 33.9049L34.6283 33.9681C32.8209 33.9993 31.4414 34.0362 30.255 34.0959L29.4324 34.1427L29.4368 33.9754ZM28.9401 34.5318L29.0683 34.5222L29.0611 34.6683C28.9024 37.2645 28.0207 38.1616 26.8337 37.5846C26.2259 37.2892 25.6795 36.6192 25.5278 35.9943C25.3687 35.3388 25.6586 34.8952 26.4599 34.7899C27.3024 34.6791 28.0892 34.596 28.9401 34.5318Z" fill="#3D3D3D"/>
<path d="M31.8138 31.5774C32.1848 31.4604 32.4208 31.615 32.4499 31.9592L32.4546 32.0488C32.4564 32.153 32.4443 32.2631 32.4096 32.4564L32.2714 33.1688C32.1781 33.6905 32.1817 34.0188 32.3035 34.2038C32.3696 34.3042 32.6813 34.4142 33.0075 34.4388C33.1612 34.4503 33.2739 34.4411 33.344 34.4317L33.36 34.4289L33.3608 34.3941C33.3727 34.0578 33.4631 33.6574 33.6011 33.2584L33.674 33.0594C33.7442 32.8773 33.8188 32.7119 33.8818 32.5961C33.9145 32.5359 33.9435 32.4899 33.9704 32.458C33.9999 32.423 34.028 32.3989 34.076 32.384C34.1807 32.3516 34.2673 32.406 34.303 32.485L34.3164 32.5262L34.3129 32.6106L33.7872 34.3978L33.7897 34.413C33.7933 34.4746 33.7817 34.5282 33.7571 34.5741L33.7255 34.6197C33.7996 35.2629 34.3735 35.2889 35.7876 34.4044L35.9368 34.3097C36.2244 34.1247 36.3003 33.8279 36.2417 33.289L36.2189 33.1113L36.1629 32.7462L36.1584 32.7552C36.095 32.8846 36.0665 33.0004 36.0687 33.0404L36.0723 33.0537L35.8107 33.2957C35.6419 33.1189 35.7061 32.8224 35.8799 32.5169C35.9465 32.3998 36.0226 32.2994 36.0929 32.2409C36.2461 32.1134 36.465 32.1556 36.482 32.3891L36.4951 32.5253L36.5816 33.1132C36.6832 33.8571 36.5951 34.3082 36.1333 34.6055C34.5083 35.6512 33.5877 35.6531 33.3968 34.8362L33.3852 34.7787L33.3256 34.7881C33.2475 34.7969 33.1622 34.7995 33.0719 34.7962L32.9801 34.7911C32.5514 34.7588 32.1472 34.6161 32.0023 34.396C31.8292 34.133 31.8111 33.7806 31.8931 33.2551L31.9427 32.9742L32.0511 32.4213C32.0881 32.2176 32.0986 32.1158 32.0944 32.023L32.0921 31.9885C32.0822 31.8711 32.0747 31.8662 31.9234 31.9139C31.3697 32.0886 31.2043 32.4543 31.097 33.4753L31.053 33.9168C31.0113 34.3028 30.9703 34.5253 30.8917 34.748L30.8641 34.8225L30.5288 34.6961C30.611 34.4848 30.6522 34.2801 30.6948 33.8902L30.7239 33.6008C30.8443 32.3209 31.0383 31.822 31.8138 31.5774Z" fill="#3D3D3D"/>
<path d="M51.5689 22.3077C51.7644 22.3077 51.9229 22.566 51.9229 22.8846C51.9229 23.1678 51.7977 23.4034 51.6325 23.4522L51.5689 23.4615H21.1231C20.9275 23.4615 20.769 23.2032 20.769 22.8846C20.769 22.6014 20.8943 22.3658 21.0594 22.317L21.1231 22.3077H51.5689Z" fill="#979797" fill-opacity="0.343914"/>
<path d="M33.122 18.8462C33.3094 18.8462 33.4613 19.1045 33.4613 19.4231C33.4613 19.7064 33.3413 19.9419 33.183 19.9908L33.122 20.0001H22.2622C22.0748 20.0001 21.9229 19.7418 21.9229 19.4231C21.9229 19.1399 22.0429 18.9044 22.2012 18.8555L22.2622 18.8462H33.122Z" fill="#979797" fill-opacity="0.343914"/>
<path d="M33.122 26.9231C33.3094 26.9231 33.4613 27.1814 33.4613 27.5C33.4613 27.7833 33.3413 28.0188 33.183 28.0677L33.122 28.077H22.2622C22.0748 28.077 21.9229 27.8187 21.9229 27.5C21.9229 27.2168 22.0429 26.9813 22.2012 26.9324L22.2622 26.9231H33.122Z" fill="#979797" fill-opacity="0.343914"/>
<path d="M49.2762 26.9231C49.4637 26.9231 49.6156 27.1814 49.6156 27.5C49.6156 27.7833 49.4956 28.0188 49.3372 28.0677L49.2762 28.077H38.4165C38.2291 28.077 38.0771 27.8187 38.0771 27.5C38.0771 27.2168 38.1972 26.9813 38.3555 26.9324L38.4165 26.9231H49.2762Z" fill="#979797" fill-opacity="0.343914"/>
<defs>
<linearGradient id="paint0_linear" x1="1.15381" y1="15.3846" x2="1.15381" y2="39.6153" gradientUnits="userSpaceOnUse">
<stop stop-color="#CFE3D5"/>
<stop offset="1" stop-color="#D4E0E6"/>
</linearGradient>
</defs>
</svg>
