<svg width="50" height="50" viewBox="0 0 50 50" fill="none" xmlns="http://www.w3.org/2000/svg">
<rect width="50" height="50" fill="white"/>
<path fill-rule="evenodd" clip-rule="evenodd" d="M7.75047 32.52C8.21012 32.52 8.53043 32.6173 8.72934 32.816C8.95191 33.0383 9.05155 33.4056 9.05155 34.0066V41.5138C9.05155 42.5527 8.83356 43.016 7.54698 43.016H7.37061V43.4767H13.1526V43.0183L12.9781 43.016C11.7037 43.0008 11.4888 42.5401 11.4888 41.5138V34.0062C11.4888 33.4071 11.5881 33.0414 11.8106 32.8194C12.0114 32.6177 12.3375 32.5197 12.8067 32.5197H13.1522V32.0525H7.37061V32.5197H7.75047V32.52Z" fill="#091C5A"/>
<path fill-rule="evenodd" clip-rule="evenodd" d="M26.2427 39.6472C26.2427 39.6472 26.1423 39.1785 26.1278 38.9162V35.4873C26.1053 33.4878 26.3782 32.4924 24.6282 32.5V32.0508H28.654V32.5C26.8516 32.4928 27.0784 33.4882 27.0681 35.4873V43.4937L26.4951 43.4876L17.8017 34.3996C17.8017 34.3996 17.8994 34.8676 17.9139 35.1303V40.7452C17.8647 42.7935 18.1186 43.041 19.4395 43.017V43.4849H15.2427V43.017C16.5655 43.0185 16.8255 42.8427 16.824 40.5781V40.7135V35.1799L16.8133 34.3016C16.8625 33.1648 16.4422 32.5054 15.1591 32.516V32.0664H19.023L26.2427 39.6472Z" fill="#091C5A"/>
<path fill-rule="evenodd" clip-rule="evenodd" d="M40.8156 31.8326H40.372L40.3514 31.9844C40.3212 32.211 40.2319 32.5904 39.9734 32.5904C39.8998 32.5904 39.7161 32.5557 39.5092 32.4611C38.6105 32.0721 37.4461 31.8326 36.4657 31.8326C34.558 31.8326 32.8274 32.5153 31.5912 33.7555C30.4558 34.895 29.8347 36.446 29.8435 38.1221C29.8515 39.7277 30.4833 41.0484 31.7768 42.1616C33.0798 43.2752 34.5397 43.75 36.6612 43.75C38.4284 43.75 39.4401 43.4964 40.9928 42.6639L41.2646 42.5166V39.521C41.2646 38.2442 41.4211 38.0455 42.4611 38.0035L42.6302 37.9971V37.552H37.5496V37.9971L37.7187 38.0035C38.877 38.0485 39.0958 38.256 39.0958 39.3116V42.0876C38.2364 42.6539 37.6118 42.869 36.8242 42.869C35.6586 42.869 34.6214 42.419 33.825 41.6242C32.8923 40.6918 32.4372 39.3338 32.4372 37.7991C32.4372 36.1459 32.8778 34.7356 33.7857 33.8295C34.5084 33.1076 35.4681 32.7067 36.5631 32.7067C37.5412 32.7067 38.6773 33.1259 39.4565 33.7433C40.0903 34.2616 40.419 34.7631 40.6671 35.5918L40.7049 35.7172H41.1386L40.8156 31.8326Z" fill="#091C5A"/>
<path fill-rule="evenodd" clip-rule="evenodd" d="M34.4457 29.0319C34.8681 28.9681 35.3161 28.9778 35.6528 28.6688C37.0796 28.8877 38.5258 28.5354 39.6473 27.7503C40.238 27.2743 40.7705 26.7218 41.2013 26.1181C41.5803 25.5867 41.8794 25.0913 42.0728 24.4961C42.2172 24.129 42.3314 23.747 42.4175 23.3547C42.8245 21.5053 42.6105 19.4369 42.0078 17.6781C41.8976 17.3514 41.7715 17.035 41.6345 16.7334C40.8823 15.1805 39.8584 13.5049 38.2821 12.5226C37.3941 11.9696 36.5768 11.1138 36.0751 10.2279C35.8023 9.98274 35.5409 9.65777 35.1882 9.59905C35.2847 9.75811 35.3908 9.91376 35.4171 10.0996L35.3966 10.1258C35.0222 10.1367 34.7288 9.93884 34.4726 9.69939L34.7551 9.44341C34.6483 9.38925 34.5262 9.36873 34.4081 9.34136C33.33 9.21879 32.4431 9.71593 31.4865 9.95537L31.4717 10.0084C32.059 10.2695 32.1817 10.916 32.5235 11.3533C32.608 11.2518 32.7524 11.3259 32.8705 11.3168C33.0412 11.3265 33.2016 11.4496 33.3671 11.4063C33.3722 11.2638 33.2917 11.1503 33.2661 11.0226C33.3671 10.9747 33.4898 11.0169 33.6028 11.0226C33.9121 11.2034 34.4081 10.9907 34.601 11.4063C34.2483 11.4285 33.9172 11.5027 33.5862 11.583C33.6079 11.7165 33.7415 11.8225 33.7306 11.9565C33.4475 11.839 33.1479 11.7649 32.8329 11.7279L32.8169 11.7752C33.2175 12.2444 33.7677 12.5226 34.3287 12.6874C35.1357 12.8738 35.8457 12.4901 36.6247 12.6235C38.5378 13.4986 40.1718 15.5003 40.8823 17.3999C40.9171 17.4911 40.9508 17.5835 40.9822 17.6776C41.5775 19.4124 41.6905 21.5446 41.0941 23.3542C40.7767 24.1067 40.4274 24.8171 39.8676 25.4288C39.6558 25.6894 39.4218 25.9214 39.1673 26.1175C38.3654 26.7412 37.377 27.0166 36.3576 26.7372C36.2937 26.6933 36.1653 26.6825 36.187 26.5713C36.2224 26.4225 36.2555 26.272 36.2846 26.1175C36.453 25.2504 36.5317 24.3382 36.4861 23.426C36.4849 23.3872 36.4838 23.3479 36.4826 23.3091C36.4261 21.9848 36.1619 20.7944 35.6751 19.649C35.3623 18.9917 34.9913 18.275 34.5239 17.6319C33.9658 16.8651 33.2735 16.2027 32.3843 15.872C31.8393 15.7278 31.1664 15.7004 30.7555 16.1536C30.4615 16.4108 30.3394 16.7568 30.3816 17.1365C29.9222 17.4273 29.4057 17.5841 28.8435 17.6319C28.706 17.6439 28.565 17.6947 28.4218 17.6929C28.2859 17.6992 28.1535 17.6935 28.0234 17.6776C27.3471 17.5943 26.6628 17.2294 26.1429 16.8133C26.132 16.5356 26.1161 16.2745 26.1052 15.9809C25.8073 15.8264 25.5602 15.5328 25.5396 15.1856L25.5659 15.1594C25.7377 15.2124 25.8861 15.2973 26.0413 15.388C25.9717 14.9718 25.8912 14.5613 25.684 14.1982C25.4911 14.1178 25.2988 14.0539 25.1179 13.9576C24.9096 13.8202 24.7754 13.5682 24.7446 13.3396C24.9313 13.5209 25.2566 13.457 25.401 13.6486C25.1493 12.9068 25.1453 12.0585 24.7332 11.3807C24.5249 10.8795 23.9799 10.6498 23.606 10.282C23.4617 10.1053 23.4034 9.86016 23.142 9.8328C22.928 9.77978 22.912 9.54033 22.875 9.38469C23.0079 9.40065 23.1198 9.4913 23.2317 9.5124C22.9223 8.692 22.6495 7.77868 21.8117 7.25589L21.6679 7.34711C21.342 7.395 20.9944 7.41666 20.6691 7.42749C20.8135 7.21427 21.0692 7.12305 21.2724 7.02613C21.0372 6.85054 20.8438 6.80835 20.5498 6.76046C20.3792 6.93035 20.0704 7.01644 19.8513 7.06433L19.8239 7.04267C19.8182 6.85054 19.7748 6.61622 20.0642 6.56776C19.7862 6.43436 19.3256 6.48852 19.0426 6.56776C18.9632 6.77585 18.7338 6.96285 18.7504 7.20914C18.5854 7.3796 18.4678 7.60936 18.2961 7.73193C18.2909 7.32088 18.4661 6.94233 18.5409 6.5957C18.3006 6.68635 18.0564 6.81462 17.8207 6.92636C17.4423 6.70744 17.0428 6.48909 16.637 6.32318C16.6005 6.30722 16.5194 6.29183 16.5354 6.36081C16.883 6.61109 16.7483 7.08143 16.7854 7.43775L16.5662 7.25703C16.4595 6.98508 16.1513 6.78783 16.0982 6.48909C15.7347 6.55864 15.5024 6.65442 15.1657 6.79866L15.1194 6.82545C15.37 6.82545 15.5834 7.02214 15.7061 7.22054C15.3272 7.24107 14.9905 7.09227 14.6166 7.05407C14.5795 7.01758 14.547 6.97368 14.4882 6.97938C14.3016 7.04894 14.1407 7.18177 13.9763 7.31005C13.6076 7.67321 13.2332 8.07343 13.0574 8.55404C13.1807 8.57456 13.3354 8.56943 13.4261 8.64411C13.2235 8.76669 13.0471 8.97535 12.8497 9.09222C12.7801 9.36987 12.7909 9.68571 12.7743 9.98901C12.6191 10.2245 12.4114 10.4314 12.3104 10.6942C11.9788 11.7649 11.8937 12.9559 11.9417 14.1719C11.8344 14.274 11.6951 14.3384 11.5947 14.4182L11.6055 15.506H11.6318C11.6797 15.2774 11.9525 15.1497 12.118 14.9946H12.1717C12.1448 15.2398 12.1129 15.4855 12.1077 15.7363L11.7984 15.9923C11.4879 16.2648 11.7499 16.6753 11.7237 17.0174C11.7453 17.1069 11.7602 17.2408 11.8247 17.2625C11.8623 17.1291 11.9793 17.0333 12.0547 16.9153C12.1876 16.884 12.3052 16.7762 12.4279 16.7614C12.3583 17.0282 12.2687 17.2893 12.1608 17.5453C12.1095 17.5789 12.0495 17.624 11.9982 17.6787C11.9434 17.7374 11.8994 17.803 11.888 17.876C12.1294 19.1399 12.5073 20.3884 12.9393 21.5783C12.6465 22.0748 12.4799 22.6592 12.2356 23.1717C12.2002 23.243 12.1688 23.3165 12.1397 23.3907C11.8943 24.0109 11.8195 24.7048 11.5142 25.3005C11.3904 25.2162 11.2568 25.1506 11.1193 25.0924C10.5417 24.9003 9.87395 25.0229 9.45276 25.4664C9.07836 25.3969 8.6937 25.4607 8.39978 25.6586C8.18918 25.8153 8.02653 26.0063 7.93293 26.2287C7.86901 26.3837 7.8399 26.5525 7.84961 26.7366C7.6099 26.9014 7.48149 27.1568 7.40159 27.4139C7.28973 27.9898 7.49233 28.5895 7.82335 29.0331H34.4457V29.0319Z" fill="white"/>
<path fill-rule="evenodd" clip-rule="evenodd" d="M30.9101 17.033C30.9044 17.1715 30.8034 17.3272 30.8941 17.444C31.0225 17.2998 31.2365 17.3049 31.4072 17.2416C31.882 17.1989 32.3363 17.3477 32.7792 17.4554C32.6679 17.2787 32.5926 17.0826 32.4699 16.9218C32.2233 16.858 31.8501 17.0284 31.8078 16.6658C31.6577 16.5375 31.422 16.6293 31.2685 16.6385C31.1184 16.7462 30.9957 16.8785 30.9101 17.033Z" fill="white"/>
<path fill-rule="evenodd" clip-rule="evenodd" d="M14.5886 12.4278C14.5857 12.4249 14.5812 12.4219 14.5782 12.4211C14.5782 12.4219 14.5783 12.4249 14.5797 12.4278H14.5886Z" fill="white"/>
<path fill-rule="evenodd" clip-rule="evenodd" d="M16.5279 17.1686L16.8487 16.8596C16.8761 16.8596 16.8966 16.8653 16.9126 16.887L16.8858 17.4788C17.0404 17.623 17.2328 17.6709 17.4354 17.6817C17.4519 17.5215 17.5746 17.4098 17.6442 17.2707C17.703 17.1589 17.6659 16.993 17.7829 16.9126L17.8195 16.9503C17.8577 17.1259 17.8474 17.3237 17.9382 17.4782C17.949 17.5631 17.9644 17.6703 17.9747 17.745C18.2098 17.7564 18.4227 17.6914 18.6048 17.6065C18.5939 17.4041 18.6641 17.2382 18.6949 17.0512C18.744 16.9868 18.6362 16.8699 18.7703 16.8756C18.845 17.0352 18.9786 17.2005 19.0533 17.371C19.3627 17.0563 19.4911 16.6458 19.5659 16.2194C19.4757 16.0957 19.3364 16.0957 19.2291 16.0164C18.3217 15.7228 17.1563 15.6635 16.2802 16.1173C16.2237 16.4811 16.2985 16.8813 16.5279 17.1686Z" fill="white"/>
<path fill-rule="evenodd" clip-rule="evenodd" d="M8.04002 27.1809C8.00749 27.5926 8.04002 27.978 8.0657 28.3833C8.15188 28.5167 8.30712 28.6718 8.46064 28.6826L8.4886 28.4101C8.55195 28.0304 8.34935 27.6279 8.56337 27.3081C8.7129 27.356 8.86129 27.4307 8.99084 27.5002C9.05362 27.1479 8.96402 26.7374 8.62729 26.5242L8.04002 27.1809Z" fill="white"/>
<path fill-rule="evenodd" clip-rule="evenodd" d="M9.35847 26.6057C9.15016 27.2294 8.99492 28.0001 9.24718 28.6563C9.39043 28.5611 9.54053 28.4699 9.6678 28.3365C9.64212 27.8342 9.57249 27.2983 9.87098 26.8822C10.1324 26.9625 10.3099 27.2134 10.4103 27.4591C10.5872 27.2339 10.646 26.9249 10.5764 26.6256C10.5872 26.3919 10.319 26.4454 10.1912 26.3485C10.2345 26.1513 10.2282 25.9227 10.4371 25.8109L9.79621 25.8748C9.63127 26.1085 9.44979 26.3388 9.35847 26.6057Z" fill="white"/>
<path fill-rule="evenodd" clip-rule="evenodd" d="M10.678 28.4477C10.7054 28.4967 10.678 28.5811 10.7316 28.5919C10.8121 28.1444 11.1751 27.8536 11.3731 27.4591C11.4684 27.3257 11.4627 27.1387 11.618 27.0372C11.8268 27.0372 11.9764 27.1872 12.1795 27.2031C12.2435 27.251 12.1464 27.2932 12.1419 27.3462C12.0996 27.71 11.9604 28.011 11.9872 28.3838H12.0237C12.3068 28.0862 12.4991 27.7624 12.7075 27.4209L12.744 27.1176C12.7919 26.7544 12.397 26.5201 12.1407 26.3708L12.3702 26.0772L12.05 25.9648C11.6756 26.0025 11.3389 26.157 11.0775 26.4512C10.7527 27.0481 10.6997 27.7225 10.678 28.4477Z" fill="white"/>
<path fill-rule="evenodd" clip-rule="evenodd" d="M12.1152 25.2813C12.2379 25.319 12.3498 25.2175 12.4719 25.2711C12.9639 25.4518 13.477 25.6388 13.8451 26.0499L14.2834 27.1644L14.5026 26.4769L14.3582 26.1029C14.2355 25.8361 13.8987 25.8577 13.6687 25.8469C13.5734 25.7403 13.6744 25.6171 13.707 25.5162C13.8183 25.1377 13.3537 25.1582 13.1671 25.0048C13.1785 24.7751 12.9 24.8549 12.7447 24.8332L12.6917 24.7694C12.6603 24.7215 12.5804 24.7215 12.537 24.7585C12.5256 24.7432 12.505 24.7323 12.5164 24.705L12.3977 24.7323C12.2328 24.8766 12.1204 25.063 12.1152 25.2813Z" fill="white"/>
<path fill-rule="evenodd" clip-rule="evenodd" d="M12.4244 24.055C12.4404 24.124 12.4832 24.1935 12.5363 24.2357C12.7771 24.1718 13.006 24.0071 13.2839 24.1074C13.6424 24.4221 14.0156 24.7528 14.4494 24.9244L14.6034 24.897C14.6999 24.9301 14.8061 24.9347 14.8705 25.0413C14.9299 25.1855 14.7809 25.271 14.7319 25.3879C14.9727 25.5641 14.8763 25.8793 15.0263 26.092L15.411 25.58C15.3208 25.3554 15.4162 24.9717 15.0634 24.9506C14.9465 24.8913 14.866 24.7739 14.8711 24.6405C14.6423 24.4324 14.3592 24.3423 14.1286 24.1291C13.942 23.9791 13.8301 23.7494 13.5893 23.6964C13.4243 23.6063 13.2434 23.5578 13.0511 23.5156C12.6915 23.4626 12.6601 23.8885 12.4244 24.055Z" fill="white"/>
<path fill-rule="evenodd" clip-rule="evenodd" d="M12.9368 23.0038L13.0013 23.1053C13.2678 23.0888 13.5092 22.9719 13.7712 22.977C13.9469 23.0842 14.1769 23.0791 14.3579 23.1691C14.5023 23.3664 14.6575 23.5905 14.8698 23.7244C15.3035 23.7877 15.5432 24.2524 15.6928 24.5933V24.4279C15.7567 24.1993 15.6871 23.9319 15.6015 23.7244C15.4947 23.6172 15.3401 23.5471 15.2282 23.4513C15.2065 23.3824 15.2225 23.3499 15.2442 23.286C15.0781 23.1098 14.8327 23.0135 14.6301 22.8755C14.347 22.4645 13.802 22.5768 13.3694 22.4645L12.9368 23.0038Z" fill="white"/>
<path fill-rule="evenodd" clip-rule="evenodd" d="M12.9283 19.0893C12.9757 19.2552 13.0339 19.4633 13.0653 19.6389C13.2148 19.3082 13.5099 19.16 13.7713 18.8875C13.6212 18.7854 13.4351 18.7375 13.2696 18.7056V18.6959C13.1521 18.8128 12.9706 18.9302 12.9283 19.0893Z" fill="white"/>
<path fill-rule="evenodd" clip-rule="evenodd" d="M13.8984 20.8446L14.1387 20.5995C14.3796 20.3543 14.577 20.071 14.6141 19.7563C14.4435 19.6548 14.2192 19.7238 14.0537 19.7825C13.9937 20.1302 13.9041 20.4717 13.8984 20.8446Z" fill="white"/>
<path fill-rule="evenodd" clip-rule="evenodd" d="M14.0745 21.5974C14.4437 21.619 14.801 21.6926 15.1006 21.4862L15.3991 20.525C15.3038 20.5193 15.2068 20.4771 15.1166 20.509C14.9197 20.9469 14.523 21.3784 14.0745 21.5974Z" fill="white"/>
<path fill-rule="evenodd" clip-rule="evenodd" d="M14.1828 18.193C14.423 18.5459 14.8237 18.9404 15.2352 19.0516C15.1872 18.604 14.8031 18.2939 14.6051 17.9102L14.5937 17.7819C14.439 17.632 14.2518 17.5316 14.0915 17.4507C14.0658 17.7078 14.1354 17.9535 14.1828 18.193Z" fill="white"/>
<path fill-rule="evenodd" clip-rule="evenodd" d="M15.4852 21.64C15.7683 21.689 16.0725 21.64 16.3339 21.559C16.714 21.4695 16.9223 21.0527 17.0501 20.7278H16.5747L16.0617 21.2289C15.8596 21.3361 15.6661 21.4969 15.4852 21.64Z" fill="white"/>
<path fill-rule="evenodd" clip-rule="evenodd" d="M15.4275 17.7079C15.508 18.1241 15.6832 18.5026 15.9246 18.8607L15.9885 18.0653L15.4275 17.7079Z" fill="white"/>
<path fill-rule="evenodd" clip-rule="evenodd" d="M17.1786 19.7831C17.2106 19.5162 17.0993 19.2072 17.0684 18.9353C16.9075 18.8281 16.6826 18.839 16.5177 18.7329C16.528 19.1542 16.8584 19.5111 17.1786 19.7831Z" fill="white"/>
<path fill-rule="evenodd" clip-rule="evenodd" d="M16.6923 22.4946C17.029 22.3874 17.3543 22.2699 17.6636 22.0989C17.8611 21.8173 18.1607 21.5596 18.203 21.2295C17.9575 21.2985 17.7435 21.2192 17.5147 21.3315C17.376 21.5818 17.2898 21.8652 17.0233 22.0459C16.981 22.2266 16.783 22.3503 16.6923 22.4946Z" fill="white"/>
<path fill-rule="evenodd" clip-rule="evenodd" d="M17.215 23.1509L17.6156 23.6731C17.8296 23.7427 18.0967 23.721 18.2834 23.5984L18.139 23.1235C17.8565 23.2313 17.5203 23.1982 17.215 23.1509Z" fill="white"/>
<path fill-rule="evenodd" clip-rule="evenodd" d="M17.8832 19.3722L18.0378 20.0769C18.4111 19.7724 18.487 19.3294 18.4779 18.8602C18.2638 19.1054 18.1389 19.2553 17.8832 19.3722Z" fill="white"/>
<path fill-rule="evenodd" clip-rule="evenodd" d="M18.9353 20.6162C18.941 20.7171 18.9678 20.8135 19.0266 20.8939C19.4427 21.0427 19.4855 21.5495 19.8707 21.7416C20.1213 21.8534 20.4089 21.7143 20.6286 21.6133C20.4631 21.4269 20.2754 21.2975 20.1161 21.1008C20.0037 21.0529 19.8913 20.9834 19.897 20.8448L18.9353 20.6162Z" fill="white"/>
<path fill-rule="evenodd" clip-rule="evenodd" d="M19.2662 23.1344C19.4482 23.3425 19.6936 23.4491 19.9499 23.5072C19.9077 23.4485 19.9773 23.5072 19.9876 23.4702L19.6662 22.7672C19.5064 22.7712 19.3409 22.8037 19.1914 22.7934C19.2017 22.9097 19.2291 23.0266 19.2662 23.1344Z" fill="white"/>
<path fill-rule="evenodd" clip-rule="evenodd" d="M19.833 19.8471C19.6829 19.5004 19.6201 19.0791 19.5779 18.6954C19.4175 18.887 19.252 19.0101 19.1025 19.2068C19.0328 19.6019 19.5973 19.6988 19.833 19.8471Z" fill="white"/>
<path fill-rule="evenodd" clip-rule="evenodd" d="M20.484 19.485C20.6763 19.7353 21.0981 19.6498 21.3343 19.5751C21.2213 19.383 20.8595 19.2712 20.7956 19.0631C20.7579 18.6954 20.6843 18.338 20.5656 18.0016C20.3784 18.4548 20.1529 18.9942 20.484 19.485Z" fill="white"/>
<path fill-rule="evenodd" clip-rule="evenodd" d="M20.8202 20.616C21.355 21.0059 21.8777 21.4586 22.6254 21.2933C22.679 21.2556 22.7698 21.2608 22.7806 21.1918C22.5609 21.0527 22.3269 20.9461 22.102 20.8189L21.8463 20.4449H21.7288C21.44 20.5413 21.1295 20.5778 20.8202 20.616Z" fill="white"/>
<path fill-rule="evenodd" clip-rule="evenodd" d="M20.8317 24.9433H20.8682C21.1895 24.6873 21.5685 24.6018 21.9474 24.4946C22.0496 24.5317 21.9851 24.644 22.0758 24.6873C22.3058 24.591 22.5838 24.6126 22.8183 24.5323C23.102 24.5437 23.332 24.5488 23.5608 24.6714C23.7418 24.9108 24.0842 24.8852 24.3199 25.0442L24.2822 24.6714C23.7857 24.0893 23.0107 24.0465 22.2961 24.0579L22.2796 23.9827C22.1089 23.9827 21.9172 24.0203 21.7568 24.0955C21.5274 24.1052 21.3082 24.2181 21.0885 24.2871C20.9863 24.4901 20.9064 24.7346 20.8317 24.9433Z" fill="white"/>
<path fill-rule="evenodd" clip-rule="evenodd" d="M21.2603 18.3859C21.4686 18.6584 21.7779 18.8659 22.1306 18.7969C21.9497 18.6208 21.7408 18.4332 21.73 18.1829C21.7836 17.708 21.2603 17.671 21.004 17.4247C21.0885 17.7457 21.0788 18.1025 21.2603 18.3859Z" fill="white"/>
<path fill-rule="evenodd" clip-rule="evenodd" d="M21.2061 25.8879H21.2683C21.5519 25.7106 21.9634 25.8446 22.2413 25.6576C22.396 25.5772 22.4063 25.791 22.5141 25.8497C22.7755 26.0099 22.8075 26.4894 23.1762 26.3782C23.6191 26.6074 23.5072 27.1473 23.5232 27.5418L23.9347 27.2858C23.897 27.0777 24.014 26.8257 23.8805 26.645C23.7794 26.4164 23.5021 26.3947 23.3685 26.2077C23.5289 25.9352 23.1659 25.8081 23.0906 25.6103L23.1123 25.5829L23.6773 25.6576C23.8707 25.775 23.9392 25.9888 23.9986 26.1861C24.442 26.2608 24.5488 26.7619 24.704 27.0823C24.7947 26.8634 24.8318 26.6285 24.9232 26.4158C24.9283 26.2391 24.6932 26.2391 24.5762 26.1598C24.5431 25.8879 24.4209 25.6308 24.1812 25.466C23.6893 25.3434 23.2572 25.0709 22.7179 25.0709L22.2687 25.21C22.0228 25.2688 21.7614 25.1941 21.5747 25.364C21.2957 25.3851 21.2745 25.6901 21.2061 25.8879Z" fill="white"/>
<path fill-rule="evenodd" clip-rule="evenodd" d="M21.4879 23.689L21.5901 23.7369C21.8081 23.6348 22.0278 23.5179 22.2578 23.4324C22.6151 23.3309 22.893 23.7369 23.1927 23.4809C23.3045 23.4005 23.3998 23.5179 23.486 23.5824C23.6144 23.8172 23.9135 23.8013 24.1378 23.8651C24.0259 23.5613 23.8872 23.1445 23.4968 23.0955C23.3422 23.0265 23.1601 23.0333 23.0106 22.9415C22.5997 22.4883 22.3326 23.3144 21.8834 23.112C21.7236 23.2893 21.5262 23.4541 21.4879 23.689Z" fill="white"/>
<path fill-rule="evenodd" clip-rule="evenodd" d="M21.5901 26.2875C21.7607 26.4306 21.9365 26.6769 22.203 26.6444C22.5358 26.7995 22.3965 27.2362 22.578 27.4659L22.7698 27.2949L22.7538 27.2846L22.7812 27.2578L22.7926 27.2738C22.8457 27.113 22.7703 26.8302 22.6796 26.6438C22.5569 26.5594 22.4125 26.6495 22.2955 26.5691C22.2789 26.3987 22.1722 26.3131 22.0495 26.2065C21.9639 26.1427 21.8515 26.2282 21.7556 26.2225L21.5901 26.2875Z" fill="white"/>
<path fill-rule="evenodd" clip-rule="evenodd" d="M22.2579 19.7832C22.4343 20.0773 22.7756 20.2586 23.0484 20.461C23.2721 20.5631 23.566 20.5887 23.8069 20.5357C23.5774 20.3493 23.3686 20.1361 23.1768 19.9109C23.102 19.8043 23.0855 19.6714 22.9845 19.5751C22.7322 19.6235 22.4503 19.6184 22.2579 19.7832Z" fill="white"/>
<path fill-rule="evenodd" clip-rule="evenodd" d="M22.5524 17.8739C22.7989 18.1772 23.1779 18.0552 23.5249 18.0654V18.029L22.9907 17.5797C22.8406 17.6282 22.6814 17.761 22.5524 17.8739Z" fill="white"/>
<path fill-rule="evenodd" clip-rule="evenodd" d="M12.72 12.8422L13.0293 13.8028C13.0236 13.2584 13.2747 12.8051 13.2216 12.2504L13.4516 11.9083L12.9648 12.0577C12.837 12.3028 12.7308 12.5491 12.72 12.8422Z" fill="white"/>
<path fill-rule="evenodd" clip-rule="evenodd" d="M12.9283 11.1774L13.3495 10.9316V10.3074C13.1732 10.4146 13.0762 10.5959 12.9386 10.7401L12.9283 11.1774Z" fill="white"/>
<path fill-rule="evenodd" clip-rule="evenodd" d="M21.5914 12.1487C21.4892 12.2821 21.3351 12.3141 21.2073 12.3409C21.431 11.9298 21.5383 11.358 21.3614 10.8939C21.4795 10.8517 21.608 10.8312 21.7198 10.7662L21.7084 10.7559L22.0029 10.4988C22.3927 10.232 22.2432 9.72575 22.3876 9.34719C22.1952 9.04788 22.137 8.68529 21.8585 8.43387L21.875 8.42418C21.6553 8.14653 21.2604 8.17789 20.9602 8.03935C20.5652 7.90595 20.2611 8.17789 19.978 8.36033C19.8553 8.38085 19.93 8.54105 19.7965 8.53592C19.7217 8.73375 19.6304 8.94697 19.5773 9.16533C19.0483 9.09007 18.4776 9.14993 18.0552 9.4481C17.8304 9.28334 17.5581 9.25084 17.2962 9.17616C17.1044 9.1391 16.8852 9.20865 16.7471 9.1009C16.5445 8.87229 16.5006 8.45553 16.153 8.39738C16.0309 8.35462 16.0046 8.22179 16.0046 8.10377C15.7746 8.06672 15.5709 7.96068 15.3466 7.91165C15.0059 7.75658 14.7336 8.00286 14.4768 8.16763C14.3649 8.21609 14.2365 8.23148 14.1304 8.29647C13.938 8.59464 13.756 8.89908 13.6333 9.22918C13.6709 9.50112 13.7879 9.74171 13.9278 9.9709C14.0505 10.3181 14.4346 10.59 14.7605 10.7291C14.6058 11.2571 14.6058 11.887 14.7605 12.4207C14.7605 12.4207 14.7513 12.4269 14.7513 12.4258C14.7513 12.4269 14.7342 12.4406 14.7342 12.4406C14.6828 12.4406 14.6286 12.4509 14.5864 12.4258H14.5795C14.6543 12.9355 14.8946 13.3813 15.2827 13.7639C15.4219 13.8129 15.39 13.9776 15.4493 14.0848C15.4858 14.1322 15.491 14.2336 15.475 14.2764C14.6429 14.2496 13.8998 14.4577 13.2321 14.8362C13.0614 14.9218 13.1368 15.1572 13.1208 15.322C13.5905 15.013 14.0978 14.7832 14.6583 14.6823C14.8986 14.6663 15.1708 14.6076 15.4008 14.6715L15.4276 15.1304C14.7924 15.4611 14.0978 15.6532 13.5528 16.1977C13.5637 16.3624 13.5323 16.5551 13.5802 16.6942L14.0665 16.2986C14.5356 15.9423 15.027 15.6372 15.5669 15.44C15.7113 15.611 15.8614 15.7923 16.0537 15.8984C16.379 15.6903 16.7317 15.5363 17.1055 15.44C17.3036 15.3225 17.6175 15.4292 17.7459 15.1948L17.8372 14.7091C17.8207 14.6983 17.811 14.6777 17.7836 14.6834C17.533 14.5392 17.3675 14.2889 17.3886 13.9948C17.3036 14.0369 17.2077 14.0643 17.1055 14.0694C17.0199 14.0478 16.9406 14.0272 16.9029 13.9412C16.8972 13.834 16.8436 13.6743 16.9503 13.5945C17.2973 13.3807 17.7465 13.3699 18.1848 13.403C18.5101 13.4452 18.9809 13.4286 19.0922 13.814C19.0774 13.9258 19.0871 14.0483 18.9752 14.123C18.8577 14.1869 18.7247 14.1173 18.6168 14.07C18.5323 14.3311 18.3879 14.6253 18.0935 14.7097L18.1317 15.0198C18.1682 15.1589 18.1791 15.3875 18.3988 15.3397C18.9062 15.4622 19.3542 15.7239 19.7976 16.0067C19.9472 15.8567 20.0647 15.6857 20.1709 15.5318C20.9613 15.798 21.6456 16.3904 22.2968 16.94L22.3242 16.4918C21.7044 15.9423 21.015 15.5529 20.2993 15.2484C20.3267 15.1042 20.3586 14.9651 20.3632 14.8112C21.213 14.8585 22.0183 15.1202 22.7191 15.5318L22.7077 15.1475C21.9709 14.753 21.1645 14.4913 20.2827 14.4805C20.2508 14.4315 20.2405 14.363 20.2462 14.3146C20.6737 14.245 20.9773 13.8026 21.08 13.4178C21.298 13.1675 21.6142 12.895 21.5395 12.5222C21.5492 12.4919 21.56 12.4589 21.5709 12.4269C21.5994 12.3329 21.6234 12.2354 21.5914 12.1487Z" fill="white"/>
<path fill-rule="evenodd" clip-rule="evenodd" d="M22.3344 13.5199L22.7721 13.3808L22.8195 13.1356C22.9433 12.7782 22.6819 12.5114 22.5524 12.228L22.3344 13.5199Z" fill="white"/>
<path fill-rule="evenodd" clip-rule="evenodd" d="M23.4388 15.2114C23.6471 15.44 23.8503 15.8088 24.2195 15.696C24.1921 15.542 24.1065 15.4143 24.0534 15.2752C23.9564 15.1623 23.925 14.8425 23.7327 14.9554C23.5883 14.859 23.5518 14.6983 23.4599 14.5706C23.4182 14.7678 23.4445 15.0135 23.4388 15.2114Z" fill="white"/>
<path fill-rule="evenodd" clip-rule="evenodd" d="M23.5142 16.7734C23.5946 16.8863 23.6163 17.0305 23.6951 17.1315C23.8395 17.2267 24.0535 17.2118 24.2293 17.1953C24.3896 17.1582 24.4912 17.3338 24.6408 17.2318C24.4547 17.1149 24.3428 16.9011 24.1654 16.7472C23.9565 16.5819 23.7333 16.7261 23.5142 16.7734Z" fill="white"/>
<path fill-rule="evenodd" clip-rule="evenodd" d="M23.797 19.2551C24.1652 19.4741 24.6343 19.6879 25.1257 19.6132C25.1788 19.5858 25.2701 19.5915 25.2803 19.5271C24.9761 19.4199 24.6565 19.116 24.3369 19.0522C24.16 18.7802 23.9306 19.1217 23.7063 19.1001C23.7114 19.1645 23.7754 19.213 23.797 19.2551Z" fill="white"/>
<path fill-rule="evenodd" clip-rule="evenodd" d="M24.9072 23.9662L24.9877 24.1378C25.0682 24.6931 25.4197 25.2045 25.2274 25.8128C25.3878 25.9245 25.4363 26.111 25.5373 26.2603H25.5641C25.6868 25.7968 25.6018 25.3162 25.5373 24.8516C25.5852 24.4303 25.1578 24.1845 24.9072 23.9662Z" fill="white"/>
<path fill-rule="evenodd" clip-rule="evenodd" d="M24.9991 18.5028C25.2771 18.7166 25.7205 18.7377 26.0401 18.6311C25.8375 18.5193 25.6138 18.3968 25.4472 18.2468L24.9991 18.5028Z" fill="white"/>
<path fill-rule="evenodd" clip-rule="evenodd" d="M26.317 20.1412C26.2896 20.3659 26.4397 20.5523 26.6 20.664C26.6588 20.5306 26.7547 20.4189 26.765 20.2695C26.7176 20.0398 26.5892 19.8322 26.3809 19.6777C26.3432 19.8265 26.301 19.9696 26.317 20.1412Z" fill="white"/>
<path fill-rule="evenodd" clip-rule="evenodd" d="M26.3334 22.5733C26.2958 22.8236 26.5731 22.8567 26.6907 22.9952C26.7872 23.1121 26.6268 23.1925 26.6268 23.3042C26.8294 23.5653 26.947 23.8647 26.947 24.2118C27.0274 23.8869 27.1502 23.5762 27.1941 23.2404C27.1724 23.0061 26.7992 23.054 26.8574 22.7928C26.9635 22.526 26.8357 22.2643 26.7661 22.0249C26.7444 21.9867 26.6964 21.912 26.6548 21.9337C26.5566 22.1526 26.3169 22.3065 26.3334 22.5733Z" fill="white"/>
<path fill-rule="evenodd" clip-rule="evenodd" d="M27.0652 21.3038L27.3426 21.8425C27.4658 21.8277 27.5446 21.7091 27.641 21.6247C27.7164 21.4001 27.5183 21.2559 27.4601 21.0746C27.411 20.9463 27.4601 20.7758 27.3688 20.6635C27.2998 20.6213 27.2187 20.5518 27.1388 20.5723L27.0652 21.3038Z" fill="white"/>
<path fill-rule="evenodd" clip-rule="evenodd" d="M27.4225 19.8851C27.6416 20.018 27.8922 20.2101 28.0092 20.4444C28.197 20.9889 28.496 21.4797 28.7146 22.0077C28.7951 22.376 28.859 22.7043 28.9606 23.0675C28.9982 23.1621 28.9766 23.3491 29.1267 23.3337C29.1689 22.9284 29.2494 22.539 29.2545 22.1171C29.1215 21.9415 28.944 21.8668 28.7791 21.7591V21.7226C28.8008 21.6314 28.8755 21.5248 28.988 21.5419C29.0353 21.4871 29.1797 21.4347 29.1164 21.3389C28.8384 21.0618 28.8544 20.5835 28.4104 20.4974C28.2563 20.4336 28.2181 20.2739 28.2032 20.1246C27.9943 19.9496 27.6839 19.8891 27.4225 19.8851Z" fill="white"/>
<path fill-rule="evenodd" clip-rule="evenodd" d="M27.678 22.7768C27.9508 23.0265 27.8555 23.3897 27.8332 23.7261C27.791 23.929 28.0473 23.8116 28.1277 23.9182C28.2927 24.1639 28.1968 24.5214 28.1374 24.7882C28.2824 24.5687 28.4479 24.3766 28.5598 24.1371C28.5541 24.0459 28.6711 24.0037 28.6671 23.892C28.7144 23.7369 28.5335 23.8065 28.4587 23.7894C28.3948 23.7734 28.3252 23.7306 28.3457 23.6457C28.485 23.3783 28.3572 23.0585 28.3035 22.7922C28.2396 22.5727 28.3309 22.2803 28.2287 22.0881C28.0581 22.323 27.5502 22.3766 27.678 22.7768Z" fill="white"/>
<path fill-rule="evenodd" clip-rule="evenodd" d="M28.175 18.988C28.651 19.4686 28.998 19.9509 29.5105 20.4155C29.5219 20.2086 29.4946 20.0153 29.4837 19.8123C29.4084 19.6692 29.2697 19.5621 29.1521 19.4555C28.7737 19.4178 28.5757 18.9081 28.175 18.988Z" fill="white"/>
<path fill-rule="evenodd" clip-rule="evenodd" d="M29.4198 21.5313C29.4306 21.5792 29.4523 21.6214 29.4729 21.6698C29.6812 22.0119 29.8787 22.3631 30.0236 22.7314C29.9808 22.3374 30.2485 21.8454 29.8952 21.5421C29.8473 21.4138 29.6869 21.4566 29.5853 21.4669L29.4198 21.5313Z" fill="white"/>
<path fill-rule="evenodd" clip-rule="evenodd" d="M30.7018 25.429C30.8519 25.4968 31.0436 25.3742 31.188 25.2899C31.3216 25.2574 31.434 25.332 31.5356 25.4016C31.5778 25.4865 31.5356 25.5664 31.5504 25.6467C31.8718 25.7374 32.1862 25.8548 32.4699 26.0413L32.5595 25.9512C32.5812 25.7214 32.4002 25.5572 32.229 25.429C32.1172 25.3634 31.9505 25.4016 31.8718 25.2995C31.9248 25.2152 31.9248 25.0869 31.9191 24.9905C31.7422 24.9905 31.6303 24.937 31.4859 24.8514C31.3963 24.8252 31.3153 24.7505 31.2405 24.8514C30.974 25.0333 30.958 25.2995 30.7018 25.429Z" fill="white"/>
<path fill-rule="evenodd" clip-rule="evenodd" d="M31.076 18.7142C31.209 18.6777 31.3488 18.6389 31.4607 18.5437C31.8174 18.2182 32.3362 18.4365 32.7522 18.4314C32.6729 18.2872 32.5599 18.1441 32.4589 18.0203C32.3094 17.9616 32.1701 17.8921 31.9995 17.8921C31.6359 17.6794 31.3911 18.0363 31.1126 18.2119C31.0384 18.3573 31.0013 18.5699 31.076 18.7142Z" fill="white"/>
<path fill-rule="evenodd" clip-rule="evenodd" d="M31.0865 19.8123C31.0865 19.7975 31.0865 19.7804 31.1024 19.7758C31.1504 19.8186 31.0967 19.9195 31.1772 19.9406C31.3159 19.8722 31.4443 19.7758 31.5721 19.6857C31.9306 19.6857 32.144 19.3391 32.4956 19.3391C33.0828 19.4452 33.6661 19.5626 34.1781 19.8505C34.1415 19.5039 33.8419 19.1892 33.5383 19.0335C33.3665 18.9748 33.2329 19.0666 33.1102 19.1618C32.7518 19.387 32.9396 18.8368 32.6885 18.8254C32.3626 18.9281 32.0259 19.0392 31.6635 19.0079C31.4494 19.0871 31.2993 19.2838 31.0596 19.2633C31.0488 19.4395 31.022 19.6532 31.0865 19.8123Z" fill="white"/>
<path fill-rule="evenodd" clip-rule="evenodd" d="M31.3324 21.0032C31.4437 21.1201 31.6303 21.0984 31.7918 21.1201L32.2558 20.9394C32.2615 20.8538 32.1171 20.8316 32.1485 20.737C32.2769 20.5927 32.4539 20.6936 32.6131 20.6343C32.8385 20.603 33.0679 20.3789 33.2911 20.5443C33.286 20.5705 33.3025 20.6087 33.2814 20.6343C33.2106 20.8002 33.3293 20.9012 33.4572 20.965C33.7191 21.014 33.9645 21.2541 34.2265 21.1463C34.2003 20.928 34.1415 20.7256 34.0872 20.5169C33.8687 20.4793 33.714 20.298 33.5108 20.2227C33.4195 20.3082 33.3025 20.3727 33.1901 20.3618C32.7786 20.266 32.2872 20.0101 31.8711 20.2717C31.721 20.4525 31.4539 20.3995 31.2513 20.4787C31.2628 20.6617 31.2833 20.8373 31.3324 21.0032Z" fill="white"/>
<path fill-rule="evenodd" clip-rule="evenodd" d="M31.5081 24.1742C31.4755 24.2648 31.3854 24.4147 31.5503 24.4569C31.8927 24.4683 32.3305 24.2922 32.5981 24.5584C32.6883 24.6285 32.6455 24.7716 32.6404 24.8629L33.0884 25.2368C33.1318 25.0122 33.2111 24.8093 33.2168 24.5687C33.1803 24.3982 33.0941 24.2323 32.9451 24.1206C32.6506 24.1206 32.4794 23.7768 32.1644 23.8207C31.9995 23.7825 31.8556 23.929 31.689 23.929C31.6142 24.0037 31.572 24.0949 31.5081 24.1742Z" fill="white"/>
<path fill-rule="evenodd" clip-rule="evenodd" d="M31.6365 21.6594C31.7056 21.8025 31.7866 22.0379 31.9196 22.0539C32.2346 21.9154 32.6935 21.8293 33.0468 21.9792C33.1643 22.0003 33.1643 22.1337 33.1381 22.2198C33.319 22.3264 33.5387 22.4108 33.7305 22.5288L33.6774 22.209C33.666 21.8618 33.2283 21.8293 33.2014 21.4872C32.8436 21.3703 32.443 21.3333 32.064 21.4239C31.9402 21.5362 31.7649 21.5203 31.6148 21.5528C31.6051 21.595 31.6308 21.6212 31.6365 21.6594Z" fill="white"/>
<path fill-rule="evenodd" clip-rule="evenodd" d="M31.7279 23.388C31.9362 23.3292 32.0686 23.0995 32.2935 23.079C32.6353 23.0847 32.9401 23.2221 33.153 23.5162C33.2825 23.6012 33.2551 23.8207 33.4201 23.8207C33.3721 23.5584 33.4577 23.3184 33.4475 23.0516C33.222 22.6787 32.6684 22.9661 32.4596 22.5288L32.0646 22.555C31.7815 22.6246 31.8569 22.9558 31.8181 23.1799C31.7861 23.2494 31.7222 23.3025 31.7279 23.388Z" fill="white"/>
<path fill-rule="evenodd" clip-rule="evenodd" d="M33.6864 25.7213C33.8525 26.052 34.2166 26.3034 34.2531 26.6826C34.3387 26.5805 34.3975 26.4636 34.4563 26.3519C34.4506 26.2447 34.3273 26.2447 34.2788 26.1598C34.2309 26.0212 34.3062 25.8986 34.3273 25.7749C34.2583 25.5771 34.0922 25.3907 33.9056 25.2738L33.6864 25.7213Z" fill="white"/>
<path fill-rule="evenodd" clip-rule="evenodd" d="M34.3451 24.8788L34.7292 25.4016C34.8941 25.1399 34.8941 24.7562 34.8302 24.4404C34.7937 24.3817 34.7235 24.2859 34.6276 24.3287C34.4826 24.4786 34.4621 24.7072 34.3451 24.8788Z" fill="white"/>
<path fill-rule="evenodd" clip-rule="evenodd" d="M32.7792 10.2742C32.9184 10.3438 33.052 10.4077 33.2169 10.4179C33.3299 10.3598 33.4743 10.317 33.613 10.3541C33.8105 10.4823 34.0507 10.3273 34.2796 10.3381C34.0776 10.1465 33.847 10.0291 33.613 9.91736C33.3134 9.98064 33.0737 10.1933 32.7792 10.2742Z" fill="white"/>
<path fill-rule="evenodd" clip-rule="evenodd" d="M34.8687 10.7759C35.1506 10.8021 35.3538 11.0524 35.5461 11.2622C35.7869 11.2987 35.9684 11.4691 36.1122 11.6459L36.0215 11.3625C35.9576 11.0792 35.7812 10.8602 35.6003 10.6373C35.3441 10.6533 35.0918 10.6744 34.8687 10.7759Z" fill="white"/>
<path fill-rule="evenodd" clip-rule="evenodd" d="M14.9356 8.43457L15.0902 8.45053C15.5074 8.65862 16.1803 8.76524 16.2174 9.36785C15.7968 9.53375 15.3904 9.75837 15.0543 10.0987C14.798 9.83705 14.2793 9.98129 14.1942 9.52292C14.2747 9.09077 14.4288 8.54745 14.9356 8.43457Z" fill="#FF6600"/>
<path fill-rule="evenodd" clip-rule="evenodd" d="M15.3375 11.1402C15.8226 11.098 16.2929 11.1659 16.7957 11.1243C16.9184 11.1773 17.0462 11.2845 17.105 11.407C17.089 11.9829 16.9127 12.533 16.8858 13.1248C16.6672 13.2166 16.4532 13.3973 16.4001 13.6373C16.2021 13.6955 16.0258 13.8141 15.8334 13.9036C15.7478 13.7228 15.7638 13.4503 15.9145 13.3015C16.1222 13.0074 16.6621 13.0769 16.6182 12.6128C16.7574 12.3882 16.6239 12.1003 16.6296 11.8654C16.5759 11.6898 16.5229 11.9241 16.4372 11.9184C16.2666 11.9549 16.0902 11.9663 15.9413 11.8819C15.8283 11.7634 15.6896 11.6682 15.6576 11.508C15.5081 11.4333 15.3323 11.3158 15.2576 11.1608L15.3375 11.1402Z" fill="#FF6600"/>
<path fill-rule="evenodd" clip-rule="evenodd" d="M15.9246 14.6192C16.1529 14.6505 16.3943 14.5496 16.5918 14.6614C16.549 14.7361 16.4371 14.768 16.3464 14.7896L15.9885 14.9555C15.855 14.9225 15.9297 14.7093 15.9246 14.6192Z" fill="#FF6600"/>
<path fill-rule="evenodd" clip-rule="evenodd" d="M16.8595 10.1632C17.0884 10.0886 17.3349 9.93462 17.5803 10.0093C17.404 10.1855 17.2653 10.4147 17.1323 10.6273L16.4006 10.6119C16.4794 10.4204 16.682 10.2602 16.8595 10.1632Z" fill="#FF6600"/>
<path fill-rule="evenodd" clip-rule="evenodd" d="M19.0012 9.98745C19.3049 9.93443 19.2889 10.3289 19.5668 10.3455C19.6153 10.4093 19.685 10.4675 19.6576 10.5633C19.4972 10.6271 19.2626 10.5958 19.08 10.638C18.8397 10.5045 18.9955 10.0884 18.6154 10.1152C18.5949 10.0838 18.5515 10.0194 18.6052 9.99771C18.7233 9.9561 18.8768 9.97149 19.0012 9.98745Z" fill="#FF6600"/>
<path fill-rule="evenodd" clip-rule="evenodd" d="M18.8091 11.4178C18.9421 11.2303 19.1458 11.2154 19.3376 11.1772L20.721 11.204C20.7798 11.2571 20.6679 11.305 20.6679 11.3694C20.5823 11.4492 20.459 11.4709 20.3843 11.5461C20.2033 11.5518 20.2182 11.7639 20.0903 11.8551C19.8923 12.0524 19.6047 11.9623 19.3747 11.9298C19.2942 11.8711 19.204 11.7907 19.1663 11.7L19.1024 11.7639C19.1829 12.0632 19.1612 12.3944 19.2194 12.6977L19.5504 12.9172C19.5562 13.4081 20.1332 13.2747 20.3843 13.5472C20.3255 13.7228 20.2079 13.8722 20.0806 14.0221C19.8775 13.8243 19.6475 13.6954 19.4021 13.6111C19.3809 13.3226 19.0659 13.1527 18.889 13.0079C18.841 12.4851 18.8302 11.9515 18.7457 11.4446L18.8091 11.4178Z" fill="#FF6600"/>
<path fill-rule="evenodd" clip-rule="evenodd" d="M19.3108 14.7092H19.9523L19.8718 15.0455L19.2303 14.773C19.2155 14.72 19.2731 14.704 19.3108 14.7092Z" fill="#FF6600"/>
<path fill-rule="evenodd" clip-rule="evenodd" d="M20.4641 8.66495L20.9395 8.51501C21.2123 8.64272 21.4686 8.80349 21.7191 8.98422C21.9172 9.34795 21.884 9.83768 21.7939 10.243C21.6495 10.4038 21.3344 10.243 21.2175 10.499H21.1958C21.0188 9.99788 20.5177 9.55034 20.0526 9.32001C20.1274 9.0646 20.2078 8.81432 20.4641 8.66495Z" fill="#FF6600"/>
<path fill-rule="evenodd" clip-rule="evenodd" d="M31.6068 28.9925H34.4565C34.8782 28.9286 35.3268 28.9389 35.663 28.6287C37.0898 28.8482 38.5365 28.4959 39.658 27.712C40.2498 27.2342 40.7817 26.6824 41.2115 26.0798C41.5905 25.5484 41.8901 25.0518 42.0836 24.4572C42.2274 24.0895 42.3415 23.7081 42.4277 23.3153C42.8346 21.4664 42.6212 19.3986 42.0196 17.6381C41.9078 17.3114 41.7828 16.9967 41.6452 16.6945C40.893 15.1416 39.8703 13.4666 38.2928 12.4837C37.4042 11.9301 36.5875 11.0738 36.0859 10.189C35.8131 9.9427 35.5511 9.61774 35.199 9.55902C35.2954 9.71922 35.4016 9.87372 35.429 10.0601L35.4073 10.0869C35.034 10.0978 34.7395 9.90051 34.4833 9.65936L34.7669 9.40394C34.6596 9.35092 34.5369 9.32869 34.4194 9.30303C33.3401 9.18046 32.4538 9.67589 31.4984 9.91648L31.4824 9.9695C32.0691 10.2306 32.1918 10.876 32.5343 11.3144C32.6199 11.2123 32.7643 11.287 32.8813 11.2762C33.0519 11.287 33.2123 11.4096 33.3772 11.3668C33.3829 11.2232 33.3036 11.1114 33.2762 10.9837C33.3772 10.9347 33.5011 10.978 33.6129 10.9837C33.9223 11.1645 34.4194 10.9507 34.6117 11.3668C34.259 11.3891 33.928 11.4626 33.5969 11.543C33.6181 11.6764 33.7516 11.7836 33.7413 11.917C33.4577 11.7984 33.1592 11.7254 32.8436 11.6872L32.8288 11.7346C33.2294 12.2043 33.7784 12.482 34.3395 12.6479C35.1459 12.8343 35.8559 12.4506 36.6349 12.584C38.5485 13.4592 40.1819 15.4608 40.893 17.3604C40.9278 17.4517 40.9609 17.544 40.9929 17.6369C41.5882 19.3718 41.7006 21.5057 41.1048 23.3141C40.7875 24.0678 40.4382 24.777 39.8783 25.3899C39.6666 25.6493 39.432 25.8814 39.1774 26.0786C38.3756 26.7023 37.3871 26.9765 36.3689 26.6966C36.3056 26.655 36.176 26.6436 36.1971 26.5319C36.2331 26.3836 36.2662 26.232 36.2953 26.0786C36.4648 25.2103 36.5419 24.2981 36.4973 23.3871C36.4951 23.3478 36.4945 23.3084 36.4928 23.2697C36.4369 21.9459 36.1726 20.7549 35.6852 19.6101C35.3736 18.9528 35.0021 18.2361 34.5346 17.5925C33.977 16.8251 33.2842 16.1621 32.395 15.8314C31.85 15.6872 31.1765 15.6609 30.7662 16.1147C30.4717 16.3707 30.3496 16.7174 30.3918 17.0959C29.9324 17.3878 29.4159 17.5452 28.8537 17.5925C28.7162 17.6045 28.5746 17.654 28.4325 17.6535C28.2961 17.6598 28.1631 17.6535 28.0347 17.6369C27.3567 17.5537 26.673 17.1905 26.153 16.7727C26.1422 16.4967 26.1257 16.2339 26.1154 15.9414C25.8169 15.7864 25.5715 15.4922 25.5498 15.1461L25.5772 15.1193C25.7478 15.1723 25.8974 15.2579 26.0515 15.3491C25.9818 14.9329 25.9025 14.5218 25.6942 14.1593C25.5019 14.0789 25.3084 14.0156 25.1275 13.9187C24.9192 13.7801 24.7856 13.5293 24.7548 13.2995C24.9408 13.482 25.2667 13.4175 25.4111 13.6097C25.1606 12.868 25.1549 12.0196 24.7434 11.3418C24.5351 10.8401 23.99 10.6109 23.6162 10.242C23.4718 10.0664 23.4136 9.82127 23.1516 9.7939C22.9382 9.74088 22.9216 9.50029 22.8845 9.34636C23.0181 9.36176 23.1299 9.45297 23.2429 9.47407C22.9325 8.65197 22.6602 7.74035 21.8218 7.21756L21.6775 7.30764C21.3522 7.35667 21.0046 7.37719 20.6787 7.38803C20.8231 7.17423 21.0793 7.08416 21.2825 6.98724C21.0468 6.81164 20.8539 6.76888 20.5594 6.72042C20.3888 6.89203 20.0806 6.9764 19.8614 7.02429L19.8352 7.00377C19.8295 6.81221 19.785 6.57618 20.0737 6.52886C19.7964 6.39546 19.3369 6.44848 19.0533 6.52886C18.9728 6.73696 18.7451 6.92338 18.7599 7.16853C18.5956 7.34014 18.478 7.56875 18.3062 7.6919C18.3016 7.28084 18.4757 6.90172 18.5511 6.55566C18.3108 6.64574 18.0665 6.77344 17.832 6.88633C17.4524 6.6674 17.0529 6.44848 16.6477 6.28372C16.61 6.26718 16.5296 6.25122 16.5455 6.3202C16.8925 6.57105 16.7584 7.04026 16.7955 7.39829L16.5764 7.21756C16.4696 6.94505 16.1609 6.74779 16.1084 6.44848C15.7448 6.51803 15.5125 6.61438 15.1758 6.75862L15.129 6.78485C15.3796 6.78485 15.593 6.9821 15.7163 7.17936C15.3373 7.20103 15.0006 7.05109 14.6274 7.0146C14.5897 6.97697 14.5583 6.93422 14.4984 6.93992C14.3112 7.00947 14.1519 7.14288 13.9859 7.27115C13.6178 7.63317 13.2434 8.03453 13.0676 8.514C13.1909 8.53566 13.3455 8.53053 13.4363 8.60522C13.2342 8.72779 13.0573 8.93588 12.8593 9.05333C12.7902 9.33097 12.8005 9.64567 12.7845 9.95011C12.6298 10.1844 12.4215 10.3925 12.3199 10.6536C11.9889 11.726 11.9033 12.9158 11.9518 14.1325C11.8445 14.2334 11.7053 14.2989 11.6048 14.3782L11.6157 15.4665H11.6419C11.691 15.2368 11.9632 15.1091 12.1282 14.9546H12.1818C12.1556 15.1997 12.123 15.4449 12.1179 15.6963L11.808 15.9523C11.4992 16.2242 11.7606 16.6341 11.7332 16.9756C11.7555 17.0668 11.7703 17.2002 11.836 17.2219C11.8725 17.0885 11.9901 16.9921 12.0643 16.8753C12.1978 16.8422 12.3148 16.7362 12.4375 16.7202C12.3696 16.9864 12.2783 17.2481 12.1704 17.5041C12.1196 17.5377 12.0591 17.5839 12.0078 17.6375C11.9535 17.6962 11.9102 17.7635 11.8999 17.8359C12.1396 19.1004 12.5174 20.3484 12.9506 21.5382C12.6561 22.0337 12.49 22.6186 12.2452 23.1311C12.2104 23.203 12.179 23.2754 12.1493 23.35C11.9039 23.9709 11.8291 24.6636 11.5238 25.2605C11.4011 25.1744 11.2681 25.1106 11.1294 25.0518C10.5513 24.8603 9.8841 24.9829 9.46291 25.4253C9.08852 25.3557 8.70385 25.4196 8.40936 25.6168C8.19934 25.7753 8.03611 25.9657 7.94308 26.1886C7.8803 26.3431 7.85006 26.5113 7.86033 26.6955C7.61949 26.8608 7.49107 27.1168 7.41174 27.3728C7.29931 27.9497 7.50191 28.5489 7.83293 28.9919H31.6068V28.9925Z" fill="white"/>
<path fill-rule="evenodd" clip-rule="evenodd" d="M42.0196 17.6389C41.9078 17.3123 41.7828 16.9976 41.6452 16.6954C40.893 15.1424 39.8703 13.4674 38.2928 12.4845C37.4042 11.931 36.5875 11.0747 36.0859 10.1898C35.8131 9.94356 35.5511 9.61859 35.199 9.55987C35.2954 9.72007 35.4016 9.87457 35.429 10.061L35.4073 10.0878C35.034 10.0986 34.7395 9.90137 34.4833 9.66021L34.7669 9.4048C34.6596 9.35178 34.5369 9.32954 34.4194 9.30389C33.3401 9.18131 32.4538 9.67674 31.4984 9.91733L31.4824 9.97035C32.0691 10.2315 32.1918 10.8768 32.5343 11.3152C32.6199 11.2132 32.7643 11.2879 32.8813 11.2771C33.0519 11.2879 33.2123 11.4105 33.3772 11.3677C33.3829 11.224 33.3036 11.1123 33.2762 10.9846C33.3772 10.9356 33.5011 10.9789 33.6129 10.9846C33.9223 11.1653 34.4194 10.9515 34.6117 11.3677C34.259 11.3899 33.928 11.4635 33.597 11.5439C33.6181 11.6773 33.7516 11.7845 33.7413 11.9179C33.4577 11.7993 33.1592 11.7263 32.8436 11.6881L32.8288 11.7354C33.2294 12.2052 33.7784 12.4828 34.3395 12.6487C35.1459 12.8352 35.8559 12.4515 36.6349 12.5849C38.5485 13.46 40.1819 15.4617 40.893 17.3613C40.9278 17.4525 40.961 17.5449 40.9929 17.6378C41.5882 19.3727 41.7006 21.5066 41.1048 23.315C40.7875 24.0687 40.4382 24.7779 39.8783 25.3908C39.6666 25.6502 39.432 25.8822 39.1775 26.0795C38.3756 26.7032 37.3871 26.9774 36.3689 26.6975C36.3056 26.6559 36.176 26.6444 36.1972 26.5327C36.2331 26.3845 36.2662 26.2328 36.2953 26.0795C36.4648 25.2112 36.5419 24.299 36.4974 23.388C36.4951 23.3486 36.4945 23.3093 36.4928 23.2705C36.4369 21.9467 36.1726 20.7557 35.6852 19.611C35.3736 18.9536 35.0021 18.237 34.5346 17.5933C33.9771 16.826 33.2842 16.1629 32.395 15.8323C31.85 15.688 31.1765 15.6618 30.7662 16.1156C30.4717 16.3716 30.3496 16.7182 30.3918 17.0968C29.9324 17.3887 29.4159 17.546 28.8537 17.5933C28.7162 17.6053 28.5746 17.6549 28.4325 17.6543C28.2961 17.6606 28.1631 17.6543 28.0347 17.6378C27.3567 17.5546 26.673 17.1914 26.153 16.7735C26.1422 16.4976 26.1257 16.2348 26.1154 15.9423C25.8169 15.7872 25.5715 15.493 25.5498 15.147L25.5772 15.1202C25.7478 15.1732 25.8974 15.2587 26.0515 15.3499C25.9818 14.9338 25.9025 14.5227 25.6942 14.1601C25.5019 14.0797 25.3084 14.0164 25.1275 13.9195C24.9192 13.781 24.7856 13.5301 24.7548 13.3004C24.9408 13.4828 25.2667 13.4184 25.4111 13.6105C25.1606 12.8688 25.1549 12.0205 24.7434 11.3426C24.5351 10.8409 23.99 10.6117 23.6162 10.2429C23.4718 10.0673 23.4136 9.82212 23.1516 9.79476C22.9382 9.74174 22.9216 9.50115 22.8845 9.34722C23.0181 9.36261 23.1299 9.45383 23.2429 9.47492C22.9325 8.65282 22.6602 7.74121 21.8219 7.21842L21.6775 7.30849C21.3522 7.35752 21.0046 7.37805 20.6787 7.38888C20.8231 7.17509 21.0793 7.08501 21.2825 6.98809C21.0468 6.8125 20.8539 6.76974 20.5594 6.72128C20.3888 6.89288 20.0806 6.97726 19.8614 7.02515L19.8352 7.00462C19.8295 6.81307 19.785 6.57704 20.0737 6.52972C19.7964 6.39631 19.3369 6.44933 19.0533 6.52972C18.9728 6.73781 18.7451 6.92424 18.7599 7.16939C18.5956 7.34099 18.478 7.56961 18.3062 7.69275C18.3017 7.2817 18.4757 6.90257 18.5511 6.55651C18.3108 6.64659 18.0665 6.7743 17.832 6.88718C17.4524 6.66826 17.0529 6.44933 16.6477 6.28457C16.61 6.26804 16.5296 6.25207 16.5455 6.32106C16.8925 6.57191 16.7584 7.04111 16.7955 7.39914L16.5764 7.21842C16.4696 6.9459 16.1609 6.74864 16.1084 6.44933C15.7448 6.51889 15.5125 6.61524 15.1758 6.75947L15.129 6.7857C15.3796 6.7857 15.593 6.98296 15.7163 7.18022C15.3373 7.20188 15.0006 7.05194 14.6274 7.01546C14.5897 6.97783 14.5583 6.93507 14.4984 6.94077C14.3112 7.01032 14.1519 7.14373 13.9859 7.27201C13.6178 7.63403 13.2434 8.03539 13.0676 8.51485C13.1909 8.53652 13.3455 8.53139 13.4363 8.60607C13.2342 8.72865 13.0573 8.93674 12.8593 9.05418C12.7902 9.33182 12.8005 9.64653 12.7845 9.95097C12.6298 10.1853 12.4215 10.3934 12.3199 10.6545C11.9889 11.7269 11.9033 12.9167 11.9518 14.1333C11.8445 14.2342 11.7053 14.2998 11.6048 14.379L11.6157 15.4674H11.6419C11.691 15.2376 11.9632 15.1099 12.1282 14.9554H12.1818C12.1556 15.2006 12.123 15.4457 12.1179 15.6971L11.808 15.9531C11.4992 16.2251 11.7606 16.635 11.7332 16.9765C11.7555 17.0677 11.7703 17.2011 11.836 17.2228C11.8725 17.0894 11.9901 16.993 12.0643 16.8761C12.1978 16.8431 12.3148 16.737 12.4375 16.7211C12.3696 16.9873 12.2783 17.249 12.1704 17.505C12.1196 17.5386 12.0591 17.5848 12.0078 17.6384C11.9535 17.6971 11.9102 17.7644 11.8999 17.8368C12.1396 19.1013 12.5174 20.3493 12.9506 21.5391C12.6561 22.0345 12.49 22.6194 12.2452 23.132C12.2104 23.2038 12.179 23.2762 12.1493 23.3509C11.9039 23.9718 11.8291 24.6644 11.5238 25.2614C11.4011 25.1753 11.2681 25.1114 11.1294 25.0527C10.5513 24.8611 9.8841 24.9837 9.46291 25.4261C9.08852 25.3566 8.70385 25.4204 8.40936 25.6177C8.19934 25.7762 8.03611 25.9666 7.94308 26.1895C7.8803 26.344 7.85006 26.5122 7.86033 26.6963C7.61949 26.8617 7.49107 27.1176 7.41174 27.3736C7.29931 27.9506 7.50191 28.5498 7.83293 28.9927H17.2709C17.1322 28.828 17.0038 28.5982 16.9068 28.401C16.7048 28.096 16.8435 27.6644 16.8218 27.3121C17.0141 26.9244 17.2093 26.5344 17.429 26.1553C17.4735 26.0789 17.5181 26.0042 17.5637 25.9301L17.9969 25.7648C18.2263 25.7648 18.4192 25.5994 18.6378 25.6576C18.9317 25.9518 18.9317 25.3645 19.2154 25.3377C19.8774 25.2522 20.5343 25.3161 20.9076 25.8765C20.9076 25.9512 21.0263 25.9512 20.9989 26.0207C20.9133 26.0464 20.8328 25.9934 20.7426 25.9934C20.3368 25.8925 19.8609 25.6353 19.4608 25.8651C19.4454 25.9609 19.4248 26.0584 19.4054 26.1542C19.3854 26.2562 19.3672 26.356 19.3586 26.4518C19.62 26.5264 19.8392 26.7134 20.0366 26.9158C20.1702 26.6547 20.4533 26.5373 20.7044 26.4518C20.9235 26.4996 21.1638 26.5053 21.3459 26.6439C21.6826 26.954 21.5165 27.4819 21.4851 27.8765C21.7888 28.0469 22.1255 28.1438 22.4348 28.3086C22.2904 28.438 22.0992 28.4905 21.9229 28.5549L21.4104 28.4528C21.3516 28.4107 21.2494 28.4107 21.2283 28.336C21.0577 28.5167 20.8493 28.7573 20.7426 28.9916H28.0593C27.9628 28.7727 27.8509 28.6022 27.7174 28.3998C27.5673 28.0794 27.6272 27.6416 27.6107 27.3001L28.2944 26.2596C28.6676 26.2545 29.0906 26.1154 29.4958 26.1849C29.5163 26.1758 29.5357 26.1656 29.5545 26.1536C29.7229 26.0373 29.7743 25.767 30.0248 25.8007C30.4728 25.6787 30.8153 25.8816 31.152 26.084C31.1406 26.1108 31.1297 26.1342 31.1177 26.1536C30.9768 26.3788 30.7131 26.1274 30.5208 26.1952C30.4403 26.2807 30.5584 26.3816 30.5738 26.4785C30.6435 26.5738 30.5042 26.5629 30.4568 26.5795C30.345 26.5954 30.2223 26.5686 30.1361 26.4785C30.115 26.4512 30.131 26.4198 30.0887 26.4147C29.9917 26.5738 29.853 26.7186 29.8159 26.8999C29.9381 27.0179 30.1036 27.1347 30.1629 27.2847C30.2856 27.4609 30.0665 27.5937 30.0242 27.7488C30.0083 27.7801 29.9592 27.7801 29.9438 27.7488C29.8308 27.6849 29.7355 27.5241 29.6122 27.5663C29.5049 28.0418 29.6493 28.5167 29.5854 28.9916C29.7937 29.0406 30.0391 28.9808 30.2634 28.9916L30.3547 27.9882C30.45 27.3377 30.8358 26.7932 31.2895 26.2961C31.7798 25.9615 32.096 26.6228 32.4584 26.852C32.5177 26.8628 32.4966 26.9267 32.5223 26.9637C32.5172 27.0709 32.4053 27.1131 32.3305 27.1456C32.1057 27.2248 31.9402 26.9797 31.8015 26.8354C31.6685 26.9797 31.6091 27.1712 31.4545 27.2841L31.5075 27.2995C31.685 27.4762 31.8545 27.6627 31.8934 27.8976C31.8717 28.1102 31.7649 28.3183 31.572 28.4261C31.4288 28.1798 31.3106 27.9078 31.2153 27.657C31.2205 27.6684 31.2091 27.6729 31.1988 27.6843C30.9043 27.7636 30.8261 28.0942 30.777 28.3616C30.793 28.6233 30.5955 28.7299 30.648 28.991H34.457C34.8788 28.9272 35.3274 28.9374 35.6635 28.6273C37.0903 28.8468 38.5371 28.4945 39.6586 27.7106C40.2504 27.2328 40.7823 26.6809 41.2121 26.0783C41.591 25.547 41.8907 25.0504 42.0841 24.4558C42.228 24.0881 42.3421 23.7067 42.4283 23.3138C42.8346 21.4667 42.6212 19.3989 42.0196 17.6389Z" fill="#FF6600"/>
<path fill-rule="evenodd" clip-rule="evenodd" d="M17.5069 27.5412C17.7152 27.4078 18.0519 27.3753 18.0993 27.0663C18.0148 27.0019 17.9395 26.9215 17.843 26.9004L17.6239 26.9643C17.6399 26.836 17.7095 26.6923 17.7534 26.5538L18.4577 26.3246C18.3607 26.6444 18.3242 27.0446 18.2916 27.4129C18.3555 27.9574 18.436 28.5389 18.714 28.9921H17.9549C17.8699 28.491 17.3454 28.1273 17.5069 27.5412Z" fill="#FF6600"/>
<path fill-rule="evenodd" clip-rule="evenodd" d="M19.1468 26.9005H19.1891L19.701 27.3652L19.7758 27.3492C19.7341 27.8937 19.7067 28.4273 19.701 28.9923H19.1463C19.0333 28.4643 18.8466 27.909 18.8683 27.3389C18.9642 27.1947 19.0281 27.0128 19.1468 26.9005Z" fill="#FF6600"/>
<path fill-rule="evenodd" clip-rule="evenodd" d="M20.2889 27.4137C20.3911 27.2809 20.4333 27.0557 20.6359 27.03C20.7803 27.034 20.9139 27.0557 21.0217 27.1577C21.2084 27.3921 21.0257 27.6919 20.9578 27.9262C20.8825 28.2837 20.7535 28.6566 20.6365 28.9929H20.0972L20.2889 27.4137Z" fill="#FF6600"/>
<path fill-rule="evenodd" clip-rule="evenodd" d="M28.3915 27.2477C28.5091 27.3976 28.5462 27.6 28.7226 27.7334C28.8778 27.5202 28.9149 27.1889 28.8401 26.917L28.6855 26.7619C28.8835 26.7146 29.0912 26.6981 29.2893 26.661C29.2037 26.9438 29.0422 27.1998 29.0701 27.5304C29.0753 28.011 29.1552 28.4916 29.198 28.9922H28.6107C28.3973 28.5224 28.1832 28.0749 28.1992 27.5304C28.2631 27.4341 28.3059 27.3218 28.3915 27.2477Z" fill="#FF6600"/>
<path fill-rule="evenodd" clip-rule="evenodd" d="M30.918 16.9966C30.9123 17.1352 30.8112 17.2891 30.9014 17.4077C31.031 17.2635 31.2439 17.2686 31.4151 17.2047C31.8905 17.1614 32.3442 17.3113 32.7871 17.4185C32.6752 17.2418 32.6005 17.0445 32.4772 16.8849C32.2312 16.8205 31.8574 16.9915 31.8151 16.6278C31.6656 16.5001 31.431 16.5913 31.2758 16.6016C31.1257 16.7082 31.0036 16.8416 30.918 16.9966Z" fill="white"/>
<path fill-rule="evenodd" clip-rule="evenodd" d="M14.5961 12.3906C14.5931 12.3891 14.5901 12.3861 14.5857 12.3832C14.5857 12.3861 14.5872 12.3876 14.5872 12.3906H14.5961Z" fill="white"/>
<path fill-rule="evenodd" clip-rule="evenodd" d="M16.5359 17.1322L16.8566 16.8232C16.884 16.8232 16.9051 16.8283 16.9205 16.8488L16.8943 17.4412C17.0489 17.5854 17.2401 17.6327 17.4433 17.6441C17.4599 17.4845 17.5826 17.3716 17.6522 17.2331C17.711 17.1213 17.6739 16.956 17.7909 16.8767L17.8286 16.9132C17.8651 17.09 17.8548 17.2872 17.9461 17.4412C17.957 17.5267 17.9718 17.6327 17.9821 17.708C18.2178 17.7188 18.4318 17.6549 18.6127 17.5689C18.6019 17.3665 18.6721 17.2011 18.7029 17.0153C18.752 16.9509 18.6441 16.8328 18.7777 16.8385C18.853 16.9987 18.986 17.1635 19.0613 17.3351C19.3706 17.0204 19.5002 16.6099 19.5732 16.1823C19.4831 16.0603 19.3444 16.0603 19.2365 15.98C18.3291 15.6869 17.1654 15.6282 16.2893 16.0814C16.2305 16.4429 16.3053 16.8431 16.5359 17.1322Z" fill="white"/>
<path fill-rule="evenodd" clip-rule="evenodd" d="M8.04709 27.1446C8.01455 27.5556 8.04708 27.941 8.07334 28.3469C8.15894 28.4803 8.31475 28.6354 8.46942 28.6451L8.49567 28.3726C8.55959 27.994 8.35699 27.5921 8.57101 27.2717C8.72053 27.319 8.87006 27.3943 8.99848 27.4633C9.0624 27.1115 8.97108 26.6999 8.63436 26.4861L8.04709 27.1446Z" fill="white"/>
<path fill-rule="evenodd" clip-rule="evenodd" d="M9.36654 26.5676C9.15823 27.1924 9.00356 27.9615 9.25468 28.6194C9.39907 28.5225 9.54803 28.4318 9.67587 28.299C9.64962 27.7967 9.57999 27.262 9.87905 26.8446C10.1404 26.925 10.3174 27.1759 10.4178 27.4205C10.5953 27.197 10.6535 26.8868 10.5845 26.5892C10.5953 26.3538 10.3282 26.4079 10.1998 26.3116C10.242 26.1138 10.2363 25.8857 10.4452 25.7728L9.80485 25.8367C9.63934 26.0721 9.45786 26.3002 9.36654 26.5676Z" fill="white"/>
<path fill-rule="evenodd" clip-rule="evenodd" d="M10.686 28.4113C10.7129 28.4586 10.686 28.5447 10.7403 28.5555C10.8196 28.1068 11.1826 27.8166 11.3812 27.421C11.4765 27.2893 11.4719 27.1012 11.6266 27.0002C11.8343 27.0002 11.9844 27.1496 12.1876 27.1656C12.2515 27.214 12.1545 27.2568 12.1494 27.3098C12.1071 27.6735 11.9684 27.9734 11.9947 28.3474H12.0318C12.3149 28.0481 12.5072 27.726 12.7155 27.3845L12.752 27.0812C12.8011 26.718 12.4062 26.4837 12.1482 26.3338L12.3782 26.0396L12.0575 25.9279C11.6837 25.9649 11.3469 26.12 11.0855 26.4142C10.7602 27.0105 10.7072 27.6855 10.686 28.4113Z" fill="white"/>
<path fill-rule="evenodd" clip-rule="evenodd" d="M12.123 25.2448C12.2452 25.2813 12.3576 25.181 12.4797 25.2334C12.9717 25.4153 13.4842 25.6017 13.8529 26.0122L14.2912 27.1279L14.5104 26.4387L14.366 26.0664C14.2427 25.7996 13.9065 25.8212 13.6765 25.8104C13.5807 25.7032 13.6817 25.5806 13.7142 25.4797C13.8261 25.1006 13.3615 25.1217 13.1749 24.9672C13.1857 24.7386 12.9078 24.8173 12.7525 24.7967L12.6995 24.7329C12.6675 24.6838 12.5876 24.6838 12.5442 24.7215C12.5345 24.7055 12.5128 24.6947 12.5237 24.6685L12.4067 24.6947C12.24 24.8389 12.1282 25.0253 12.123 25.2448Z" fill="white"/>
<path fill-rule="evenodd" clip-rule="evenodd" d="M12.4319 24.0174C12.4484 24.0858 12.4907 24.1553 12.5437 24.1987C12.7846 24.1348 13.0152 23.9683 13.292 24.0704C13.6504 24.3851 14.0236 24.7158 14.4568 24.8862L14.612 24.86C14.7073 24.8913 14.8141 24.8965 14.878 25.0042C14.9373 25.1485 14.7878 25.2328 14.7404 25.3503C14.9801 25.527 14.8848 25.8412 15.0338 26.0544L15.4179 25.543C15.3283 25.3184 15.4236 24.9347 15.072 24.913C14.9533 24.8543 14.874 24.7374 14.8786 24.604C14.6497 24.3959 14.3666 24.3053 14.1372 24.0915C13.9489 23.9427 13.8376 23.7135 13.5979 23.6599C13.4318 23.5687 13.2503 23.5208 13.0585 23.4792C12.6996 23.4244 12.6676 23.8515 12.4319 24.0174Z" fill="white"/>
<path fill-rule="evenodd" clip-rule="evenodd" d="M12.9456 22.9662L13.0095 23.0688C13.2766 23.0523 13.5163 22.9354 13.7782 22.94C13.954 23.0466 14.184 23.0409 14.3655 23.1321C14.5099 23.3299 14.6651 23.5529 14.8774 23.6863C15.3106 23.7501 15.5503 24.2159 15.6999 24.5563V24.3915C15.7638 24.1617 15.6941 23.8944 15.6103 23.6863C15.503 23.5796 15.3471 23.5107 15.2359 23.4155C15.2142 23.3459 15.2302 23.3128 15.2518 23.2496C15.0858 23.0734 14.8404 22.977 14.6372 22.8379C14.3541 22.4269 13.8102 22.5403 13.377 22.4269L12.9456 22.9662Z" fill="white"/>
<path fill-rule="evenodd" clip-rule="evenodd" d="M12.9364 19.0524C12.9838 19.2183 13.0414 19.4258 13.0739 19.6026C13.2229 19.2719 13.518 19.1219 13.7794 18.8506C13.6293 18.7491 13.4426 18.7006 13.2777 18.6693V18.6584C13.1596 18.7748 12.9781 18.8928 12.9364 19.0524Z" fill="white"/>
<path fill-rule="evenodd" clip-rule="evenodd" d="M13.9065 20.8082L14.1462 20.563C14.387 20.3168 14.5857 20.0334 14.6216 19.7193C14.451 19.6184 14.2267 19.6879 14.0617 19.7466C14.0029 20.0921 13.9116 20.4336 13.9065 20.8082Z" fill="white"/>
<path fill-rule="evenodd" clip-rule="evenodd" d="M14.0824 21.5607C14.4511 21.5812 14.8095 21.6559 15.1086 21.4478L15.4082 20.4878C15.3112 20.4821 15.2147 20.4387 15.1245 20.4718C14.9271 20.9085 14.5321 21.3412 14.0824 21.5607Z" fill="white"/>
<path fill-rule="evenodd" clip-rule="evenodd" d="M14.1908 18.1565C14.4311 18.5083 14.8323 18.9022 15.2427 19.0151C15.1953 18.5664 14.8106 18.2569 14.6126 17.8737L14.6017 17.7455C14.4471 17.5961 14.2599 17.494 14.0995 17.4148C14.0738 17.6708 14.1435 17.9154 14.1908 18.1565Z" fill="white"/>
<path fill-rule="evenodd" clip-rule="evenodd" d="M15.4926 21.6029C15.7756 21.6507 16.0804 21.6029 16.3418 21.5225C16.7207 21.4313 16.9296 21.0156 17.0575 20.6907H16.5821L16.0701 21.1918C15.8675 21.2978 15.6752 21.458 15.4926 21.6029Z" fill="white"/>
<path fill-rule="evenodd" clip-rule="evenodd" d="M15.4349 17.6709C15.5154 18.0877 15.6923 18.4662 15.9326 18.8237L15.9959 18.0284L15.4349 17.6709Z" fill="white"/>
<path fill-rule="evenodd" clip-rule="evenodd" d="M17.186 19.7461C17.2186 19.4793 17.1067 19.1691 17.0753 18.8983C16.9149 18.7911 16.6912 18.8014 16.5251 18.6959C16.536 19.1161 16.8659 19.4741 17.186 19.7461Z" fill="white"/>
<path fill-rule="evenodd" clip-rule="evenodd" d="M16.7002 22.4566C17.0363 22.35 17.3622 22.2325 17.6727 22.062C17.8702 21.7787 18.1687 21.5233 18.212 21.1926C17.9649 21.2616 17.7526 21.1812 17.5226 21.2941C17.3839 21.5444 17.2977 21.8283 17.0312 22.009C16.9884 22.1892 16.7909 22.3123 16.7002 22.4566Z" fill="white"/>
<path fill-rule="evenodd" clip-rule="evenodd" d="M17.2228 23.1127L17.6234 23.6355C17.8374 23.7045 18.1045 23.6839 18.2912 23.5614L18.1479 23.087C17.8643 23.1925 17.5275 23.1617 17.2228 23.1127Z" fill="white"/>
<path fill-rule="evenodd" clip-rule="evenodd" d="M17.8909 19.3356L18.0455 20.0391C18.4194 19.7358 18.4964 19.2928 18.4856 18.8236C18.2721 19.0688 18.1483 19.2181 17.8909 19.3356Z" fill="white"/>
<path fill-rule="evenodd" clip-rule="evenodd" d="M18.9437 20.578C18.9489 20.6801 18.9751 20.7758 19.0333 20.8556C19.45 21.0056 19.4928 21.5113 19.878 21.7034C20.128 21.8163 20.4173 21.6772 20.6353 21.5751C20.4704 21.3887 20.2838 21.2604 20.1234 21.0637C20.0115 21.0158 19.898 20.9463 19.9042 20.8078L18.9437 20.578Z" fill="white"/>
<path fill-rule="evenodd" clip-rule="evenodd" d="M19.2746 23.0971C19.4556 23.3041 19.701 23.4118 19.9572 23.4694C19.915 23.4113 19.9846 23.4694 19.9949 23.4329L19.6741 22.7283C19.5138 22.734 19.3477 22.7665 19.1987 22.7556C19.2107 22.8731 19.2364 22.99 19.2746 23.0971Z" fill="white"/>
<path fill-rule="evenodd" clip-rule="evenodd" d="M19.841 19.8106C19.6909 19.464 19.6293 19.0416 19.5853 18.6584C19.4261 18.8506 19.26 18.9737 19.1099 19.1698C19.0403 19.5644 19.6059 19.6607 19.841 19.8106Z" fill="white"/>
<path fill-rule="evenodd" clip-rule="evenodd" d="M20.4916 19.4468C20.6851 19.6988 21.1063 19.6133 21.3414 19.538C21.229 19.3459 20.8672 19.233 20.8032 19.0266C20.7667 18.6583 20.6914 18.2997 20.5732 17.9651C20.3866 18.4178 20.1606 18.9571 20.4916 19.4468Z" fill="white"/>
<path fill-rule="evenodd" clip-rule="evenodd" d="M20.828 20.5777C21.3622 20.9671 21.8861 21.4209 22.6326 21.255C22.6863 21.2185 22.7776 21.2225 22.7879 21.1541C22.5687 21.0155 22.3341 20.9078 22.1098 20.7801L21.8542 20.4072H21.7366C21.4478 20.5024 21.1385 20.5412 20.828 20.5777Z" fill="white"/>
<path fill-rule="evenodd" clip-rule="evenodd" d="M20.8391 24.9051H20.8774C21.1975 24.6492 21.5765 24.5631 21.9554 24.457C22.0576 24.4947 21.9931 24.607 22.0844 24.6492C22.3139 24.5539 22.5918 24.5745 22.8264 24.4947C23.1094 24.5049 23.3394 24.5101 23.5689 24.6326C23.7515 24.8732 24.0922 24.8458 24.3279 25.0066L24.2897 24.6326C23.7937 24.0511 23.0193 24.0089 22.3036 24.0198L22.2876 23.9451C22.117 23.9451 21.9246 23.9816 21.7642 24.0568C21.5354 24.0676 21.3157 24.1794 21.0965 24.2484C20.9943 24.4513 20.9139 24.6982 20.8391 24.9051Z" fill="white"/>
<path fill-rule="evenodd" clip-rule="evenodd" d="M21.2682 18.3482C21.476 18.6207 21.7859 18.8294 22.1386 18.7598C21.9576 18.5825 21.7482 18.3961 21.7379 18.1458C21.7916 17.6709 21.2682 17.6327 21.012 17.3876C21.0976 17.708 21.0862 18.0654 21.2682 18.3482Z" fill="white"/>
<path fill-rule="evenodd" clip-rule="evenodd" d="M21.2135 25.8491H21.2774C21.5599 25.6735 21.9714 25.8075 22.2494 25.6205C22.404 25.5401 22.4149 25.7539 22.5216 25.8126C22.7835 25.9716 22.8161 26.4523 23.1842 26.3405C23.6265 26.5697 23.5152 27.1085 23.5312 27.503L23.9427 27.2476C23.905 27.0395 24.0232 26.7886 23.889 26.6073C23.7875 26.3781 23.5095 26.357 23.376 26.1706C23.5369 25.8981 23.1734 25.7693 23.098 25.572L23.1203 25.5458L23.6864 25.6205C23.8788 25.7373 23.9484 25.9511 24.0072 26.149C24.4495 26.2236 24.5562 26.7248 24.7114 27.0446C24.8028 26.8262 24.8399 26.5908 24.9306 26.3776C24.9363 26.2014 24.7012 26.2014 24.5836 26.1216C24.5522 25.8491 24.4289 25.5937 24.1887 25.4289C23.6973 25.3046 23.2652 25.0338 22.7259 25.0338L22.2773 25.1718C22.0308 25.2311 21.7694 25.1564 21.5822 25.3263C21.3037 25.3479 21.2831 25.6524 21.2135 25.8491Z" fill="white"/>
<path fill-rule="evenodd" clip-rule="evenodd" d="M21.4961 23.6514L21.5983 23.6998C21.8174 23.5984 22.036 23.4809 22.266 23.3954C22.6227 23.2945 22.9006 23.6998 23.2008 23.4433C23.3121 23.364 23.4091 23.4809 23.4936 23.5453C23.6237 23.7797 23.9217 23.7637 24.1465 23.827C24.0341 23.5237 23.8948 23.1075 23.505 23.059C23.3504 22.9901 23.1683 22.9958 23.0193 22.9045C22.6079 22.4513 22.3413 23.2785 21.891 23.0761C21.7318 23.2512 21.5338 23.4176 21.4961 23.6514Z" fill="white"/>
<path fill-rule="evenodd" clip-rule="evenodd" d="M21.598 26.2499C21.7687 26.3941 21.945 26.6399 22.2127 26.6074C22.5431 26.7619 22.4044 27.1997 22.5854 27.4295L22.7777 27.2584L22.7617 27.247L22.7885 27.2208L22.8 27.2356C22.853 27.0766 22.7783 26.7938 22.687 26.6062C22.5648 26.5213 22.421 26.6119 22.3029 26.5315C22.2869 26.3599 22.1802 26.2756 22.0575 26.1695C21.9718 26.1045 21.8594 26.19 21.763 26.1843L21.598 26.2499Z" fill="white"/>
<path fill-rule="evenodd" clip-rule="evenodd" d="M22.266 19.7461C22.4418 20.0392 22.7836 20.221 23.0564 20.4234C23.2813 20.5249 23.5741 20.5517 23.8149 20.4975C23.5849 20.3111 23.376 20.0973 23.1849 19.8738C23.1095 19.7667 23.0935 19.6327 22.9925 19.5375C22.7414 19.5859 22.4578 19.5802 22.266 19.7461Z" fill="white"/>
<path fill-rule="evenodd" clip-rule="evenodd" d="M22.5603 17.8368C22.8057 18.1407 23.1852 18.0181 23.5322 18.0289V17.9913L22.998 17.5432C22.8485 17.5905 22.6887 17.7239 22.5603 17.8368Z" fill="white"/>
<path fill-rule="evenodd" clip-rule="evenodd" d="M12.728 12.8049L13.0374 13.7655C13.0316 13.2211 13.2839 12.7667 13.2303 12.2126L13.4591 11.8705L12.9729 12.0204C12.845 12.2656 12.7383 12.5113 12.728 12.8049Z" fill="white"/>
<path fill-rule="evenodd" clip-rule="evenodd" d="M12.9364 11.1403L13.3582 10.8951V10.2703C13.1807 10.3769 13.0854 10.5593 12.9467 10.7018L12.9364 11.1403Z" fill="white"/>
<path fill-rule="evenodd" clip-rule="evenodd" d="M21.5994 12.111C21.4978 12.2438 21.3431 12.2769 21.2147 12.3026C21.4396 11.8927 21.5463 11.3214 21.37 10.8568C21.487 10.8146 21.6154 10.7929 21.7272 10.7291L21.7164 10.7177L22.0103 10.4617C22.4001 10.1949 22.25 9.6886 22.3944 9.30947C22.2027 9.0113 22.1439 8.64814 21.8659 8.39729L21.8819 8.38646C21.6627 8.10881 21.2678 8.14131 20.9688 8.00277C20.5727 7.86937 20.2685 8.14131 19.9848 8.32261C19.8621 8.34427 19.9375 8.5039 19.8039 8.4982C19.7291 8.69546 19.6378 8.90925 19.5842 9.12818C19.0557 9.05349 18.4844 9.11221 18.0626 9.41095C17.8372 9.24505 17.5661 9.21369 17.3042 9.13901C17.1118 9.10081 16.8932 9.17036 16.7546 9.06375C16.5519 8.83514 16.508 8.41838 16.1604 8.36023C16.0377 8.3169 16.012 8.1835 16.012 8.06606C15.782 8.02786 15.5783 7.92182 15.3551 7.87393C15.0133 7.71886 14.7411 7.96515 14.4848 8.12991C14.3718 8.17723 14.244 8.19376 14.1372 8.25761C13.9455 8.55692 13.7646 8.86079 13.6401 9.19146C13.6784 9.4634 13.7954 9.70285 13.9346 9.93318C14.0573 10.2798 14.442 10.5523 14.7673 10.6914C14.6126 11.2194 14.6126 11.8482 14.7673 12.3818C14.7673 12.3818 14.7587 12.3892 14.7587 12.3875C14.7587 12.3892 14.7416 12.4035 14.7416 12.4035C14.6914 12.4035 14.6355 12.4132 14.5938 12.3875H14.587C14.6634 12.8972 14.9031 13.3442 15.2912 13.7267C15.4305 13.7746 15.398 13.9405 15.4562 14.0465C15.4938 14.095 15.4995 14.1959 15.4836 14.2387C14.6497 14.2124 13.9072 14.4205 13.2395 14.7991C13.0688 14.8846 13.1436 15.1189 13.1276 15.2848C13.5979 14.9747 14.1047 14.7461 14.6657 14.644C14.906 14.6292 15.1777 14.5693 15.4082 14.6332L15.4345 15.0933C14.7998 15.4245 14.1047 15.6161 13.5608 16.1605C13.5711 16.3253 13.5391 16.5168 13.5871 16.6559L14.0739 16.2614C14.5436 15.9034 15.035 15.5995 15.5737 15.4023C15.7187 15.5727 15.8682 15.7552 16.0606 15.8612C16.3859 15.6525 16.7391 15.498 17.113 15.4023C17.3104 15.2848 17.626 15.3914 17.7539 15.1571L17.8441 14.6714C17.8292 14.6606 17.8178 14.6389 17.791 14.644C17.5404 14.4998 17.3744 14.2495 17.396 13.9565C17.3104 13.9987 17.2151 14.026 17.113 14.03C17.0285 14.0095 16.9475 13.9878 16.9104 13.9017C16.9052 13.7957 16.851 13.6355 16.9589 13.5562C17.3053 13.3425 17.7545 13.3316 18.1922 13.3635C18.5175 13.4069 18.9878 13.3903 19.1008 13.7746C19.0848 13.8869 19.0951 14.0101 18.9826 14.0842C18.8651 14.148 18.7321 14.0785 18.6248 14.03C18.5398 14.2923 18.3954 14.5853 18.102 14.6708L18.1386 14.9798C18.1751 15.1189 18.1865 15.3481 18.4056 15.2997C18.913 15.4234 19.3622 15.6845 19.8051 15.9667C19.9552 15.8179 20.0721 15.6468 20.1783 15.4918C20.9699 15.7597 21.6525 16.3515 22.3054 16.9017L22.3311 16.453C21.7113 15.9028 21.023 15.514 20.3067 15.2101C20.3341 15.0659 20.3661 14.9268 20.3718 14.7717C21.2204 14.8202 22.0269 15.0819 22.726 15.4918L22.7152 15.1081C21.9784 14.713 21.1719 14.4519 20.2913 14.4416C20.2582 14.3937 20.2479 14.3242 20.2536 14.2763C20.6811 14.2073 20.9847 13.7649 21.0869 13.3795C21.3066 13.1292 21.6217 12.8567 21.5469 12.4839C21.556 12.4525 21.5669 12.42 21.5783 12.3875C21.6062 12.2957 21.6302 12.1977 21.5994 12.111Z" fill="white"/>
<path fill-rule="evenodd" clip-rule="evenodd" d="M22.3412 13.483L22.7789 13.3438L22.828 13.0993C22.9507 12.7412 22.6888 12.4744 22.5603 12.1917L22.3412 13.483Z" fill="white"/>
<path fill-rule="evenodd" clip-rule="evenodd" d="M23.4467 15.1732C23.655 15.403 23.8582 15.7707 24.2269 15.6589C24.1995 15.5039 24.1139 15.3756 24.0614 15.237C23.9655 15.1253 23.9324 14.8049 23.7406 14.9172C23.5962 14.8214 23.5597 14.6612 23.4678 14.533C23.4262 14.7308 23.4524 14.9759 23.4467 15.1732Z" fill="white"/>
<path fill-rule="evenodd" clip-rule="evenodd" d="M23.5215 16.7365C23.602 16.8482 23.6242 16.9931 23.703 17.0945C23.8474 17.1897 24.0614 17.1738 24.2383 17.1584C24.3975 17.1208 24.4997 17.2964 24.6487 17.1954C24.462 17.078 24.3502 16.8648 24.1744 16.7091C23.9655 16.545 23.7412 16.6892 23.5215 16.7365Z" fill="white"/>
<path fill-rule="evenodd" clip-rule="evenodd" d="M23.8051 19.2183C24.1737 19.4367 24.6417 19.6505 25.1337 19.5758C25.1868 19.5495 25.2781 19.5547 25.2884 19.4908C24.9836 19.3836 24.664 19.0798 24.3444 19.0159C24.168 18.744 23.938 19.0855 23.7137 19.0638C23.7189 19.1271 23.7828 19.175 23.8051 19.2183Z" fill="white"/>
<path fill-rule="evenodd" clip-rule="evenodd" d="M24.9139 23.9291L24.9944 24.0995C25.0755 24.6548 25.4264 25.1662 25.2347 25.7745C25.3951 25.8874 25.443 26.0738 25.5452 26.2232H25.5714C25.6941 25.7597 25.6091 25.2791 25.5452 24.8145C25.5931 24.3931 25.1651 24.148 24.9139 23.9291Z" fill="white"/>
<path fill-rule="evenodd" clip-rule="evenodd" d="M25.0065 18.4656C25.2838 18.6794 25.7273 18.6999 26.0475 18.5939C25.8449 18.4821 25.6206 18.3584 25.4545 18.2096L25.0065 18.4656Z" fill="white"/>
<path fill-rule="evenodd" clip-rule="evenodd" d="M26.3248 20.103C26.2985 20.3276 26.4475 20.514 26.6079 20.6269C26.6667 20.4941 26.762 20.3806 26.7728 20.2318C26.7249 20.0026 26.5965 19.794 26.3881 19.6389C26.3516 19.7883 26.3082 19.9325 26.3248 20.103Z" fill="white"/>
<path fill-rule="evenodd" clip-rule="evenodd" d="M26.3409 22.5368C26.3026 22.787 26.5806 22.8195 26.6976 22.9581C26.794 23.0755 26.6336 23.1559 26.6336 23.2677C26.8368 23.5288 26.955 23.8264 26.955 24.1741C27.0343 23.8492 27.157 23.5396 27.2004 23.2038C27.1787 22.9683 26.8054 23.0174 26.8636 22.7557C26.9709 22.4889 26.8425 22.2278 26.7729 21.9866C26.7524 21.9501 26.7033 21.8749 26.6616 21.8971C26.5646 22.1149 26.3249 22.27 26.3409 22.5368Z" fill="white"/>
<path fill-rule="evenodd" clip-rule="evenodd" d="M27.0726 21.2667L27.35 21.8054C27.4727 21.7895 27.5526 21.672 27.6485 21.5865C27.7233 21.3624 27.5252 21.2182 27.4676 21.0363C27.4191 20.9081 27.4676 20.7382 27.3763 20.6264C27.3066 20.5831 27.2273 20.5135 27.1474 20.5352L27.0726 21.2667Z" fill="white"/>
<path fill-rule="evenodd" clip-rule="evenodd" d="M27.4292 19.847C27.6489 19.9805 27.8995 20.172 28.0176 20.4075C28.2042 20.9519 28.5033 21.4417 28.7219 21.9701C28.8024 22.3384 28.8663 22.6674 28.9673 23.0294C29.0055 23.1258 28.9838 23.3122 29.1339 23.2962C29.1756 22.8909 29.2561 22.5009 29.2618 22.0796C29.1282 21.9034 28.9525 21.8293 28.7864 21.7227V21.6851C28.8081 21.595 28.8834 21.4873 28.9947 21.5044C29.0421 21.4508 29.187 21.3978 29.1231 21.3014C28.8452 21.0243 28.8611 20.5471 28.4188 20.4611C28.2636 20.3972 28.2265 20.2364 28.2105 20.0882C28.0016 19.9109 27.6923 19.8527 27.4292 19.847Z" fill="white"/>
<path fill-rule="evenodd" clip-rule="evenodd" d="M27.6872 22.7392C27.9588 22.9895 27.8635 23.3526 27.8418 23.689C27.7996 23.892 28.0553 23.7734 28.1358 23.8811C28.3018 24.1263 28.2054 24.4843 28.1472 24.7506C28.2916 24.5311 28.4565 24.3395 28.5684 24.0989C28.5638 24.0088 28.6808 23.9655 28.6757 23.8532C28.723 23.6987 28.5421 23.7682 28.4668 23.7523C28.4029 23.7363 28.3338 23.6936 28.3555 23.608C28.493 23.3412 28.3658 23.0214 28.3121 22.7546C28.2482 22.5357 28.3395 22.2421 28.2368 22.0499C28.0656 22.286 27.5576 22.339 27.6872 22.7392Z" fill="white"/>
<path fill-rule="evenodd" clip-rule="evenodd" d="M28.183 18.9513C28.659 19.4319 29.006 19.9142 29.5185 20.3789C29.5293 20.1702 29.5025 19.9787 29.4922 19.7757C29.4175 19.6315 29.2782 19.5254 29.1601 19.4177C28.7811 19.3812 28.5836 18.8709 28.183 18.9513Z" fill="white"/>
<path fill-rule="evenodd" clip-rule="evenodd" d="M29.4266 21.4935C29.4381 21.5425 29.4597 21.5847 29.4814 21.632C29.6892 21.9741 29.8872 22.3264 30.0316 22.6942C29.9882 22.2991 30.2553 21.8088 29.902 21.5043C29.8547 21.3755 29.6954 21.4188 29.5927 21.4291L29.4266 21.4935Z" fill="white"/>
<path fill-rule="evenodd" clip-rule="evenodd" d="M30.7092 25.3907C30.8588 25.4602 31.0511 25.3376 31.1955 25.2521C31.329 25.2202 31.4409 25.2955 31.5431 25.3644C31.5853 25.4494 31.5431 25.5298 31.559 25.6102C31.8792 25.7002 32.1937 25.8183 32.4768 26.0047L32.5669 25.914C32.5886 25.6848 32.4077 25.5189 32.2359 25.3907C32.1246 25.3268 31.958 25.3644 31.8786 25.263C31.9323 25.1774 31.9323 25.0492 31.9266 24.9534C31.7502 24.9534 31.6378 24.8992 31.4945 24.8149C31.4032 24.7881 31.3228 24.7128 31.248 24.8149C30.9815 24.9956 30.9655 25.263 30.7092 25.3907Z" fill="white"/>
<path fill-rule="evenodd" clip-rule="evenodd" d="M31.084 18.6773C31.217 18.6391 31.3563 18.602 31.4681 18.5057C31.8266 18.1801 32.3442 18.3991 32.7614 18.3939C32.6809 18.2497 32.5679 18.1055 32.4669 17.9829C32.3168 17.9242 32.1781 17.8552 32.0075 17.8552C31.6439 17.6414 31.3991 17.9994 31.1206 18.175C31.0452 18.3192 31.0087 18.5325 31.084 18.6773Z" fill="white"/>
<path fill-rule="evenodd" clip-rule="evenodd" d="M31.093 19.7757C31.093 19.7592 31.093 19.7426 31.1089 19.7386C31.158 19.7808 31.1038 19.8834 31.1843 19.904C31.323 19.8344 31.4514 19.7386 31.5792 19.648C31.9371 19.648 32.1511 19.3008 32.5026 19.3008C33.0911 19.408 33.6732 19.526 34.1851 19.8127C34.1486 19.4673 33.8484 19.1514 33.5448 18.9969C33.373 18.9382 33.2394 19.0288 33.1173 19.1252C32.76 19.3498 32.9467 18.7997 32.6961 18.7888C32.3697 18.8897 32.0329 19.0026 31.67 18.9695C31.4565 19.0505 31.3064 19.2472 31.0661 19.2255C31.0564 19.4028 31.0302 19.6166 31.093 19.7757Z" fill="white"/>
<path fill-rule="evenodd" clip-rule="evenodd" d="M31.3398 20.965C31.4517 21.0836 31.6383 21.0619 31.7992 21.0836L32.2638 20.9012C32.2689 20.8174 32.1251 20.7946 32.1571 20.6988C32.2855 20.5545 32.4607 20.6566 32.6216 20.5979C32.8454 20.5654 33.0754 20.3425 33.2997 20.5066C33.2928 20.534 33.3094 20.5705 33.2882 20.5979C33.2192 20.7632 33.3362 20.8647 33.4646 20.9285C33.7266 20.9764 33.9714 21.217 34.2334 21.1093C34.2071 20.8903 34.1489 20.6891 34.0952 20.4799C33.8761 20.4428 33.7208 20.2615 33.5182 20.1862C33.4281 20.2718 33.3094 20.3356 33.1975 20.3248C32.786 20.2284 32.294 19.9725 31.878 20.2341C31.7285 20.416 31.4614 20.3624 31.2582 20.4422C31.2702 20.6235 31.2913 20.8003 31.3398 20.965Z" fill="white"/>
<path fill-rule="evenodd" clip-rule="evenodd" d="M31.5161 24.1373C31.4841 24.2279 31.3934 24.3767 31.5595 24.42C31.9008 24.4303 32.3391 24.2541 32.6062 24.5209C32.6969 24.5905 32.6536 24.7347 32.6478 24.8254L33.0964 25.1988C33.1392 24.9736 33.2203 24.7712 33.226 24.5312C33.1883 24.3602 33.1027 24.1954 32.9532 24.0837C32.6587 24.0837 32.4886 23.7399 32.1724 23.7821C32.0075 23.7456 31.8631 23.8921 31.697 23.8921C31.6234 23.9662 31.58 24.0574 31.5161 24.1373Z" fill="white"/>
<path fill-rule="evenodd" clip-rule="evenodd" d="M31.6439 21.621C31.713 21.7653 31.794 22.0002 31.927 22.0156C32.242 21.8782 32.702 21.7921 33.0542 21.942C33.1712 21.9625 33.1712 22.0959 33.1455 22.1815C33.3264 22.2881 33.5456 22.3736 33.7379 22.4905L33.6842 22.1701C33.6734 21.8234 33.2362 21.7921 33.2088 21.45C32.851 21.3331 32.4503 21.2949 32.0714 21.3862C31.9487 21.4979 31.7718 21.4831 31.6234 21.5144C31.6125 21.5572 31.6382 21.5846 31.6439 21.621Z" fill="white"/>
<path fill-rule="evenodd" clip-rule="evenodd" d="M31.7346 23.3505C31.9429 23.2912 32.077 23.0626 32.3013 23.0409C32.6426 23.0466 32.9474 23.1857 33.1614 23.4799C33.2892 23.5637 33.2624 23.7826 33.4285 23.7826C33.3794 23.5215 33.465 23.2821 33.4542 23.0141C33.231 22.6413 32.6752 22.9298 32.4668 22.4913L32.0719 22.5181C31.7883 22.5883 31.8636 22.9189 31.8265 23.1435C31.794 23.212 31.73 23.2655 31.7346 23.3505Z" fill="white"/>
<path fill-rule="evenodd" clip-rule="evenodd" d="M33.6958 25.6845C33.8607 26.0152 34.2249 26.266 34.2614 26.6446C34.3464 26.5437 34.4058 26.4262 34.464 26.3139C34.4583 26.2073 34.3356 26.2073 34.2882 26.1218C34.2391 25.9833 34.3139 25.8607 34.3356 25.7375C34.2659 25.5403 34.0999 25.3539 33.9138 25.2358L33.6958 25.6845Z" fill="white"/>
<path fill-rule="evenodd" clip-rule="evenodd" d="M34.3527 24.8411L34.7367 25.3644C34.9017 25.1033 34.9017 24.7185 34.8378 24.4038C34.8012 24.3445 34.731 24.2487 34.6357 24.292C34.4913 24.4408 34.4697 24.6706 34.3527 24.8411Z" fill="white"/>
<path fill-rule="evenodd" clip-rule="evenodd" d="M32.7871 10.2373C32.9258 10.3069 33.0594 10.3708 33.226 10.3816C33.3373 10.3229 33.4822 10.2795 33.6209 10.3177C33.8184 10.446 34.0587 10.2909 34.2887 10.3018C34.0855 10.1096 33.8549 9.99162 33.6209 9.87988C33.3213 9.94317 33.0816 10.157 32.7871 10.2373Z" fill="white"/>
<path fill-rule="evenodd" clip-rule="evenodd" d="M34.8754 10.7376C35.1584 10.7644 35.3622 11.0153 35.5534 11.2234C35.7936 11.2598 35.9751 11.4314 36.119 11.607L36.0294 11.3248C35.9654 11.0415 35.7879 10.8226 35.607 10.5985C35.3508 10.615 35.0991 10.6373 34.8754 10.7376Z" fill="white"/>
<path fill-rule="evenodd" clip-rule="evenodd" d="M14.9441 8.39795L15.0994 8.41448C15.5148 8.62257 16.1877 8.72918 16.2265 9.33179C15.8036 9.4977 15.3978 9.72118 15.0611 10.0627C14.8054 9.80157 14.2872 9.94524 14.201 9.48686C14.2821 9.05358 14.4362 8.50912 14.9441 8.39795Z" fill="#FF6600"/>
<path fill-rule="evenodd" clip-rule="evenodd" d="M15.3454 11.1037C15.8316 11.0604 16.3013 11.1293 16.8036 11.0872C16.9257 11.1402 17.0535 11.2462 17.1129 11.3694C17.0963 11.9457 16.9206 12.4959 16.8943 13.0877C16.6751 13.1778 16.4611 13.3602 16.4075 13.5996C16.21 13.6584 16.0331 13.7752 15.8408 13.8659C15.7569 13.6852 15.7717 13.4126 15.9218 13.2627C16.1301 12.9697 16.67 13.0381 16.6272 12.574C16.7659 12.3505 16.6329 12.0621 16.6369 11.8277C16.5838 11.651 16.5302 11.8865 16.4451 11.8808C16.2745 11.9172 16.0987 11.9281 15.9486 11.8426C15.8362 11.7251 15.6986 11.6288 15.6655 11.4697C15.5154 11.395 15.3402 11.2781 15.2649 11.1231L15.3454 11.1037Z" fill="#FF6600"/>
<path fill-rule="evenodd" clip-rule="evenodd" d="M15.9326 14.5807C16.1609 14.6138 16.4023 14.5112 16.5998 14.6241C16.5581 14.6993 16.4451 14.7307 16.3544 14.7523L15.996 14.9171C15.863 14.8857 15.9378 14.6719 15.9326 14.5807Z" fill="#FF6600"/>
<path fill-rule="evenodd" clip-rule="evenodd" d="M16.8668 10.1265C17.0957 10.0518 17.3422 9.89789 17.5876 9.97143C17.4119 10.1482 17.2732 10.3768 17.1396 10.5906L16.408 10.5746C16.4884 10.3819 16.691 10.2228 16.8668 10.1265Z" fill="#FF6600"/>
<path fill-rule="evenodd" clip-rule="evenodd" d="M19.0088 9.95107C19.313 9.89805 19.2964 10.2926 19.5744 10.3074C19.6235 10.3712 19.6931 10.43 19.6657 10.5263C19.5048 10.5902 19.2702 10.5594 19.0887 10.601C18.8479 10.4676 19.0037 10.0514 18.6241 10.0782C18.603 10.0457 18.5608 9.98186 18.6133 9.96077C18.7309 9.91858 18.8867 9.93454 19.0088 9.95107Z" fill="#FF6600"/>
<path fill-rule="evenodd" clip-rule="evenodd" d="M18.8164 11.3796C18.95 11.1926 19.1532 11.1772 19.3455 11.1401L20.7289 11.1658C20.7877 11.22 20.6753 11.2678 20.6753 11.3317C20.5902 11.4121 20.467 11.4337 20.3922 11.5079C20.2107 11.513 20.2267 11.7268 20.0989 11.818C19.9008 12.0153 19.612 11.924 19.3826 11.8927C19.3027 11.8334 19.212 11.7536 19.1737 11.6629L19.1098 11.7268C19.1903 12.0261 19.1691 12.3568 19.2285 12.6606L19.5595 12.8796C19.5647 13.3698 20.1417 13.2364 20.3922 13.509C20.3334 13.6857 20.2159 13.8345 20.088 13.9839C19.8854 13.7866 19.6548 13.6589 19.41 13.5728C19.3883 13.286 19.0733 13.1144 18.8981 12.9708C18.849 12.4474 18.8387 11.9138 18.7537 11.4069L18.8164 11.3796Z" fill="#FF6600"/>
<path fill-rule="evenodd" clip-rule="evenodd" d="M19.3186 14.6721H19.9601L19.8797 15.0078L19.2376 14.7359C19.2228 14.6829 19.281 14.6669 19.3186 14.6721Z" fill="#FF6600"/>
<path fill-rule="evenodd" clip-rule="evenodd" d="M20.472 8.62776L20.9474 8.47839C21.2203 8.6061 21.4759 8.76573 21.727 8.9476C21.9245 9.31019 21.8931 9.80106 21.8018 10.2064C21.6574 10.366 21.3424 10.2064 21.2254 10.4624H21.2031C21.0273 9.96126 20.5251 9.51201 20.0605 9.28396C20.1353 9.02741 20.2158 8.77656 20.472 8.62776Z" fill="#FF6600"/>
</svg>
