<svg width="50" height="50" viewBox="0 0 50 50" fill="none" xmlns="http://www.w3.org/2000/svg">
<rect width="50" height="50" fill="white"/>
<rect x="6.25" y="6.25" width="37.5" height="37.5" fill="#20368B"/>
<path d="M33.3017 27.0836H38.3051V26.4373H32.9538V19.4622H30.8401V25.0638C30.8401 26.6527 31.6695 27.0836 33.3017 27.0836Z" fill="#FFD203"/>
<path d="M18.3181 27.0836H13.9568C12.2979 27.0836 11.4952 26.6527 11.4952 25.0638V19.4622H13.609V26.4373H17.7027C17.8365 26.6258 18.1576 26.949 18.3181 27.0836Z" fill="#FFD203"/>
<path d="M24.7931 19.3005C20.7261 19.3005 18.3716 20.9972 18.3716 23.4479C18.3716 25.7909 20.8332 27.2452 24.365 27.2452C25.5958 27.2452 26.8266 27.0567 27.6828 26.7874V25.9794C26.9871 26.3565 25.9436 26.6258 24.9269 26.6258C22.171 26.6258 20.6191 24.9291 20.6191 23.2863C20.6191 21.3204 22.3048 19.9469 24.9269 19.9469C25.8366 19.9469 26.8801 20.1623 27.6293 20.5394V19.6776C26.6928 19.4083 25.4888 19.3005 24.7931 19.3005Z" fill="#FFD203"/>
<path d="M24.1835 36.4366C15.6585 36.4366 8.76872 30.7267 8.76872 23.7095C8.76872 20.6411 10.0823 17.8396 12.2806 15.625C9.73382 17.8929 8.09851 21.0147 8.09851 24.3232C8.09851 31.714 14.9346 37.0769 23.4865 37.0769C28.8214 37.0769 33.7273 34.729 36.5154 31.3404C33.6737 34.4622 29.1967 36.4366 24.1835 36.4366Z" fill="white"/>
<path d="M18.7014 29.5826C18.9143 29.6104 19.0474 29.7219 19.0474 29.889C19.0474 30.0562 18.9409 30.1676 18.728 30.1955C18.6747 30.1955 18.5949 30.2234 18.515 30.2234H17.9027V29.0254H18.4085C18.5949 29.0254 18.7014 29.0533 18.7812 29.0811C18.8877 29.1368 18.9143 29.2204 18.9143 29.3318C18.9143 29.3876 18.8877 29.4711 18.8345 29.499C18.8078 29.5269 18.7546 29.5547 18.7014 29.5826ZM18.3819 29.5269C18.5949 29.5269 18.7014 29.4711 18.7014 29.3318C18.7014 29.2483 18.6747 29.2204 18.5949 29.1925C18.5416 29.1925 18.4884 29.1647 18.3819 29.1647H18.1157V29.5269H18.3819ZM18.1423 29.6383V30.0562H18.4884C18.7014 30.0562 18.8078 30.0005 18.8078 29.8612C18.8078 29.7219 18.7014 29.6383 18.4618 29.6383H18.1423Z" fill="white"/>
<path d="M20.1388 29.8612H19.4467L19.2603 30.2234H19.0474L19.6597 29.0254H19.9259L20.5382 30.2234H20.2986L20.1388 29.8612ZM20.059 29.7219L19.7928 29.1647L19.5265 29.7219H20.059Z" fill="white"/>
<path d="M21.6829 29.9169C21.6829 29.9169 21.7095 29.9448 21.7095 29.9726C21.7095 29.9726 21.7095 29.9726 21.7095 30.0005V29.0254H21.9225V30.2234H21.6296L20.9109 29.304C20.9109 29.304 20.8842 29.2761 20.8576 29.2483C20.8576 29.2483 20.8576 29.2483 20.8576 29.2761C20.8576 29.304 20.8576 29.2761 20.8576 29.304V30.2512H20.6447V29.0533H20.9375L21.6829 29.9169Z" fill="white"/>
<path d="M23.2536 30.0842L23.6529 30.0564V30.1957H22.8277C22.6147 30.1957 22.455 30.14 22.3218 30.0285C22.1887 29.9171 22.1355 29.7778 22.1355 29.5828C22.1355 29.3877 22.1887 29.2484 22.3218 29.137C22.455 29.0256 22.6147 28.9698 22.8277 28.9698C23.0406 28.9698 23.2004 29.0256 23.3335 29.137C23.4666 29.2484 23.5198 29.3877 23.5198 29.5828C23.5198 29.6942 23.4932 29.7778 23.4399 29.8614C23.4133 29.9728 23.3335 30.0285 23.2536 30.0842ZM22.3751 29.6106C22.3751 29.9449 22.5348 30.1121 22.8277 30.1121C22.9874 30.1121 23.0939 30.0564 23.1737 29.9728C23.2536 29.8892 23.2802 29.7778 23.2802 29.6106C23.2802 29.2763 23.1205 29.1091 22.8277 29.1091C22.5348 29.1091 22.3751 29.2763 22.3751 29.6106Z" fill="white"/>
<path d="M24.3984 30.2235C24.1854 30.2235 24.0257 30.1956 23.9459 30.1121C23.8394 30.0285 23.8127 29.917 23.8127 29.722V28.9977H24.0523V29.6942C24.0523 29.8335 24.079 29.9449 24.1322 30.0006C24.1854 30.0563 24.2919 30.1121 24.425 30.1121C24.5581 30.1121 24.6646 30.0842 24.7179 30.0006C24.7711 29.9449 24.7977 29.8335 24.7977 29.6942V28.9977H25.0373V29.722C25.0373 29.917 24.9841 30.0563 24.851 30.1121C24.7445 30.1956 24.5848 30.2235 24.3984 30.2235Z" fill="white"/>
<path d="M26.1819 30.0841V30.2234H25.2501V29.0254H26.1552V29.1647H25.4897V29.5269H26.102V29.6662H25.4631V30.0841H26.1819Z" fill="white"/>
<path d="M27.859 30.0841V30.2234H26.9272V29.0254H27.8324V29.1647H27.1668V29.5269H27.8058V29.6662H27.1668V30.0841H27.859Z" fill="white"/>
<path d="M29.0837 29.137H28.6311V30.1956H28.3915V29.137H27.939V28.9977H29.0837V29.137Z" fill="white"/>
<path d="M30.7342 29.8612H30.0686L29.8823 30.2234H29.6693L30.2816 29.0254H30.5478L31.1601 30.2234H30.9205L30.7342 29.8612ZM30.6809 29.7219L30.4147 29.1647L30.1485 29.7219H30.6809Z" fill="white"/>
<path d="M31.799 28.9977C31.9055 28.9977 32.012 28.9977 32.1451 29.0255C32.1717 29.0255 32.225 29.0534 32.2516 29.0534V29.1927C32.0919 29.137 31.9321 29.1091 31.8257 29.1091C31.6127 29.1091 31.5062 29.1648 31.5062 29.2484C31.5062 29.3041 31.5594 29.3599 31.6393 29.3877C31.6659 29.3877 31.7458 29.4434 31.9321 29.4992C32.0653 29.5549 32.1451 29.6106 32.225 29.6385C32.3048 29.6942 32.3581 29.7777 32.3581 29.8613C32.3581 30.0285 32.2516 30.1399 32.012 30.1956C31.9321 30.1956 31.8789 30.1956 31.799 30.1956C31.6659 30.1956 31.5328 30.1678 31.3731 30.1399C31.3199 30.1399 31.2932 30.1121 31.24 30.1121V29.9449C31.4263 30.0285 31.6127 30.0563 31.799 30.0563C31.9321 30.0563 32.0386 30.0285 32.0919 29.9728C32.1185 29.9449 32.1185 29.917 32.1185 29.8892C32.1185 29.8335 32.0653 29.7777 31.9854 29.722C31.9321 29.6942 31.8523 29.6663 31.6926 29.6106C31.5594 29.5549 31.4796 29.527 31.3997 29.4713C31.3199 29.4156 31.2666 29.332 31.2666 29.2484C31.2666 29.137 31.3465 29.0534 31.4796 28.9977C31.5594 28.9977 31.6659 28.9977 31.799 28.9977Z" fill="white"/>
<path d="M33.0235 28.9977C33.13 28.9977 33.2365 28.9977 33.3696 29.0255C33.3962 29.0255 33.4495 29.0534 33.4761 29.0534V29.1927C33.3164 29.137 33.1566 29.1091 33.0502 29.1091C32.8372 29.1091 32.7307 29.1648 32.7307 29.2484C32.7307 29.3041 32.7839 29.3599 32.8638 29.3877C32.8904 29.3877 32.9703 29.4434 33.1566 29.4992C33.2897 29.5549 33.3696 29.6106 33.4495 29.6385C33.5293 29.6942 33.5826 29.7777 33.5826 29.8613C33.5826 30.0285 33.4761 30.1399 33.2365 30.1956C33.1566 30.1956 33.1034 30.1956 33.0235 30.1956C32.8904 30.1956 32.7573 30.1678 32.5976 30.1399C32.5443 30.1399 32.5177 30.1121 32.4645 30.1121V29.9449C32.6508 30.0285 32.8372 30.0563 33.0235 30.0563C33.1566 30.0563 33.2631 30.0285 33.3164 29.9728C33.343 29.9449 33.343 29.917 33.343 29.8892C33.343 29.8335 33.2897 29.7777 33.2099 29.722C33.1566 29.6942 33.0768 29.6663 32.917 29.6106C32.7839 29.5549 32.7041 29.527 32.6242 29.4713C32.5443 29.4156 32.4911 29.332 32.4911 29.2484C32.4911 29.137 32.571 29.0534 32.7041 28.9977C32.7839 28.9977 32.8904 28.9977 33.0235 28.9977Z" fill="white"/>
<path d="M34.3281 30.2235C34.1151 30.2235 33.9554 30.1956 33.8755 30.1121C33.7691 30.0285 33.7424 29.917 33.7424 29.722V28.9977H33.982V29.6942C33.982 29.8335 34.0086 29.9449 34.0619 30.0006C34.1151 30.0563 34.2216 30.1121 34.3547 30.1121C34.4878 30.1121 34.5943 30.0842 34.6476 30.0006C34.7008 29.9449 34.7274 29.8335 34.7274 29.6942V28.9977H34.967V29.722C34.967 29.917 34.9138 30.0563 34.7807 30.1121C34.6742 30.1956 34.5411 30.2235 34.3281 30.2235Z" fill="white"/>
<path d="M35.9786 29.6384C36.0584 29.6384 36.1117 29.6663 36.1383 29.722C36.1649 29.7777 36.2182 29.8056 36.2448 29.8891L36.3513 30.2235H36.1117L36.0052 29.9449C35.9786 29.8613 35.9253 29.7777 35.8721 29.7498C35.8189 29.6941 35.739 29.6941 35.6591 29.6941H35.4195V30.2513H35.1799V29.0533H35.7656C35.9253 29.0533 36.0584 29.0812 36.1383 29.1091C36.2448 29.1648 36.2714 29.2484 36.2714 29.3598C36.2714 29.4434 36.2448 29.527 36.1649 29.5827C36.1383 29.5827 36.0584 29.6384 35.9786 29.6384ZM35.739 29.527C35.952 29.527 36.0584 29.4712 36.0584 29.3319C36.0584 29.2762 36.0318 29.2205 35.9786 29.1926C35.9253 29.1648 35.8455 29.1648 35.739 29.1648H35.4195V29.5548H35.739V29.527Z" fill="white"/>
<path d="M37.4428 29.8612H36.7772L36.5909 30.2234H36.3779L36.9902 29.0254H37.2564L37.8687 30.2234H37.6291L37.4428 29.8612ZM37.3895 29.7219L37.1233 29.1647L36.8571 29.7219H37.3895Z" fill="white"/>
<path d="M38.9868 29.9169C38.9868 29.9169 39.0135 29.9448 39.0135 29.9726C39.0135 29.9726 39.0135 29.9726 39.0135 30.0005V29.0254H39.2264V30.2234H38.9336L38.2148 29.304C38.2148 29.304 38.1882 29.2761 38.1616 29.2483C38.1616 29.2483 38.1616 29.2483 38.1616 29.2761C38.1616 29.304 38.1616 29.2761 38.1616 29.304V30.2512H37.9486V29.0533H38.2414L38.9868 29.9169Z" fill="white"/>
<path d="M40.6107 29.1927C40.5308 29.137 40.3977 29.1091 40.238 29.1091C40.0516 29.1091 39.9185 29.1649 39.8387 29.2484C39.7588 29.332 39.7056 29.4713 39.7056 29.6106C39.7056 29.7499 39.7588 29.8892 39.8387 29.9728C39.9451 30.0564 40.0516 30.1121 40.2114 30.1121C40.3179 30.1121 40.4243 30.0842 40.5308 30.0564C40.5574 30.0564 40.5841 30.0285 40.6107 30.0285V30.1678C40.4776 30.2235 40.3179 30.2514 40.1581 30.2514C39.9451 30.2514 39.7588 30.1957 39.6257 30.0842C39.4926 29.9728 39.4127 29.8335 39.4127 29.6385C39.4127 29.4992 39.466 29.3599 39.5458 29.2484C39.6257 29.137 39.7322 29.0813 39.8653 29.0256C39.9718 28.9977 40.0783 28.9698 40.1847 28.9698C40.3445 28.9698 40.4776 28.9977 40.5841 29.0256V29.1927H40.6107Z" fill="white"/>
<path d="M41.7553 30.0841V30.2234H40.8236V29.0254H41.7287V29.1647H41.0632V29.5269H41.7021V29.6662H41.0632V30.0841H41.7553Z" fill="white"/>
</svg>
