<svg width="50" height="50" viewBox="0 0 50 50" fill="none" xmlns="http://www.w3.org/2000/svg">
<rect width="50" height="50" fill="white"/>
<path d="M43.7497 8.72188V41.2777C37.7711 42.8898 31.4868 43.75 24.9991 43.75C18.5129 43.75 12.227 42.8897 6.25 41.2775V8.72202C12.2272 7.1099 18.5129 6.25 24.9994 6.25C31.4869 6.25 37.7713 7.1099 43.75 8.72188H43.7497Z" fill="#0A2D82"/>
<path d="M25.2834 23.2408C27.3312 23.2408 28.9913 21.5808 28.9913 19.533C28.9913 17.4851 27.3312 15.8251 25.2834 15.8251C23.2356 15.8251 21.5756 17.4851 21.5756 19.533C21.5756 21.5808 23.2356 23.2408 25.2834 23.2408Z" fill="#CBE300"/>
<path d="M33.5549 19.5329H31.2828C31.0844 19.5646 30.9197 19.7136 30.8754 19.9052C30.6839 22.824 28.2568 25.1332 25.2894 25.1332C22.1965 25.1332 19.6894 22.6259 19.6894 19.5332C19.6894 16.6026 21.9408 14.199 24.8082 13.9549V13.9536C25.0733 13.9536 25.2881 13.7217 25.2881 13.4563V11.3508C25.2881 11.086 25.0735 10.8713 24.8081 10.8713V10.8663C20.2378 11.1161 16.6096 14.9011 16.6096 19.5329C16.6096 24.3268 20.4952 28.2128 25.2891 28.2128C29.9278 28.2128 33.7159 24.573 33.9559 19.9939C33.9498 19.7609 33.7778 19.5697 33.5546 19.5329H33.5549Z" fill="#CBE300"/>
<path d="M15.8686 35.7543C15.8686 35.3983 15.8686 34.9616 15.88 34.5712H15.8686C15.6849 34.7893 15.4782 35.0077 15.1797 35.2835L14.2841 36.1556H14.2037L13.32 35.2835C13.0326 35.0077 12.8148 34.7893 12.6425 34.5712H12.6193C12.6308 34.9616 12.6423 35.3983 12.6423 35.7543V37.97H11.0575V31.2189H11.2647L13.021 32.8033C13.2967 33.056 13.8822 33.6182 14.2955 34.0778H14.3185C14.7091 33.6524 15.3292 33.0559 15.6045 32.803L17.304 31.2186H17.5105V37.9699H15.8684V35.7541L15.8686 35.7543ZM22.8609 37.0857H20.1054L19.6807 37.97H17.9122L21.3452 31.2189H21.6901L25.1229 37.97H23.2972L22.861 37.0857H22.8609ZM20.7254 35.7992H22.2524L22.172 35.6395C21.9768 35.2259 21.7358 34.7085 21.4945 34.0548H21.4832C21.2419 34.7087 21.0011 35.2259 20.8056 35.6395L20.7252 35.7993L20.7254 35.7992ZM30.8411 37.304C30.2204 37.8438 29.4746 38.1652 28.544 38.1652C26.4776 38.1652 25.1225 36.6496 25.1225 34.6859C25.1225 32.5963 26.581 31.2188 28.4645 31.2188C29.4632 31.2188 30.2204 31.5633 30.8176 32.0795L29.9101 33.2399C29.5662 32.918 29.1185 32.6998 28.5556 32.6998C27.4768 32.6998 26.8224 33.5493 26.8224 34.6857C26.8224 35.8568 27.4765 36.6839 28.59 36.6839C29.1301 36.6839 29.5896 36.5002 29.9448 36.1554L30.8412 37.3041L30.8411 37.304ZM31.6445 31.4138H33.2864V37.9699H31.6445V31.4139V31.4138ZM36.3047 32.8951V34.4339H38.808V35.8224H36.3047V37.9696H34.6636V31.4137H39.5086L39.1867 32.8951H36.3047Z" fill="white"/>
</svg>
