<svg width="50" height="50" viewBox="0 0 50 50" fill="none" xmlns="http://www.w3.org/2000/svg">
<rect width="50" height="50" fill="white"/>
<path d="M16.6097 21.8973H15.0562V28.0692H16.6097V21.8973Z" fill="#3B3836"/>
<path d="M21.2386 19.4667H19.6533V30.4999H21.2386V19.4667Z" fill="#3B3836"/>
<path d="M25.8887 17.0359H24.2823V32.9305H25.8887V17.0359Z" fill="#3B3836"/>
<path d="M30.5282 25.5751H33.2549V24.3069H30.5282V23.2501H33.5085V21.8973H28.9958V28.0692H33.5719V26.7165H30.5282V25.5751Z" fill="#3B3836"/>
<path d="M38.1479 21.8973H36.5944V28.0692H38.1479V21.8973Z" fill="#3B3836"/>
<path d="M43.7279 24.254C43.1467 24.0532 42.6394 23.8841 42.6394 23.5671C42.6394 23.4719 42.6605 23.1232 43.4848 23.1126C44.0978 23.1021 44.7636 23.3663 45.2075 23.6622L45.7781 22.4891C45.1546 22.0558 44.3092 21.7599 43.3686 21.7599C42.7345 21.7599 42.1744 21.9078 41.7622 22.2038C41.2972 22.5314 41.0541 23.0069 41.0541 23.5882C41.0541 24.9092 42.2166 25.2791 43.1467 25.5962C43.7596 25.8075 44.288 25.9872 44.288 26.3465C44.288 26.4628 44.2457 26.7904 43.3474 26.7904C42.7028 26.7904 41.9524 26.5579 41.4346 26.2725L40.8428 27.509C41.498 27.9212 42.502 28.1959 43.4214 28.1959C45.0595 28.1959 45.8733 27.4667 45.8733 26.3148C45.8733 25.0255 44.753 24.6027 43.7279 24.254Z" fill="#3B3836"/>
<path d="M8.282 23.8947L6.06267 21.8973H4.53027V28.0692H6.09437V23.8525L8.282 25.8287L10.4696 23.8525V28.0692H12.0232V21.8973H10.4908L8.282 23.8947Z" fill="#3B3836"/>
<path d="M30.8452 32.244C30.8452 32.6562 30.5176 32.9309 30.042 32.9309H29.2072V30.5002H29.9575C30.4331 30.5002 30.7501 30.7539 30.7501 31.166C30.7501 31.3774 30.6339 31.5676 30.4436 31.6522C30.6867 31.7473 30.8452 31.9798 30.8452 32.244ZM30.1689 31.5571C30.3168 31.5148 30.4225 31.3774 30.4225 31.1872C30.4225 30.9335 30.2534 30.7644 29.9786 30.7644H29.5242V31.5571H30.1689ZM29.5242 32.6667H30.0526C30.338 32.6667 30.5176 32.4871 30.5176 32.2334C30.5176 31.9692 30.3591 31.8107 30.116 31.8107H29.5242V32.6667V32.6667Z" fill="#C29366"/>
<path d="M32.7793 30.4575L33.9101 32.9305H33.5613L33.3183 32.3915H32.2297L31.9972 32.9305H31.6591L32.7793 30.4575ZM33.202 32.1273C33.0329 31.7574 32.9167 31.4615 32.7793 31.1233C32.6419 31.4721 32.5151 31.7574 32.3566 32.1273H33.202Z" fill="#C29366"/>
<path d="M36.7633 32.9728L35.1781 31.2501V32.9305H34.8505V30.4575L36.4357 32.1801V30.4998H36.7633V32.9728Z" fill="#C29366"/>
<path d="M43.2629 32.085C43.2629 32.6452 42.9142 32.9728 42.3223 32.9728C41.7411 32.9728 41.3923 32.6346 41.3923 32.085V30.5104H41.7199V32.0639C41.7199 32.4444 41.9524 32.6769 42.3329 32.6769C42.7134 32.6769 42.9459 32.4444 42.9459 32.0639V30.5104H43.2735V32.085H43.2629Z" fill="#C29366"/>
<path d="M44.4675 32.9304V30.4998H45.9576V30.7745H44.7846V31.5671H45.7674V31.8419H44.7846V32.6662H45.9999V32.941H44.4675V32.9304Z" fill="#C29366"/>
<path d="M40.3143 31.7151C40.3143 31.0071 39.7647 30.4575 39.0672 30.4575C38.3592 30.4575 37.8202 31.0071 37.8202 31.7151C37.8202 32.4232 38.3592 32.9728 39.0672 32.9728C39.3209 32.9728 39.5639 32.8988 39.7542 32.772L40.0712 33.089L40.2826 32.8671L39.9867 32.5817C40.1875 32.3492 40.3143 32.0533 40.3143 31.7151ZM39.0672 32.6768C38.5388 32.6768 38.1478 32.2753 38.1478 31.7257C38.1478 31.1762 38.5388 30.7746 39.0672 30.7746C39.5957 30.7746 39.9867 31.1762 39.9867 31.7257C39.9867 31.9688 39.9021 32.1907 39.7753 32.3598L39.3737 31.9688L39.1624 32.1907L39.5428 32.5606C39.3949 32.624 39.2363 32.6768 39.0672 32.6768Z" fill="#C29366"/>
</svg>
