<svg width="50" height="50" viewBox="0 0 50 50" fill="none" xmlns="http://www.w3.org/2000/svg">
<rect width="50" height="50" fill="white"/>
<rect x="6.25" y="6.25" width="37.5" height="37.5" fill="#45342D"/>
<path d="M9.79163 16.0088H11.4695V16.8868H11.489C11.9573 16.2235 12.6402 15.8333 13.4791 15.8333C14.2986 15.8333 15.0205 16.1454 15.3716 16.9063C15.7424 16.3405 16.4252 15.8333 17.3227 15.8333C18.708 15.8333 19.703 16.4771 19.703 18.155V22.5059H17.9275V18.8379C17.9275 17.9599 17.8495 17.2575 16.8349 17.2575C15.8204 17.2575 15.6448 18.077 15.6448 18.8964V22.5059H13.8693V18.8574C13.8693 18.0965 13.9279 17.238 12.7963 17.238C12.4451 17.238 11.5866 17.4526 11.5866 18.7208V22.4864H9.83065V15.9893H9.79163V16.0088Z" fill="#BAD606"/>
<path d="M23.5465 15.8333C25.5951 15.8333 26.9218 17.1795 26.9218 19.2476C26.9218 21.2962 25.5951 22.662 23.5465 22.662C21.5174 22.662 20.1907 21.3157 20.1907 19.2476C20.2102 17.199 21.5174 15.8333 23.5465 15.8333ZM23.5465 21.3352C24.7561 21.3352 25.1268 20.3012 25.1268 19.2671C25.1268 18.2331 24.7757 17.1795 23.5465 17.1795C22.3368 17.1795 21.9661 18.2135 21.9661 19.2671C21.9856 20.2817 22.3563 21.3352 23.5465 21.3352Z" fill="#BAD606"/>
<path d="M27.3511 16.0088H29.0485V16.9063H29.0875C29.5363 16.1844 30.3167 15.8333 31.0776 15.8333C32.9701 15.8333 33.4579 16.8868 33.4579 18.5062V22.4864H31.6824V18.8184C31.6824 17.7648 31.3703 17.2185 30.5313 17.2185C29.5753 17.2185 29.146 17.7648 29.146 19.072V22.4668H27.3706L27.3511 16.0088Z" fill="#BAD606"/>
<path d="M34.2581 17.9989C34.3556 16.321 35.8579 15.8333 37.3017 15.8333C38.5894 15.8333 40.1503 16.1259 40.1503 17.6868V21.0621C40.1503 21.6474 40.2283 22.2327 40.3649 22.5059H38.5504C38.4724 22.2913 38.4333 22.0962 38.4333 21.8815C37.8675 22.4669 37.0481 22.6815 36.2482 22.6815C35.019 22.6815 34.0435 22.0571 34.0435 20.7304C34.0435 19.2671 35.1556 18.9159 36.2482 18.7598C37.3407 18.6038 38.3553 18.6428 38.3553 17.9014C38.3553 17.1405 37.8285 17.0234 37.2042 17.0234C36.5213 17.0234 36.0921 17.2965 36.014 17.9989H34.2581ZM38.3748 19.3256C38.0626 19.5793 37.4578 19.5988 36.892 19.6964C36.3457 19.8134 35.8384 20.0085 35.8384 20.6524C35.8384 21.3157 36.3457 21.4718 36.931 21.4718C38.3163 21.4718 38.3748 20.3597 38.3748 19.989V19.3256Z" fill="#BAD606"/>
<path d="M11.8771 22.8278H13.6525V26.086H13.672C14.1208 25.4227 14.9207 25.13 15.7206 25.13C17.0083 25.13 18.4131 26.1641 18.4131 28.5444C18.4131 30.9246 17.0278 31.9587 15.7206 31.9587C14.7646 31.9587 13.9842 31.6661 13.5745 30.9442H13.555V31.7636H11.8575L11.8771 22.8278ZM15.1158 26.4762C14.0622 26.4762 13.594 27.4713 13.594 28.5639C13.594 29.6369 14.0622 30.632 15.1158 30.632C16.1694 30.632 16.6376 29.6369 16.6376 28.5639C16.6376 27.4713 16.1694 26.4762 15.1158 26.4762Z" fill="white"/>
<path d="M18.9987 27.2957C19.0962 25.6178 20.5985 25.13 22.0423 25.13C23.33 25.13 24.8909 25.4227 24.8909 26.9835V30.3588C24.8909 30.9442 24.9689 31.5295 25.1055 31.8026H23.291C23.213 31.588 23.1739 31.3929 23.1739 31.1783C22.6081 31.7636 21.7887 31.9782 20.9888 31.9782C19.7596 31.9782 18.7841 31.3539 18.7841 30.0272C18.7841 28.5639 19.8962 28.2127 20.9888 28.0566C22.0813 27.9005 23.0959 27.9395 23.0959 27.1981C23.0959 26.4372 22.5691 26.3202 21.9448 26.3202C21.2619 26.3202 20.8327 26.5933 20.7546 27.2957H18.9987ZM23.1154 28.6224C22.8032 28.876 22.1984 28.8956 21.6326 28.9931C21.0863 29.1102 20.579 29.3053 20.579 29.9491C20.579 30.6125 21.0863 30.7686 21.6716 30.7686C23.0569 30.7686 23.1154 29.6565 23.1154 29.2858V28.6224Z" fill="white"/>
<path d="M25.6516 25.3056H27.349V26.2031H27.3881C27.8368 25.4812 28.6172 25.13 29.3781 25.13C31.2707 25.13 31.7584 26.1836 31.7584 27.803V31.7831H29.983V28.1151C29.983 27.0616 29.6708 26.5153 28.8318 26.5153C27.8758 26.5153 27.4466 27.0616 27.4466 28.3688V31.7636H25.6711L25.6516 25.3056Z" fill="white"/>
<path d="M38.8604 34.0853H37.085V30.9831H37.0655C36.6558 31.6855 35.7973 31.9781 35.0169 31.9781C33.8267 31.9781 32.2659 31.1001 32.2659 28.6028C32.2659 26.8273 33.2024 25.1494 35.1729 25.1494C35.9729 25.1494 36.7533 25.4421 37.1435 26.164H37.163V25.3445H38.8604V34.0853ZM35.6022 30.6319C36.7533 30.6319 37.163 29.6564 37.163 28.5833C37.163 27.5687 36.7533 26.4761 35.6412 26.4761C34.4901 26.4761 34.0608 27.5102 34.0608 28.5638C34.0608 29.5978 34.4315 30.6319 35.6022 30.6319Z" fill="white"/>
</svg>
