<svg width="60" height="60" viewBox="0 0 60 60" fill="none" xmlns="http://www.w3.org/2000/svg">
<rect x="2" y="10" width="56" height="39" rx="4" fill="#C4C4C4"/>
<path d="M19 10H54C56.2091 10 58 11.7909 58 14V45C58 47.2091 56.2091 49 54 49H19V10Z" fill="url(#paint0_linear)"/>
<path fill-rule="evenodd" clip-rule="evenodd" d="M45.3094 33.5987C45.3224 32.8372 45.2829 31.971 45.1846 31L44.8274 31.0351L44.8521 31.2901C44.9381 32.2152 44.9705 33.0295 44.956 33.7368L44.9538 33.79L44.7815 33.803C43.9259 33.8677 43.1338 33.9514 42.285 34.0629C41.2678 34.1966 40.8439 34.8452 41.0513 35.6998C41.2279 36.4272 41.8443 37.1831 42.5474 37.5248L42.6448 37.5699C44.0968 38.2065 45.1181 37.0797 45.2871 34.1984L45.2913 34.1215L45.8962 34.0853C46.7754 34.0375 47.757 34.0035 48.9444 33.9759L52.7815 33.9069C53.5188 33.8931 54.094 33.8795 54.63 33.8623L55.7403 33.8197L55.7241 33.4666L55.0913 33.4926C54.726 33.5064 54.3594 33.5178 53.9494 33.5282L50.5008 33.5914C48.6935 33.6226 47.314 33.6595 46.1276 33.7193L45.3049 33.766L45.3094 33.5987ZM44.8126 34.1552L44.9409 34.1455L44.9337 34.2916C44.775 36.8878 43.8933 37.785 42.7062 37.208C42.0985 36.9125 41.552 36.2425 41.4004 35.6177C41.2412 34.9621 41.5312 34.5185 42.3325 34.4132C43.1749 34.3025 43.9618 34.2194 44.8126 34.1552Z" fill="#3D3D3D"/>
<path d="M47.6864 31.2008C48.0574 31.0838 48.2934 31.2383 48.3224 31.5826L48.3272 31.6722C48.3289 31.7764 48.3168 31.8864 48.2821 32.0797L48.144 32.7922C48.0507 33.3139 48.0543 33.6422 48.1761 33.8272C48.2421 33.9276 48.5538 34.0376 48.88 34.0621C49.0338 34.0737 49.1465 34.0645 49.2165 34.0551L49.2326 34.0523L49.2334 34.0175C49.2452 33.6812 49.3356 33.2807 49.4737 32.8818L49.5465 32.6827C49.6168 32.5007 49.6914 32.3353 49.7543 32.2194C49.7871 32.1592 49.816 32.1133 49.843 32.0813C49.8725 32.0464 49.9006 32.0223 49.9485 32.0074C50.0532 31.975 50.1399 32.0294 50.1755 32.1083L50.1889 32.1496L50.1855 32.2339L49.6598 34.0212L49.6623 34.0363C49.6658 34.098 49.6542 34.1515 49.6297 34.1975L49.598 34.2431C49.6722 34.8863 50.246 34.9123 51.6601 34.0278L51.8094 33.9331C52.0969 33.748 52.1728 33.4513 52.1142 32.9124L52.0915 32.7347L52.0355 32.3695L52.031 32.3785C51.9675 32.508 51.939 32.6238 51.9412 32.6637L51.9449 32.6771L51.6833 32.9191C51.5145 32.7423 51.5787 32.4458 51.7525 32.1403C51.8191 32.0232 51.8952 31.9228 51.9655 31.8643C52.1187 31.7368 52.3376 31.779 52.3546 32.0124L52.3676 32.1487L52.4541 32.7366C52.5558 33.4805 52.4677 33.9316 52.0058 34.2288C50.3808 35.2746 49.4603 35.2765 49.2693 34.4595L49.2577 34.4021L49.1982 34.4115C49.12 34.4203 49.0347 34.4228 48.9445 34.4196L48.8527 34.4145C48.424 34.3822 48.0197 34.2395 47.8748 34.0194C47.7017 33.7564 47.6837 33.4039 47.7656 32.8785L47.8153 32.5976L47.9236 32.0446C47.9606 31.841 47.9712 31.7392 47.9669 31.6464L47.9647 31.6118C47.9548 31.4944 47.9473 31.4895 47.7959 31.5373C47.2423 31.7119 47.0769 32.0776 46.9696 33.0987L46.9256 33.5402C46.8839 33.9262 46.8429 34.1487 46.7643 34.3714L46.7366 34.4459L46.4014 34.3195C46.4836 34.1081 46.5248 33.9034 46.5674 33.5136L46.5965 33.2242C46.7169 31.9443 46.9109 31.4454 47.6864 31.2008Z" fill="#3D3D3D"/>
<path fill-rule="evenodd" clip-rule="evenodd" d="M21.4565 14.2128C21.0976 14.6409 20.5589 14.913 19.9565 14.913C18.876 14.913 18 14.0371 18 12.9565C18 11.876 18.876 11 19.9565 11C20.5589 11 21.0976 11.2722 21.4565 11.7003C21.8154 11.2722 22.3542 11 22.9565 11C23.5965 11 24.1647 11.3073 24.5217 11.7824C24.8787 11.3073 25.4469 11 26.0869 11C27.1674 11 28.0434 11.876 28.0434 12.9565C28.0434 14.0371 27.1674 14.913 26.0869 14.913C25.4469 14.913 24.8787 14.6058 24.5217 14.1307C24.1647 14.6058 23.5965 14.913 22.9565 14.913C22.3542 14.913 21.8154 14.6409 21.4565 14.2128ZM37.5434 14.2629C37.1852 14.662 36.6654 14.913 36.0869 14.913C35.4469 14.913 34.8787 14.6058 34.5217 14.1307C34.1647 14.6058 33.5965 14.913 32.9565 14.913C31.876 14.913 31 14.0371 31 12.9565C31 11.876 31.876 11 32.9565 11C33.5965 11 34.1647 11.3073 34.5217 11.7824C34.8787 11.3073 35.4469 11 36.0869 11C36.6654 11 37.1852 11.2511 37.5434 11.6502C37.9016 11.2511 38.4215 11 39 11C40.0805 11 40.9565 11.876 40.9565 12.9565C40.9565 14.0371 40.0805 14.913 39 14.913C38.4215 14.913 37.9016 14.662 37.5434 14.2629Z" fill="url(#paint1_linear)"/>
<path d="M40 10H54C56.2091 10 58 11.7909 58 14V15H40V10Z" fill="#FBF8F2"/>
<path d="M43.0098 12.3936C43.0098 12.6051 42.9736 12.7624 42.9014 12.8652C42.8291 12.9681 42.7161 13.0195 42.5625 13.0195C42.4108 13.0195 42.2985 12.9694 42.2256 12.8691C42.1527 12.7682 42.1149 12.6178 42.1123 12.418V12.1768C42.1123 11.9678 42.1484 11.8125 42.2207 11.7109C42.293 11.6094 42.4062 11.5586 42.5605 11.5586C42.7135 11.5586 42.8262 11.6077 42.8984 11.7061C42.9707 11.8037 43.0078 11.9548 43.0098 12.1592V12.3936ZM42.8291 12.1465C42.8291 11.9935 42.8076 11.8822 42.7646 11.8125C42.7217 11.7422 42.6536 11.707 42.5605 11.707C42.4681 11.707 42.4007 11.7419 42.3584 11.8115C42.3161 11.8812 42.2943 11.9883 42.293 12.1328V12.4219C42.293 12.5755 42.3151 12.6891 42.3594 12.7627C42.4043 12.8356 42.472 12.8721 42.5625 12.8721C42.6517 12.8721 42.7178 12.8376 42.7607 12.7686C42.8044 12.6995 42.8271 12.5908 42.8291 12.4424V12.1465Z" fill="black"/>
<path d="M43.7776 12.2871L43.8498 11.5781H44.5784V11.7451H44.0032L43.9602 12.1328C44.0299 12.0918 44.109 12.0713 44.1975 12.0713C44.3271 12.0713 44.4299 12.1143 44.5061 12.2002C44.5823 12.2855 44.6204 12.401 44.6204 12.5469C44.6204 12.6934 44.5806 12.8089 44.5012 12.8936C44.4224 12.9775 44.3121 13.0195 44.1702 13.0195C44.0445 13.0195 43.942 12.9847 43.8625 12.915C43.7831 12.8454 43.7379 12.749 43.7268 12.626H43.8977C43.9088 12.7074 43.9377 12.7689 43.9846 12.8105C44.0315 12.8516 44.0933 12.8721 44.1702 12.8721C44.2541 12.8721 44.3199 12.8434 44.3674 12.7861C44.4156 12.7288 44.4397 12.6497 44.4397 12.5488C44.4397 12.4538 44.4137 12.3776 44.3616 12.3203C44.3101 12.2624 44.2415 12.2334 44.1555 12.2334C44.0767 12.2334 44.0149 12.2507 43.97 12.2852L43.9221 12.3242L43.7776 12.2871Z" fill="black"/>
<path d="M46.2026 13H45.271V12.8701L45.7632 12.3232C45.8361 12.2406 45.8862 12.1735 45.9136 12.1221C45.9416 12.07 45.9556 12.0163 45.9556 11.9609C45.9556 11.8867 45.9331 11.8258 45.8882 11.7783C45.8433 11.7308 45.7834 11.707 45.7085 11.707C45.6186 11.707 45.5487 11.7327 45.4985 11.7842C45.449 11.835 45.4243 11.9059 45.4243 11.9971H45.2436C45.2436 11.8662 45.2856 11.7604 45.3696 11.6797C45.4543 11.599 45.5672 11.5586 45.7085 11.5586C45.8406 11.5586 45.9451 11.5934 46.022 11.6631C46.0988 11.7321 46.1372 11.8242 46.1372 11.9395C46.1372 12.0794 46.048 12.2461 45.8696 12.4395L45.4888 12.8525H46.2026V13Z" fill="black"/>
<path d="M47.6101 12.5225H47.8074V12.6699H47.6101V13H47.4285V12.6699H46.781V12.5635L47.4177 11.5781H47.6101V12.5225ZM46.9861 12.5225H47.4285V11.8252L47.407 11.8643L46.9861 12.5225Z" fill="black"/>
<path d="M49.2861 11.9492C49.2861 12.0202 49.2672 12.0833 49.2295 12.1387C49.1924 12.194 49.1419 12.2373 49.0781 12.2686C49.1523 12.3005 49.2109 12.347 49.2539 12.4082C49.2975 12.4694 49.3193 12.5387 49.3193 12.6162C49.3193 12.7393 49.2777 12.8372 49.1943 12.9102C49.1116 12.9831 49.0026 13.0195 48.8672 13.0195C48.7305 13.0195 48.6208 12.9831 48.5381 12.9102C48.456 12.8366 48.415 12.7386 48.415 12.6162C48.415 12.5394 48.4359 12.4701 48.4775 12.4082C48.5198 12.3464 48.5781 12.2995 48.6523 12.2676C48.5892 12.2363 48.5394 12.193 48.5029 12.1377C48.4665 12.0824 48.4482 12.0195 48.4482 11.9492C48.4482 11.8294 48.4866 11.7344 48.5635 11.6641C48.6403 11.5938 48.7415 11.5586 48.8672 11.5586C48.9922 11.5586 49.0931 11.5938 49.1699 11.6641C49.2474 11.7344 49.2861 11.8294 49.2861 11.9492ZM49.1387 12.6123C49.1387 12.5329 49.1133 12.4681 49.0625 12.418C49.0124 12.3678 48.9466 12.3428 48.8652 12.3428C48.7838 12.3428 48.7184 12.3675 48.6689 12.417C48.6201 12.4665 48.5957 12.5316 48.5957 12.6123C48.5957 12.693 48.6194 12.7565 48.667 12.8027C48.7152 12.849 48.7819 12.8721 48.8672 12.8721C48.9518 12.8721 49.0182 12.849 49.0664 12.8027C49.1146 12.7559 49.1387 12.6924 49.1387 12.6123ZM48.8672 11.707C48.7962 11.707 48.7386 11.7292 48.6943 11.7734C48.6507 11.8171 48.6289 11.8766 48.6289 11.9521C48.6289 12.0244 48.6504 12.083 48.6933 12.1279C48.737 12.1722 48.7949 12.1943 48.8672 12.1943C48.9394 12.1943 48.9971 12.1722 49.04 12.1279C49.0836 12.083 49.1055 12.0244 49.1055 11.9521C49.1055 11.8799 49.083 11.821 49.0381 11.7754C48.9931 11.7298 48.9362 11.707 48.8672 11.707Z" fill="black"/>
<path d="M50.8625 11.9492C50.8625 12.0202 50.8436 12.0833 50.8059 12.1387C50.7688 12.194 50.7183 12.2373 50.6545 12.2686C50.7287 12.3005 50.7873 12.347 50.8303 12.4082C50.8739 12.4694 50.8957 12.5387 50.8957 12.6162C50.8957 12.7393 50.8541 12.8372 50.7707 12.9102C50.688 12.9831 50.579 13.0195 50.4436 13.0195C50.3069 13.0195 50.1972 12.9831 50.1145 12.9102C50.0324 12.8366 49.9914 12.7386 49.9914 12.6162C49.9914 12.5394 50.0123 12.4701 50.0539 12.4082C50.0963 12.3464 50.1545 12.2995 50.2287 12.2676C50.1656 12.2363 50.1158 12.193 50.0793 12.1377C50.0429 12.0824 50.0246 12.0195 50.0246 11.9492C50.0246 11.8294 50.063 11.7344 50.1399 11.6641C50.2167 11.5938 50.3179 11.5586 50.4436 11.5586C50.5686 11.5586 50.6695 11.5938 50.7463 11.6641C50.8238 11.7344 50.8625 11.8294 50.8625 11.9492ZM50.7151 12.6123C50.7151 12.5329 50.6897 12.4681 50.6389 12.418C50.5888 12.3678 50.523 12.3428 50.4416 12.3428C50.3602 12.3428 50.2948 12.3675 50.2453 12.417C50.1965 12.4665 50.1721 12.5316 50.1721 12.6123C50.1721 12.693 50.1959 12.7565 50.2434 12.8027C50.2916 12.849 50.3583 12.8721 50.4436 12.8721C50.5282 12.8721 50.5946 12.849 50.6428 12.8027C50.691 12.7559 50.7151 12.6924 50.7151 12.6123ZM50.4436 11.707C50.3726 11.707 50.315 11.7292 50.2707 11.7734C50.2271 11.8171 50.2053 11.8766 50.2053 11.9521C50.2053 12.0244 50.2268 12.083 50.2698 12.1279C50.3134 12.1722 50.3713 12.1943 50.4436 12.1943C50.5158 12.1943 50.5735 12.1722 50.6164 12.1279C50.6601 12.083 50.6819 12.0244 50.6819 11.9521C50.6819 11.8799 50.6594 11.821 50.6145 11.7754C50.5696 11.7298 50.5126 11.707 50.4436 11.707Z" fill="black"/>
<path d="M52.4389 11.9492C52.4389 12.0202 52.4201 12.0833 52.3823 12.1387C52.3452 12.194 52.2947 12.2373 52.2309 12.2686C52.3052 12.3005 52.3637 12.347 52.4067 12.4082C52.4503 12.4694 52.4721 12.5387 52.4721 12.6162C52.4721 12.7393 52.4305 12.8372 52.3471 12.9102C52.2645 12.9831 52.1554 13.0195 52.02 13.0195C51.8833 13.0195 51.7736 12.9831 51.6909 12.9102C51.6089 12.8366 51.5678 12.7386 51.5678 12.6162C51.5678 12.5394 51.5887 12.4701 51.6303 12.4082C51.6727 12.3464 51.7309 12.2995 51.8052 12.2676C51.742 12.2363 51.6922 12.193 51.6557 12.1377C51.6193 12.0824 51.601 12.0195 51.601 11.9492C51.601 11.8294 51.6395 11.7344 51.7163 11.6641C51.7931 11.5938 51.8943 11.5586 52.02 11.5586C52.145 11.5586 52.2459 11.5938 52.3227 11.6641C52.4002 11.7344 52.4389 11.8294 52.4389 11.9492ZM52.2915 12.6123C52.2915 12.5329 52.2661 12.4681 52.2153 12.418C52.1652 12.3678 52.0994 12.3428 52.018 12.3428C51.9367 12.3428 51.8712 12.3675 51.8218 12.417C51.7729 12.4665 51.7485 12.5316 51.7485 12.6123C51.7485 12.693 51.7723 12.7565 51.8198 12.8027C51.868 12.849 51.9347 12.8721 52.02 12.8721C52.1046 12.8721 52.171 12.849 52.2192 12.8027C52.2674 12.7559 52.2915 12.6924 52.2915 12.6123ZM52.02 11.707C51.949 11.707 51.8914 11.7292 51.8471 11.7734C51.8035 11.8171 51.7817 11.8766 51.7817 11.9521C51.7817 12.0244 51.8032 12.083 51.8462 12.1279C51.8898 12.1722 51.9477 12.1943 52.02 12.1943C52.0923 12.1943 52.1499 12.1722 52.1928 12.1279C52.2365 12.083 52.2583 12.0244 52.2583 11.9521C52.2583 11.8799 52.2358 11.821 52.1909 11.7754C52.146 11.7298 52.089 11.707 52.02 11.707Z" fill="black"/>
<path d="M54.071 11.6797L53.4821 13H53.2927L53.8796 11.7266H53.1101V11.5781H54.071V11.6797Z" fill="black"/>
<path d="M2 14C2 11.7909 3.79086 10 6 10H19V45C19 47.2091 17.2091 49 15 49H6C3.79086 49 2 47.2091 2 45V14Z" fill="url(#paint2_linear)"/>
<path fill-rule="evenodd" clip-rule="evenodd" d="M15.536 27.7445C15.3989 27.7003 14.5322 29.0445 16.2792 30.6081C16.6348 30.6833 16.3123 32.6806 14.1535 32.6957L14.0196 32.6936L14.0439 32.7005C14.5581 32.8623 15.8686 33.5455 17.0277 34.0893C18.4651 34.7636 19 38.889 19 38.963C19 39.0123 16.4565 39.0123 11.3694 38.963H10.6306C5.54352 39.0123 3 39.0123 3 38.963C3 38.889 3.53487 34.7636 4.97226 34.0893C6.13145 33.5455 7.44192 32.8623 7.95613 32.7005L7.97953 32.6936L7.8465 32.6957C5.74034 32.681 5.382 30.7796 5.69597 30.617L5.72076 30.6081C7.46778 29.0445 6.60113 27.7003 6.46398 27.7445C5.72058 22.531 7.35573 19.9497 11.3694 20.0007C14.8906 19.9497 16.2794 22.531 15.536 27.7445Z" fill="#94AEA8"/>
<path d="M2 39H58V45C58 47.2091 56.2091 49 54 49H6C3.79086 49 2 47.2091 2 45V39Z" fill="#FBF8F2"/>
<path d="M6.21094 42.5488C6.19336 42.6992 6.1377 42.8154 6.04395 42.8975C5.95085 42.9788 5.82682 43.0195 5.67188 43.0195C5.50391 43.0195 5.36914 42.9593 5.26758 42.8389C5.16667 42.7184 5.11621 42.5573 5.11621 42.3555V42.2188C5.11621 42.0866 5.13965 41.9704 5.18652 41.8701C5.23405 41.7699 5.30111 41.693 5.3877 41.6396C5.47428 41.5856 5.57454 41.5586 5.68848 41.5586C5.83952 41.5586 5.96061 41.6009 6.05176 41.6855C6.1429 41.7695 6.19596 41.8861 6.21094 42.0352H6.02246C6.00618 41.9219 5.9707 41.8398 5.91602 41.7891C5.86198 41.7383 5.78613 41.7129 5.68848 41.7129C5.56868 41.7129 5.47461 41.7572 5.40625 41.8457C5.33854 41.9342 5.30469 42.0602 5.30469 42.2236V42.3613C5.30469 42.5156 5.33691 42.6383 5.40137 42.7295C5.46582 42.8206 5.55599 42.8662 5.67188 42.8662C5.77604 42.8662 5.85579 42.8428 5.91113 42.7959C5.96712 42.7484 6.00423 42.666 6.02246 42.5488H6.21094Z" fill="black"/>
<path d="M7.97094 42.8135C7.92277 42.8825 7.85538 42.9342 7.76879 42.9688C7.68286 43.0026 7.5826 43.0195 7.46801 43.0195C7.35213 43.0195 7.24926 42.9925 7.15942 42.9385C7.06958 42.8838 6.99991 42.8063 6.95044 42.7061C6.90161 42.6058 6.87654 42.4896 6.87524 42.3574V42.2334C6.87524 42.0192 6.92504 41.8532 7.02465 41.7354C7.12491 41.6175 7.26554 41.5586 7.44653 41.5586C7.59497 41.5586 7.71443 41.5967 7.80493 41.6729C7.89542 41.7484 7.95076 41.8558 7.97094 41.9951H7.78344C7.74829 41.807 7.63631 41.7129 7.44751 41.7129C7.32185 41.7129 7.22648 41.7572 7.16137 41.8457C7.09692 41.9336 7.06437 42.0612 7.06372 42.2285V42.3447C7.06372 42.5042 7.10017 42.6312 7.17309 42.7256C7.24601 42.8193 7.34464 42.8662 7.46899 42.8662C7.5393 42.8662 7.60083 42.8584 7.65356 42.8428C7.70629 42.8271 7.74991 42.8008 7.78442 42.7637V42.4443H7.45532V42.292H7.97094V42.8135Z" fill="black"/>
<path d="M9.72021 41.7324H9.26318V43H9.07665V41.7324H8.6206V41.5781H9.72021V41.7324Z" fill="black"/>
<path d="M10.906 42.4248H10.572V43H10.3835V41.5781H10.8542C11.0144 41.5781 11.1374 41.6146 11.2234 41.6875C11.31 41.7604 11.3533 41.8665 11.3533 42.0059C11.3533 42.0944 11.3292 42.1715 11.281 42.2373C11.2335 42.3031 11.1671 42.3522 11.0818 42.3848L11.4158 42.9883V43H11.2146L10.906 42.4248ZM10.572 42.2715H10.8601C10.9532 42.2715 11.0271 42.2474 11.0818 42.1992C11.1371 42.151 11.1648 42.0866 11.1648 42.0059C11.1648 41.918 11.1384 41.8506 11.0857 41.8037C11.0336 41.7568 10.9581 41.7331 10.8591 41.7324H10.572V42.2715Z" fill="black"/>
<path d="M12.457 42.292L12.8281 41.5781H13.041L12.5508 42.4697V43H12.3633V42.4697L11.873 41.5781H12.0879L12.457 42.292Z" fill="black"/>
<path d="M14.5852 41.5781V42.5449C14.5845 42.679 14.5422 42.7887 14.4582 42.874C14.3749 42.9593 14.2616 43.0072 14.1184 43.0176L14.0686 43.0195C13.913 43.0195 13.789 42.9775 13.6965 42.8936C13.6041 42.8096 13.5572 42.694 13.5559 42.5469V41.5781H13.7414V42.541C13.7414 42.6439 13.7698 42.724 13.8264 42.7812C13.883 42.8379 13.9638 42.8662 14.0686 42.8662C14.1747 42.8662 14.2558 42.8379 14.3117 42.7812C14.3684 42.7246 14.3967 42.6449 14.3967 42.542V41.5781H14.5852Z" fill="black"/>
<path d="M15.5356 43H15.3481V41.5781H15.5356V43Z" fill="black"/>
<path d="M16.4255 42.3711L17.0368 42.6182V42.8096L16.238 42.4395V42.2969L17.0368 41.9277V42.1191L16.4255 42.3711Z" fill="black"/>
<path d="M17.8965 42.3711L18.5078 42.6182V42.8096L17.709 42.4395V42.2969L18.5078 41.9277V42.1191L17.8965 42.3711Z" fill="black"/>
<path d="M19.3674 42.3711L19.9787 42.6182V42.8096L19.1799 42.4395V42.2969L19.9787 41.9277V42.1191L19.3674 42.3711Z" fill="black"/>
<path d="M20.8383 42.3711L21.4497 42.6182V42.8096L20.6508 42.4395V42.2969L21.4497 41.9277V42.1191L20.8383 42.3711Z" fill="black"/>
<path d="M22.6355 42.3662C22.4746 42.32 22.3575 42.2633 22.2839 42.1963C22.211 42.1286 22.1745 42.0452 22.1745 41.9463C22.1745 41.8343 22.2191 41.7419 22.3083 41.6689C22.3981 41.5954 22.5147 41.5586 22.6579 41.5586C22.7556 41.5586 22.8425 41.5775 22.9187 41.6152C22.9955 41.653 23.0547 41.7051 23.0964 41.7715C23.1387 41.8379 23.1599 41.9105 23.1599 41.9893H22.9714C22.9714 41.9033 22.944 41.8359 22.8894 41.7871C22.8347 41.7376 22.7575 41.7129 22.6579 41.7129C22.5655 41.7129 22.4932 41.7334 22.4411 41.7744C22.3897 41.8148 22.364 41.8711 22.364 41.9434C22.364 42.0013 22.3884 42.0505 22.4372 42.0908C22.4867 42.1305 22.5703 42.167 22.6882 42.2002C22.8067 42.2334 22.8991 42.2702 22.9655 42.3105C23.0326 42.3503 23.0821 42.3968 23.114 42.4502C23.1465 42.5036 23.1628 42.5664 23.1628 42.6387C23.1628 42.7539 23.1179 42.8464 23.028 42.916C22.9382 42.985 22.8181 43.0195 22.6677 43.0195C22.57 43.0195 22.4789 43.001 22.3942 42.9639C22.3096 42.9261 22.2442 42.8747 22.198 42.8096C22.1524 42.7445 22.1296 42.6706 22.1296 42.5879H22.3181C22.3181 42.6738 22.3496 42.7419 22.4128 42.792C22.4766 42.8415 22.5616 42.8662 22.6677 42.8662C22.7666 42.8662 22.8425 42.846 22.8952 42.8057C22.948 42.7653 22.9743 42.7103 22.9743 42.6406C22.9743 42.571 22.9499 42.5173 22.9011 42.4795C22.8522 42.4411 22.7637 42.4033 22.6355 42.3662Z" fill="black"/>
<path d="M24.8398 41.7324H24.3828V43H24.1962V41.7324H23.7402V41.5781H24.8398V41.7324Z" fill="black"/>
<path d="M26.3078 42.3428H25.6916V42.8467H26.4074V43H25.5041V41.5781H26.3976V41.7324H25.6916V42.1895H26.3078V42.3428Z" fill="black"/>
<path d="M27.2817 42.4434V43H27.0942V41.5781H27.6186C27.7742 41.5781 27.8959 41.6178 27.9838 41.6973C28.0724 41.7767 28.1166 41.8818 28.1166 42.0127C28.1166 42.1507 28.0733 42.2572 27.9868 42.332C27.9008 42.4062 27.7774 42.4434 27.6166 42.4434H27.2817ZM27.2817 42.29H27.6186C27.7189 42.29 27.7957 42.2666 27.8491 42.2197C27.9024 42.1722 27.9291 42.1038 27.9291 42.0146C27.9291 41.93 27.9024 41.8623 27.8491 41.8115C27.7957 41.7607 27.7224 41.7344 27.6293 41.7324H27.2817V42.29Z" fill="black"/>
<path d="M29.902 43H29.7136V42.3428H28.9968V43H28.8093V41.5781H28.9968V42.1895H29.7136V41.5781H29.902V43Z" fill="black"/>
<path d="M31.4911 42.6289H30.8954L30.7617 43H30.5683L31.1113 41.5781H31.2753L31.8193 43H31.6269L31.4911 42.6289ZM30.9521 42.4746H31.4355L31.1933 41.8096L30.9521 42.4746Z" fill="black"/>
<path d="M33.5568 43H33.3683L32.6525 41.9043V43H32.464V41.5781H32.6525L33.3703 42.6787V41.5781H33.5568V43Z" fill="black"/>
<path d="M34.5444 43H34.3569V41.5781H34.5444V43Z" fill="black"/>
<path d="M36.1452 42.3428H35.529V42.8467H36.2448V43H35.3415V41.5781H36.235V41.7324H35.529V42.1895H36.1452V42.3428Z" fill="black"/>
<path d="M37.0243 42.3711L37.6357 42.6182V42.8096L36.8368 42.4395V42.2969L37.6357 41.9277V42.1191L37.0243 42.3711Z" fill="black"/>
<path d="M38.4953 42.3711L39.1066 42.6182V42.8096L38.3078 42.4395V42.2969L39.1066 41.9277V42.1191L38.4953 42.3711Z" fill="black"/>
<path d="M39.9662 42.3711L40.5775 42.6182V42.8096L39.7787 42.4395V42.2969L40.5775 41.9277V42.1191L39.9662 42.3711Z" fill="black"/>
<path d="M41.4372 42.3711L42.0485 42.6182V42.8096L41.2497 42.4395V42.2969L42.0485 41.9277V42.1191L41.4372 42.3711Z" fill="black"/>
<path d="M42.9081 42.3711L43.5194 42.6182V42.8096L42.7206 42.4395V42.2969L43.5194 41.9277V42.1191L42.9081 42.3711Z" fill="black"/>
<path d="M44.379 42.3711L44.9904 42.6182V42.8096L44.1915 42.4395V42.2969L44.9904 41.9277V42.1191L44.379 42.3711Z" fill="black"/>
<path d="M45.85 42.3711L46.4613 42.6182V42.8096L45.6625 42.4395V42.2969L46.4613 41.9277V42.1191L45.85 42.3711Z" fill="black"/>
<path d="M47.3209 42.3711L47.9323 42.6182V42.8096L47.1334 42.4395V42.2969L47.9323 41.9277V42.1191L47.3209 42.3711Z" fill="black"/>
<path d="M48.7919 42.3711L49.4032 42.6182V42.8096L48.6044 42.4395V42.2969L49.4032 41.9277V42.1191L48.7919 42.3711Z" fill="black"/>
<path d="M50.2628 42.3711L50.8741 42.6182V42.8096L50.0753 42.4395V42.2969L50.8741 41.9277V42.1191L50.2628 42.3711Z" fill="black"/>
<path d="M51.7338 42.3711L52.3451 42.6182V42.8096L51.5463 42.4395V42.2969L52.3451 41.9277V42.1191L51.7338 42.3711Z" fill="black"/>
<path d="M53.2047 42.3711L53.816 42.6182V42.8096L53.0172 42.4395V42.2969L53.816 41.9277V42.1191L53.2047 42.3711Z" fill="black"/>
<path d="M54.6756 42.3711L55.287 42.6182V42.8096L54.4881 42.4395V42.2969L55.287 41.9277V42.1191L54.6756 42.3711Z" fill="black"/>
<path d="M6.03613 44.6797L5.44727 46H5.25781L5.84473 44.7266H5.0752V44.5781H6.03613V44.6797Z" fill="black"/>
<path d="M7.38696 45.375C7.3492 45.4199 7.30395 45.4561 7.25122 45.4834C7.19913 45.5107 7.14184 45.5244 7.07934 45.5244C6.99731 45.5244 6.9257 45.5042 6.8645 45.4639C6.80395 45.4235 6.75708 45.3669 6.72387 45.2939C6.69067 45.2204 6.67407 45.1393 6.67407 45.0508C6.67407 44.9557 6.69197 44.8701 6.72778 44.7939C6.76424 44.7178 6.81567 44.6595 6.88208 44.6191C6.94848 44.5788 7.02596 44.5586 7.1145 44.5586C7.25512 44.5586 7.3658 44.6113 7.44653 44.7168C7.52791 44.8216 7.5686 44.9648 7.5686 45.1465V45.1992C7.5686 45.4759 7.51391 45.6781 7.40454 45.8057C7.29516 45.9326 7.13012 45.9977 6.90942 46.001H6.87426V45.8486H6.91235C7.06144 45.846 7.17602 45.8073 7.2561 45.7324C7.33618 45.6569 7.3798 45.5378 7.38696 45.375ZM7.10864 45.375C7.16919 45.375 7.22485 45.3564 7.27563 45.3193C7.32706 45.2822 7.3645 45.2363 7.38794 45.1816V45.1094C7.38794 44.9909 7.36222 44.8945 7.31079 44.8203C7.25935 44.7461 7.19425 44.709 7.11547 44.709C7.03605 44.709 6.97225 44.7396 6.92407 44.8008C6.87589 44.8613 6.8518 44.9414 6.8518 45.041C6.8518 45.138 6.87491 45.2181 6.92114 45.2812C6.96801 45.3438 7.03051 45.375 7.10864 45.375Z" fill="black"/>
<path d="M8.96337 45.375C8.92561 45.4199 8.88036 45.4561 8.82763 45.4834C8.77554 45.5107 8.71825 45.5244 8.65575 45.5244C8.57372 45.5244 8.50211 45.5042 8.44091 45.4639C8.38036 45.4235 8.33349 45.3669 8.30028 45.2939C8.26708 45.2204 8.25048 45.1393 8.25048 45.0508C8.25048 44.9557 8.26838 44.8701 8.30419 44.7939C8.34065 44.7178 8.39208 44.6595 8.45849 44.6191C8.52489 44.5788 8.60237 44.5586 8.69091 44.5586C8.83153 44.5586 8.94221 44.6113 9.02294 44.7168C9.10432 44.8216 9.14501 44.9648 9.14501 45.1465V45.1992C9.14501 45.4759 9.09032 45.6781 8.98095 45.8057C8.87157 45.9326 8.70653 45.9977 8.48583 46.001H8.45068V45.8486H8.48876C8.63785 45.846 8.75243 45.8073 8.83251 45.7324C8.91259 45.6569 8.95621 45.5378 8.96337 45.375ZM8.68505 45.375C8.7456 45.375 8.80126 45.3564 8.85204 45.3193C8.90347 45.2822 8.94091 45.2363 8.96435 45.1816V45.1094C8.96435 44.9909 8.93863 44.8945 8.8872 44.8203C8.83577 44.7461 8.77066 44.709 8.69189 44.709C8.61246 44.709 8.54866 44.7396 8.50048 44.8008C8.4523 44.8613 8.42821 44.9414 8.42821 45.041C8.42821 45.138 8.45133 45.2181 8.49755 45.2812C8.54443 45.3438 8.60693 45.375 8.68505 45.375Z" fill="black"/>
<path d="M10.5564 44.5771V44.7305H10.5232C10.3826 44.7331 10.2706 44.7747 10.1872 44.8555C10.1039 44.9362 10.0557 45.0498 10.0427 45.1963C10.1176 45.1104 10.2198 45.0674 10.3494 45.0674C10.4731 45.0674 10.5717 45.111 10.6453 45.1982C10.7195 45.2855 10.7566 45.3981 10.7566 45.5361C10.7566 45.6826 10.7165 45.7998 10.6365 45.8877C10.557 45.9756 10.4503 46.0195 10.3161 46.0195C10.1801 46.0195 10.0697 45.9674 9.98509 45.8633C9.90046 45.7585 9.85814 45.6237 9.85814 45.459V45.3896C9.85814 45.1279 9.91381 44.9281 10.0251 44.79C10.1371 44.6514 10.3035 44.5804 10.5242 44.5771H10.5564ZM10.3191 45.2178C10.2572 45.2178 10.2003 45.2363 10.1482 45.2734C10.0961 45.3105 10.06 45.3571 10.0398 45.4131V45.4795C10.0398 45.5967 10.0661 45.6911 10.1189 45.7627C10.1716 45.8343 10.2374 45.8701 10.3161 45.8701C10.3975 45.8701 10.4613 45.8402 10.5076 45.7803C10.5544 45.7204 10.5779 45.6419 10.5779 45.5449C10.5779 45.4473 10.5541 45.3685 10.5066 45.3086C10.4597 45.248 10.3972 45.2178 10.3191 45.2178Z" fill="black"/>
<path d="M11.6865 45.2012H11.8222C11.9075 45.1999 11.9746 45.1774 12.0234 45.1338C12.0722 45.0902 12.0967 45.0312 12.0967 44.957C12.0967 44.7904 12.0137 44.707 11.8476 44.707C11.7695 44.707 11.707 44.7295 11.6601 44.7744C11.6139 44.8187 11.5908 44.8776 11.5908 44.9512H11.4101C11.4101 44.8385 11.4512 44.7451 11.5332 44.6709C11.6159 44.596 11.7207 44.5586 11.8476 44.5586C11.9818 44.5586 12.0869 44.5941 12.1631 44.665C12.2392 44.736 12.2773 44.8346 12.2773 44.9609C12.2773 45.0228 12.2571 45.0827 12.2168 45.1406C12.1771 45.1986 12.1227 45.2419 12.0537 45.2705C12.1318 45.2952 12.192 45.3363 12.2344 45.3936C12.2773 45.4508 12.2988 45.5208 12.2988 45.6035C12.2988 45.7311 12.2571 45.8324 12.1738 45.9072C12.0905 45.9821 11.9821 46.0195 11.8486 46.0195C11.7152 46.0195 11.6064 45.9834 11.5224 45.9111C11.4391 45.8389 11.3974 45.7435 11.3974 45.625H11.5791C11.5791 45.6999 11.6035 45.7598 11.6523 45.8047C11.7012 45.8496 11.7666 45.8721 11.8486 45.8721C11.9359 45.8721 12.0026 45.8493 12.0488 45.8037C12.095 45.7581 12.1181 45.6927 12.1181 45.6074C12.1181 45.5247 12.0928 45.4613 12.042 45.417C11.9912 45.3727 11.918 45.3499 11.8222 45.3486H11.6865V45.2012Z" fill="black"/>
<path d="M13.9319 46H13.0002V45.8701L13.4924 45.3232C13.5653 45.2406 13.6155 45.1735 13.6428 45.1221C13.6708 45.07 13.6848 45.0163 13.6848 44.9609C13.6848 44.8867 13.6623 44.8258 13.6174 44.7783C13.5725 44.7308 13.5126 44.707 13.4377 44.707C13.3479 44.707 13.2779 44.7327 13.2278 44.7842C13.1783 44.835 13.1535 44.9059 13.1535 44.9971H12.9729C12.9729 44.8662 13.0149 44.7604 13.0989 44.6797C13.1835 44.599 13.2964 44.5586 13.4377 44.5586C13.5699 44.5586 13.6744 44.5934 13.7512 44.6631C13.828 44.7321 13.8664 44.8242 13.8664 44.9395C13.8664 45.0794 13.7772 45.2461 13.5989 45.4395L13.218 45.8525H13.9319V46Z" fill="black"/>
<path d="M14.6596 45.2871L14.7319 44.5781H15.4604V44.7451H14.8852L14.8423 45.1328C14.9119 45.0918 14.991 45.0713 15.0796 45.0713C15.2091 45.0713 15.312 45.1143 15.3882 45.2002C15.4643 45.2855 15.5024 45.401 15.5024 45.5469C15.5024 45.6934 15.4627 45.8089 15.3833 45.8936C15.3045 45.9775 15.1941 46.0195 15.0522 46.0195C14.9266 46.0195 14.824 45.9847 14.7446 45.915C14.6652 45.8454 14.6199 45.749 14.6089 45.626H14.7798C14.7908 45.7074 14.8198 45.7689 14.8667 45.8105C14.9135 45.8516 14.9754 45.8721 15.0522 45.8721C15.1362 45.8721 15.202 45.8434 15.2495 45.7861C15.2977 45.7288 15.3218 45.6497 15.3218 45.5488C15.3218 45.4538 15.2957 45.3776 15.2436 45.3203C15.1922 45.2624 15.1235 45.2334 15.0376 45.2334C14.9588 45.2334 14.8969 45.2507 14.852 45.2852L14.8042 45.3242L14.6596 45.2871Z" fill="black"/>
<path d="M16.9157 45.5225H17.113V45.6699H16.9157V46H16.7341V45.6699H16.0866V45.5635L16.7234 44.5781H16.9157V45.5225ZM16.2917 45.5225H16.7341V44.8252L16.7126 44.8643L16.2917 45.5225Z" fill="black"/>
<path d="M18.3232 46H18.1416V44.7959L17.7773 44.9297V44.7656L18.2949 44.5713H18.3232V46Z" fill="black"/>
<path d="M20.0686 45.5225H20.2658V45.6699H20.0686V46H19.8869V45.6699H19.2395V45.5635L19.8762 44.5781H20.0686V45.5225ZM19.4445 45.5225H19.8869V44.8252L19.8654 44.8643L19.4445 45.5225Z" fill="black"/>
<path d="M21.7446 44.9492C21.7446 45.0202 21.7257 45.0833 21.6879 45.1387C21.6508 45.194 21.6004 45.2373 21.5366 45.2686C21.6108 45.3005 21.6694 45.347 21.7124 45.4082C21.756 45.4694 21.7778 45.5387 21.7778 45.6162C21.7778 45.7393 21.7361 45.8372 21.6528 45.9102C21.5701 45.9831 21.4611 46.0195 21.3256 46.0195C21.1889 46.0195 21.0792 45.9831 20.9965 45.9102C20.9145 45.8366 20.8735 45.7386 20.8735 45.6162C20.8735 45.5394 20.8943 45.4701 20.936 45.4082C20.9783 45.3464 21.0366 45.2995 21.1108 45.2676C21.0476 45.2363 20.9978 45.193 20.9614 45.1377C20.9249 45.0824 20.9067 45.0195 20.9067 44.9492C20.9067 44.8294 20.9451 44.7344 21.0219 44.6641C21.0988 44.5938 21.2 44.5586 21.3256 44.5586C21.4506 44.5586 21.5516 44.5938 21.6284 44.6641C21.7059 44.7344 21.7446 44.8294 21.7446 44.9492ZM21.5971 45.6123C21.5971 45.5329 21.5717 45.4681 21.521 45.418C21.4708 45.3678 21.4051 45.3428 21.3237 45.3428C21.2423 45.3428 21.1769 45.3675 21.1274 45.417C21.0786 45.4665 21.0542 45.5316 21.0542 45.6123C21.0542 45.693 21.0779 45.7565 21.1254 45.8027C21.1736 45.849 21.2404 45.8721 21.3256 45.8721C21.4103 45.8721 21.4767 45.849 21.5249 45.8027C21.573 45.7559 21.5971 45.6924 21.5971 45.6123ZM21.3256 44.707C21.2547 44.707 21.1971 44.7292 21.1528 44.7734C21.1092 44.8171 21.0874 44.8766 21.0874 44.9521C21.0874 45.0244 21.1088 45.083 21.1518 45.1279C21.1954 45.1722 21.2534 45.1943 21.3256 45.1943C21.3979 45.1943 21.4555 45.1722 21.4985 45.1279C21.5421 45.083 21.5639 45.0244 21.5639 44.9521C21.5639 44.8799 21.5415 44.821 21.4965 44.7754C21.4516 44.7298 21.3947 44.707 21.3256 44.707Z" fill="black"/>
<path d="M23.3903 46H22.4587V45.8701L22.9509 45.3232C23.0238 45.2406 23.0739 45.1735 23.1013 45.1221C23.1293 45.07 23.1433 45.0163 23.1433 44.9609C23.1433 44.8867 23.1208 44.8258 23.0759 44.7783C23.031 44.7308 22.9711 44.707 22.8962 44.707C22.8063 44.707 22.7364 44.7327 22.6862 44.7842C22.6368 44.835 22.612 44.9059 22.612 44.9971H22.4313C22.4313 44.8662 22.4733 44.7604 22.5573 44.6797C22.642 44.599 22.7549 44.5586 22.8962 44.5586C23.0284 44.5586 23.1328 44.5934 23.2097 44.6631C23.2865 44.7321 23.3249 44.8242 23.3249 44.9395C23.3249 45.0794 23.2357 45.2461 23.0573 45.4395L22.6765 45.8525H23.3903V46Z" fill="black"/>
<path d="M24.2978 45.2012H24.4335C24.5188 45.1999 24.5859 45.1774 24.6347 45.1338C24.6835 45.0902 24.708 45.0312 24.708 44.957C24.708 44.7904 24.6249 44.707 24.4589 44.707C24.3808 44.707 24.3183 44.7295 24.2714 44.7744C24.2252 44.8187 24.2021 44.8776 24.2021 44.9512H24.0214C24.0214 44.8385 24.0624 44.7451 24.1445 44.6709C24.2272 44.596 24.332 44.5586 24.4589 44.5586C24.593 44.5586 24.6982 44.5941 24.7744 44.665C24.8505 44.736 24.8886 44.8346 24.8886 44.9609C24.8886 45.0228 24.8684 45.0827 24.8281 45.1406C24.7884 45.1986 24.734 45.2419 24.665 45.2705C24.7431 45.2952 24.8033 45.3363 24.8457 45.3936C24.8886 45.4508 24.9101 45.5208 24.9101 45.6035C24.9101 45.7311 24.8684 45.8324 24.7851 45.9072C24.7018 45.9821 24.5934 46.0195 24.4599 46.0195C24.3264 46.0195 24.2177 45.9834 24.1337 45.9111C24.0504 45.8389 24.0087 45.7435 24.0087 45.625H24.1904C24.1904 45.6999 24.2148 45.7598 24.2636 45.8047C24.3124 45.8496 24.3779 45.8721 24.4599 45.8721C24.5471 45.8721 24.6139 45.8493 24.6601 45.8037C24.7063 45.7581 24.7294 45.6927 24.7294 45.6074C24.7294 45.5247 24.7041 45.4613 24.6533 45.417C24.6025 45.3727 24.5292 45.3499 24.4335 45.3486H24.2978V45.2012Z" fill="black"/>
<path d="M26.5432 46H25.6115V45.8701L26.1037 45.3232C26.1766 45.2406 26.2268 45.1735 26.2541 45.1221C26.2821 45.07 26.2961 45.0163 26.2961 44.9609C26.2961 44.8867 26.2736 44.8258 26.2287 44.7783C26.1838 44.7308 26.1239 44.707 26.049 44.707C25.9592 44.707 25.8892 44.7327 25.8391 44.7842C25.7896 44.835 25.7648 44.9059 25.7648 44.9971H25.5842C25.5842 44.8662 25.6262 44.7604 25.7101 44.6797C25.7948 44.599 25.9077 44.5586 26.049 44.5586C26.1812 44.5586 26.2857 44.5934 26.3625 44.6631C26.4393 44.7321 26.4777 44.8242 26.4777 44.9395C26.4777 45.0794 26.3885 45.2461 26.2101 45.4395L25.8293 45.8525H26.5432V46Z" fill="black"/>
<path d="M27.7817 46H27.6V44.7959L27.2358 44.9297V44.7656L27.7534 44.5713H27.7817V46Z" fill="black"/>
<path d="M28.8473 45.2871L28.9196 44.5781H29.6481V44.7451H29.0729L29.03 45.1328C29.0996 45.0918 29.1787 45.0713 29.2673 45.0713C29.3968 45.0713 29.4997 45.1143 29.5759 45.2002C29.652 45.2855 29.6901 45.401 29.6901 45.5469C29.6901 45.6934 29.6504 45.8089 29.571 45.8936C29.4922 45.9775 29.3819 46.0195 29.2399 46.0195C29.1143 46.0195 29.0117 45.9847 28.9323 45.915C28.8529 45.8454 28.8076 45.749 28.7966 45.626H28.9675C28.9785 45.7074 29.0075 45.7689 29.0544 45.8105C29.1013 45.8516 29.1631 45.8721 29.2399 45.8721C29.3239 45.8721 29.3897 45.8434 29.4372 45.7861C29.4854 45.7288 29.5095 45.6497 29.5095 45.5488C29.5095 45.4538 29.4834 45.3776 29.4313 45.3203C29.3799 45.2624 29.3112 45.2334 29.2253 45.2334C29.1465 45.2334 29.0847 45.2507 29.0397 45.2852L28.9919 45.3242L28.8473 45.2871Z" fill="black"/>
<path d="M31.1034 45.5225H31.3007V45.6699H31.1034V46H30.9218V45.6699H30.2743V45.5635L30.9111 44.5781H31.1034V45.5225ZM30.4794 45.5225H30.9218V44.8252L30.9003 44.8643L30.4794 45.5225Z" fill="black"/>
<path d="M32.7795 44.9492C32.7795 45.0202 32.7606 45.0833 32.7228 45.1387C32.6857 45.194 32.6353 45.2373 32.5715 45.2686C32.6457 45.3005 32.7043 45.347 32.7472 45.4082C32.7909 45.4694 32.8127 45.5387 32.8127 45.6162C32.8127 45.7393 32.771 45.8372 32.6877 45.9102C32.605 45.9831 32.4959 46.0195 32.3605 46.0195C32.2238 46.0195 32.1141 45.9831 32.0314 45.9102C31.9494 45.8366 31.9084 45.7386 31.9084 45.6162C31.9084 45.5394 31.9292 45.4701 31.9709 45.4082C32.0132 45.3464 32.0715 45.2995 32.1457 45.2676C32.0825 45.2363 32.0327 45.193 31.9963 45.1377C31.9598 45.0824 31.9416 45.0195 31.9416 44.9492C31.9416 44.8294 31.98 44.7344 32.0568 44.6641C32.1336 44.5938 32.2349 44.5586 32.3605 44.5586C32.4855 44.5586 32.5864 44.5938 32.6633 44.6641C32.7407 44.7344 32.7795 44.8294 32.7795 44.9492ZM32.632 45.6123C32.632 45.5329 32.6066 45.4681 32.5558 45.418C32.5057 45.3678 32.44 45.3428 32.3586 45.3428C32.2772 45.3428 32.2118 45.3675 32.1623 45.417C32.1135 45.4665 32.089 45.5316 32.089 45.6123C32.089 45.693 32.1128 45.7565 32.1603 45.8027C32.2085 45.849 32.2752 45.8721 32.3605 45.8721C32.4452 45.8721 32.5116 45.849 32.5597 45.8027C32.6079 45.7559 32.632 45.6924 32.632 45.6123ZM32.3605 44.707C32.2896 44.707 32.2319 44.7292 32.1877 44.7734C32.1441 44.8171 32.1222 44.8766 32.1222 44.9521C32.1222 45.0244 32.1437 45.083 32.1867 45.1279C32.2303 45.1722 32.2883 45.1943 32.3605 45.1943C32.4328 45.1943 32.4904 45.1722 32.5334 45.1279C32.577 45.083 32.5988 45.0244 32.5988 44.9521C32.5988 44.8799 32.5763 44.821 32.5314 44.7754C32.4865 44.7298 32.4295 44.707 32.3605 44.707Z" fill="black"/>
<path d="M34.2563 45.5225H34.4535V45.6699H34.2563V46H34.0746V45.6699H33.4272V45.5635L34.0639 44.5781H34.2563V45.5225ZM33.6322 45.5225H34.0746V44.8252L34.0531 44.8643L33.6322 45.5225Z" fill="black"/>
<path d="M35.153 45.2871L35.2253 44.5781H35.9538V44.7451H35.3786L35.3356 45.1328C35.4053 45.0918 35.4844 45.0713 35.5729 45.0713C35.7025 45.0713 35.8053 45.1143 35.8815 45.2002C35.9577 45.2855 35.9958 45.401 35.9958 45.5469C35.9958 45.6934 35.9561 45.8089 35.8766 45.8936C35.7979 45.9775 35.6875 46.0195 35.5456 46.0195C35.4199 46.0195 35.3174 45.9847 35.238 45.915C35.1585 45.8454 35.1133 45.749 35.1022 45.626H35.2731C35.2842 45.7074 35.3132 45.7689 35.36 45.8105C35.4069 45.8516 35.4688 45.8721 35.5456 45.8721C35.6296 45.8721 35.6953 45.8434 35.7428 45.7861C35.791 45.7288 35.8151 45.6497 35.8151 45.5488C35.8151 45.4538 35.7891 45.3776 35.737 45.3203C35.6855 45.2624 35.6169 45.2334 35.5309 45.2334C35.4522 45.2334 35.3903 45.2507 35.3454 45.2852L35.2975 45.3242L35.153 45.2871Z" fill="black"/>
<path d="M37.2402 46H37.0585V44.7959L36.6943 44.9297V44.7656L37.2118 44.5713H37.2402V46Z" fill="black"/>
<path d="M39.1545 46H38.2228V45.8701L38.715 45.3232C38.7879 45.2406 38.838 45.1735 38.8654 45.1221C38.8934 45.07 38.9074 45.0163 38.9074 44.9609C38.9074 44.8867 38.8849 44.8258 38.84 44.7783C38.7951 44.7308 38.7352 44.707 38.6603 44.707C38.5705 44.707 38.5005 44.7327 38.4504 44.7842C38.4009 44.835 38.3761 44.9059 38.3761 44.9971H38.1955C38.1955 44.8662 38.2375 44.7604 38.3214 44.6797C38.4061 44.599 38.519 44.5586 38.6603 44.5586C38.7925 44.5586 38.897 44.5934 38.9738 44.6631C39.0506 44.7321 39.089 44.8242 39.089 44.9395C39.089 45.0794 38.9998 45.2461 38.8214 45.4395L38.4406 45.8525H39.1545V46Z" fill="black"/>
<path d="M40.5082 44.5771V44.7305H40.475C40.3344 44.7331 40.2224 44.7747 40.1391 44.8555C40.0557 44.9362 40.0076 45.0498 39.9945 45.1963C40.0694 45.1104 40.1716 45.0674 40.3012 45.0674C40.4249 45.0674 40.5235 45.111 40.5971 45.1982C40.6713 45.2855 40.7084 45.3981 40.7084 45.5361C40.7084 45.6826 40.6684 45.7998 40.5883 45.8877C40.5089 45.9756 40.4021 46.0195 40.268 46.0195C40.1319 46.0195 40.0216 45.9674 39.9369 45.8633C39.8523 45.7585 39.81 45.6237 39.81 45.459V45.3896C39.81 45.1279 39.8656 44.9281 39.977 44.79C40.0889 44.6514 40.2553 44.5804 40.476 44.5771H40.5082ZM40.2709 45.2178C40.2091 45.2178 40.1521 45.2363 40.1 45.2734C40.0479 45.3105 40.0118 45.3571 39.9916 45.4131V45.4795C39.9916 45.5967 40.018 45.6911 40.0707 45.7627C40.1234 45.8343 40.1892 45.8701 40.268 45.8701C40.3493 45.8701 40.4132 45.8402 40.4594 45.7803C40.5063 45.7204 40.5297 45.6419 40.5297 45.5449C40.5297 45.4473 40.5059 45.3685 40.4584 45.3086C40.4115 45.248 40.349 45.2178 40.2709 45.2178Z" fill="black"/>
<path d="M42.2379 44.9492C42.2379 45.0202 42.2191 45.0833 42.1813 45.1387C42.1442 45.194 42.0937 45.2373 42.0299 45.2686C42.1041 45.3005 42.1627 45.347 42.2057 45.4082C42.2493 45.4694 42.2711 45.5387 42.2711 45.6162C42.2711 45.7393 42.2295 45.8372 42.1461 45.9102C42.0635 45.9831 41.9544 46.0195 41.819 46.0195C41.6823 46.0195 41.5726 45.9831 41.4899 45.9102C41.4079 45.8366 41.3668 45.7386 41.3668 45.6162C41.3668 45.5394 41.3877 45.4701 41.4293 45.4082C41.4717 45.3464 41.5299 45.2995 41.6041 45.2676C41.541 45.2363 41.4912 45.193 41.4547 45.1377C41.4183 45.0824 41.4 45.0195 41.4 44.9492C41.4 44.8294 41.4385 44.7344 41.5153 44.6641C41.5921 44.5938 41.6933 44.5586 41.819 44.5586C41.944 44.5586 42.0449 44.5938 42.1217 44.6641C42.1992 44.7344 42.2379 44.8294 42.2379 44.9492ZM42.0905 45.6123C42.0905 45.5329 42.0651 45.4681 42.0143 45.418C41.9642 45.3678 41.8984 45.3428 41.817 45.3428C41.7357 45.3428 41.6702 45.3675 41.6208 45.417C41.5719 45.4665 41.5475 45.5316 41.5475 45.6123C41.5475 45.693 41.5713 45.7565 41.6188 45.8027C41.667 45.849 41.7337 45.8721 41.819 45.8721C41.9036 45.8721 41.97 45.849 42.0182 45.8027C42.0664 45.7559 42.0905 45.6924 42.0905 45.6123ZM41.819 44.707C41.748 44.707 41.6904 44.7292 41.6461 44.7734C41.6025 44.8171 41.5807 44.8766 41.5807 44.9521C41.5807 45.0244 41.6022 45.083 41.6452 45.1279C41.6888 45.1722 41.7467 45.1943 41.819 45.1943C41.8913 45.1943 41.9489 45.1722 41.9918 45.1279C42.0355 45.083 42.0573 45.0244 42.0573 44.9521C42.0573 44.8799 42.0348 44.821 41.9899 44.7754C41.945 44.7298 41.888 44.707 41.819 44.707Z" fill="black"/>
<path d="M43.8144 44.9492C43.8144 45.0202 43.7955 45.0833 43.7577 45.1387C43.7206 45.194 43.6701 45.2373 43.6063 45.2686C43.6806 45.3005 43.7392 45.347 43.7821 45.4082C43.8257 45.4694 43.8476 45.5387 43.8476 45.6162C43.8476 45.7393 43.8059 45.8372 43.7226 45.9102C43.6399 45.9831 43.5308 46.0195 43.3954 46.0195C43.2587 46.0195 43.149 45.9831 43.0663 45.9102C42.9843 45.8366 42.9433 45.7386 42.9433 45.6162C42.9433 45.5394 42.9641 45.4701 43.0058 45.4082C43.0481 45.3464 43.1063 45.2995 43.1806 45.2676C43.1174 45.2363 43.0676 45.193 43.0311 45.1377C42.9947 45.0824 42.9765 45.0195 42.9765 44.9492C42.9765 44.8294 43.0149 44.7344 43.0917 44.6641C43.1685 44.5938 43.2698 44.5586 43.3954 44.5586C43.5204 44.5586 43.6213 44.5938 43.6981 44.6641C43.7756 44.7344 43.8144 44.8294 43.8144 44.9492ZM43.6669 45.6123C43.6669 45.5329 43.6415 45.4681 43.5907 45.418C43.5406 45.3678 43.4748 45.3428 43.3935 45.3428C43.3121 45.3428 43.2466 45.3675 43.1972 45.417C43.1483 45.4665 43.1239 45.5316 43.1239 45.6123C43.1239 45.693 43.1477 45.7565 43.1952 45.8027C43.2434 45.849 43.3101 45.8721 43.3954 45.8721C43.48 45.8721 43.5464 45.849 43.5946 45.8027C43.6428 45.7559 43.6669 45.6924 43.6669 45.6123ZM43.3954 44.707C43.3244 44.707 43.2668 44.7292 43.2226 44.7734C43.1789 44.8171 43.1571 44.8766 43.1571 44.9521C43.1571 45.0244 43.1786 45.083 43.2216 45.1279C43.2652 45.1722 43.3231 45.1943 43.3954 45.1943C43.4677 45.1943 43.5253 45.1722 43.5683 45.1279C43.6119 45.083 43.6337 45.0244 43.6337 44.9521C43.6337 44.8799 43.6112 44.821 43.5663 44.7754C43.5214 44.7298 43.4644 44.707 43.3954 44.707Z" fill="black"/>
<path d="M45.4464 44.6797L44.8576 46H44.6681L45.255 44.7266H44.4855V44.5781H45.4464V44.6797Z" fill="black"/>
<path d="M46.8676 45.5225H47.0648V45.6699H46.8676V46H46.6859V45.6699H46.0385V45.5635L46.6752 44.5781H46.8676V45.5225ZM46.2435 45.5225H46.6859V44.8252L46.6644 44.8643L46.2435 45.5225Z" fill="black"/>
<path d="M47.7643 45.2871L47.8366 44.5781H48.5651V44.7451H47.9899L47.9469 45.1328C48.0166 45.0918 48.0957 45.0713 48.1842 45.0713C48.3138 45.0713 48.4166 45.1143 48.4928 45.2002C48.569 45.2855 48.6071 45.401 48.6071 45.5469C48.6071 45.6934 48.5673 45.8089 48.4879 45.8936C48.4091 45.9775 48.2988 46.0195 48.1569 46.0195C48.0312 46.0195 47.9287 45.9847 47.8493 45.915C47.7698 45.8454 47.7246 45.749 47.7135 45.626H47.8844C47.8955 45.7074 47.9244 45.7689 47.9713 45.8105C48.0182 45.8516 48.08 45.8721 48.1569 45.8721C48.2409 45.8721 48.3066 45.8434 48.3541 45.7861C48.4023 45.7288 48.4264 45.6497 48.4264 45.5488C48.4264 45.4538 48.4004 45.3776 48.3483 45.3203C48.2968 45.2624 48.2282 45.2334 48.1422 45.2334C48.0634 45.2334 48.0016 45.2507 47.9567 45.2852L47.9088 45.3242L47.7643 45.2871Z" fill="black"/>
<path d="M49.5204 45.2012H49.6561C49.7414 45.1999 49.8085 45.1774 49.8573 45.1338C49.9061 45.0902 49.9305 45.0312 49.9305 44.957C49.9305 44.7904 49.8475 44.707 49.6815 44.707C49.6034 44.707 49.5409 44.7295 49.494 44.7744C49.4478 44.8187 49.4247 44.8776 49.4247 44.9512H49.244C49.244 44.8385 49.285 44.7451 49.3671 44.6709C49.4498 44.596 49.5546 44.5586 49.6815 44.5586C49.8156 44.5586 49.9208 44.5941 49.997 44.665C50.0731 44.736 50.1112 44.8346 50.1112 44.9609C50.1112 45.0228 50.091 45.0827 50.0507 45.1406C50.0109 45.1986 49.9566 45.2419 49.8876 45.2705C49.9657 45.2952 50.0259 45.3363 50.0682 45.3936C50.1112 45.4508 50.1327 45.5208 50.1327 45.6035C50.1327 45.7311 50.091 45.8324 50.0077 45.9072C49.9244 45.9821 49.816 46.0195 49.6825 46.0195C49.549 46.0195 49.4403 45.9834 49.3563 45.9111C49.273 45.8389 49.2313 45.7435 49.2313 45.625H49.413C49.413 45.6999 49.4374 45.7598 49.4862 45.8047C49.535 45.8496 49.6005 45.8721 49.6825 45.8721C49.7697 45.8721 49.8365 45.8493 49.8827 45.8037C49.9289 45.7581 49.952 45.6927 49.952 45.6074C49.952 45.5247 49.9266 45.4613 49.8759 45.417C49.8251 45.3727 49.7518 45.3499 49.6561 45.3486H49.5204V45.2012Z" fill="black"/>
<path d="M51.4279 46H51.2462V44.7959L50.882 44.9297V44.7656L51.3995 44.5713H51.4279V46Z" fill="black"/>
<path d="M52.4935 45.2871L52.5658 44.5781H53.2943V44.7451H52.7191L52.6761 45.1328C52.7458 45.0918 52.8249 45.0713 52.9134 45.0713C53.043 45.0713 53.1459 45.1143 53.222 45.2002C53.2982 45.2855 53.3363 45.401 53.3363 45.5469C53.3363 45.6934 53.2966 45.8089 53.2172 45.8936C53.1384 45.9775 53.028 46.0195 52.8861 46.0195C52.7604 46.0195 52.6579 45.9847 52.5785 45.915C52.4991 45.8454 52.4538 45.749 52.4427 45.626H52.6136C52.6247 45.7074 52.6537 45.7689 52.7006 45.8105C52.7474 45.8516 52.8093 45.8721 52.8861 45.8721C52.9701 45.8721 53.0358 45.8434 53.0834 45.7861C53.1315 45.7288 53.1556 45.6497 53.1556 45.5488C53.1556 45.4538 53.1296 45.3776 53.0775 45.3203C53.0261 45.2624 52.9574 45.2334 52.8715 45.2334C52.7927 45.2334 52.7308 45.2507 52.6859 45.2852L52.6381 45.3242L52.4935 45.2871Z" fill="black"/>
<path d="M54.7496 45.5225H54.9469V45.6699H54.7496V46H54.568V45.6699H53.9205V45.5635L54.5572 44.5781H54.7496V45.5225ZM54.1256 45.5225H54.568V44.8252L54.5465 44.8643L54.1256 45.5225Z" fill="black"/>
<path fill-rule="evenodd" clip-rule="evenodd" d="M27 14.6637C27.2828 14.8225 27.6091 14.913 27.9565 14.913C28.5965 14.913 29.1647 14.6057 29.5217 14.1306C29.8787 14.6057 30.4469 14.913 31.0869 14.913C31.5274 14.913 31.9338 14.7675 32.2608 14.5219V11.3912C31.9338 11.1455 31.5274 11 31.0869 11C30.4469 11 29.8787 11.3073 29.5217 11.7824C29.1647 11.3073 28.5965 11 27.9565 11C27.6091 11 27.2828 11.0906 27 11.2493V14.6637Z" fill="url(#paint3_linear)"/>
<path d="M24.0059 11.876H24.5399L25.0649 13.268H25.0709L25.6049 11.876H26.1059L25.2299 14H24.8549L24.0059 11.876Z" fill="white"/>
<path d="M28.1166 11.876H28.5846V14H28.1166V11.876Z" fill="white"/>
<path d="M31.8547 12.395C31.8167 12.347 31.7647 12.312 31.6987 12.29C31.6347 12.266 31.5737 12.254 31.5157 12.254C31.4817 12.254 31.4467 12.258 31.4107 12.266C31.3747 12.274 31.3407 12.287 31.3087 12.305C31.2767 12.321 31.2507 12.343 31.2307 12.371C31.2107 12.399 31.2007 12.433 31.2007 12.473C31.2007 12.537 31.2247 12.586 31.2727 12.62C31.3207 12.654 31.3807 12.683 31.4527 12.707C31.5267 12.731 31.6057 12.755 31.6897 12.779C31.7737 12.803 31.8517 12.837 31.9237 12.881C31.9977 12.925 32.0587 12.984 32.1067 13.058C32.1547 13.132 32.1787 13.231 32.1787 13.355C32.1787 13.473 32.1567 13.576 32.1127 13.664C32.0687 13.752 32.0087 13.825 31.9327 13.883C31.8587 13.941 31.7717 13.984 31.6717 14.012C31.5737 14.04 31.4697 14.054 31.3597 14.054C31.2217 14.054 31.0937 14.033 30.9757 13.991C30.8577 13.949 30.7477 13.881 30.6457 13.787L30.9787 13.421C31.0267 13.485 31.0867 13.535 31.1587 13.571C31.2327 13.605 31.3087 13.622 31.3867 13.622C31.4247 13.622 31.4627 13.618 31.5007 13.61C31.5407 13.6 31.5757 13.586 31.6057 13.568C31.6377 13.55 31.6627 13.527 31.6807 13.499C31.7007 13.471 31.7107 13.438 31.7107 13.4C31.7107 13.336 31.6857 13.286 31.6357 13.25C31.5877 13.212 31.5267 13.18 31.4527 13.154C31.3787 13.128 31.2987 13.102 31.2127 13.076C31.1267 13.05 31.0467 13.015 30.9727 12.971C30.8987 12.927 30.8367 12.869 30.7867 12.797C30.7387 12.725 30.7147 12.63 30.7147 12.512C30.7147 12.398 30.7367 12.298 30.7807 12.212C30.8267 12.126 30.8867 12.054 30.9607 11.996C31.0367 11.938 31.1237 11.895 31.2217 11.867C31.3197 11.837 31.4207 11.822 31.5247 11.822C31.6447 11.822 31.7607 11.839 31.8727 11.873C31.9847 11.907 32.0857 11.964 32.1757 12.044L31.8547 12.395Z" fill="white"/>
<path d="M35.0208 11.876H35.4078L36.3318 14H35.8038L35.6208 13.55H34.7958L34.6188 14H34.1028L35.0208 11.876ZM35.2008 12.494L34.9428 13.154H35.4618L35.2008 12.494Z" fill="white"/>
<line x1="24" y1="20.5" x2="54" y2="20.5" stroke="#8F8F8F"/>
<line x1="24" y1="20.5" x2="54" y2="20.5" stroke="#8F8F8F"/>
<line x1="24" y1="20.5" x2="54" y2="20.5" stroke="#8F8F8F"/>
<line x1="24" y1="25.5" x2="54" y2="25.5" stroke="#8F8F8F"/>
<line x1="24" y1="25.5" x2="54" y2="25.5" stroke="#8F8F8F"/>
<line x1="24" y1="25.5" x2="54" y2="25.5" stroke="#8F8F8F"/>
<line x1="24" y1="30.5" x2="41" y2="30.5" stroke="#8F8F8F"/>
<line x1="24" y1="30.5" x2="41" y2="30.5" stroke="#8F8F8F"/>
<line x1="24" y1="30.5" x2="41" y2="30.5" stroke="#8F8F8F"/>
<defs>
<linearGradient id="paint0_linear" x1="19" y1="28" x2="58" y2="28" gradientUnits="userSpaceOnUse">
<stop stop-color="#AFC1BB"/>
<stop offset="0.34375" stop-color="#D3C0DA"/>
<stop offset="0.557292" stop-color="#C9C0DA"/>
<stop offset="1" stop-color="#AFC1BB"/>
</linearGradient>
<linearGradient id="paint1_linear" x1="37.9565" y1="12.9565" x2="18" y2="12.5652" gradientUnits="userSpaceOnUse">
<stop stop-color="#81A8A1"/>
<stop offset="1" stop-color="#7397B9"/>
</linearGradient>
<linearGradient id="paint2_linear" x1="10.5" y1="10" x2="10.5" y2="49" gradientUnits="userSpaceOnUse">
<stop stop-color="#91ACA6"/>
<stop offset="1" stop-color="#CED1D0"/>
</linearGradient>
<linearGradient id="paint3_linear" x1="26.7391" y1="11" x2="26.7391" y2="14.913" gradientUnits="userSpaceOnUse">
<stop stop-color="#896A94"/>
<stop offset="1" stop-color="#99869F"/>
</linearGradient>
</defs>
</svg>
