<svg width="50" height="50" viewBox="0 0 50 50" fill="none" xmlns="http://www.w3.org/2000/svg">
<rect width="50" height="50" fill="white"/>
<path fill-rule="evenodd" clip-rule="evenodd" d="M43.75 25V43.75H25H6.25V25V6.25H25H43.75V25ZM35.1898 14.3422C34.8432 14.3768 34.6239 14.4073 34.3979 14.4523C34.345 14.4628 34.2585 14.4799 34.2056 14.4903C33.9526 14.5401 33.9399 14.5429 33.7204 14.5988C33.6239 14.6233 33.5079 14.6518 33.4274 14.6706C33.2651 14.7086 32.6559 14.9115 32.4341 15.0014C32.3888 15.0197 32.3064 15.0531 32.251 15.0755C31.9305 15.2052 31.3134 15.4985 31.0974 15.6237C31.032 15.6617 30.9166 15.7287 30.8411 15.7726C30.7016 15.8537 29.9972 16.3167 29.9805 16.3383C29.9754 16.3447 29.9425 16.3698 29.9072 16.394C29.872 16.4182 29.839 16.443 29.834 16.449C29.8289 16.455 29.796 16.4797 29.7607 16.5039C29.7255 16.5281 29.6843 16.5611 29.6692 16.5771C29.6541 16.5932 29.6129 16.6262 29.5776 16.6506C29.5424 16.6749 29.493 16.716 29.4678 16.7419C29.4426 16.7679 29.3932 16.8092 29.3579 16.8337C29.3227 16.8582 29.2567 16.9158 29.2114 16.9617C29.1661 17.0075 29.1002 17.0654 29.0649 17.0902C28.9818 17.1488 28.5015 17.6291 28.4427 17.7124C28.4178 17.7477 28.3518 17.8218 28.2959 17.8772C28.24 17.9326 28.1742 18.0067 28.1497 18.042C28.1251 18.0772 28.0838 18.1267 28.0579 18.1519C28.0319 18.177 27.9908 18.2265 27.9665 18.2617C27.9422 18.297 27.9091 18.3382 27.8931 18.3533C27.877 18.3684 27.844 18.4096 27.8198 18.4448C27.7956 18.4801 27.7709 18.513 27.7649 18.5181C27.7589 18.5231 27.7342 18.5561 27.71 18.5913C27.6858 18.6266 27.6608 18.6595 27.6545 18.6646C27.6483 18.6696 27.6071 18.7273 27.5631 18.7927C27.5191 18.8582 27.4742 18.9207 27.4634 18.9317C27.4526 18.9427 27.3993 19.021 27.3451 19.1057C27.2908 19.1904 27.2173 19.305 27.1816 19.3604C27.0063 19.6329 26.7348 20.1419 26.5418 20.5597C26.4393 20.7815 26.4007 20.8718 26.3184 21.0815C26.3006 21.1269 26.2688 21.2051 26.2478 21.2555C26.2063 21.3546 26.003 21.9784 25.9733 22.0978C25.9632 22.1381 25.9411 22.2163 25.924 22.2717C25.8897 22.3833 25.8664 22.4772 25.8423 22.6013C25.8335 22.6466 25.817 22.7208 25.8057 22.7661C25.7813 22.8637 25.7557 22.9918 25.7316 23.1369C25.722 23.1948 25.7055 23.2937 25.695 23.3566C25.6545 23.5989 25.6049 24.0478 25.5931 24.2776L25.5837 24.4616L25.7634 24.4557C25.9455 24.4497 25.9994 24.445 26.2451 24.4141C26.5353 24.3775 26.7779 24.3402 26.9547 24.305C27.0075 24.2945 27.0899 24.2782 27.1378 24.2687C27.1856 24.2593 27.2618 24.2423 27.3071 24.231C27.3524 24.2196 27.4266 24.2031 27.4719 24.1943C27.5956 24.1703 27.6898 24.147 27.8015 24.1127C27.8569 24.0957 27.9846 24.057 28.0853 24.0268C28.597 23.8732 28.8337 23.7842 29.4037 23.5309C29.7534 23.3756 30.1547 23.1654 30.5074 22.9527C30.6971 22.8384 31.2452 22.4774 31.2622 22.4556C31.2672 22.4492 31.3002 22.4241 31.3354 22.3999C31.3707 22.3757 31.4037 22.351 31.4087 22.345C31.4137 22.339 31.4467 22.3142 31.4819 22.29C31.5172 22.2658 31.5584 22.2329 31.5735 22.2168C31.5886 22.2007 31.6298 22.1678 31.665 22.1436C31.7003 22.1193 31.7415 22.0864 31.7566 22.0703C31.7717 22.0543 31.8129 22.0211 31.8481 21.9967C31.8834 21.9723 31.9493 21.9148 31.9946 21.8689C32.0399 21.823 32.1059 21.7651 32.1411 21.7403C32.2247 21.6814 32.9243 20.9817 32.9829 20.8984C33.0077 20.8632 33.0574 20.8055 33.0933 20.7703C33.1292 20.735 33.1785 20.6773 33.2029 20.6421C33.2272 20.6068 33.2603 20.5656 33.2764 20.5505C33.2924 20.5354 33.3254 20.4942 33.3496 20.459C33.3738 20.4237 33.4068 20.3825 33.4229 20.3674C33.4389 20.3523 33.4719 20.3111 33.4961 20.2759C33.5203 20.2406 33.545 20.2077 33.551 20.2026C33.557 20.1976 33.5818 20.1646 33.606 20.1294C33.6302 20.0941 33.6553 20.0612 33.6617 20.0562C33.6848 20.0382 34.1522 19.3287 34.1993 19.2401C34.2257 19.1904 34.2884 19.0797 34.3386 18.9941C34.4399 18.8213 34.7062 18.289 34.7943 18.0832C34.8255 18.0102 34.8754 17.8948 34.9051 17.8268C35.0031 17.6025 35.311 16.6924 35.365 16.4673C35.3735 16.432 35.3895 16.3661 35.4007 16.3208C35.4119 16.2755 35.4282 16.2013 35.437 16.156C35.4458 16.1107 35.4623 16.0365 35.4736 15.9912C35.498 15.8937 35.5236 15.7655 35.5477 15.6204C35.5573 15.5625 35.5738 15.4636 35.5843 15.4007C35.6446 15.0397 35.7066 14.3858 35.6857 14.3313C35.6743 14.3018 35.5732 14.304 35.1898 14.3422ZM14.3193 14.4897C14.3212 14.5854 14.3313 14.7379 14.3418 14.8285C14.3772 15.1367 14.3965 15.2861 14.4157 15.4007C14.4262 15.4636 14.4427 15.5625 14.4523 15.6204C14.4764 15.7655 14.502 15.8937 14.5264 15.9912C14.5377 16.0365 14.5542 16.1107 14.563 16.156C14.5718 16.2013 14.5878 16.2734 14.5985 16.3162C14.6092 16.359 14.6252 16.425 14.6341 16.4627C14.6869 16.6859 14.995 17.5981 15.0949 17.8268C15.1246 17.8948 15.1745 18.0102 15.2057 18.0832C15.2938 18.289 15.5601 18.8213 15.6614 18.9941C15.7116 19.0797 15.7743 19.1904 15.8007 19.2401C15.8478 19.3287 16.3152 20.0382 16.3383 20.0562C16.3447 20.0612 16.3698 20.0941 16.394 20.1294C16.4182 20.1646 16.443 20.1976 16.449 20.2026C16.455 20.2077 16.4797 20.2406 16.5039 20.2759C16.5281 20.3111 16.5611 20.3523 16.5771 20.3674C16.5932 20.3825 16.6262 20.4237 16.6504 20.459C16.6746 20.4942 16.7076 20.5354 16.7236 20.5505C16.7397 20.5656 16.7728 20.6068 16.7971 20.6421C16.8215 20.6773 16.8708 20.735 16.9067 20.7703C16.9426 20.8055 16.9923 20.8632 17.0171 20.8984C17.0757 20.9817 17.7753 21.6814 17.8589 21.7403C17.8941 21.7651 17.9601 21.823 18.0054 21.8689C18.0507 21.9148 18.1166 21.9723 18.1519 21.9967C18.1871 22.0211 18.2283 22.0543 18.2434 22.0703C18.2585 22.0864 18.2997 22.1193 18.335 22.1436C18.3702 22.1678 18.4114 22.2007 18.4265 22.2168C18.4416 22.2329 18.4828 22.2658 18.5181 22.29C18.5533 22.3142 18.5863 22.339 18.5913 22.345C18.5963 22.351 18.6293 22.3757 18.6646 22.3999C18.6998 22.4241 18.7328 22.4492 18.7378 22.4556C18.7548 22.4774 19.3029 22.8384 19.4926 22.9527C19.8453 23.1654 20.2466 23.3756 20.5963 23.5309C21.1663 23.7842 21.403 23.8732 21.9147 24.0268C22.0154 24.057 22.1431 24.0957 22.1985 24.1127C22.3102 24.147 22.4044 24.1703 22.5281 24.1943C22.5734 24.2031 22.6476 24.2196 22.6929 24.231C22.7382 24.2423 22.8165 24.2596 22.8668 24.2693C22.9172 24.2791 22.9996 24.2954 23.0499 24.3056C23.2164 24.3394 23.463 24.3773 23.7549 24.4141C24.0006 24.445 24.0545 24.4497 24.2366 24.4557L24.4163 24.4616L24.4069 24.2776C24.3951 24.0478 24.3455 23.5989 24.305 23.3566C24.2945 23.2937 24.278 23.1948 24.2684 23.1369C24.2443 22.9918 24.2187 22.8637 24.1943 22.7661C24.183 22.7208 24.1665 22.6466 24.1577 22.6013C24.1336 22.4772 24.1103 22.3833 24.076 22.2717C24.0589 22.2163 24.0368 22.1381 24.0267 22.0978C23.9981 21.9827 23.7945 21.3566 23.7544 21.2601C23.7345 21.2122 23.7018 21.1319 23.6816 21.0815C23.6615 21.0312 23.6277 20.9467 23.6066 20.8939C23.4474 20.4955 23.045 19.7126 22.8184 19.3604C22.7827 19.305 22.7092 19.1904 22.6549 19.1057C22.6007 19.021 22.5474 18.9427 22.5366 18.9317C22.5258 18.9207 22.4809 18.8582 22.4369 18.7927C22.3929 18.7273 22.3517 18.6696 22.3455 18.6646C22.3392 18.6595 22.3142 18.6266 22.29 18.5913C22.2658 18.5561 22.2411 18.5231 22.2351 18.5181C22.2291 18.513 22.2044 18.4801 22.1802 18.4448C22.156 18.4096 22.123 18.3684 22.1069 18.3533C22.0909 18.3382 22.0578 18.297 22.0335 18.2617C22.0092 18.2265 21.9681 18.177 21.9421 18.1519C21.9162 18.1267 21.8749 18.0772 21.8503 18.042C21.8258 18.0067 21.76 17.9326 21.7041 17.8772C21.6482 17.8218 21.5822 17.7477 21.5573 17.7124C21.4985 17.6291 21.0182 17.1488 20.9351 17.0902C20.8998 17.0654 20.8339 17.0075 20.7886 16.9617C20.7433 16.9158 20.6773 16.8582 20.6421 16.8337C20.6068 16.8092 20.5574 16.7679 20.5322 16.7419C20.507 16.716 20.4576 16.6749 20.4224 16.6506C20.3871 16.6262 20.3459 16.5932 20.3308 16.5771C20.3157 16.5611 20.2745 16.5281 20.2393 16.5039C20.204 16.4797 20.1711 16.455 20.166 16.449C20.161 16.443 20.128 16.4182 20.0928 16.394C20.0575 16.3698 20.0246 16.3447 20.0195 16.3383C20.003 16.317 19.2992 15.8542 19.1635 15.7754C19.0905 15.7329 18.9752 15.6659 18.9072 15.6265C18.688 15.4992 18.073 15.2067 17.749 15.0755C17.6936 15.0531 17.6112 15.0197 17.5659 15.0014C17.3441 14.9115 16.7349 14.7086 16.5726 14.6706C16.4921 14.6518 16.3761 14.6233 16.2796 14.5988C16.0601 14.5429 16.0474 14.5401 15.7944 14.4903C15.7415 14.4799 15.655 14.4628 15.6021 14.4523C15.3525 14.4026 15.0931 14.3679 14.8162 14.3473C14.7188 14.34 14.6327 14.3276 14.6248 14.3197C14.6169 14.3118 14.5442 14.3076 14.4631 14.3105L14.3158 14.3158L14.3193 14.4897ZM25.5564 25.7187C25.5761 26.1096 25.6407 26.5914 25.7324 27.0325C25.7419 27.0778 25.7575 27.1561 25.7673 27.2064C25.7771 27.2568 25.7934 27.3309 25.8037 27.3712C25.8282 27.4676 25.8567 27.5838 25.8768 27.6688C25.9113 27.8148 26.157 28.5783 26.2111 28.7079C26.2322 28.7582 26.2658 28.8406 26.2859 28.891C26.4329 29.2601 26.8414 30.0912 27.0282 30.4012C27.1643 30.6272 27.5211 31.1711 27.5449 31.189C27.5516 31.194 27.593 31.2517 27.6368 31.3171C27.6806 31.3826 27.7299 31.4485 27.7462 31.4636C27.7625 31.4787 27.7956 31.5199 27.8198 31.5552C27.844 31.5904 27.877 31.6316 27.8931 31.6467C27.9091 31.6618 27.9422 31.703 27.9665 31.7383C27.9908 31.7735 28.0319 31.823 28.0579 31.8481C28.0838 31.8733 28.1251 31.9228 28.1496 31.958C28.1741 31.9933 28.2317 32.0592 28.2776 32.1045C28.3235 32.1498 28.3813 32.2157 28.4062 32.251C28.4648 32.3342 28.9817 32.8511 29.0649 32.9098C29.1002 32.9346 29.1661 32.9925 29.2114 33.0383C29.2567 33.0842 29.3227 33.1418 29.3579 33.1663C29.3932 33.1908 29.4426 33.2321 29.4678 33.2581C29.493 33.284 29.5424 33.3251 29.5776 33.3494C29.6129 33.3738 29.6541 33.4068 29.6692 33.4229C29.6843 33.4389 29.7255 33.4719 29.7607 33.4961C29.796 33.5203 29.8289 33.545 29.834 33.551C29.839 33.557 29.872 33.5818 29.9072 33.606C29.9425 33.6302 29.9754 33.6553 29.9805 33.6617C29.9968 33.6828 30.7 34.1453 30.8319 34.2219C30.9024 34.2628 31.0178 34.3298 31.0883 34.3708C31.3099 34.4997 31.9425 34.8009 32.2418 34.9202C32.2922 34.9402 32.3746 34.9736 32.4249 34.9943C32.639 35.0824 33.2537 35.2883 33.4229 35.3285C33.575 35.3647 33.7123 35.3985 33.8715 35.439C33.9117 35.4492 33.9859 35.4656 34.0363 35.4754C34.1349 35.4945 34.2568 35.5187 34.4025 35.5483C34.7152 35.6117 35.2422 35.6735 35.5286 35.6805L35.6842 35.6842L35.6807 35.5103C35.6788 35.4146 35.6687 35.2621 35.6582 35.1715C35.6228 34.8633 35.6035 34.7139 35.5843 34.5993C35.5738 34.5364 35.5573 34.4375 35.5477 34.3796C35.5236 34.2345 35.498 34.1063 35.4736 34.0088C35.4623 33.9635 35.4458 33.8893 35.437 33.844C35.4282 33.7987 35.4126 33.7286 35.4024 33.6884C35.3921 33.6481 35.3761 33.5822 35.3667 33.5419C35.3158 33.3234 35.0077 32.4086 34.9073 32.1777C34.8788 32.1123 34.8289 31.9969 34.7965 31.9214C34.7053 31.7093 34.4401 31.179 34.3386 31.0059C34.2884 30.9203 34.2257 30.8096 34.1993 30.7599C34.1522 30.6713 33.6848 29.9618 33.6617 29.9438C33.6553 29.9388 33.6302 29.9059 33.606 29.8706C33.5818 29.8354 33.557 29.8024 33.551 29.7974C33.545 29.7923 33.5203 29.7594 33.4961 29.7241C33.4719 29.6889 33.4389 29.6477 33.4229 29.6326C33.4068 29.6175 33.3738 29.5763 33.3496 29.541C33.3254 29.5058 33.2924 29.4646 33.2764 29.4495C33.2603 29.4344 33.2272 29.3932 33.2029 29.3579C33.1785 29.3227 33.1292 29.265 33.0933 29.2297C33.0574 29.1945 33.0077 29.1368 32.9829 29.1016C32.9243 29.0183 32.2247 28.3186 32.1411 28.2597C32.1059 28.2348 32.0399 28.177 31.9946 28.1311C31.9493 28.0852 31.8834 28.0277 31.8481 28.0033C31.8129 27.9789 31.7717 27.9457 31.7566 27.9297C31.7415 27.9136 31.7003 27.8807 31.665 27.8564C31.6298 27.8322 31.5886 27.7993 31.5735 27.7832C31.5584 27.7671 31.5172 27.7342 31.4819 27.71C31.4467 27.6858 31.4137 27.6608 31.4087 27.6545C31.4037 27.6483 31.346 27.6073 31.2805 27.5635C31.2151 27.5197 31.1574 27.4782 31.1523 27.4712C31.1346 27.4468 30.5847 27.095 30.3617 26.9655C29.9559 26.7297 29.1512 26.3482 28.7628 26.2075C28.4834 26.1062 27.8642 25.9057 27.742 25.8768C27.7042 25.8679 27.6424 25.8527 27.6047 25.8431C27.4477 25.8032 27.3668 25.7842 27.2888 25.769C27.2435 25.7602 27.1693 25.7436 27.124 25.7322C27.0787 25.7207 26.9943 25.7037 26.9363 25.6944C26.8784 25.6851 26.7795 25.669 26.7166 25.6585C26.3799 25.6028 26.0854 25.5676 25.824 25.5518C25.6981 25.5442 25.5843 25.5364 25.571 25.5345C25.552 25.5317 25.5489 25.57 25.5564 25.7187ZM23.9746 25.5594C23.6369 25.5971 23.2622 25.6518 23.0453 25.695C22.9925 25.7055 22.906 25.7226 22.8531 25.733C22.6519 25.7726 22.5897 25.7857 22.5098 25.8054C22.4644 25.8165 22.3985 25.8326 22.3633 25.841C22.328 25.8495 22.2539 25.8703 22.1985 25.8873C22.1431 25.9043 22.0401 25.9348 21.9696 25.9549C21.7351 26.022 21.2992 26.1704 21.1136 26.2462C21.0658 26.2658 20.9834 26.299 20.9305 26.3202C20.6965 26.4138 20.1289 26.6841 19.9097 26.8063C19.5595 27.0015 18.7767 27.4944 18.7378 27.5443C18.7328 27.5508 18.6998 27.5759 18.6646 27.6001C18.6293 27.6243 18.5963 27.649 18.5913 27.655C18.5863 27.661 18.5533 27.6858 18.5181 27.71C18.4828 27.7342 18.4416 27.7671 18.4265 27.7832C18.4114 27.7993 18.3702 27.8322 18.335 27.8564C18.2997 27.8807 18.2585 27.9136 18.2434 27.9297C18.2283 27.9457 18.1871 27.9788 18.1519 28.0032C18.1166 28.0276 18.0589 28.0769 18.0237 28.1128C17.9884 28.1487 17.9308 28.1984 17.8955 28.2232C17.8121 28.2819 17.0758 29.0182 17.0171 29.1016C16.9923 29.1368 16.9426 29.1945 16.9067 29.2297C16.8708 29.265 16.8215 29.3227 16.7971 29.3579C16.7728 29.3932 16.7397 29.4344 16.7236 29.4495C16.7076 29.4646 16.6746 29.5058 16.6504 29.541C16.6262 29.5763 16.5932 29.6175 16.5771 29.6326C16.5611 29.6477 16.5281 29.6889 16.5039 29.7241C16.4797 29.7594 16.455 29.7923 16.449 29.7974C16.443 29.8024 16.4182 29.8354 16.394 29.8706C16.3698 29.9059 16.3447 29.9388 16.3383 29.9438C16.3152 29.9618 15.8478 30.6713 15.8007 30.7599C15.7743 30.8096 15.7116 30.9203 15.6614 31.0059C15.5599 31.179 15.2947 31.7093 15.2035 31.9214C15.1162 32.1244 15.0479 32.2852 15.0049 32.3883C14.9509 32.518 14.6699 33.3871 14.635 33.5327C14.6265 33.568 14.6105 33.6339 14.5993 33.6792C14.5881 33.7245 14.5718 33.7987 14.563 33.844C14.5542 33.8893 14.5377 33.9635 14.5264 34.0088C14.502 34.1063 14.4764 34.2345 14.4523 34.3796C14.4427 34.4375 14.4262 34.5364 14.4157 34.5993C14.3965 34.7139 14.3772 34.8633 14.3418 35.1715C14.3313 35.2621 14.3212 35.4146 14.3193 35.5103L14.3158 35.6842L14.4714 35.6805C14.6997 35.6749 15.1948 35.6227 15.387 35.5839C15.4424 35.5727 15.533 35.556 15.5884 35.5469C15.6438 35.5377 15.7303 35.5219 15.7806 35.5117C15.831 35.5015 15.9134 35.4851 15.9637 35.4754C16.05 35.4586 16.1286 35.4403 16.2888 35.3995C16.3768 35.3771 16.4957 35.3479 16.5771 35.3286C16.6362 35.3146 16.9216 35.225 17.1631 35.1446C17.3085 35.0962 17.4705 35.0373 17.5705 34.9965C17.6183 34.9769 17.7007 34.9436 17.7536 34.9223C18.0792 34.7915 18.6906 34.495 18.9575 34.3386C19.0431 34.2884 19.1539 34.2256 19.2037 34.1992C19.2949 34.1507 19.8926 33.7572 19.9097 33.7345C19.9147 33.7277 19.9724 33.6864 20.0378 33.6426C20.1033 33.5988 20.161 33.5578 20.166 33.5515C20.1711 33.5452 20.204 33.5203 20.2393 33.4961C20.2745 33.4719 20.3157 33.4389 20.3308 33.4229C20.3459 33.4068 20.3871 33.3738 20.4224 33.3494C20.4576 33.3251 20.507 33.284 20.5322 33.2581C20.5574 33.2321 20.6068 33.1908 20.6421 33.1663C20.6773 33.1418 20.7433 33.0842 20.7886 33.0383C20.8339 32.9925 20.8998 32.9346 20.9351 32.9098C21.0182 32.8512 21.4985 32.3709 21.5573 32.2876C21.5822 32.2523 21.6482 32.1782 21.7041 32.1228C21.76 32.0674 21.8258 31.9933 21.8503 31.958C21.8749 31.9228 21.9162 31.8733 21.9421 31.8481C21.9681 31.823 22.0092 31.7735 22.0335 31.7383C22.0578 31.703 22.0909 31.6618 22.1069 31.6467C22.123 31.6316 22.156 31.5904 22.1802 31.5552C22.2044 31.5199 22.2291 31.487 22.2351 31.4819C22.2411 31.4769 22.2658 31.4439 22.29 31.4087C22.3142 31.3734 22.3392 31.3405 22.3455 31.3354C22.3517 31.3304 22.3929 31.2727 22.4369 31.2073C22.4809 31.1418 22.5263 31.0787 22.5378 31.0671C22.5493 31.0554 22.586 31.0018 22.6192 30.948C22.6525 30.8942 22.7255 30.7802 22.7814 30.6946C23.0366 30.304 23.428 29.5503 23.6087 29.1016C23.6311 29.0462 23.6643 28.9638 23.6827 28.9185C23.759 28.7301 23.9917 28.043 24.0267 27.9022C24.0368 27.8619 24.0589 27.7837 24.076 27.7283C24.1103 27.6167 24.1336 27.5228 24.1577 27.3987C24.1665 27.3534 24.183 27.2792 24.1943 27.2339C24.2187 27.1363 24.2443 27.0082 24.2684 26.8631C24.278 26.8052 24.2945 26.7063 24.305 26.6434C24.3455 26.4011 24.3951 25.9522 24.4069 25.7224L24.4163 25.5384L24.2366 25.5443C24.1378 25.5476 24.0199 25.5544 23.9746 25.5594Z" fill="#6B5AED"/>
</svg>
