<svg width="60" height="60" viewBox="0 0 60 60" fill="none" xmlns="http://www.w3.org/2000/svg">
<path d="M55.0811 9H4.91892C2.75456 9 1 10.7546 1 12.9189V46.2206C1 48.385 2.75456 50.1395 4.91892 50.1395H55.0811C57.2454 50.1395 59 48.385 59 46.2206V12.9189C59 10.7546 57.2454 9 55.0811 9Z" fill="white"/>
<path d="M54.5158 10.349H5.48377C3.75228 10.349 2.34863 11.7526 2.34863 13.4841V45.6557C2.34863 47.3872 3.75228 48.7908 5.48377 48.7908H54.5158C56.2473 48.7908 57.651 47.3872 57.651 45.6557V13.4841C57.651 11.7526 56.2473 10.349 54.5158 10.349Z" fill="url(#paint0_linear)"/>
<path fill-rule="evenodd" clip-rule="evenodd" d="M5.48377 10.349H38.0928V17.7676H2.34863V13.4841C2.34863 11.7526 3.75228 10.349 5.48377 10.349Z" fill="url(#paint1_linear)"/>
<path opacity="0.681664" fill-rule="evenodd" clip-rule="evenodd" d="M2.34863 42.7208H57.651V45.6555C57.651 47.387 56.2473 48.7906 54.5158 48.7906H5.48377C3.75228 48.7906 2.34863 47.387 2.34863 45.6555V42.7208Z" fill="white"/>
<path opacity="0.799479" fill-rule="evenodd" clip-rule="evenodd" d="M38.0928 10.349H54.5158C56.2473 10.349 57.6509 11.7526 57.6509 13.4841V17.7676H38.0928V10.349Z" fill="white"/>
<path fill-rule="evenodd" clip-rule="evenodd" d="M17.8605 12.3722H23.9302L19.8837 17.7676H13.814L17.8605 12.3722Z" fill="#8F5B71"/>
<path opacity="0.264393" d="M23.93 17.7674H2.34863V42.7209H23.93V17.7674Z" fill="white"/>
<path fill-rule="evenodd" clip-rule="evenodd" d="M18.0389 29.5657C17.882 29.5138 16.8905 31.0934 18.8891 32.9307C19.2959 33.0191 18.9269 35.3661 16.4573 35.3837L16.3041 35.3814L16.3319 35.3895C16.9201 35.5796 18.4193 36.3824 19.7454 37.0214C21.3897 37.8138 22.0016 42.6615 22.0016 42.7485C22.0016 42.8064 19.0919 42.8064 13.2723 42.7485H12.4271C6.60752 42.8064 3.69775 42.8064 3.69775 42.7485C3.69775 42.6615 4.30964 37.8138 5.954 37.0214C7.2801 36.3824 8.77928 35.5796 9.36753 35.3895L9.39429 35.3814L9.24211 35.3837C6.83267 35.3665 6.42274 33.1322 6.78192 32.9411L6.81028 32.9307C8.80886 31.0934 7.81742 29.5138 7.66052 29.5657C6.81008 23.4393 8.68067 20.4061 13.2723 20.4661C17.3005 20.4061 18.8893 23.4393 18.0389 29.5657Z" fill="url(#paint2_linear)"/>
<path d="M41.5496 15.0962C41.7569 15.0962 41.9092 15.0268 42.0067 14.888C42.1042 14.7493 42.1529 14.5372 42.1529 14.2518V13.9357C42.1503 13.6599 42.1002 13.456 42.0028 13.3238C41.9053 13.1917 41.7534 13.1256 41.547 13.1256C41.3389 13.1256 41.1861 13.1941 41.0886 13.3311C40.9911 13.4681 40.9424 13.6775 40.9424 13.9594V14.2848C40.9459 14.5543 40.9968 14.757 41.0952 14.8927C41.1935 15.0283 41.345 15.0962 41.5496 15.0962ZM41.5496 14.8973C41.4276 14.8973 41.3365 14.8479 41.2763 14.7491C41.2161 14.6503 41.1861 14.4973 41.1861 14.29V13.9001C41.1878 13.7052 41.2172 13.5607 41.2743 13.4668C41.3314 13.3728 41.4223 13.3258 41.547 13.3258C41.6726 13.3258 41.7643 13.373 41.8223 13.4674C41.8802 13.5618 41.9092 13.7122 41.9092 13.9186V14.3177C41.9066 14.5179 41.8761 14.6646 41.8177 14.7576C41.7593 14.8507 41.6699 14.8973 41.5496 14.8973ZM43.0644 15.0962C43.2717 15.0962 43.424 15.0268 43.5215 14.888C43.619 14.7493 43.6677 14.5372 43.6677 14.2518V13.9357C43.6651 13.6599 43.615 13.456 43.5176 13.3238C43.4201 13.1917 43.2682 13.1256 43.0618 13.1256C42.8537 13.1256 42.7009 13.1941 42.6034 13.3311C42.5059 13.4681 42.4572 13.6775 42.4572 13.9594V14.2848C42.4607 14.5543 42.5116 14.757 42.61 14.8927C42.7083 15.0283 42.8598 15.0962 43.0644 15.0962ZM43.0644 14.8973C42.9424 14.8973 42.8513 14.8479 42.7911 14.7491C42.731 14.6503 42.7009 14.4973 42.7009 14.29V13.9001C42.7026 13.7052 42.7321 13.5607 42.7891 13.4668C42.8462 13.3728 42.9371 13.3258 43.0618 13.3258C43.1874 13.3258 43.2791 13.373 43.3371 13.4674C43.3951 13.5618 43.424 13.7122 43.424 13.9186V14.3177C43.4214 14.5179 43.3909 14.6646 43.3325 14.7576C43.2741 14.8507 43.1847 14.8973 43.0644 14.8973ZM44.5792 15.0962C44.7865 15.0962 44.9388 15.0268 45.0363 14.888C45.1338 14.7493 45.1825 14.5372 45.1825 14.2518V13.9357C45.1799 13.6599 45.1298 13.456 45.0324 13.3238C44.9349 13.1917 44.783 13.1256 44.5766 13.1256C44.3685 13.1256 44.2157 13.1941 44.1182 13.3311C44.0207 13.4681 43.972 13.6775 43.972 13.9594V14.2848C43.9755 14.5543 44.0264 14.757 44.1248 14.8927C44.2232 15.0283 44.3746 15.0962 44.5792 15.0962ZM44.5792 14.8973C44.4572 14.8973 44.3661 14.8479 44.3059 14.7491C44.2458 14.6503 44.2157 14.4973 44.2157 14.29V13.9001C44.2174 13.7052 44.2469 13.5607 44.3039 13.4668C44.361 13.3728 44.4519 13.3258 44.5766 13.3258C44.7022 13.3258 44.7939 13.373 44.8519 13.4674C44.9099 13.5618 44.9388 13.7122 44.9388 13.9186V14.3177C44.9362 14.5179 44.9057 14.6646 44.8473 14.7576C44.7889 14.8507 44.6995 14.8973 44.5792 14.8973ZM46.094 15.0962C46.3013 15.0962 46.4537 15.0268 46.5511 14.888C46.6486 14.7493 46.6973 14.5372 46.6973 14.2518V13.9357C46.6947 13.6599 46.6446 13.456 46.5472 13.3238C46.4497 13.1917 46.2978 13.1256 46.0914 13.1256C45.8833 13.1256 45.7305 13.1941 45.633 13.3311C45.5355 13.4681 45.4868 13.6775 45.4868 13.9594V14.2848C45.4903 14.5543 45.5413 14.757 45.6396 14.8927C45.738 15.0283 45.8894 15.0962 46.094 15.0962ZM46.094 14.8973C45.972 14.8973 45.8809 14.8479 45.8207 14.7491C45.7606 14.6503 45.7305 14.4973 45.7305 14.29V13.9001C45.7323 13.7052 45.7617 13.5607 45.8187 13.4668C45.8758 13.3728 45.9667 13.3258 46.0914 13.3258C46.217 13.3258 46.3088 13.373 46.3667 13.4674C46.4247 13.5618 46.4537 13.7122 46.4537 13.9186V14.3177C46.451 14.5179 46.4205 14.6646 46.3621 14.7576C46.3037 14.8507 46.2144 14.8973 46.094 14.8973ZM47.6089 15.0962C47.8161 15.0962 47.9685 15.0268 48.0659 14.888C48.1634 14.7493 48.2121 14.5372 48.2121 14.2518V13.9357C48.2095 13.6599 48.1595 13.456 48.062 13.3238C47.9645 13.1917 47.8126 13.1256 47.6062 13.1256C47.3981 13.1256 47.2453 13.1941 47.1478 13.3311C47.0504 13.4681 47.0016 13.6775 47.0016 13.9594V14.2848C47.0051 14.5543 47.0561 14.757 47.1544 14.8927C47.2528 15.0283 47.4042 15.0962 47.6089 15.0962ZM47.6089 14.8973C47.4868 14.8973 47.3957 14.8479 47.3355 14.7491C47.2754 14.6503 47.2453 14.4973 47.2453 14.29V13.9001C47.2471 13.7052 47.2765 13.5607 47.3336 13.4668C47.3906 13.3728 47.4815 13.3258 47.6062 13.3258C47.7318 13.3258 47.8236 13.373 47.8815 13.4674C47.9395 13.5618 47.9685 13.7122 47.9685 13.9186V14.3177C47.9658 14.5179 47.9353 14.6646 47.8769 14.7576C47.8185 14.8507 47.7292 14.8973 47.6089 14.8973ZM49.1237 15.0962C49.3309 15.0962 49.4833 15.0268 49.5807 14.888C49.6782 14.7493 49.727 14.5372 49.727 14.2518V13.9357C49.7243 13.6599 49.6743 13.456 49.5768 13.3238C49.4793 13.1917 49.3274 13.1256 49.121 13.1256C48.9129 13.1256 48.7601 13.1941 48.6626 13.3311C48.5652 13.4681 48.5164 13.6775 48.5164 13.9594V14.2848C48.5199 14.5543 48.5709 14.757 48.6692 14.8927C48.7676 15.0283 48.9191 15.0962 49.1237 15.0962ZM49.1237 14.8973C49.0016 14.8973 48.9105 14.8479 48.8503 14.7491C48.7902 14.6503 48.7601 14.4973 48.7601 14.29V13.9001C48.7619 13.7052 48.7913 13.5607 48.8484 13.4668C48.9054 13.3728 48.9963 13.3258 49.121 13.3258C49.2466 13.3258 49.3384 13.373 49.3963 13.4674C49.4543 13.5618 49.4833 13.7122 49.4833 13.9186V14.3177C49.4806 14.5179 49.4501 14.6646 49.3917 14.7576C49.3333 14.8507 49.244 14.8973 49.1237 14.8973ZM50.6385 15.0962C50.8457 15.0962 50.9981 15.0268 51.0956 14.888C51.193 14.7493 51.2418 14.5372 51.2418 14.2518V13.9357C51.2391 13.6599 51.1891 13.456 51.0916 13.3238C50.9941 13.1917 50.8422 13.1256 50.6358 13.1256C50.4277 13.1256 50.2749 13.1941 50.1774 13.3311C50.08 13.4681 50.0312 13.6775 50.0312 13.9594V14.2848C50.0347 14.5543 50.0857 14.757 50.184 14.8927C50.2824 15.0283 50.4339 15.0962 50.6385 15.0962ZM50.6385 14.8973C50.5164 14.8973 50.4253 14.8479 50.3651 14.7491C50.305 14.6503 50.2749 14.4973 50.2749 14.29V13.9001C50.2767 13.7052 50.3061 13.5607 50.3632 13.4668C50.4203 13.3728 50.5111 13.3258 50.6358 13.3258C50.7614 13.3258 50.8532 13.373 50.9111 13.4674C50.9691 13.5618 50.9981 13.7122 50.9981 13.9186V14.3177C50.9954 14.5179 50.9649 14.6646 50.9065 14.7576C50.8481 14.8507 50.7588 14.8973 50.6385 14.8973ZM52.1533 15.0962C52.3605 15.0962 52.5129 15.0268 52.6104 14.888C52.7078 14.7493 52.7566 14.5372 52.7566 14.2518V13.9357C52.7539 13.6599 52.7039 13.456 52.6064 13.3238C52.5089 13.1917 52.357 13.1256 52.1506 13.1256C51.9425 13.1256 51.7897 13.1941 51.6923 13.3311C51.5948 13.4681 51.546 13.6775 51.546 13.9594V14.2848C51.5496 14.5543 51.6005 14.757 51.6988 14.8927C51.7972 15.0283 51.9487 15.0962 52.1533 15.0962ZM52.1533 14.8973C52.0312 14.8973 51.9401 14.8479 51.88 14.7491C51.8198 14.6503 51.7897 14.4973 51.7897 14.29V13.9001C51.7915 13.7052 51.8209 13.5607 51.878 13.4668C51.9351 13.3728 52.0259 13.3258 52.1506 13.3258C52.2762 13.3258 52.368 13.373 52.4259 13.4674C52.4839 13.5618 52.5129 13.7122 52.5129 13.9186V14.3177C52.5103 14.5179 52.4797 14.6646 52.4213 14.7576C52.3629 14.8507 52.2736 14.8973 52.1533 14.8973ZM54.3254 15.0698V14.8709H53.3625L53.8762 14.3137C54.1168 14.0529 54.2371 13.8281 54.2371 13.6393C54.2371 13.4839 54.1853 13.3594 54.0817 13.2659C53.9781 13.1724 53.8371 13.1256 53.6589 13.1256C53.4683 13.1256 53.3162 13.18 53.2025 13.2889C53.0887 13.3978 53.0319 13.5405 53.0319 13.717H53.2756C53.2756 13.5941 53.3091 13.4981 53.3763 13.4292C53.4435 13.3603 53.5377 13.3258 53.6589 13.3258C53.7599 13.3258 53.8406 13.3579 53.9012 13.422C53.9618 13.4861 53.9921 13.5682 53.9921 13.6683C53.9921 13.7429 53.9735 13.8152 53.9361 13.885C53.8988 13.9548 53.831 14.0455 53.7326 14.157L53.0687 14.8946V15.0698H54.3254Z" fill="black"/>
<path d="M8.24204 46.5106V46.2524L7.41746 45.9191L8.24204 45.5793V45.3211L7.16455 45.819V46.0114L8.24204 46.5106ZM9.61327 46.5106V46.2524L8.78869 45.9191L9.61327 45.5793V45.3211L8.53578 45.819V46.0114L9.61327 46.5106ZM10.9845 46.5106V46.2524L10.1599 45.9191L10.9845 45.5793V45.3211L9.90701 45.819V46.0114L10.9845 46.5106ZM12.3557 46.5106V46.2524L11.5311 45.9191L12.3557 45.5793V45.3211L11.2782 45.819V46.0114L12.3557 46.5106ZM13.727 46.5106V46.2524L12.9024 45.9191L13.727 45.5793V45.3211L12.6495 45.819V46.0114L13.727 46.5106ZM15.0982 46.5106V46.2524L14.2736 45.9191L15.0982 45.5793V45.3211L14.0207 45.819V46.0114L15.0982 46.5106ZM16.4694 46.5106V46.2524L15.6448 45.9191L16.4694 45.5793V45.3211L15.3919 45.819V46.0114L16.4694 46.5106ZM17.8406 46.5106V46.2524L17.0161 45.9191L17.8406 45.5793V45.3211L16.7632 45.819V46.0114L17.8406 46.5106ZM19.2119 46.5106V46.2524L18.3873 45.9191L19.2119 45.5793V45.3211L18.1344 45.819V46.0114L19.2119 46.5106ZM20.5831 46.5106V46.2524L19.7585 45.9191L20.5831 45.5793V45.3211L19.5056 45.819V46.0114L20.5831 46.5106ZM21.9543 46.5106V46.2524L21.1298 45.9191L21.9543 45.5793V45.3211L20.8768 45.819V46.0114L21.9543 46.5106ZM23.3256 46.5106V46.2524L22.501 45.9191L23.3256 45.5793V45.3211L22.2481 45.819V46.0114L23.3256 46.5106ZM24.6968 46.5106V46.2524L23.8722 45.9191L24.6968 45.5793V45.3211L23.6193 45.819V46.0114L24.6968 46.5106ZM26.068 46.5106V46.2524L25.2434 45.9191L26.068 45.5793V45.3211L24.9905 45.819V46.0114L26.068 46.5106ZM27.4393 46.5106V46.2524L26.6147 45.9191L27.4393 45.5793V45.3211L26.3618 45.819V46.0114L27.4393 46.5106ZM28.8105 46.5106V46.2524L27.9859 45.9191L28.8105 45.5793V45.3211L27.733 45.819V46.0114L28.8105 46.5106ZM30.1817 46.5106V46.2524L29.3571 45.9191L30.1817 45.5793V45.3211L29.1042 45.819V46.0114L30.1817 46.5106ZM31.5529 46.5106V46.2524L30.7284 45.9191L31.5529 45.5793V45.3211L30.4755 45.819V46.0114L31.5529 46.5106ZM32.9242 46.5106V46.2524L32.0996 45.9191L32.9242 45.5793V45.3211L31.8467 45.819V46.0114L32.9242 46.5106ZM34.2954 46.5106V46.2524L33.4708 45.9191L34.2954 45.5793V45.3211L33.2179 45.819V46.0114L34.2954 46.5106ZM35.6666 46.5106V46.2524L34.8421 45.9191L35.6666 45.5793V45.3211L34.5891 45.819V46.0114L35.6666 46.5106ZM37.0379 46.5106V46.2524L36.2133 45.9191L37.0379 45.5793V45.3211L35.9604 45.819V46.0114L37.0379 46.5106ZM38.4091 46.5106V46.2524L37.5845 45.9191L38.4091 45.5793V45.3211L37.3316 45.819V46.0114L38.4091 46.5106ZM39.7803 46.5106V46.2524L38.9557 45.9191L39.7803 45.5793V45.3211L38.7028 45.819V46.0114L39.7803 46.5106ZM41.1516 46.5106V46.2524L40.327 45.9191L41.1516 45.5793V45.3211L40.0741 45.819V46.0114L41.1516 46.5106ZM42.5228 46.5106V46.2524L41.6982 45.9191L42.5228 45.5793V45.3211L41.4453 45.819V46.0114L42.5228 46.5106ZM43.894 46.5106V46.2524L43.0694 45.9191L43.894 45.5793V45.3211L42.8165 45.819V46.0114L43.894 46.5106ZM45.2652 46.5106V46.2524L44.4407 45.9191L45.2652 45.5793V45.3211L44.1878 45.819V46.0114L45.2652 46.5106ZM46.6365 46.5106V46.2524L45.8119 45.9191L46.6365 45.5793V45.3211L45.559 45.819V46.0114L46.6365 46.5106ZM48.0077 46.5106V46.2524L47.1831 45.9191L48.0077 45.5793V45.3211L46.9302 45.819V46.0114L48.0077 46.5106ZM49.3789 46.5106V46.2524L48.5543 45.9191L49.3789 45.5793V45.3211L48.3014 45.819V46.0114L49.3789 46.5106ZM50.7502 46.5106V46.2524L49.9256 45.9191L50.7502 45.5793V45.3211L49.6727 45.819V46.0114L50.7502 46.5106ZM52.1214 46.5106V46.2524L51.2968 45.9191L52.1214 45.5793V45.3211L51.0439 45.819V46.0114L52.1214 46.5106ZM53.4926 46.5106V46.2524L52.668 45.9191L53.4926 45.5793V45.3211L52.4151 45.819V46.0114L53.4926 46.5106Z" fill="black"/>
<defs>
<linearGradient id="paint0_linear" x1="57.651" y1="29.5699" x2="2.34863" y2="29.5699" gradientUnits="userSpaceOnUse">
<stop stop-color="#CCC9D2"/>
<stop offset="1" stop-color="#F6D5DB"/>
</linearGradient>
<linearGradient id="paint1_linear" x1="38.0928" y1="14.0583" x2="2.51184" y2="14.0583" gradientUnits="userSpaceOnUse">
<stop stop-color="#6F779C"/>
<stop offset="1" stop-color="#F68AAA"/>
</linearGradient>
<linearGradient id="paint2_linear" x1="22.0016" y1="31.6286" x2="3.69775" y2="31.6286" gradientUnits="userSpaceOnUse">
<stop stop-color="#C5B8C7"/>
<stop offset="1" stop-color="#EABDCA"/>
</linearGradient>
</defs>
</svg>
