<svg width="150" height="150" viewBox="0 0 150 150" fill="none" xmlns="http://www.w3.org/2000/svg">
<g clip-path="url(#clip0)">
<path fill-rule="evenodd" clip-rule="evenodd" d="M72.4127 49.9982C71.3425 57.5306 70.4872 63.8724 68.946 73.7486C73.1098 73.6582 82.5601 75.3162 84.6401 61.8188C86.3621 50.5897 78.6865 49.5497 72.4127 49.9982V49.9982Z" fill="black"/>
<path fill-rule="evenodd" clip-rule="evenodd" d="M108.474 104.301C110.094 107.907 108.462 112.466 105.082 114.301C103.142 115.356 100.926 116.336 98.7142 116.886C95.0625 117.758 91.329 118.243 87.5756 118.333C81.573 118.333 75.5554 114.897 72.9629 110.714C72.2922 112.157 69.873 115.059 65.6339 116.423C62.9548 117.289 59.7255 118.333 52.9843 118.326C46.944 118.322 43.5 115.582 41.68 113.284C38.7785 109.629 38.3527 104.986 38.918 101.859L38.9481 101.708C41.2278 90.272 44.344 69.4795 45.7797 59.0606L45.7948 58.9589C46.1866 56.0688 46.5861 53.1786 46.8235 50.2696C46.9403 48.8038 47.0194 47.3305 47.0345 45.8609C47.0495 44.4705 46.9214 43.0838 46.9327 41.6934C46.9478 40.3821 47.1588 39.0557 47.773 37.8951C48.7716 36.0224 50.5991 34.5453 52.5322 33.9009C54.6536 33.1925 56.8693 32.9099 59.0736 32.6537C61.3273 32.3836 63.5861 32.1575 65.8487 31.9754C68.6073 31.7727 71.3724 31.6696 74.1385 31.6664C78.8713 31.6627 83.6342 31.7418 88.2991 32.7027C93.0507 33.6824 97.8513 35.5551 101.601 38.8372C104.17 41.0867 106.209 43.9241 107.743 47.0291C109.084 49.7647 109.63 52.6435 109.954 54.8441C110.531 58.7936 110.379 62.8153 109.506 66.7099C108.817 69.5496 107.654 72.2527 106.066 74.7059C104.28 77.4792 101.989 79.9963 99.0684 82.3928C100.847 87.5551 105.482 97.6386 108.474 104.301ZM55.3206 42.2172C55.4336 44.1314 55.4487 46.0606 55.3658 47.9824C55.2829 49.9456 55.1133 51.9012 54.8948 53.8531C54.68 55.7975 54.42 57.7343 54.1562 59.6711L54.0696 60.3041C53.2406 66.3595 52.3664 72.4073 51.4507 78.4438C50.4861 84.7893 49.4046 91.1009 48.3232 97.4201C47.822 100.367 46.6953 104.142 48.2365 106.953C49.6081 109.463 53.1275 109.768 55.5806 109.516C64.5148 108.604 65.9353 106.618 65.9353 106.618C64.153 104.644 65.7017 95.6453 67.4953 83.5496H73.8446L80.4916 103.653C80.4916 103.653 82.451 109.881 87.8959 109.58C94.8707 109.195 100.003 107.602 100.741 106.716C98.5936 105.518 92.4516 90.1589 89.1055 78.8809C90.7258 77.8937 92.2971 76.8198 93.778 75.6177C95.8014 73.9673 97.678 72.0644 99.1136 69.8299C100.146 68.2247 100.934 66.4575 101.386 64.5809C101.623 63.5899 101.755 62.5537 101.838 61.5401C101.989 59.754 101.932 57.9453 101.672 56.1743C101.423 54.4711 101.05 52.5757 100.289 51.0383C98.8762 48.1633 96.8754 45.6537 94.1472 44.0485C89.5426 41.343 84.2371 40.8267 79.0635 40.5441C73.4525 40.2321 67.8249 40.4162 62.2464 41.0943C61.6209 41.1696 55.2942 41.7273 55.3206 42.2172V42.2172Z" fill="black"/>
</g>
<defs>
<clipPath id="clip0">
<rect width="150" height="150" fill="white"/>
</clipPath>
</defs>
</svg>
