<svg width="50" height="50" viewBox="0 0 50 50" fill="none" xmlns="http://www.w3.org/2000/svg">
<rect width="50" height="50" fill="white"/>
<path d="M11.3324 27.2634C11.2682 27.3026 11.2081 27.3478 11.1528 27.4003C11.0986 27.4518 11.057 27.5075 10.9991 27.5637C8.57966 29.7059 6.45832 28.2944 5.71142 27.662C5.66744 27.6195 5.62807 27.5795 5.58325 27.537C5.53292 27.4892 5.47861 27.4475 5.42166 27.4111C5.00219 27.1438 4.43002 27.1857 4.05996 27.537C3.65327 27.923 3.641 28.5401 4.02069 28.9415C4.03115 28.9554 4.04332 28.9666 4.0554 28.9781C8.62135 33.262 12.6997 28.849 12.6997 28.849C13.1204 28.4498 13.0968 27.7995 12.6761 27.4003C12.4659 27.2008 12.1906 27.1012 11.9152 27.1012C11.7123 27.1012 11.5093 27.1553 11.3324 27.2634Z" fill="#FAD668"/>
<path d="M4.11697 21.1842C3.69636 21.5834 3.69636 22.2308 4.11697 22.63C4.482 22.9764 5.04364 23.0218 5.46074 22.7669C5.52491 22.7277 5.58497 22.6825 5.64025 22.63C5.69447 22.5785 5.75364 22.5299 5.8115 22.4737C8.23089 20.3316 10.3268 21.7397 11.0737 22.3721C11.1177 22.4146 11.165 22.4508 11.2099 22.4933C11.2602 22.5411 11.3145 22.5828 11.3714 22.6191C11.7909 22.8865 12.3631 22.8446 12.7331 22.4933C13.1398 22.1073 13.1521 21.4902 12.7724 21.0888C12.762 21.0749 12.7498 21.0637 12.7377 21.0523C11.2465 19.6531 9.80941 19.182 8.55069 19.1819C5.95537 19.1817 4.11697 21.1842 4.11697 21.1842Z" fill="#36F0C7"/>
<path d="M4.94277 20.8455C4.63915 20.8455 4.33614 20.9596 4.11354 21.1853C3.68809 21.6167 3.71207 22.3041 4.16665 22.7079C5.04942 23.7026 5.09746 23.9602 7.39665 25.7059C10.2049 27.838 10.4131 28.1418 11.1351 28.898C11.5908 29.3029 12.3128 29.2802 12.7393 28.8476C13.1658 28.415 13.1419 27.7298 12.6861 27.325C11.5851 26.2617 11.5476 26.0585 9.1753 24.3278C9.14439 24.3052 9.11181 24.281 9.08208 24.2571C6.5679 22.2422 6.74888 22.2477 5.71773 21.1348C5.4998 20.9413 5.22108 20.8455 4.94287 20.8455C4.94282 20.8455 4.94282 20.8455 4.94277 20.8455Z" fill="#58C2FF"/>
<path d="M11.3825 27.2476C11.3824 27.2475 11.3824 27.2474 11.3824 27.2474C11.382 27.2476 11.3818 27.2478 11.3815 27.2481C11.3183 27.2868 11.2583 27.3319 11.203 27.3845C11.1487 27.4359 11.1071 27.4917 11.0493 27.5479C10.7844 27.7823 10.5854 27.9313 10.3291 28.0863L11.1349 28.898C11.586 29.2986 12.2967 29.2791 12.7247 28.8595C12.7413 28.8425 12.7499 28.8332 12.7499 28.8332C12.7552 28.8281 12.7585 28.8221 12.7637 28.817C13.0087 28.5499 13.0933 28.1968 13.0157 27.8713C13.0149 27.8684 13.0137 27.8656 13.0129 27.8627C13.0001 27.8113 12.9809 27.7614 12.9603 27.7119C12.9056 27.593 12.8281 27.4811 12.7262 27.3845C12.5161 27.185 12.2407 27.0854 11.9653 27.0853C11.7623 27.0853 11.5594 27.1394 11.3825 27.2476Z" fill="#5465FC"/>
<path d="M4.12341 21.1772C4.11952 21.1813 4.11684 21.1842 4.11684 21.1842C4.10322 21.197 4.0939 21.2122 4.08119 21.2256C3.84643 21.4876 3.76405 21.8289 3.83486 22.1465C3.84278 22.1776 3.85261 22.2083 3.86367 22.2387C3.87048 22.2598 3.87737 22.2806 3.88548 22.3012C3.93801 22.4206 4.01452 22.5328 4.11684 22.63C4.48187 22.9764 5.04349 23.0217 5.46059 22.7669C5.52476 22.7276 5.58485 22.6824 5.6401 22.63C5.69432 22.5785 5.75349 22.5299 5.81138 22.4736C6.07206 22.2428 6.21899 22.1242 6.47095 21.9704L5.71765 21.135C5.50001 20.9417 5.22182 20.8461 4.94411 20.8461C4.64445 20.846 4.34538 20.9573 4.12341 21.1772Z" fill="#FF3C87"/>
<path d="M15.303 26.5055C15.303 26.531 15.3052 26.5561 15.3058 26.5815V29.8213C15.305 29.8366 15.301 29.851 15.301 29.8665C15.301 30.3857 15.7444 30.8065 16.2915 30.8065C16.8385 30.8065 17.2819 30.3857 17.2819 29.8665C17.2819 29.8534 17.2784 29.8413 17.2779 29.8284H17.2808V26.5629H17.2806V26.4758C17.2806 25.6053 18.031 24.8932 18.9481 24.8932C19.8652 24.8932 20.6155 25.6053 20.6155 26.4758V28.6529C20.6155 28.6578 20.6148 28.6627 20.6148 28.6676V29.5664C20.6151 29.5662 20.6154 29.566 20.6158 29.5658V29.8284H20.6222C20.6215 29.8423 20.6178 29.8554 20.6178 29.8695C20.6178 30.3886 21.0613 30.8095 21.6082 30.8095C22.1552 30.8095 22.5987 30.3886 22.5987 29.8695C22.5987 29.844 22.5929 29.8201 22.5908 29.7952V26.5629H22.5761C22.5766 26.5436 22.5783 26.5248 22.5783 26.5055C22.5783 24.5986 20.9497 23.0529 18.9407 23.0529C16.9316 23.0529 15.303 24.5986 15.303 26.5055Z" fill="#58C2FF"/>
<path d="M15.2998 20.0643V29.8663C15.2998 30.3861 15.7479 30.8115 16.2956 30.8115C16.8434 30.8115 17.2915 30.3861 17.2915 29.8663V20.0643C17.2915 19.5444 16.8434 19.1191 16.2956 19.1191C15.7479 19.1191 15.2998 19.5444 15.2998 20.0643Z" fill="#58C2FF"/>
<path d="M15.303 26.5054C15.303 26.531 15.3052 26.5561 15.3058 26.5814V29.8213C15.3051 29.8366 15.301 29.851 15.301 29.8664C15.301 30.3856 15.7445 30.8065 16.2915 30.8065C16.8385 30.8065 17.2819 30.3856 17.2819 29.8664C17.2819 29.8534 17.2784 29.8413 17.2779 29.8284L17.2809 26.5629L17.2806 26.4758C17.2806 26.4163 17.2849 26.3578 17.2917 26.2999V23.4307C16.1123 24.0017 15.303 25.1627 15.303 26.5054Z" fill="#5465FC"/>
<path d="M24.8469 20.347V20.4239C24.8469 20.9317 25.3009 21.3626 25.8683 21.3626C26.4033 21.3626 26.8573 20.9317 26.8573 20.4239V20.347C26.8573 19.8084 26.4033 19.3929 25.8683 19.3929C25.3009 19.3929 24.8469 19.8084 24.8469 20.347Z" fill="#FAD668"/>
<path d="M24.8469 23.9286V29.8682C24.8469 30.3914 25.3009 30.8223 25.8683 30.8223C26.4033 30.8223 26.8573 30.3914 26.8573 29.8682V23.9286C26.8573 23.4054 26.4033 22.99 25.8683 22.99C25.3009 22.99 24.8469 23.4054 24.8469 23.9286Z" fill="#FAD668"/>
<path d="M29.1402 23.749L29.1361 26.3759C29.2032 25.6077 29.5869 24.8403 30.1022 24.2722C30.3946 23.9499 30.7375 23.6691 31.1218 23.4456C30.9813 23.0824 30.6085 22.8258 30.1677 22.8258C29.6026 22.8258 29.1402 23.2413 29.1402 23.749Z" fill="#FF3C87"/>
<path d="M29.1325 26.5097C29.1325 26.5352 29.1347 26.5602 29.1353 26.5857L29.1291 29.8249C29.1283 29.8402 29.1305 29.8552 29.1305 29.8706C29.1305 30.3898 29.5739 30.8106 30.121 30.8106C30.668 30.8106 31.1114 30.3898 31.1114 29.8706C31.1114 29.8576 31.1079 29.8455 31.1074 29.8326H31.1103V26.567H31.1101V26.4799C31.1101 25.6095 31.8605 24.8973 32.7776 24.8973C33.6947 24.8973 34.4451 25.6095 34.4451 26.4799V28.6571C34.4451 28.662 34.4443 28.6668 34.4443 28.6718V29.5706C34.4446 29.5703 34.4449 29.5701 34.4453 29.57V29.8326H34.4517C34.451 29.8465 34.4473 29.8595 34.4473 29.8736C34.4473 30.3928 34.8908 30.8136 35.4378 30.8136C35.9848 30.8136 36.4282 30.3928 36.4282 29.8736C36.4282 29.8482 36.4224 29.8243 36.4203 29.7993V26.567H36.4057C36.406 26.5478 36.4078 26.5289 36.4078 26.5097C36.4078 24.6028 34.7792 23.057 32.7702 23.057C30.7611 23.057 29.1325 24.6028 29.1325 26.5097Z" fill="#FF3C87"/>
<path d="M29.1325 26.5097C29.1325 26.5353 29.1347 26.5603 29.1353 26.5857L29.1291 29.825C29.1283 29.8403 29.1305 29.8553 29.1305 29.8707C29.1305 30.3899 29.574 30.8108 30.121 30.8108C30.668 30.8108 31.1114 30.3899 31.1114 29.8707C31.1114 29.8577 31.1079 29.8456 31.1074 29.8327H31.1103V26.5672H31.1101V26.48C31.1101 26.4205 31.1143 26.3621 31.1212 26.3042V23.4349C29.9418 24.006 29.1325 25.167 29.1325 26.5097Z" fill="#C60143"/>
<path d="M44.9711 27.4293C44.734 27.4896 44.5434 27.6259 44.4103 27.799C44.0971 28.3134 43.5794 28.7143 42.9285 28.8798C41.8768 29.1473 40.8017 28.7191 40.2378 27.8926L38.2761 28.3915C38.9192 29.8681 40.4933 30.8075 42.2267 30.8112H42.247C42.6402 30.8104 43.0416 30.7614 43.4419 30.6596C44.6155 30.3611 45.5539 29.6637 46.1289 28.7799C46.2048 28.6445 46.2487 28.4935 46.25 28.3375V28.3234C46.2494 28.2487 46.239 28.173 46.2176 28.0974C46.0981 27.6739 45.6896 27.3954 45.2409 27.3954C45.1519 27.3954 45.0613 27.4064 44.9711 27.4293Z" fill="#58C2FF"/>
<path d="M39.6876 26.3989L40.1179 27.9227L44.5078 26.8063L44.0776 25.2825L39.6876 26.3989Z" fill="#58C2FF"/>
<path d="M41.0731 23.1051C38.8493 23.6707 37.5297 25.8401 38.1255 27.9507C38.1686 28.1034 38.223 28.2502 38.2831 28.3935L40.2409 27.8956C40.1645 27.7597 40.1014 27.6146 40.0576 27.4594C39.7477 26.3616 40.434 25.2331 41.5907 24.9389C42.3288 24.7512 43.079 24.9499 43.6066 25.4026L45.7094 24.8678C44.9566 23.695 43.6038 22.9695 42.1532 22.9695C41.7965 22.9695 41.434 23.0133 41.0731 23.1051Z" fill="#58C2FF"/>
<path d="M37.985 26.832C37.9758 27.2007 38.0185 27.5765 38.1241 27.9507C38.1669 28.1024 38.2207 28.2482 38.2804 28.3907L40.2378 27.8929C40.1621 27.7578 40.0997 27.6135 40.0561 27.4594C39.944 27.0622 39.9639 26.6615 40.0877 26.2972L37.985 26.832Z" fill="#5465FC"/>
<path d="M43.6075 25.4024C43.9066 25.6591 44.1349 25.9966 44.247 26.3938C44.2906 26.548 44.3124 26.7025 44.3181 26.8554L44.807 26.7312C44.813 26.7289 44.8185 26.7278 44.8239 26.7268L44.8573 26.7183C45.5815 26.525 46.0095 25.8148 45.8142 25.1232C45.7898 25.0367 45.7566 24.9546 45.7161 24.8774C45.7141 24.8742 45.7123 24.8708 45.7103 24.8676L43.6075 25.4024Z" fill="#5465FC"/>
</svg>
